<svg xmlns="http://www.w3.org/2000/svg" width="819" height="508">
  <a xlink:href='' id="wtf">
    <path fill="#3C76D4" d="M401.547 219.152v-30.827l-.042-.01-37.679-15.49-9.127 4.068.02.008-.02-.005v42.997c-11.964 3.899-19.849 10.552-19.849 18.107v12c0 12.012 19.923 21.75 44.5 21.75s44.5-9.738 44.5-21.75v-12c0-8.06-8.977-15.09-22.303-18.848z"/>
  </a>
  <a xlink:href='#remuneration' >
    <path fill="#6E9C44" d="M552.412 187.917l-98.22 45.848-19.671 9.188c7.334 8.671 3.5 16.797 3.5 16.797-8.834 20.594-47.172 23.637-47.172 23.637v181.613l159.067-62.499 17.98-.382 52.894-30.101 137.889-78.454 60.321-34.322-43.25-75.14-104.669-51.641-118.544 55.456"/>
  </a>
  <a xlink:href='#generation' >
    <path fill="#6E9C44" d="M659.065 126.529l-138.573-68.529-101.442 7.087-22.067 2.533-106.62 7.691-26 13.346-99.253 76.925 110.919 44.389 58.298 23.572s1.687-.821 1.894-.916c0 0 3.8-8.409 18.477-12.736v-42.997l9.127-4.068 37.721 15.5v30.82s17.127 3.715 21.62 15.047l1.166.644 122.613-56.575.025.01 112.095-51.743z"/>
  </a>
  <a xlink:href='#partage' >
    <path fill="#6E9C44" d="M328.151 271.303c-21.599-15.635-4.809-30.019-4.809-30.019l-167.831-68.39-79.473 61.941-75.339 58.479 65.536 134.26 89.275 26.637 136.186 40.633 72.779-17.93 11.375-5.356-.032-187.542c-30.183-.286-47.637-12.694-47.637-12.694"/>
  </a>
</svg>
