<svg xmlns="http://www.w3.org/2000/svg" xmlns:xlink="http://www.w3.org/1999/xlink" width="819" height="508"><g><polygon fill="#A4B8BB" points="0.699,306.471 66.235,440.73 291.696,508 365.696,489.77 549.696,416.275 567.897,416.275 819,273.398 819,260.242 567.897,403.119 549.696,403.119 365.696,476.613 291.696,494.844 66.235,427.574 0.699,293.314"/><polygon fill="#93A5A8" points="66.235,439.73 66.235,426.574 291.696,493.844 291.696,507"/><rect x="549.696" y="402.119" fill="#93A5A8" width="18.201" height="13.156"/><polygon fill="#D4E0E2" points="66.588,427.158 1.327,293.46 264.67,89.051 290.501,75.802 520.393,58.509 775.393,185.482 818.316,260.057 567.766,402.619 549.696,402.619 549.511,402.655 365.511,476.149 291.709,494.326"/><path fill="#AFBABC" d="M520.293 59.018l254.74 126.845 42.599 74.007-249.999 142.249h-17.938l-.371.071-183.934 73.469-73.669 18.147-224.779-67.065-64.987-133.136 262.948-204.102 25.737-13.211 229.653-17.274m.198-1.018l-230.128 17.311-26 13.346-263.664 204.657 65.535 134.26 225.461 67.27 74-18.229 184-73.494h18.201l251.104-142.879-43.25-75.14-255.259-127.102z"/></g><g><ellipse fill="#7CBEDB" cx="378.122" cy="254.253" rx="60.939" ry="29.784"/><path fill="#8FA3A5" d="M334.85 238c0 12.012 19.923 21.75 44.5 21.75s44.5-9.738 44.5-21.75v12c0 12.012-19.923 21.75-44.5 21.75s-44.5-9.738-44.5-21.75v-12z"/><polygon fill="#7CBEDB" points="671.08,132.461 433.35,243.5 423.85,235.059 659.065,126.529"/><polygon fill="#7CBEDB" points="155.511,172.895 327.039,242.791 338.85,235.358 165.11,165.582"/><polygon fill="#7CBEDB" points="390.85,465 375.85,471.558 375.85,279.5 390.85,279.5"/><ellipse opacity=".1" enable-background="new" cx="379.453" cy="252.104" rx="50.04" ry="24.458"/><ellipse fill="#EEEDEA" cx="379.35" cy="238" rx="44.5" ry="21.75"/><polygon fill="#639DF7" points="354.698,176.893 392.403,192.485 401.53,188.325 363.825,172.825"/><polygon opacity=".1" enable-background="new" points="348.735,234.768 390.795,252.162 411.879,242.644 369.819,225.354"/><polygon fill="#4987ED" points="392.419,249.321 354.698,234.307 354.698,176.896 392.419,192.489"/><polygon fill="#fff" points="386.442,202.542 360.023,191.835 360.023,188.081 386.442,198.978"/><polygon fill="#fff" points="386.442,211.417 360.023,200.71 360.023,196.956 386.442,207.853"/><polygon fill="#fff" points="386.442,220.167 360.023,209.46 360.023,205.706 386.442,216.603"/><polygon fill="#fff" points="386.442,228.71 360.023,218.004 360.023,214.25 386.442,225.147"/><polygon fill="#fff" points="386.442,237.46 360.023,226.754 360.023,223 386.442,233.897"/><polygon fill="#3C76D4" points="401.547,188.325 392.419,192.489 392.419,249.321 401.547,245.162"/><polygon fill="#5D97AF" points="375.85,471.414 375.85,485.569 390.85,479.578 390.85,464.856"/></g><path fill="#6E9C44" d="M546.666 178.601"/><g><g opacity=".02" enable-background="new"><defs><polygon id="a" points="76.235,426.574 10.699,292.314 274.363,87.656 300.363,74.311 530.491,57 785.75,184.102 829,259.242 577.897,402.119 559.696,402.119 375.696,475.613 301.696,493.844"/></defs><clipPath id="b"><use xlink:href="#a" overflow="visible"/></clipPath><g clip-path="url(#b)" stroke="#000" stroke-linejoin="bevel" stroke-miterlimit="10" fill="none"><line x1="-895.405" y1="22.525" x2="263.897" y2="495"/><line x1="-849.227" y1="22.525" x2="310.074" y2="495"/><line x1="-803.048" y1="22.525" x2="356.253" y2="495"/><line x1="-756.87" y1="22.525" x2="402.432" y2="495"/><line x1="-710.692" y1="22.525" x2="448.609" y2="495"/><line x1="-664.514" y1="22.525" x2="494.786" y2="495"/><line x1="-618.335" y1="22.525" x2="540.965" y2="495"/><line x1="-572.157" y1="22.525" x2="587.143" y2="495"/><line x1="-525.979" y1="22.525" x2="633.32" y2="495"/><line x1="-479.801" y1="22.525" x2="679.497" y2="495"/><line x1="-433.623" y1="22.525" x2="725.676" y2="495"/><line x1="-387.444" y1="22.525" x2="771.854" y2="495"/><line x1="-341.266" y1="22.525" x2="818.031" y2="495"/><line x1="-295.088" y1="22.525" x2="864.209" y2="495"/><line x1="-248.91" y1="22.525" x2="910.387" y2="495"/><line x1="-202.731" y1="22.525" x2="956.564" y2="495"/><line x1="-156.553" y1="22.525" x2="1002.741" y2="495"/><line x1="-110.375" y1="22.525" x2="1048.92" y2="495"/><line x1="-64.197" y1="22.525" x2="1095.098" y2="495"/><line x1="-18.019" y1="22.525" x2="1141.275" y2="495"/><line x1="28.16" y1="22.525" x2="1187.452" y2="495"/><line x1="74.338" y1="22.525" x2="1233.631" y2="495"/><line x1="120.516" y1="22.525" x2="1279.809" y2="495"/><line x1="166.694" y1="22.525" x2="1325.986" y2="495"/><line x1="212.873" y1="22.525" x2="1372.163" y2="495"/><line x1="259.051" y1="22.525" x2="1418.342" y2="495"/><line x1="305.229" y1="22.525" x2="1464.52" y2="495"/><line x1="351.406" y1="22.525" x2="1510.697" y2="495"/><line x1="397.585" y1="22.525" x2="1556.875" y2="495"/><line x1="443.764" y1="22.525" x2="1603.053" y2="495"/><line x1="351.406" y1="23.005" x2="-655.94" y2="495.479"/><line x1="397.585" y1="23.005" x2="-609.762" y2="495.479"/><line x1="443.764" y1="23.005" x2="-563.584" y2="495.479"/><line x1="489.941" y1="23.005" x2="-517.406" y2="495.479"/><line x1="536.118" y1="23.005" x2="-471.228" y2="495.479"/><line x1="582.297" y1="23.005" x2="-425.049" y2="495.479"/><line x1="628.475" y1="23.005" x2="-378.871" y2="495.479"/><line x1="674.652" y1="23.005" x2="-332.693" y2="495.479"/><line x1="720.829" y1="23.005" x2="-286.515" y2="495.479"/><line x1="767.008" y1="23.005" x2="-240.336" y2="495.479"/><line x1="813.186" y1="23.005" x2="-194.158" y2="495.479"/><line x1="859.363" y1="23.005" x2="-147.98" y2="495.479"/><line x1="905.541" y1="23.005" x2="-101.802" y2="495.479"/><line x1="951.719" y1="23.005" x2="-55.624" y2="495.479"/><line x1="997.896" y1="23.005" x2="-9.445" y2="495.479"/><line x1="1044.073" y1="23.005" x2="36.733" y2="495.479"/><line x1="1090.252" y1="23.005" x2="82.911" y2="495.479"/><line x1="1136.43" y1="23.005" x2="129.089" y2="495.479"/><line x1="1182.607" y1="23.005" x2="175.268" y2="495.479"/><line x1="1228.784" y1="23.005" x2="221.446" y2="495.479"/><line x1="1274.963" y1="23.005" x2="267.624" y2="495.479"/><line x1="1321.141" y1="23.005" x2="313.802" y2="495.479"/><line x1="1367.318" y1="23.005" x2="359.98" y2="495.479"/></g></g><polygon points="552.536,187.917 592.467,200.247 616.906,232.097 758.68,293.564 819,259.242 775.75,184.102 671.08,132.461" fill="none"/></g><g><polygon fill="#B9CACC" points="199.564,221.213 214.064,214.431 196.314,207.213 181.872,214.008"/><polygon fill="#A4B5B7" points="196.314,207.838 196.314,209.171 211.84,215.471 214.064,214.431 196.314,207.213"/><path fill="#A4B5B7" d="M181.872 214.008"/><polygon fill="#93A5A8" points="184.11,214.919 196.314,209.171 196.314,207.213 181.872,214.008"/><polygon fill="#B2C1C4" points="177.428,215.241 178.332,213.526 180.452,213.793 178.952,214.334 178.577,215.751"/><polygon fill="#9EB0B2" points="180.452,215.751 180.452,213.793 178.952,214.334"/><polygon fill="#93A5A8" points="178.577,215.751 178.952,214.334 180.452,215.751"/><polygon fill="#B2C1C4" points="214.064,212.781 214.968,211.066 217.088,211.333 215.588,211.874 215.213,213.291"/><polygon fill="#9EB0B2" points="217.088,213.291 217.088,211.333 215.588,211.874"/><polygon fill="#93A5A8" points="215.213,213.291 215.588,211.874 217.088,213.291"/><polygon fill="#B9CACC" points="323.404,423.983 337.904,417.202 320.154,409.983 305.712,416.778"/><polygon fill="#A4B5B7" points="320.154,410.609 320.154,411.942 335.68,418.241 337.904,417.202 320.154,409.983"/><path fill="#A4B5B7" d="M305.712 416.778"/><polygon fill="#93A5A8" points="307.949,417.69 320.154,411.942 320.154,409.983 305.712,416.778"/><polygon fill="#B2C1C4" points="301.268,418.013 302.172,416.298 304.292,416.562 302.792,417.105 302.417,418.522"/><polygon fill="#9EB0B2" points="304.292,418.522 304.292,416.562 302.792,417.105"/><polygon fill="#93A5A8" points="302.417,418.522 302.792,417.105 304.292,418.522"/><polygon fill="#B2C1C4" points="337.904,415.552 338.808,413.837 340.928,414.104 339.428,414.646 339.053,416.062"/><polygon fill="#9EB0B2" points="340.928,416.062 340.928,414.104 339.428,414.646"/><polygon fill="#93A5A8" points="339.053,416.062 339.428,414.646 340.928,416.062"/><polygon fill="#B9CACC" points="78.042,322.1 92.542,315.318 74.792,308.1 60.35,314.895"/><polygon fill="#A4B5B7" points="74.792,308.727 74.792,310.059 90.318,316.357 92.542,315.318 74.792,308.1"/><path fill="#A4B5B7" d="M60.35 314.895"/><polygon fill="#93A5A8" points="62.587,315.807 74.792,310.059 74.792,308.1 60.35,314.895"/><polygon fill="#B2C1C4" points="55.906,316.129 56.81,314.414 58.929,314.68 57.429,315.223 57.054,316.639"/><polygon fill="#9EB0B2" points="58.929,316.639 58.929,314.68 57.429,315.223"/><polygon fill="#93A5A8" points="57.054,316.639 57.429,315.223 58.929,316.639"/><polygon fill="#B2C1C4" points="92.542,313.668 93.446,311.953 95.565,312.221 94.065,312.762 93.69,314.178"/><polygon fill="#9EB0B2" points="95.565,314.178 95.565,312.221 94.065,312.762"/><polygon fill="#93A5A8" points="93.69,314.178 94.065,312.762 95.565,314.178"/><polygon fill="#B9CACC" points="296.685,110.74 311.185,103.959 293.435,96.74 278.993,103.535"/><polygon fill="#A4B5B7" points="293.435,97.366 293.435,98.699 308.961,104.998 311.185,103.959 293.435,96.74"/><path fill="#A4B5B7" d="M278.993 103.535"/><polygon fill="#93A5A8" points="281.23,104.447 293.435,98.699 293.435,96.74 278.993,103.535"/><polygon fill="#B2C1C4" points="274.549,104.77 275.453,103.055 277.572,103.32 276.072,103.862 275.697,105.279"/><polygon fill="#9EB0B2" points="277.572,105.279 277.572,103.32 276.072,103.862"/><polygon fill="#93A5A8" points="275.697,105.279 276.072,103.862 277.572,105.279"/><polygon fill="#B2C1C4" points="311.185,102.309 312.089,100.594 314.207,100.86 312.707,101.402 312.332,102.818"/><polygon fill="#9EB0B2" points="314.207,102.818 314.207,100.86 312.707,101.402"/><polygon fill="#93A5A8" points="312.332,102.818 312.707,101.402 314.207,102.818"/><polygon fill="#B9CACC" points="397.521,150.941 412.021,144.16 394.271,136.941 379.827,143.736"/><polygon fill="#A4B5B7" points="394.271,137.567 394.271,138.9 409.796,145.199 412.021,144.16 394.271,136.941"/><path fill="#A4B5B7" d="M379.827 143.736"/><polygon fill="#93A5A8" points="382.065,144.648 394.271,138.9 394.271,136.941 379.827,143.736"/><polygon fill="#B2C1C4" points="375.384,144.97 376.287,143.255 378.407,143.521 376.907,144.063 376.532,145.48"/><polygon fill="#9EB0B2" points="378.407,145.48 378.407,143.521 376.907,144.063"/><polygon fill="#93A5A8" points="376.532,145.48 376.907,144.063 378.407,145.48"/><polygon fill="#B2C1C4" points="412.021,142.509 412.926,140.794 415.045,141.061 413.545,141.603 413.17,143.019"/><polygon fill="#9EB0B2" points="415.045,143.019 415.045,141.061 413.545,141.603"/><polygon fill="#93A5A8" points="413.17,143.019 413.545,141.603 415.045,143.019"/><polygon fill="#B9CACC" points="568.75,119.116 583.25,112.335 565.5,105.116 551.06,111.911"/><polygon fill="#A4B5B7" points="565.5,105.742 565.5,107.075 581.026,113.374 583.25,112.335 565.5,105.116"/><path fill="#A4B5B7" d="M551.06 111.911"/><polygon fill="#93A5A8" points="553.297,112.823 565.5,107.075 565.5,105.116 551.06,111.911"/><polygon fill="#B2C1C4" points="546.615,113.146 547.519,111.431 549.639,111.696 548.139,112.238 547.764,113.655"/><polygon fill="#9EB0B2" points="549.639,113.655 549.639,111.696 548.139,112.238"/><polygon fill="#93A5A8" points="547.764,113.655 548.139,112.238 549.639,113.655"/><polygon fill="#B2C1C4" points="583.25,110.685 584.155,108.97 586.274,109.236 584.774,109.778 584.399,111.194"/><polygon fill="#9EB0B2" points="586.274,111.194 586.274,109.236 584.774,109.778"/><polygon fill="#93A5A8" points="584.399,111.194 584.774,109.778 586.274,111.194"/><polygon fill="#B9CACC" points="524.606,371.657 539.106,364.876 521.356,357.657 506.914,364.452"/><polygon fill="#A4B5B7" points="521.356,358.283 521.356,359.616 536.882,365.915 539.106,364.876 521.356,357.657"/><path fill="#A4B5B7" d="M506.914 364.452"/><polygon fill="#93A5A8" points="509.152,365.364 521.356,359.616 521.356,357.657 506.914,364.452"/><polygon fill="#B2C1C4" points="502.471,365.688 503.373,363.973 505.493,364.236 503.993,364.779 503.618,366.195"/><polygon fill="#9EB0B2" points="505.493,366.195 505.493,364.236 503.993,364.779"/><polygon fill="#93A5A8" points="503.618,366.195 503.993,364.779 505.493,366.195"/><polygon fill="#B2C1C4" points="539.106,363.227 540.011,361.511 542.13,361.777 540.63,362.318 540.255,363.734"/><polygon fill="#9EB0B2" points="542.13,363.734 542.13,361.777 540.63,362.318"/><polygon fill="#93A5A8" points="540.255,363.734 540.63,362.318 542.13,363.734"/><polygon fill="#B9CACC" points="527.037,241.43 541.537,234.648 523.787,227.43 509.347,234.225"/><polygon fill="#A4B5B7" points="523.787,228.056 523.787,229.389 539.313,235.688 541.537,234.648 523.787,227.43"/><path fill="#A4B5B7" d="M509.347 234.225"/><polygon fill="#93A5A8" points="511.584,235.137 523.787,229.389 523.787,227.43 509.347,234.225"/><polygon fill="#B2C1C4" points="504.902,235.459 505.806,233.744 507.926,234.01 506.426,234.552 506.051,235.969"/><polygon fill="#9EB0B2" points="507.926,235.969 507.926,234.01 506.426,234.552"/><polygon fill="#93A5A8" points="506.051,235.969 506.426,234.552 507.926,235.969"/><polygon fill="#B2C1C4" points="541.537,232.998 542.442,231.283 544.562,231.55 543.062,232.092 542.687,233.508"/><polygon fill="#9EB0B2" points="544.562,233.508 544.562,231.55 543.062,232.092"/><polygon fill="#93A5A8" points="542.687,233.508 543.062,232.092 544.562,233.508"/><polygon fill="#B9CACC" points="726.703,192.014 741.203,185.233 723.453,178.014 709.013,184.809"/><polygon fill="#A4B5B7" points="723.453,178.64 723.453,179.973 738.979,186.272 741.203,185.233 723.453,178.014"/><path fill="#A4B5B7" d="M709.013 184.809"/><polygon fill="#93A5A8" points="711.25,185.721 723.453,179.973 723.453,178.014 709.013,184.809"/><polygon fill="#B2C1C4" points="704.568,186.043 705.472,184.329 707.592,184.594 706.092,185.136 705.717,186.553"/><polygon fill="#9EB0B2" points="707.592,186.553 707.592,184.594 706.092,185.136"/><polygon fill="#93A5A8" points="705.717,186.553 706.092,185.136 707.592,186.553"/><polygon fill="#B2C1C4" points="741.203,183.583 742.108,181.868 744.228,182.134 742.728,182.676 742.353,184.092"/><polygon fill="#9EB0B2" points="744.228,184.092 744.228,182.134 742.728,182.676"/><polygon fill="#93A5A8" points="742.353,184.092 742.728,182.676 744.228,184.092"/></g><g><linearGradient id="c" gradientUnits="userSpaceOnUse" x1="569.253" y1="350.298" x2="551.197" y2="350.298" gradientTransform="matrix(1 0 0 -1 -8.36 532.055)"><stop offset="0" stop-color="#DEDEDE"/><stop offset="1" stop-color="#A0A0A0"/></linearGradient><path opacity=".2" fill="url(#c)" enable-background="new" d="M560.894 184.226l-4.119 1.986-13.938-5.75 4.176-1.838c0-.001 6.768-5.383 13.881 5.602z"/><path fill="#36444A" d="M546.88 178.415s6.889-5.469 14.014 5.811l7.007-3.068c-7.125-11.28-14.014-5.811-14.014-5.811l-7.007 3.068z"/><path fill="#EAEAE9" d="M546.88 178.623s6.889-5.469 14.014 5.811v-2.191c-6.815-10.281-14.014-5.153-14.014-5.153v1.533z"/><path fill="#EAEAE9" d="M553.887 175.373s6.889-5.469 14.014 5.811v-2.191c-6.814-10.281-14.014-5.153-14.014-5.153v1.533z"/><linearGradient id="d" gradientUnits="userSpaceOnUse" x1="543.257" y1="313.982" x2="562.565" y2="313.982" gradientTransform="matrix(-1 0 0 -1 835.243 532.055)"><stop offset="0" stop-color="#DEDEDE"/><stop offset="1" stop-color="#A0A0A0"/></linearGradient><path opacity=".2" fill="url(#d)" enable-background="new" d="M272.678 220.77l4.656 1.766 14.651-6-4.552-1.828c.001.001-7.644-4.923-14.755 6.062z"/><path fill="#36444A" d="M297.676 218.651s-7.137-5.141-13.727 6.459l-7.144-2.737c6.59-11.601 13.728-6.459 13.728-6.459l7.143 2.737z"/><path fill="#EAEAE9" d="M297.686 218.859s-7.137-5.142-13.727 6.459l-.104-2.189c6.328-10.588 13.758-5.803 13.758-5.803l.073 1.533z"/><path fill="#EAEAE9" d="M290.535 215.94s-7.138-5.142-13.728 6.459l-.103-2.189c6.328-10.588 13.757-5.803 13.757-5.803l.074 1.533z"/><path fill="#fff" d="M375.85 344.5s6.15-7.166 15 0v-1.593c-8.85-7.166-15 0-15 0v1.593z"/><linearGradient id="e" gradientUnits="userSpaceOnUse" x1="391.71" y1="193.8" x2="391.71" y2="185.929" gradientTransform="matrix(1 0 0 -1 -8.36 532.055)"><stop offset="0" stop-color="#DEDEDE"/><stop offset="1" stop-color="#A0A0A0"/></linearGradient><path opacity=".2" fill="url(#e)" enable-background="new" d="M375.85 343.033v-1.594s6.15-7.166 15 0v4.686h-15v-3.092z"/><path fill="#fff" d="M375.85 337.875s6.15-7.166 15 0v-1.593c-8.85-7.166-15 0-15 0v1.593z"/><path fill="#36444A" d="M375.85 342.907s6.15-7.166 15 0v-5.062c-8.85-7.166-15 0-15 0v5.062z"/></g><path opacity=".5" fill="#B9CACC" d="M510.258 134.396c9.393-4.762 13.688-10.205 15.477-14.741.983-2.132 0-3.899-3.131-5.487l-16.729-8.482c-3.13-1.587-7.962-1.587-11.093 0l-17.443 8.844c-2.686 1.36-2.773 3.583-.09 4.944 2.684 1.36 6.977 1.269 9.66-.091l12.347-6.259 11.718 5.942c-.983 3.401-4.474 7.075-10.376 10.068-12.792 6.485-30.774 5.987-43.656-.545l-.179-.09c-11.988-6.078-13.33-15.647-1.789-21.498 6.798-3.446 13.149-4.671 20.127-5.215 1.521-.136 3.222-.364 4.652-1.088 3.041-1.542 2.951-4.037 0-5.533-2.147-1.088-4.831-1.27-6.709-1.134-9.84.816-18.34 2.857-27.731 7.62-18.877 9.568-17.446 23.901.09 32.789l.178.092c18.246 9.252 45.085 9.796 64.677-.136z"/><path opacity=".5" fill="#B9CACC" d="M601.476 330.026c3.455 1.726 8.942 1.726 12.498-.051 3.455-1.728 3.455-4.471 0-6.198l-19.104-9.553 15.751-7.874 39.324 2.388c3.353.254 6.504 0 9.349-1.423 3.047-1.524 3.658-4.166.203-5.893-1.931-.967-4.064-1.221-6.809-1.371l-30.788-1.779c6.604-6.249 6.3-13.007-5.08-18.695l-.204-.1c-6.197-3.1-13.615-4.672-21.236-4.725-9.043.053-18.698 2.234-27.639 6.703l-25.404 12.701c-3.557 1.778-3.557 4.521 0 6.299l59.139 29.571zm-17.682-21.338l-23.878-11.938 18.188-9.096c9.246-4.621 18.899-5.282 26.521-1.473l.204.102c7.214 3.606 6.197 8.79-2.744 13.262l-18.291 9.143z"/><path opacity=".5" fill="#B9CACC" d="M241.279 338.636c3.651 1.825 9.45 1.825 13.21-.054 3.65-1.826 3.65-4.725 0-6.551l-18.15-9.075 14.928-7.464c16.539-8.27 21.264-19.438 4.403-27.868l-.215-.107c-15.143-7.571-36.084-7.088-53.696 1.718l-22.982 11.491c-3.76 1.88-3.76 4.779 0 6.659l62.502 31.251zm-16.86-21.64l-27.064-13.531 15.357-7.68c9.881-4.939 20.835-5.799 29.641-1.396l.215.107c7.84 3.92 7.195 9.826-2.791 14.82l-15.358 7.68z"/></svg>