<svg xmlns="http://www.w3.org/2000/svg" xmlns:xlink="http://www.w3.org/1999/xlink" width="819" height="508"><polygon fill="#6E9C44" points="165.11,165.582 276.03,209.971 332.562,184.226 369.688,144.383 403.697,117.797 392.14,96.553 396.983,67.62 290.363,75.311 264.363,88.656"/><defs><polygon id="a" points="165.11,165.582 276.03,209.971 332.562,184.226 369.688,144.383 403.697,117.797 392.14,96.553 396.983,67.62 290.363,75.311 264.363,88.656"/></defs><clipPath id="b"><use xlink:href="#a" overflow="visible"/></clipPath><g opacity=".02" clip-path="url(#b)"><defs><polygon id="c" opacity=".02" points="63.206,420.252 -2.331,285.992 261.333,81.333 287.333,67.988 517.463,50.677 772.721,177.779 815.971,252.919 564.867,395.797 546.666,395.797 362.667,469.291 288.667,487.521"/></defs><clipPath id="d"><use xlink:href="#c" overflow="visible"/></clipPath><g clip-path="url(#d)" stroke="#000" stroke-linejoin="bevel" stroke-miterlimit="10" fill="none"><line x1="-908.435" y1="16.203" x2="250.867" y2="488.678"/><line x1="-862.256" y1="16.203" x2="297.045" y2="488.678"/><line x1="-816.078" y1="16.203" x2="343.224" y2="488.678"/><line x1="-769.9" y1="16.203" x2="389.402" y2="488.678"/><line x1="-723.722" y1="16.203" x2="435.58" y2="488.678"/><line x1="-677.543" y1="16.203" x2="481.758" y2="488.678"/><line x1="-631.365" y1="16.203" x2="527.936" y2="488.678"/><line x1="-585.187" y1="16.203" x2="574.113" y2="488.678"/><line x1="-539.009" y1="16.203" x2="620.291" y2="488.678"/><line x1="-492.831" y1="16.203" x2="666.469" y2="488.678"/><line x1="-446.652" y1="16.203" x2="712.646" y2="488.678"/><line x1="-400.474" y1="16.203" x2="758.824" y2="488.678"/><line x1="-354.296" y1="16.203" x2="805.002" y2="488.678"/><line x1="-308.118" y1="16.203" x2="851.18" y2="488.678"/><line x1="-261.939" y1="16.203" x2="897.357" y2="488.678"/><line x1="-215.761" y1="16.203" x2="943.535" y2="488.678"/><line x1="-169.583" y1="16.203" x2="989.713" y2="488.678"/><line x1="-123.405" y1="16.203" x2="1035.891" y2="488.678"/><line x1="-77.227" y1="16.203" x2="1082.068" y2="488.678"/><line x1="-31.048" y1="16.203" x2="1128.246" y2="488.678"/><line x1="15.13" y1="16.203" x2="1174.424" y2="488.678"/><line x1="61.308" y1="16.203" x2="1220.602" y2="488.678"/><line x1="107.486" y1="16.203" x2="1266.779" y2="488.678"/><line x1="153.665" y1="16.203" x2="1312.957" y2="488.678"/><line x1="199.843" y1="16.203" x2="1359.135" y2="488.678"/><line x1="246.021" y1="16.203" x2="1405.312" y2="488.678"/><line x1="292.199" y1="16.203" x2="1451.49" y2="488.678"/><line x1="338.377" y1="16.203" x2="1497.668" y2="488.678"/><line x1="384.556" y1="16.203" x2="1543.846" y2="488.678"/><line x1="430.734" y1="16.203" x2="1590.023" y2="488.678"/><line x1="338.377" y1="16.682" x2="-668.97" y2="489.156"/><line x1="384.556" y1="16.682" x2="-622.792" y2="489.156"/><line x1="430.734" y1="16.682" x2="-576.614" y2="489.156"/><line x1="476.912" y1="16.682" x2="-530.436" y2="489.156"/><line x1="523.09" y1="16.682" x2="-484.257" y2="489.156"/><line x1="569.268" y1="16.682" x2="-438.079" y2="489.156"/><line x1="615.445" y1="16.682" x2="-391.901" y2="489.156"/><line x1="661.623" y1="16.682" x2="-345.723" y2="489.156"/><line x1="707.801" y1="16.682" x2="-299.544" y2="489.156"/><line x1="753.979" y1="16.682" x2="-253.366" y2="489.156"/><line x1="800.156" y1="16.682" x2="-207.188" y2="489.156"/><line x1="846.334" y1="16.682" x2="-161.01" y2="489.156"/><line x1="892.512" y1="16.682" x2="-114.832" y2="489.156"/><line x1="938.689" y1="16.682" x2="-68.653" y2="489.156"/><line x1="984.867" y1="16.682" x2="-22.475" y2="489.156"/><line x1="1031.045" y1="16.682" x2="23.703" y2="489.156"/><line x1="1077.223" y1="16.682" x2="69.881" y2="489.156"/><line x1="1123.4" y1="16.682" x2="116.06" y2="489.156"/><line x1="1169.578" y1="16.682" x2="162.238" y2="489.156"/><line x1="1215.756" y1="16.682" x2="208.416" y2="489.156"/><line x1="1261.934" y1="16.682" x2="254.594" y2="489.156"/><line x1="1308.111" y1="16.682" x2="300.772" y2="489.156"/><line x1="1354.289" y1="16.682" x2="346.951" y2="489.156"/></g></g><polygon opacity=".1" points="233.694,176.255 230.588,173.021 202.002,169.788 196.44,159.438 206.4,143.528 249.475,137.19 266.421,148.961 258.013,169.917"/><polygon fill="#A3BE5F" points="233.644,167.119 230.834,164.191 204.957,161.264 199.922,151.898 208.938,137.495 247.93,131.757 263.267,142.413 255.657,161.381"/><polygon fill="#F1E0A6" points="263.267,147.77 255.657,166.738 233.644,172.476 230.834,169.549 204.957,166.621 199.922,157.254 199.922,153.771 204.957,163.138 230.834,166.065 233.644,168.993 255.657,163.255 263.267,144.286"/><polygon fill="#969F5A" points="199.922,153.771 204.957,163.138 230.834,166.065 233.644,168.993 255.657,163.255 263.267,144.286 263.267,142.413 255.657,161.381 233.644,167.119 230.834,164.191 204.957,161.264 199.922,151.898"/><polygon fill="#747E42" points="204.957,163.138 204.957,161.264 230.834,164.191 230.834,166.065"/><polygon fill="#747E42" points="233.644,167.119 233.644,168.993 255.657,163.255 255.657,161.381"/><polygon fill="#D7CA93" points="204.957,163.138 204.957,166.621 230.834,169.549 230.834,166.065"/><polygon fill="#D7CA93" points="233.644,172.476 233.644,168.993 255.657,163.255 255.657,166.738"/><polyline fill="#485157" points="295.565,140.578 231.431,114.219 225.829,118.522 290.755,144.782"/><polygon opacity=".1" points="302.812,88.679 328.209,99.29 348.322,90.173 323.197,79.741"/><polygon fill="#fff" points="309.395,89.29 309.395,75.093 328.227,82.881 328.227,97.331"/><polygon fill="#E5DBDE" points="339.295,77.923 328.211,82.881 328.227,97.331 339.326,92.31"/><polygon fill="#DC5A38" points="309.395,75.087 319.645,67.296 331.436,72.164 328.195,82.89"/><polygon fill="#C14F34" points="339.311,77.923 331.436,72.164 328.227,82.881"/><polygon fill="#A9C7F7" points="322.406,89.235 325.406,90.672 325.406,86.631 322.406,85.36"/><polygon fill="#A9C7F7" points="311.447,84.235 314.447,85.672 314.447,81.631 311.447,80.36"/><polygon opacity=".1" points="329.317,145.269 302.75,157.795 281.155,148.562 307.485,136.564"/><polygon fill="#fff" points="289.61,149.041 289.61,134.77 302.713,140.202 302.713,154.689"/><polygon fill="#E5DBDE" points="319.528,132.691 302.713,140.212 302.713,154.689 319.528,146.931"/><polygon fill="#DC5A38" points="289.61,134.79 298.36,128.646 302.715,140.207"/><polygon fill="#8A6D56" points="309.813,151.414 306.813,152.709 306.813,145.455 309.813,144.101"/><polyline fill="#C14F34" points="302.715,140.207 319.528,132.686 310.508,123.116 298.36,128.646 302.715,140.207"/><polygon opacity=".1" points="250.017,180.814 287.311,196.67 320.79,181.61 283,165.913"/><polygon fill="#E0C977" points="255.205,175.37 286.987,188.479 314.263,176.219 282.335,163.125"/><polygon fill="#C2AA5C" points="262.796,174.979 263.634,175.325 264.354,175.002 263.51,174.656"/><polygon fill="#F7DE8B" points="286.987,194.934 255.178,181.341 255.178,175.325 286.987,188.41"/><polygon fill="#C2AA5C" points="314.236,176.174 286.96,188.434 286.96,194.959 314.236,182.528"/><g fill="#E0C977"><polygon points="290.927,193.148 292.262,192.539 292.262,186.045 290.927,186.642"/><polygon points="305.577,186.471 306.913,185.862 306.913,179.451 305.577,180.047"/><polygon points="295.078,191.295 295.746,190.955 295.746,184.491 295.078,184.789"/><polygon points="298.215,189.874 298.882,189.534 298.882,183.069 298.215,183.368"/><polygon points="299.281,189.36 299.947,189.02 299.947,182.556 299.281,182.854"/><polygon points="312.655,183.306 313.322,182.966 313.322,176.604 312.655,176.903"/><polygon points="307.702,185.566 308.37,185.226 308.37,178.864 307.702,179.163"/></g><g fill="#E0C977"><polygon points="281.017,192.344 279.682,191.736 279.682,185.243 281.017,185.839"/><polygon points="266.366,185.973 265.03,185.364 265.03,179.451 266.366,180.047"/><polygon points="276.866,190.493 276.199,190.152 276.199,183.977 276.866,184.276"/><polygon points="273.73,189.241 273.062,188.901 273.062,182.712 273.73,183.01"/><polygon points="272.664,188.727 271.996,188.387 271.996,182.266 272.664,182.565"/><polygon points="259.29,183.069 258.622,182.729 258.622,176.79 259.29,177.089"/><polygon points="264.242,185.104 263.574,184.764 263.574,178.715 264.242,179.014"/></g><polygon fill="#C2AA5C" points="268.412,176.779 269.251,177.125 269.97,176.801 269.128,176.456"/><polygon fill="#C2AA5C" points="271.996,173.128 272.835,173.474 273.553,173.151 272.712,172.805"/><polygon fill="#C2AA5C" points="282.094,166.346 282.932,166.691 283.651,166.368 282.809,166.022"/><polygon fill="#C2AA5C" points="297.247,173.92 298.085,174.266 298.805,173.942 297.963,173.597"/><polygon fill="#C2AA5C" points="291.485,176.129 292.307,176.511 293.041,176.219 292.214,175.837"/><polygon fill="#C2AA5C" points="289.465,173.463 290.305,173.809 291.022,173.485 290.181,173.14"/><polygon fill="#C2AA5C" points="281.315,171.488 282.153,171.834 282.873,171.511 282.031,171.165"/><polygon fill="#C2AA5C" points="281.315,177.113 282.153,177.459 282.873,177.136 282.031,176.79"/><polygon fill="#C2AA5C" points="291.484,179.031 292.321,179.376 293.042,179.053 292.199,178.708"/><polygon fill="#C2AA5C" points="282.873,183.295 283.711,183.64 284.431,183.317 283.589,182.972"/><polygon fill="#C2AA5C" points="285.402,174.979 286.24,175.325 286.96,175.002 286.118,174.656"/><polygon fill="#C2AA5C" points="305.467,176.163 306.306,176.509 307.023,176.185 306.183,175.84"/><polygon fill="#C2AA5C" points="301.026,177.113 301.863,177.459 302.584,177.136 301.74,176.79"/><polygon fill="#C2AA5C" points="289.465,169.04 290.305,169.386 291.022,169.062 290.181,168.717"/><polygon fill="#C2AA5C" points="276.866,169.375 277.704,169.72 278.424,169.396 277.581,169.051"/><polygon fill="#C2AA5C" points="276.866,179.031 277.704,179.376 278.424,179.053 277.581,178.708"/><polygon opacity=".1" points="308.994,163.458 315.653,166.289 321.631,163.599 314.883,160.796"/><polygon fill="#A65C26" points="312.746,163.86 315.687,165.128 315.687,158.284 313.683,158.284"/><polygon fill="#8F4A1B" points="315.687,165.128 318.392,163.719 317.558,158.865 315.687,158.699"/><polygon fill="#578034" points="315.748,161.398 309.744,158.807 315.748,146.24"/><polygon fill="#4F6E32" points="315.708,161.398 321.077,159.081 315.708,146.24"/><polygon opacity=".1" points="343.606,79.957 357.949,86.054 370.825,80.262 356.292,74.225"/><polygon fill="#A55E28" points="352.631,80.879 357.817,83.307 357.817,73.924 354.693,72.004"/><polygon fill="#914A16" points="357.817,83.307 362.756,80.816 361.131,73.129 357.817,74.443"/><polygon fill="#BBD260" points="357.878,75.577 346.381,70.629 357.878,42.377"/><polygon fill="#99AF41" points="357.837,75.577 369.131,70.691 357.837,42.377"/><polygon opacity=".1" points="296.696,112.335 315.701,103.447 292.437,93.985 273.508,102.892"/><polygon fill="#91BE68" points="296.714,107.719 311.214,100.938 293.464,93.719 279.023,100.514"/><polygon fill="#548628" points="279.023,102.141 279.023,103.473 296.774,110.705 296.773,107.732 279.023,100.514"/><path fill="#A4B5B7" d="M279.023 101.514"/><polygon fill="#4B722E" points="296.774,110.705 311.215,103.855 311.215,100.896 296.774,107.691"/><polygon fill="#706D6E" points="283.827,99.836 296.774,105.11 296.773,93.139 283.838,87.878"/><path fill="#A4B5B7" d="M279.023 95.92"/><polygon fill="#5C5858" points="296.774,105.11 307.331,100.111 307.331,88.195 296.774,93.098"/><polygon fill="#CDCDCC" points="296.744,93.146 307.331,88.195 294.37,82.926 283.827,87.887"/><path fill="#A4B5B7" d="M283.695 84.475"/><polygon opacity=".1" points="310.769,118.532 319.175,122.106 326.722,118.711 318.205,115.173"/><polygon fill="#A65C26" points="316.202,118.678 319.143,119.945 319.143,109.124 317.672,109.222"/><polygon fill="#8F4A1B" points="319.143,119.945 321.848,118.536 320.496,108.597 319.143,109.962"/><polygon fill="#578034" points="319.204,111.215 313.199,108.625 319.204,76.794"/><polygon fill="#4F6E32" points="319.164,111.215 324.533,108.898 319.164,76.794"/><polygon opacity=".1" points="247.823,115.965 273.22,126.576 293.333,117.459 268.208,107.027"/><polygon fill="#fff" points="254.405,116.576 254.405,102.379 273.237,110.167 273.237,124.617"/><polygon fill="#E5DBDE" points="284.306,105.209 273.222,110.167 273.237,124.617 284.337,119.596"/><polygon fill="#DC5A38" points="254.405,102.373 264.655,94.582 276.446,99.45 273.206,110.176"/><polygon fill="#C14F34" points="284.321,105.209 276.446,99.45 273.237,110.167"/><polygon fill="#A9C7F7" points="267.417,116.521 270.417,117.958 270.417,113.917 267.417,112.646"/><polygon fill="#A9C7F7" points="256.458,111.521 259.458,112.958 259.458,108.917 256.458,107.646"/><polyline opacity=".1" points="207.574,139.674 229.436,129.711 255.508,140.107 223.781,155.066 203.39,146.349"/><polygon fill="#86D5EA" points="259.198,148.464 245.469,154.937 234.311,150.166 247.917,143.966"/><polygon fill="#fff" points="208.089,144.611 208.089,127.568 223.738,134.056 223.738,151.358"/><polygon fill="#E5DBDE" points="243.818,125.086 223.738,134.068 223.738,151.358 243.818,142.092"/><polygon fill="#DC5A38" points="208.089,127.593 218.539,120.256 223.739,134.062"/><polygon fill="#8A6D56" points="232.215,147.446 228.633,148.993 228.633,140.33 232.215,138.712"/><polyline fill="#C14F34" points="223.739,134.062 243.818,125.08 233.046,113.651 218.539,120.256 223.739,134.062"/><polygon opacity=".1" points="230.499,157.631 237.158,160.462 243.137,157.773 236.389,154.97"/><polygon fill="#A65C26" points="234.251,158.034 237.192,159.302 237.192,152.458 235.188,152.458"/><polygon fill="#8F4A1B" points="237.192,159.302 239.897,157.893 239.063,153.039 237.192,152.873"/><polygon fill="#578034" points="237.253,155.572 231.249,152.981 237.253,140.414"/><polygon fill="#4F6E32" points="237.213,155.572 242.582,153.255 237.213,140.414"/><polygon opacity=".1" points="204.454,155.625 212.86,159.199 220.407,155.804 211.89,152.266"/><polygon fill="#A65C26" points="209.887,155.771 212.828,157.038 212.828,146.216 211.357,146.314"/><polygon fill="#8F4A1B" points="212.828,157.038 215.533,155.629 214.181,145.689 212.828,147.055"/><polygon fill="#578034" points="212.889,148.308 206.884,145.717 212.889,113.887"/><polygon fill="#4F6E32" points="212.849,148.308 218.218,145.991 212.849,113.887"/></svg>