<svg xmlns="http://www.w3.org/2000/svg" xmlns:xlink="http://www.w3.org/1999/xlink" width="819" height="508"><polygon fill="#6E9C44" points="165.11,165.582 276.03,209.971 332.562,184.226 369.688,144.383 403.697,117.797 392.14,96.553 396.983,67.62 290.363,75.311 264.363,88.656"/><defs><polygon id="a" points="165.11,165.582 276.03,209.971 332.562,184.226 369.688,144.383 403.697,117.797 392.14,96.553 396.983,67.62 290.363,75.311 264.363,88.656"/></defs><clipPath id="b"><use xlink:href="#a" overflow="visible"/></clipPath><g opacity=".02" clip-path="url(#b)"><defs><polygon id="c" opacity=".02" points="63.206,420.252 -2.331,285.992 261.333,81.333 287.333,67.988 517.463,50.677 772.721,177.779 815.971,252.919 564.867,395.797 546.666,395.797 362.667,469.291 288.667,487.521"/></defs><clipPath id="d"><use xlink:href="#c" overflow="visible"/></clipPath><g clip-path="url(#d)" stroke="#000" stroke-linejoin="bevel" stroke-miterlimit="10" fill="none"><line x1="-908.435" y1="16.203" x2="250.867" y2="488.678"/><line x1="-862.256" y1="16.203" x2="297.045" y2="488.678"/><line x1="-816.078" y1="16.203" x2="343.224" y2="488.678"/><line x1="-769.9" y1="16.203" x2="389.402" y2="488.678"/><line x1="-723.722" y1="16.203" x2="435.58" y2="488.678"/><line x1="-677.543" y1="16.203" x2="481.758" y2="488.678"/><line x1="-631.365" y1="16.203" x2="527.936" y2="488.678"/><line x1="-585.187" y1="16.203" x2="574.113" y2="488.678"/><line x1="-539.009" y1="16.203" x2="620.291" y2="488.678"/><line x1="-492.831" y1="16.203" x2="666.469" y2="488.678"/><line x1="-446.652" y1="16.203" x2="712.646" y2="488.678"/><line x1="-400.474" y1="16.203" x2="758.824" y2="488.678"/><line x1="-354.296" y1="16.203" x2="805.002" y2="488.678"/><line x1="-308.118" y1="16.203" x2="851.18" y2="488.678"/><line x1="-261.939" y1="16.203" x2="897.357" y2="488.678"/><line x1="-215.761" y1="16.203" x2="943.535" y2="488.678"/><line x1="-169.583" y1="16.203" x2="989.713" y2="488.678"/><line x1="-123.405" y1="16.203" x2="1035.891" y2="488.678"/><line x1="-77.227" y1="16.203" x2="1082.068" y2="488.678"/><line x1="-31.048" y1="16.203" x2="1128.246" y2="488.678"/><line x1="15.13" y1="16.203" x2="1174.424" y2="488.678"/><line x1="61.308" y1="16.203" x2="1220.602" y2="488.678"/><line x1="107.486" y1="16.203" x2="1266.779" y2="488.678"/><line x1="153.665" y1="16.203" x2="1312.957" y2="488.678"/><line x1="199.843" y1="16.203" x2="1359.135" y2="488.678"/><line x1="246.021" y1="16.203" x2="1405.312" y2="488.678"/><line x1="292.199" y1="16.203" x2="1451.49" y2="488.678"/><line x1="338.377" y1="16.203" x2="1497.668" y2="488.678"/><line x1="384.556" y1="16.203" x2="1543.846" y2="488.678"/><line x1="430.734" y1="16.203" x2="1590.023" y2="488.678"/><line x1="338.377" y1="16.682" x2="-668.97" y2="489.156"/><line x1="384.556" y1="16.682" x2="-622.792" y2="489.156"/><line x1="430.734" y1="16.682" x2="-576.614" y2="489.156"/><line x1="476.912" y1="16.682" x2="-530.436" y2="489.156"/><line x1="523.09" y1="16.682" x2="-484.257" y2="489.156"/><line x1="569.268" y1="16.682" x2="-438.079" y2="489.156"/><line x1="615.445" y1="16.682" x2="-391.901" y2="489.156"/><line x1="661.623" y1="16.682" x2="-345.723" y2="489.156"/><line x1="707.801" y1="16.682" x2="-299.544" y2="489.156"/><line x1="753.979" y1="16.682" x2="-253.366" y2="489.156"/><line x1="800.156" y1="16.682" x2="-207.188" y2="489.156"/><line x1="846.334" y1="16.682" x2="-161.01" y2="489.156"/><line x1="892.512" y1="16.682" x2="-114.832" y2="489.156"/><line x1="938.689" y1="16.682" x2="-68.653" y2="489.156"/><line x1="984.867" y1="16.682" x2="-22.475" y2="489.156"/><line x1="1031.045" y1="16.682" x2="23.703" y2="489.156"/><line x1="1077.223" y1="16.682" x2="69.881" y2="489.156"/><line x1="1123.4" y1="16.682" x2="116.06" y2="489.156"/><line x1="1169.578" y1="16.682" x2="162.238" y2="489.156"/><line x1="1215.756" y1="16.682" x2="208.416" y2="489.156"/><line x1="1261.934" y1="16.682" x2="254.594" y2="489.156"/><line x1="1308.111" y1="16.682" x2="300.772" y2="489.156"/><line x1="1354.289" y1="16.682" x2="346.951" y2="489.156"/></g></g><polygon opacity=".1" points="233.694,176.255 230.588,173.021 202.002,169.788 196.44,159.438 206.4,143.528 249.475,137.19 266.421,148.961 258.013,169.917"/><polygon fill="#A3BE5F" points="233.644,167.119 230.834,164.191 204.957,161.264 199.922,151.898 208.938,137.495 247.93,131.757 263.267,142.413 255.657,161.381"/><polygon fill="#F1E0A6" points="263.267,147.77 255.657,166.738 233.644,172.476 230.834,169.549 204.957,166.621 199.922,157.254 199.922,153.771 204.957,163.138 230.834,166.065 233.644,168.993 255.657,163.255 263.267,144.286"/><polygon fill="#969F5A" points="199.922,153.771 204.957,163.138 230.834,166.065 233.644,168.993 255.657,163.255 263.267,144.286 263.267,142.413 255.657,161.381 233.644,167.119 230.834,164.191 204.957,161.264 199.922,151.898"/><polygon fill="#747E42" points="204.957,163.138 204.957,161.264 230.834,164.191 230.834,166.065"/><polygon fill="#747E42" points="233.644,167.119 233.644,168.993 255.657,163.255 255.657,161.381"/><polygon fill="#D7CA93" points="204.957,163.138 204.957,166.621 230.834,169.549 230.834,166.065"/><polygon fill="#D7CA93" points="233.644,172.476 233.644,168.993 255.657,163.255 255.657,166.738"/><polyline fill="#485157" points="351.712,163.654 231.431,114.219 225.829,118.522 347.829,167.865"/><polygon opacity=".1" points="210.283,144.398 237.011,155.762 261.005,144.969 233.921,133.719"/><polygon fill="#FFFCF7" points="217.505,141.088 236.988,149.125 253.708,141.609 234.136,133.582"/><polygon fill="#CCCBCB" points="236.988,153.083 217.488,144.749 217.488,141.061 236.988,149.083"/><polygon fill="#C0BEBF" points="253.693,141.582 236.972,149.097 236.972,153.097 253.693,145.477"/><polygon fill="#92AFDD" points="250.963,97.99 236.972,106.283 236.972,147.986 250.963,141.777"/><polygon fill="#A9C7F7" points="236.972,147.986 219.921,141.257 219.921,96.774 237.019,105.914"/><polygon fill="#93B4EA" points="223.484,142.582 223.484,100.216 224.074,100.762 224.074,142.861"/><polygon fill="#93B4EA" points="230.791,145.541 230.791,103.566 231.38,104.112 231.38,145.819"/><polygon fill="#FFFCF7" points="217.505,95.269 236.988,103.305 253.708,95.79 234.136,87.763"/><polygon fill="#CCCBCB" points="236.988,107.263 217.488,98.929 217.488,95.242 236.988,103.263"/><polygon fill="#C0BEBF" points="253.693,95.762 236.972,103.278 236.972,107.278 253.693,99.658"/><polygon opacity=".1" points="202.964,152.125 209.623,154.957 215.602,152.267 208.854,149.464"/><polygon fill="#A65C26" points="206.716,152.528 209.657,153.796 209.657,146.952 207.653,146.952"/><polygon fill="#8F4A1B" points="209.657,153.796 212.362,152.387 211.528,147.533 209.657,147.367"/><polygon fill="#578034" points="209.718,150.066 203.714,147.475 209.718,134.908"/><polygon fill="#4F6E32" points="209.678,150.066 215.047,147.749 209.678,134.908"/><polygon opacity=".1" points="217.261,158.883 225.667,162.457 233.214,159.062 224.697,155.523"/><polygon fill="#A65C26" points="222.694,159.028 225.635,160.296 225.635,149.474 224.165,149.572"/><polygon fill="#8F4A1B" points="225.635,160.296 228.34,158.887 226.988,148.947 225.635,150.313"/><polygon fill="#578034" points="225.696,151.566 219.691,148.975 225.696,117.145"/><polygon fill="#4F6E32" points="225.656,151.566 231.025,149.249 225.656,117.145"/><polygon opacity=".1" points="300.812,88.679 326.209,99.29 346.322,90.173 321.197,79.741"/><polygon fill="#fff" points="307.395,89.29 307.395,75.093 326.227,82.881 326.227,97.331"/><polygon fill="#E5DBDE" points="337.295,77.923 326.211,82.881 326.227,97.331 337.326,92.31"/><polygon fill="#DC5A38" points="307.395,75.087 317.645,67.296 329.436,72.164 326.195,82.89"/><polygon fill="#C14F34" points="337.311,77.923 329.436,72.164 326.227,82.881"/><polygon fill="#A9C7F7" points="320.406,89.235 323.406,90.672 323.406,86.631 320.406,85.36"/><polygon fill="#A9C7F7" points="309.447,84.235 312.447,85.672 312.447,81.631 309.447,80.36"/><polygon opacity=".1" points="334.872,125.854 308.306,138.38 286.71,129.148 313.04,117.149"/><polygon fill="#fff" points="295.165,129.626 295.165,115.355 308.269,120.787 308.269,135.275"/><polygon fill="#E5DBDE" points="325.083,113.276 308.269,120.797 308.269,135.275 325.083,127.517"/><polygon fill="#DC5A38" points="295.165,115.375 303.915,109.232 308.271,120.792"/><polygon fill="#8A6D56" points="315.368,132 312.368,133.294 312.368,126.041 315.368,124.687"/><polyline fill="#C14F34" points="308.271,120.792 325.083,113.271 316.063,103.701 303.915,109.232 308.271,120.792"/><polygon opacity=".1" points="374.475,105.666 347.908,118.192 326.312,108.959 352.643,96.961"/><polygon fill="#fff" points="334.768,109.438 334.768,95.167 347.871,100.599 347.871,115.086"/><polygon fill="#E5DBDE" points="364.686,93.088 347.871,100.609 347.871,115.086 364.686,107.328"/><polygon fill="#DC5A38" points="334.768,95.187 343.518,89.043 347.873,100.604"/><polygon fill="#8A6D56" points="354.971,111.811 351.971,113.106 351.971,105.852 354.971,104.498"/><polyline fill="#C14F34" points="347.873,100.604 364.686,93.083 355.666,83.513 343.518,89.043 347.873,100.604"/><polygon opacity=".1" points="250.017,180.814 287.311,196.67 320.79,181.61 283,165.913"/><polygon fill="#E0C977" points="255.205,175.37 286.987,188.479 314.263,176.219 282.335,163.125"/><polygon fill="#C2AA5C" points="262.796,174.979 263.634,175.325 264.354,175.002 263.51,174.656"/><polygon fill="#F7DE8B" points="286.987,194.934 255.178,181.341 255.178,175.325 286.987,188.41"/><polygon fill="#C2AA5C" points="314.236,176.174 286.96,188.434 286.96,194.959 314.236,182.528"/><g fill="#E0C977"><polygon points="290.927,193.148 292.262,192.539 292.262,186.045 290.927,186.642"/><polygon points="305.577,186.471 306.913,185.862 306.913,179.451 305.577,180.047"/><polygon points="295.078,191.295 295.746,190.955 295.746,184.491 295.078,184.789"/><polygon points="298.215,189.874 298.882,189.534 298.882,183.069 298.215,183.368"/><polygon points="299.281,189.36 299.947,189.02 299.947,182.556 299.281,182.854"/><polygon points="312.655,183.306 313.322,182.966 313.322,176.604 312.655,176.903"/><polygon points="307.702,185.566 308.37,185.226 308.37,178.864 307.702,179.163"/></g><g fill="#E0C977"><polygon points="281.017,192.344 279.682,191.736 279.682,185.243 281.017,185.839"/><polygon points="266.366,185.973 265.03,185.364 265.03,179.451 266.366,180.047"/><polygon points="276.866,190.493 276.199,190.152 276.199,183.977 276.866,184.276"/><polygon points="273.73,189.241 273.062,188.901 273.062,182.712 273.73,183.01"/><polygon points="272.664,188.727 271.996,188.387 271.996,182.266 272.664,182.565"/><polygon points="259.29,183.069 258.622,182.729 258.622,176.79 259.29,177.089"/><polygon points="264.242,185.104 263.574,184.764 263.574,178.715 264.242,179.014"/></g><polygon fill="#C2AA5C" points="268.412,176.779 269.251,177.125 269.97,176.801 269.128,176.456"/><polygon fill="#C2AA5C" points="271.996,173.128 272.835,173.474 273.553,173.151 272.712,172.805"/><polygon fill="#C2AA5C" points="282.094,166.346 282.932,166.691 283.651,166.368 282.809,166.022"/><polygon fill="#C2AA5C" points="297.247,173.92 298.085,174.266 298.805,173.942 297.963,173.597"/><polygon fill="#C2AA5C" points="291.485,176.129 292.307,176.511 293.041,176.219 292.214,175.837"/><polygon fill="#C2AA5C" points="289.465,173.463 290.305,173.809 291.022,173.485 290.181,173.14"/><polygon fill="#C2AA5C" points="281.315,171.488 282.153,171.834 282.873,171.511 282.031,171.165"/><polygon fill="#C2AA5C" points="281.315,177.113 282.153,177.459 282.873,177.136 282.031,176.79"/><polygon fill="#C2AA5C" points="291.484,179.031 292.321,179.376 293.042,179.053 292.199,178.708"/><polygon fill="#C2AA5C" points="282.873,183.295 283.711,183.64 284.431,183.317 283.589,182.972"/><polygon fill="#C2AA5C" points="285.402,174.979 286.24,175.325 286.96,175.002 286.118,174.656"/><polygon fill="#C2AA5C" points="305.467,176.163 306.306,176.509 307.023,176.185 306.183,175.84"/><polygon fill="#C2AA5C" points="301.026,177.113 301.863,177.459 302.584,177.136 301.74,176.79"/><polygon fill="#C2AA5C" points="289.465,169.04 290.305,169.386 291.022,169.062 290.181,168.717"/><polygon fill="#C2AA5C" points="276.866,169.375 277.704,169.72 278.424,169.396 277.581,169.051"/><polygon fill="#C2AA5C" points="276.866,179.031 277.704,179.376 278.424,179.053 277.581,178.708"/><polygon opacity=".1" points="276.641,149.414 283.3,152.245 289.279,149.555 282.531,146.752"/><polygon fill="#A65C26" points="280.393,149.816 283.334,151.084 283.334,144.24 281.331,144.24"/><polygon fill="#8F4A1B" points="283.334,151.084 286.04,149.675 285.206,144.821 283.334,144.655"/><polygon fill="#578034" points="283.395,147.354 277.391,144.763 283.395,132.196"/><polygon fill="#4F6E32" points="283.355,147.354 288.724,145.037 283.355,132.196"/><polygon opacity=".1" points="299.705,157.932 306.364,160.763 312.342,158.074 305.594,155.271"/><polygon fill="#A65C26" points="303.457,158.335 306.398,159.603 306.398,152.759 304.394,152.759"/><polygon fill="#8F4A1B" points="306.398,159.603 309.103,158.193 308.269,153.34 306.398,153.174"/><polygon fill="#578034" points="306.458,155.873 300.455,153.282 306.458,140.715"/><polygon fill="#4F6E32" points="306.418,155.873 311.788,153.556 306.418,140.715"/><polygon opacity=".1" points="321.994,168.458 328.653,171.289 334.631,168.599 327.883,165.796"/><polygon fill="#A65C26" points="325.746,168.86 328.687,170.128 328.687,163.284 326.683,163.284"/><polygon fill="#8F4A1B" points="328.687,170.128 331.392,168.719 330.558,163.865 328.687,163.699"/><polygon fill="#578034" points="328.748,166.398 322.744,163.807 328.748,151.24"/><polygon fill="#4F6E32" points="328.708,166.398 334.077,164.081 328.708,151.24"/><polygon opacity=".1" points="361.606,82.957 375.949,89.054 388.825,83.262 374.292,77.225"/><polygon fill="#A55E28" points="370.631,83.879 375.817,86.307 375.817,76.924 372.693,75.004"/><polygon fill="#914A16" points="375.817,86.307 380.756,83.816 379.131,76.129 375.817,77.443"/><polygon fill="#BBD260" points="375.878,78.577 364.381,73.629 375.878,45.377"/><polygon fill="#99AF41" points="375.837,78.577 387.131,73.691 375.837,45.377"/><polygon opacity=".1" points="296.696,112.335 315.701,103.447 292.437,93.985 273.508,102.892"/><polygon fill="#91BE68" points="296.714,107.719 311.214,100.938 293.464,93.719 279.023,100.514"/><polygon fill="#548628" points="279.023,102.141 279.023,103.473 296.774,110.705 296.773,107.732 279.023,100.514"/><path fill="#A4B5B7" d="M279.023 101.514"/><polygon fill="#4B722E" points="296.774,110.705 311.215,103.855 311.215,100.896 296.774,107.691"/><polygon fill="#706D6E" points="283.827,99.836 296.774,105.11 296.773,93.139 283.838,87.878"/><path fill="#A4B5B7" d="M279.023 95.92"/><polygon fill="#5C5858" points="296.774,105.11 307.331,100.111 307.331,88.195 296.774,93.098"/><polygon fill="#CDCDCC" points="296.744,93.146 307.331,88.195 294.37,82.926 283.827,87.887"/><polygon fill="#706D6E" points="287.212,87.342 296.694,91.205 296.694,70.438 287.221,66.585"/><path fill="#A4B5B7" d="M283.695 84.475"/><polygon fill="#5C5858" points="296.694,91.205 304.424,87.545 304.424,66.818 296.694,70.408"/><polygon fill="#F9C04B" points="296.672,70.444 304.424,66.818 294.933,62.959 287.212,66.592"/><polygon opacity=".1" points="338.217,138.676 346.623,142.25 354.17,138.855 345.652,135.317"/><polygon fill="#A65C26" points="343.649,138.822 346.591,140.089 346.591,129.268 345.12,129.366"/><polygon fill="#8F4A1B" points="346.591,140.089 349.296,138.68 347.943,128.741 346.591,130.106"/><polygon fill="#578034" points="346.651,131.359 340.646,128.769 346.651,96.938"/><polygon fill="#4F6E32" points="346.611,131.359 351.98,129.042 346.611,96.938"/><polygon opacity=".1" points="249.823,115.965 275.22,126.576 295.333,117.459 270.208,107.027"/><polygon fill="#fff" points="256.405,116.576 256.405,102.379 275.237,110.167 275.237,124.617"/><polygon fill="#E5DBDE" points="286.306,105.209 275.222,110.167 275.237,124.617 286.337,119.596"/><polygon fill="#DC5A38" points="256.405,102.373 266.655,94.582 278.446,99.45 275.206,110.176"/><polygon fill="#C14F34" points="286.321,105.209 278.446,99.45 275.237,110.167"/><polygon fill="#A9C7F7" points="269.417,116.521 272.417,117.958 272.417,113.917 269.417,112.646"/><polygon fill="#A9C7F7" points="258.458,111.521 261.458,112.958 261.458,108.917 258.458,107.646"/></svg>