<svg xmlns="http://www.w3.org/2000/svg" xmlns:xlink="http://www.w3.org/1999/xlink" width="819" height="508"><polygon fill="#6E9C44" points="165.11,165.582 276.03,209.971 332.562,184.226 369.688,144.383 403.697,117.797 392.14,96.553 396.983,67.62 290.363,75.311 264.363,88.656"/><defs><polygon id="a" points="165.11,165.582 276.03,209.971 332.562,184.226 369.688,144.383 403.697,117.797 392.14,96.553 396.983,67.62 290.363,75.311 264.363,88.656"/></defs><clipPath id="b"><use xlink:href="#a" overflow="visible"/></clipPath><g opacity=".02" clip-path="url(#b)"><defs><polygon id="c" opacity=".02" points="63.206,420.252 -2.331,285.992 261.333,81.333 287.333,67.988 517.463,50.677 772.721,177.779 815.971,252.919 564.867,395.797 546.666,395.797 362.667,469.291 288.667,487.521"/></defs><clipPath id="d"><use xlink:href="#c" overflow="visible"/></clipPath><g clip-path="url(#d)" stroke="#000" stroke-linejoin="bevel" stroke-miterlimit="10" fill="none"><line x1="-908.435" y1="16.203" x2="250.867" y2="488.678"/><line x1="-862.256" y1="16.203" x2="297.045" y2="488.678"/><line x1="-816.078" y1="16.203" x2="343.224" y2="488.678"/><line x1="-769.9" y1="16.203" x2="389.402" y2="488.678"/><line x1="-723.722" y1="16.203" x2="435.58" y2="488.678"/><line x1="-677.543" y1="16.203" x2="481.758" y2="488.678"/><line x1="-631.365" y1="16.203" x2="527.936" y2="488.678"/><line x1="-585.187" y1="16.203" x2="574.113" y2="488.678"/><line x1="-539.009" y1="16.203" x2="620.291" y2="488.678"/><line x1="-492.831" y1="16.203" x2="666.469" y2="488.678"/><line x1="-446.652" y1="16.203" x2="712.646" y2="488.678"/><line x1="-400.474" y1="16.203" x2="758.824" y2="488.678"/><line x1="-354.296" y1="16.203" x2="805.002" y2="488.678"/><line x1="-308.118" y1="16.203" x2="851.18" y2="488.678"/><line x1="-261.939" y1="16.203" x2="897.357" y2="488.678"/><line x1="-215.761" y1="16.203" x2="943.535" y2="488.678"/><line x1="-169.583" y1="16.203" x2="989.713" y2="488.678"/><line x1="-123.405" y1="16.203" x2="1035.891" y2="488.678"/><line x1="-77.227" y1="16.203" x2="1082.068" y2="488.678"/><line x1="-31.048" y1="16.203" x2="1128.246" y2="488.678"/><line x1="15.13" y1="16.203" x2="1174.424" y2="488.678"/><line x1="61.308" y1="16.203" x2="1220.602" y2="488.678"/><line x1="107.486" y1="16.203" x2="1266.779" y2="488.678"/><line x1="153.665" y1="16.203" x2="1312.957" y2="488.678"/><line x1="199.843" y1="16.203" x2="1359.135" y2="488.678"/><line x1="246.021" y1="16.203" x2="1405.312" y2="488.678"/><line x1="292.199" y1="16.203" x2="1451.49" y2="488.678"/><line x1="338.377" y1="16.203" x2="1497.668" y2="488.678"/><line x1="384.556" y1="16.203" x2="1543.846" y2="488.678"/><line x1="430.734" y1="16.203" x2="1590.023" y2="488.678"/><line x1="338.377" y1="16.682" x2="-668.97" y2="489.156"/><line x1="384.556" y1="16.682" x2="-622.792" y2="489.156"/><line x1="430.734" y1="16.682" x2="-576.614" y2="489.156"/><line x1="476.912" y1="16.682" x2="-530.436" y2="489.156"/><line x1="523.09" y1="16.682" x2="-484.257" y2="489.156"/><line x1="569.268" y1="16.682" x2="-438.079" y2="489.156"/><line x1="615.445" y1="16.682" x2="-391.901" y2="489.156"/><line x1="661.623" y1="16.682" x2="-345.723" y2="489.156"/><line x1="707.801" y1="16.682" x2="-299.544" y2="489.156"/><line x1="753.979" y1="16.682" x2="-253.366" y2="489.156"/><line x1="800.156" y1="16.682" x2="-207.188" y2="489.156"/><line x1="846.334" y1="16.682" x2="-161.01" y2="489.156"/><line x1="892.512" y1="16.682" x2="-114.832" y2="489.156"/><line x1="938.689" y1="16.682" x2="-68.653" y2="489.156"/><line x1="984.867" y1="16.682" x2="-22.475" y2="489.156"/><line x1="1031.045" y1="16.682" x2="23.703" y2="489.156"/><line x1="1077.223" y1="16.682" x2="69.881" y2="489.156"/><line x1="1123.4" y1="16.682" x2="116.06" y2="489.156"/><line x1="1169.578" y1="16.682" x2="162.238" y2="489.156"/><line x1="1215.756" y1="16.682" x2="208.416" y2="489.156"/><line x1="1261.934" y1="16.682" x2="254.594" y2="489.156"/><line x1="1308.111" y1="16.682" x2="300.772" y2="489.156"/><line x1="1354.289" y1="16.682" x2="346.951" y2="489.156"/></g></g><polygon opacity=".1" points="295.812,89.679 321.209,100.29 341.322,91.173 316.197,80.741"/><polygon fill="#fff" points="302.395,90.29 302.395,76.093 321.227,83.881 321.227,98.331"/><polygon fill="#E5DBDE" points="332.295,78.923 321.211,83.881 321.227,98.331 332.326,93.31"/><polygon fill="#DC5A38" points="302.395,76.087 312.645,68.296 324.436,73.164 321.195,83.89"/><polygon fill="#C14F34" points="332.311,78.923 324.436,73.164 321.227,83.881"/><polygon fill="#A9C7F7" points="315.406,90.235 318.406,91.672 318.406,87.631 315.406,86.36"/><polygon fill="#A9C7F7" points="304.447,85.235 307.447,86.672 307.447,82.631 304.447,81.36"/><polygon opacity=".1" points="334.606,81.957 348.949,88.054 361.825,82.262 347.292,76.225"/><polygon fill="#A55E28" points="343.631,82.879 348.817,85.307 348.817,75.924 345.693,74.004"/><polygon fill="#914A16" points="348.817,85.307 353.756,82.816 352.131,75.129 348.817,76.443"/><polygon fill="#BBD260" points="348.878,77.577 337.381,72.629 348.878,44.377"/><polygon fill="#99AF41" points="348.837,77.577 360.131,72.691 348.837,44.377"/><polygon opacity=".1" points="296.696,112.335 315.701,103.447 292.437,93.985 273.508,102.892"/><polygon fill="#91BE68" points="296.714,107.719 311.214,100.938 293.464,93.719 279.023,100.514"/><polygon fill="#548628" points="279.023,102.141 279.023,103.473 296.774,110.705 296.773,107.732 279.023,100.514"/><path fill="#A4B5B7" d="M279.023 101.514"/><polygon fill="#4B722E" points="296.774,110.705 311.215,103.855 311.215,100.896 296.774,107.691"/><path fill="#A4B5B7" d="M279.023 95.92"/><path fill="#A4B5B7" d="M283.695 84.475"/><polygon opacity=".1" points="314.769,115.532 323.175,119.106 330.722,115.711 322.205,112.173"/><polygon fill="#A65C26" points="320.202,115.678 323.143,116.945 323.143,106.124 321.672,106.222"/><polygon fill="#8F4A1B" points="323.143,116.945 325.848,115.536 324.496,105.597 323.143,106.962"/><polygon fill="#578034" points="323.204,108.215 317.199,105.625 323.204,73.794"/><polygon fill="#4F6E32" points="323.164,108.215 328.533,105.898 323.164,73.794"/><polygon opacity=".1" points="331.062,109.536 337.721,112.367 343.7,109.678 336.952,106.875"/><polygon fill="#A65C26" points="334.814,109.939 337.755,111.207 337.755,104.363 335.751,104.363"/><polygon fill="#8F4A1B" points="337.755,111.207 340.46,109.797 339.626,104.944 337.755,104.778"/><polygon fill="#578034" points="337.816,107.477 331.812,104.886 337.816,92.319"/><polygon fill="#4F6E32" points="337.776,107.477 343.145,105.16 337.776,92.319"/><polygon opacity=".1" points="276.03,91.074 282.689,93.905 288.667,91.216 281.919,88.413"/><polygon fill="#A65C26" points="279.782,91.477 282.723,92.745 282.723,85.901 280.719,85.901"/><polygon fill="#8F4A1B" points="282.723,92.745 285.428,91.335 284.594,86.482 282.723,86.316"/><polygon fill="#578034" points="282.784,89.015 276.78,86.424 282.784,73.857"/><polygon fill="#4F6E32" points="282.744,89.015 288.113,86.698 282.744,73.857"/></svg>