<svg xmlns="http://www.w3.org/2000/svg" xmlns:xlink="http://www.w3.org/1999/xlink" width="819" height="508"><path fill="#6E9C44" d="M547.039 178.218l-122.535-49.541-20.807-10.88-32.928 25.54-38.206 40.889-56.533 25.745 58.298 23.572s1.687-.821 1.894-.916c0 0 3.8-8.409 18.477-12.736v-42.997l9.127-4.068 37.721 15.5v30.82s17.127 3.715 21.62 15.047l1.166.644 122.706-56.619z"/><defs><path id="a" d="M547.039 178.218l-122.535-49.541-20.807-10.88-32.928 25.54-38.206 40.889-56.533 25.745 58.298 23.572s1.687-.821 1.894-.916c0 0 3.8-8.409 18.477-12.736v-42.997l9.127-4.068 37.721 15.5v30.82s17.127 3.715 21.62 15.047l1.166.644 122.706-56.619z"/></defs><clipPath id="b"><use xlink:href="#a" overflow="visible"/></clipPath><g opacity=".02" clip-path="url(#b)"><defs><polygon id="c" opacity=".02" points="76.235,426.574 10.699,292.314 274.363,87.656 300.363,74.311 530.492,57 785.75,184.102 829,259.242 577.897,402.119 559.696,402.119 375.696,475.613 301.696,493.844"/></defs><clipPath id="d"><use xlink:href="#c" overflow="visible"/></clipPath><g clip-path="url(#d)" stroke="#000" stroke-linejoin="bevel" stroke-miterlimit="10" fill="none"><line x1="-895.405" y1="22.525" x2="263.897" y2="495"/><line x1="-849.227" y1="22.525" x2="310.075" y2="495"/><line x1="-803.048" y1="22.525" x2="356.253" y2="495"/><line x1="-756.87" y1="22.525" x2="402.432" y2="495"/><line x1="-710.692" y1="22.525" x2="448.609" y2="495"/><line x1="-664.514" y1="22.525" x2="494.787" y2="495"/><line x1="-618.335" y1="22.525" x2="540.965" y2="495"/><line x1="-572.157" y1="22.525" x2="587.143" y2="495"/><line x1="-525.979" y1="22.525" x2="633.32" y2="495"/><line x1="-479.801" y1="22.525" x2="679.498" y2="495"/><line x1="-433.623" y1="22.525" x2="725.676" y2="495"/><line x1="-387.444" y1="22.525" x2="771.854" y2="495"/><line x1="-341.266" y1="22.525" x2="818.031" y2="495"/><line x1="-295.088" y1="22.525" x2="864.209" y2="495"/><line x1="-248.91" y1="22.525" x2="910.387" y2="495"/><line x1="-202.731" y1="22.525" x2="956.564" y2="495"/><line x1="-156.553" y1="22.525" x2="1002.742" y2="495"/><line x1="-110.375" y1="22.525" x2="1048.92" y2="495"/><line x1="-64.197" y1="22.525" x2="1095.098" y2="495"/><line x1="-18.019" y1="22.525" x2="1141.275" y2="495"/><line x1="28.16" y1="22.525" x2="1187.453" y2="495"/><line x1="74.338" y1="22.525" x2="1233.631" y2="495"/><line x1="120.516" y1="22.525" x2="1279.809" y2="495"/><line x1="166.694" y1="22.525" x2="1325.986" y2="495"/><line x1="212.873" y1="22.525" x2="1372.164" y2="495"/><line x1="259.051" y1="22.525" x2="1418.342" y2="495"/><line x1="305.229" y1="22.525" x2="1464.52" y2="495"/><line x1="351.407" y1="22.525" x2="1510.697" y2="495"/><line x1="397.585" y1="22.525" x2="1556.875" y2="495"/><line x1="443.764" y1="22.525" x2="1603.053" y2="495"/><line x1="351.407" y1="23.005" x2="-655.94" y2="495.479"/><line x1="397.585" y1="23.005" x2="-609.762" y2="495.479"/><line x1="443.764" y1="23.005" x2="-563.584" y2="495.479"/><line x1="489.941" y1="23.005" x2="-517.406" y2="495.479"/><line x1="536.119" y1="23.005" x2="-471.228" y2="495.479"/><line x1="582.297" y1="23.005" x2="-425.049" y2="495.479"/><line x1="628.475" y1="23.005" x2="-378.871" y2="495.479"/><line x1="674.652" y1="23.005" x2="-332.693" y2="495.479"/><line x1="720.83" y1="23.005" x2="-286.515" y2="495.479"/><line x1="767.008" y1="23.005" x2="-240.336" y2="495.479"/><line x1="813.186" y1="23.005" x2="-194.158" y2="495.479"/><line x1="859.363" y1="23.005" x2="-147.98" y2="495.479"/><line x1="905.541" y1="23.005" x2="-101.802" y2="495.479"/><line x1="951.719" y1="23.005" x2="-55.624" y2="495.479"/><line x1="997.896" y1="23.005" x2="-9.445" y2="495.479"/><line x1="1044.074" y1="23.005" x2="36.733" y2="495.479"/><line x1="1090.252" y1="23.005" x2="82.911" y2="495.479"/><line x1="1136.43" y1="23.005" x2="129.089" y2="495.479"/><line x1="1182.607" y1="23.005" x2="175.268" y2="495.479"/><line x1="1228.785" y1="23.005" x2="221.446" y2="495.479"/><line x1="1274.963" y1="23.005" x2="267.624" y2="495.479"/><line x1="1321.141" y1="23.005" x2="313.802" y2="495.479"/><line x1="1367.318" y1="23.005" x2="359.98" y2="495.479"/></g></g><polyline fill="#485157" points="354.6,192.788 299.101,218.464 291.985,215.599 354.698,186.745"/><polygon opacity=".1" points="397.446,152.623 416.451,143.735 393.188,134.273 374.259,143.18"/><polygon fill="#91BE68" points="397.465,148.007 411.965,141.226 394.215,134.007 379.773,140.802"/><polygon fill="#548628" points="379.773,142.429 379.773,143.761 397.524,150.993 397.523,148.021 379.773,140.802"/><path fill="#A4B5B7" d="M379.773 141.802"/><polygon fill="#4B722E" points="397.524,150.993 411.966,144.144 411.966,141.185 397.524,147.979"/><polygon fill="#706D6E" points="384.577,140.124 397.524,145.398 397.523,133.427 384.589,128.166"/><path fill="#A4B5B7" d="M379.773 136.208"/><polygon fill="#5C5858" points="397.524,145.398 408.081,140.399 408.081,128.483 397.524,133.386"/><polygon fill="#CDCDCC" points="397.494,133.435 408.081,128.483 395.12,123.214 384.577,128.175"/><path fill="#A4B5B7" d="M384.445 124.763"/><polygon opacity=".1" points="411.207,204.331 436.604,214.941 456.717,205.825 431.592,195.393"/><polygon fill="#fff" points="417.789,204.942 417.789,190.745 436.621,198.533 436.621,212.982"/><polygon fill="#E5DBDE" points="447.689,193.575 436.605,198.533 436.621,212.982 447.721,207.961"/><polygon fill="#DC5A38" points="417.789,190.739 428.039,182.948 439.83,187.816 436.59,198.542"/><polygon fill="#C14F34" points="447.705,193.575 439.83,187.816 436.621,198.533"/><polygon fill="#A9C7F7" points="430.801,204.887 433.801,206.324 433.801,202.283 430.801,201.012"/><polygon fill="#A9C7F7" points="419.842,199.887 422.842,201.324 422.842,197.283 419.842,196.012"/><polygon opacity=".1" points="329.414,211.171 354.698,221.921 354.698,219.89 354.71,199.742"/><polygon fill="#E0C977" points="334.715,205.726 354.734,213.983 354.734,213.983 354.811,196.656"/><polygon fill="#C2AA5C" points="342.193,205.336 343.031,205.682 343.751,205.358 342.907,205.013"/><polygon fill="#F7DE8B" points="354.698,220.296 334.575,211.697 334.575,205.682 354.698,213.983"/><g fill="#E0C977"><polygon points="345.764,216.33 344.428,215.72 344.428,209.807 345.764,210.404"/><polygon points="353.128,219.597 352.459,219.257 352.459,213.068 353.128,213.367"/><polygon points="352.062,219.083 351.394,218.744 351.394,212.623 352.062,212.921"/><polygon points="338.688,213.425 338.02,213.085 338.02,207.146 338.688,207.445"/><polygon points="343.64,215.46 342.972,215.121 342.972,209.072 343.64,209.37"/></g><polygon fill="#C2AA5C" points="347.81,207.135 348.648,207.481 349.367,207.158 348.525,206.812"/><polygon fill="#C2AA5C" points="351.394,203.485 352.232,203.831 352.95,203.507 352.109,203.162"/><polygon opacity=".1" points="363.24,166.122 377.583,172.219 390.459,166.427 375.926,160.39"/><polygon fill="#A55E28" points="372.265,167.044 377.451,169.472 377.451,160.089 374.327,158.169"/><polygon fill="#914A16" points="377.451,169.472 382.39,166.981 380.765,159.294 377.451,160.608"/><polygon fill="#BBD260" points="377.512,161.742 366.015,156.794 377.512,128.542"/><polygon fill="#99AF41" points="377.471,161.742 388.765,156.856 377.471,128.542"/><polygon opacity=".1" points="423.802,141.552 430.461,144.383 436.439,141.694 429.691,138.891"/><polygon fill="#A65C26" points="427.554,141.955 430.495,143.223 430.495,136.379 428.491,136.379"/><polygon fill="#8F4A1B" points="430.495,143.223 433.2,141.813 432.366,136.96 430.495,136.794"/><polygon fill="#578034" points="430.556,139.493 424.552,136.902 430.556,124.335"/><polygon fill="#4F6E32" points="430.516,139.493 435.885,137.176 430.516,124.335"/><polygon opacity=".1" points="464.064,209.015 470.724,211.846 476.702,209.156 469.954,206.353"/><polygon fill="#A65C26" points="467.816,209.417 470.758,210.685 470.758,203.841 468.754,203.841"/><polygon fill="#8F4A1B" points="470.758,210.685 473.463,209.276 472.629,204.422 470.758,204.256"/><polygon fill="#578034" points="470.818,206.955 464.814,204.364 470.818,191.797"/><polygon fill="#4F6E32" points="470.778,206.955 476.147,204.638 470.778,191.797"/><polygon opacity=".1" points="482.165,201.372 479.06,198.138 450.474,194.904 444.911,184.555 454.871,168.644 497.946,162.306 514.893,174.077 506.484,195.034"/><polygon fill="#A3BE5F" points="482.115,192.235 479.306,189.308 453.428,186.38 448.394,177.014 457.409,162.611 496.401,156.874 511.738,167.529 504.128,186.498"/><polygon fill="#F1E0A6" points="511.738,172.886 504.128,191.854 482.115,197.592 479.306,194.665 453.428,191.737 448.394,182.371 448.394,178.887 453.428,188.254 479.306,191.181 482.115,194.109 504.128,188.371 511.738,169.402"/><polygon fill="#969F5A" points="448.394,178.887 453.428,188.254 479.306,191.181 482.115,194.109 504.128,188.371 511.738,169.402 511.738,167.529 504.128,186.498 482.115,192.235 479.306,189.308 453.428,186.38 448.394,177.014"/><polygon fill="#747E42" points="453.428,188.254 453.428,186.38 479.306,189.308 479.306,191.181"/><polygon fill="#747E42" points="482.115,192.235 482.115,194.109 504.128,188.371 504.128,186.498"/><polygon fill="#D7CA93" points="453.428,188.254 453.428,191.737 479.306,194.665 479.306,191.181"/><polygon fill="#D7CA93" points="482.115,197.592 482.115,194.109 504.128,188.371 504.128,191.854"/><polygon opacity=".1" points="454.947,168.01 486.945,181.379 512.287,169.893 480.631,156.749"/><polygon fill="#86D5EA" points="454.644,178.724 468.786,184.633 479.986,179.557 465.995,173.747"/><polygon fill="#fff" points="463.24,168.781 463.24,150.893 486.968,160.706 486.968,178.911"/><polygon fill="#E5DBDE" points="500.913,154.459 486.948,160.706 486.968,178.911 500.952,172.585"/><polygon fill="#DC5A38" points="463.24,150.885 476.154,141.069 491.011,147.203 486.928,160.717"/><polygon fill="#C14F34" points="500.933,154.459 491.011,147.203 486.968,160.706"/><polygon fill="#A9C7F7" points="479.635,168.712 483.414,170.521 483.414,165.43 479.635,163.83"/><polygon fill="#A9C7F7" points="465.826,162.412 469.606,164.222 469.606,159.13 465.826,157.53"/><polygon opacity=".1" points="480.299,185.083 486.958,187.914 492.937,185.225 486.188,182.421"/><polygon fill="#A65C26" points="484.051,185.486 486.992,186.753 486.992,179.91 484.988,179.91"/><polygon fill="#8F4A1B" points="486.992,186.753 489.697,185.344 488.863,180.491 486.992,180.325"/><polygon fill="#578034" points="487.053,183.023 481.049,180.433 487.053,167.866"/><polygon fill="#4F6E32" points="487.013,183.023 492.382,180.707 487.013,167.866"/><polygon opacity=".1" points="493.243,180.383 501.649,183.957 509.196,180.562 500.679,177.024"/><polygon fill="#A65C26" points="498.676,180.529 501.617,181.796 501.617,170.975 500.146,171.073"/><polygon fill="#8F4A1B" points="501.617,181.796 504.322,180.387 502.97,170.448 501.617,171.813"/><polygon fill="#578034" points="501.678,173.066 495.673,170.476 501.678,138.646"/><polygon fill="#4F6E32" points="501.638,173.066 507.007,170.75 501.638,138.646"/><polygon opacity=".1" points="445.922,162.669 419.355,175.195 397.761,165.962 424.091,153.964"/><polygon fill="#fff" points="406.216,166.44 406.216,152.169 419.319,157.602 419.319,172.089"/><polygon fill="#E5DBDE" points="436.133,150.091 419.319,157.612 419.319,172.089 436.133,164.331"/><polygon fill="#DC5A38" points="406.216,152.19 414.966,146.046 419.32,157.606"/><polygon fill="#8A6D56" points="426.418,168.814 423.418,170.109 423.418,162.855 426.418,161.501"/><polyline fill="#C14F34" points="419.32,157.606 436.133,150.085 427.113,140.516 414.966,146.046 419.32,157.606"/></svg>