<svg xmlns="http://www.w3.org/2000/svg" xmlns:xlink="http://www.w3.org/1999/xlink" width="819" height="508"><path fill="#6E9C44" d="M547.039 178.218l-122.535-49.541-20.807-10.88-32.928 25.54-38.206 40.889-56.533 25.745 58.298 23.572s1.687-.821 1.894-.916c0 0 3.8-8.409 18.477-12.736v-42.997l9.127-4.068 37.721 15.5v30.82s17.127 3.715 21.62 15.047l1.166.644 122.706-56.619z"/><defs><path id="a" d="M547.039 178.218l-122.535-49.541-20.807-10.88-32.928 25.54-38.206 40.889-56.533 25.745 58.298 23.572s1.687-.821 1.894-.916c0 0 3.8-8.409 18.477-12.736v-42.997l9.127-4.068 37.721 15.5v30.82s17.127 3.715 21.62 15.047l1.166.644 122.706-56.619z"/></defs><clipPath id="b"><use xlink:href="#a" overflow="visible"/></clipPath><g opacity=".02" clip-path="url(#b)"><defs><polygon id="c" opacity=".02" points="76.235,426.574 10.699,292.314 274.363,87.656 300.363,74.311 530.492,57 785.75,184.102 829,259.242 577.897,402.119 559.696,402.119 375.696,475.613 301.696,493.844"/></defs><clipPath id="d"><use xlink:href="#c" overflow="visible"/></clipPath><g clip-path="url(#d)" stroke="#000" stroke-linejoin="bevel" stroke-miterlimit="10" fill="none"><line x1="-895.405" y1="22.525" x2="263.897" y2="495"/><line x1="-849.227" y1="22.525" x2="310.075" y2="495"/><line x1="-803.048" y1="22.525" x2="356.253" y2="495"/><line x1="-756.87" y1="22.525" x2="402.432" y2="495"/><line x1="-710.692" y1="22.525" x2="448.609" y2="495"/><line x1="-664.514" y1="22.525" x2="494.787" y2="495"/><line x1="-618.335" y1="22.525" x2="540.965" y2="495"/><line x1="-572.157" y1="22.525" x2="587.143" y2="495"/><line x1="-525.979" y1="22.525" x2="633.32" y2="495"/><line x1="-479.801" y1="22.525" x2="679.498" y2="495"/><line x1="-433.623" y1="22.525" x2="725.676" y2="495"/><line x1="-387.444" y1="22.525" x2="771.854" y2="495"/><line x1="-341.266" y1="22.525" x2="818.031" y2="495"/><line x1="-295.088" y1="22.525" x2="864.209" y2="495"/><line x1="-248.91" y1="22.525" x2="910.387" y2="495"/><line x1="-202.731" y1="22.525" x2="956.564" y2="495"/><line x1="-156.553" y1="22.525" x2="1002.742" y2="495"/><line x1="-110.375" y1="22.525" x2="1048.92" y2="495"/><line x1="-64.197" y1="22.525" x2="1095.098" y2="495"/><line x1="-18.019" y1="22.525" x2="1141.275" y2="495"/><line x1="28.16" y1="22.525" x2="1187.453" y2="495"/><line x1="74.338" y1="22.525" x2="1233.631" y2="495"/><line x1="120.516" y1="22.525" x2="1279.809" y2="495"/><line x1="166.694" y1="22.525" x2="1325.986" y2="495"/><line x1="212.873" y1="22.525" x2="1372.164" y2="495"/><line x1="259.051" y1="22.525" x2="1418.342" y2="495"/><line x1="305.229" y1="22.525" x2="1464.52" y2="495"/><line x1="351.407" y1="22.525" x2="1510.697" y2="495"/><line x1="397.585" y1="22.525" x2="1556.875" y2="495"/><line x1="443.764" y1="22.525" x2="1603.053" y2="495"/><line x1="351.407" y1="23.005" x2="-655.94" y2="495.479"/><line x1="397.585" y1="23.005" x2="-609.762" y2="495.479"/><line x1="443.764" y1="23.005" x2="-563.584" y2="495.479"/><line x1="489.941" y1="23.005" x2="-517.406" y2="495.479"/><line x1="536.119" y1="23.005" x2="-471.228" y2="495.479"/><line x1="582.297" y1="23.005" x2="-425.049" y2="495.479"/><line x1="628.475" y1="23.005" x2="-378.871" y2="495.479"/><line x1="674.652" y1="23.005" x2="-332.693" y2="495.479"/><line x1="720.83" y1="23.005" x2="-286.515" y2="495.479"/><line x1="767.008" y1="23.005" x2="-240.336" y2="495.479"/><line x1="813.186" y1="23.005" x2="-194.158" y2="495.479"/><line x1="859.363" y1="23.005" x2="-147.98" y2="495.479"/><line x1="905.541" y1="23.005" x2="-101.802" y2="495.479"/><line x1="951.719" y1="23.005" x2="-55.624" y2="495.479"/><line x1="997.896" y1="23.005" x2="-9.445" y2="495.479"/><line x1="1044.074" y1="23.005" x2="36.733" y2="495.479"/><line x1="1090.252" y1="23.005" x2="82.911" y2="495.479"/><line x1="1136.43" y1="23.005" x2="129.089" y2="495.479"/><line x1="1182.607" y1="23.005" x2="175.268" y2="495.479"/><line x1="1228.785" y1="23.005" x2="221.446" y2="495.479"/><line x1="1274.963" y1="23.005" x2="267.624" y2="495.479"/><line x1="1321.141" y1="23.005" x2="313.802" y2="495.479"/><line x1="1367.318" y1="23.005" x2="359.98" y2="495.479"/></g></g><polygon opacity=".1" points="397.446,152.623 416.451,143.735 393.188,134.273 374.259,143.18"/><polygon fill="#91BE68" points="397.465,148.007 411.965,141.226 394.215,134.007 379.773,140.802"/><polygon fill="#548628" points="379.773,142.429 379.773,143.761 397.524,150.993 397.523,148.021 379.773,140.802"/><path fill="#A4B5B7" d="M379.773 141.802"/><polygon fill="#4B722E" points="397.524,150.993 411.966,144.144 411.966,141.185 397.524,147.979"/><path fill="#A4B5B7" d="M379.773 136.208"/><path fill="#A4B5B7" d="M384.445 124.763"/><polygon opacity=".1" points="363.24,166.122 377.583,172.219 390.459,166.427 375.926,160.39"/><polygon fill="#A55E28" points="372.265,167.044 377.451,169.472 377.451,160.089 374.327,158.169"/><polygon fill="#914A16" points="377.451,169.472 382.39,166.981 380.765,159.294 377.451,160.608"/><polygon fill="#BBD260" points="377.512,161.742 366.015,156.794 377.512,128.542"/><polygon fill="#99AF41" points="377.471,161.742 388.765,156.856 377.471,128.542"/><polygon opacity=".1" points="422.802,140.552 429.461,143.383 435.439,140.694 428.691,137.891"/><polygon fill="#A65C26" points="426.554,140.955 429.495,142.223 429.495,135.379 427.491,135.379"/><polygon fill="#8F4A1B" points="429.495,142.223 432.2,140.813 431.366,135.96 429.495,135.794"/><polygon fill="#578034" points="429.556,138.493 423.552,135.902 429.556,123.335"/><polygon fill="#4F6E32" points="429.516,138.493 434.885,136.176 429.516,123.335"/><polygon opacity=".1" points="450.398,151.24 457.058,154.071 463.036,151.381 456.288,148.578"/><polygon fill="#A65C26" points="454.15,151.643 457.092,152.91 457.092,146.066 455.088,146.066"/><polygon fill="#8F4A1B" points="457.092,152.91 459.797,151.501 458.963,146.647 457.092,146.481"/><polygon fill="#578034" points="457.152,149.18 451.148,146.589 457.152,134.022"/><polygon fill="#4F6E32" points="457.112,149.18 462.481,146.863 457.112,134.022"/><polygon opacity=".1" points="436.945,168.174 445.352,171.748 452.898,168.353 444.381,164.814"/><polygon fill="#A65C26" points="442.378,168.319 445.319,169.587 445.319,158.765 443.849,158.863"/><polygon fill="#8F4A1B" points="445.319,169.587 448.024,168.178 446.672,158.238 445.319,159.604"/><polygon fill="#578034" points="445.38,160.857 439.375,158.266 445.38,126.436"/><polygon fill="#4F6E32" points="445.34,160.857 450.709,158.54 445.34,126.436"/><polygon opacity=".1" points="442.922,160.669 416.355,173.195 394.761,163.962 421.091,151.964"/><polygon fill="#fff" points="403.216,164.44 403.216,150.169 416.319,155.602 416.319,170.089"/><polygon fill="#E5DBDE" points="433.133,148.091 416.319,155.612 416.319,170.089 433.133,162.331"/><polygon fill="#DC5A38" points="403.216,150.19 411.966,144.046 416.32,155.606"/><polygon fill="#8A6D56" points="423.418,166.814 420.418,168.109 420.418,160.855 423.418,159.501"/><polyline fill="#C14F34" points="416.32,155.606 433.133,148.085 424.113,138.516 411.966,144.046 416.32,155.606"/></svg>