<svg xmlns="http://www.w3.org/2000/svg" xmlns:xlink="http://www.w3.org/1999/xlink" width="819" height="508"><polygon fill="#6E9C44" points="546.972,178.271 501.97,160.402 452.092,139.856 411.111,123.263 403.697,117.797 392.14,96.553 396.983,67.62 419.05,65.087 520.492,58 659.065,126.529"/><path fill="#6E9C44" d="M546.667 178.601"/><defs><polygon id="a" points="547.783,178.601 502.037,160.079 452.092,139.856 411.111,123.263 403.697,117.797 392.14,96.553 396.983,67.62 419.05,65.087 520.492,58 659.065,126.529"/></defs><clipPath id="b"><use xlink:href="#a" overflow="visible"/></clipPath><g opacity=".02" clip-path="url(#b)"><defs><polygon id="c" opacity=".02" points="76.235,426.574 10.699,292.314 274.363,87.656 300.363,74.311 530.492,57 785.75,184.102 829,259.242 577.897,402.119 559.696,402.119 375.696,475.613 301.696,493.844"/></defs><clipPath id="d"><use xlink:href="#c" overflow="visible"/></clipPath><g clip-path="url(#d)" stroke="#000" stroke-linejoin="bevel" stroke-miterlimit="10" fill="none"><line x1="-895.405" y1="22.525" x2="263.897" y2="495"/><line x1="-849.227" y1="22.525" x2="310.075" y2="495"/><line x1="-803.048" y1="22.525" x2="356.253" y2="495"/><line x1="-756.87" y1="22.525" x2="402.432" y2="495"/><line x1="-710.692" y1="22.525" x2="448.609" y2="495"/><line x1="-664.514" y1="22.525" x2="494.787" y2="495"/><line x1="-618.335" y1="22.525" x2="540.965" y2="495"/><line x1="-572.157" y1="22.525" x2="587.143" y2="495"/><line x1="-525.979" y1="22.525" x2="633.32" y2="495"/><line x1="-479.801" y1="22.525" x2="679.498" y2="495"/><line x1="-433.623" y1="22.525" x2="725.676" y2="495"/><line x1="-387.444" y1="22.525" x2="771.854" y2="495"/><line x1="-341.266" y1="22.525" x2="818.031" y2="495"/><line x1="-295.088" y1="22.525" x2="864.209" y2="495"/><line x1="-248.91" y1="22.525" x2="910.387" y2="495"/><line x1="-202.731" y1="22.525" x2="956.564" y2="495"/><line x1="-156.553" y1="22.525" x2="1002.742" y2="495"/><line x1="-110.375" y1="22.525" x2="1048.92" y2="495"/><line x1="-64.197" y1="22.525" x2="1095.098" y2="495"/><line x1="-18.019" y1="22.525" x2="1141.275" y2="495"/><line x1="28.16" y1="22.525" x2="1187.453" y2="495"/><line x1="74.338" y1="22.525" x2="1233.631" y2="495"/><line x1="120.516" y1="22.525" x2="1279.809" y2="495"/><line x1="166.694" y1="22.525" x2="1325.986" y2="495"/><line x1="212.873" y1="22.525" x2="1372.164" y2="495"/><line x1="259.051" y1="22.525" x2="1418.342" y2="495"/><line x1="305.229" y1="22.525" x2="1464.52" y2="495"/><line x1="351.407" y1="22.525" x2="1510.697" y2="495"/><line x1="397.585" y1="22.525" x2="1556.875" y2="495"/><line x1="443.764" y1="22.525" x2="1603.053" y2="495"/><line x1="351.407" y1="23.005" x2="-655.94" y2="495.479"/><line x1="397.585" y1="23.005" x2="-609.762" y2="495.479"/><line x1="443.764" y1="23.005" x2="-563.584" y2="495.479"/><line x1="489.941" y1="23.005" x2="-517.406" y2="495.479"/><line x1="536.119" y1="23.005" x2="-471.228" y2="495.479"/><line x1="582.297" y1="23.005" x2="-425.049" y2="495.479"/><line x1="628.475" y1="23.005" x2="-378.871" y2="495.479"/><line x1="674.652" y1="23.005" x2="-332.693" y2="495.479"/><line x1="720.83" y1="23.005" x2="-286.515" y2="495.479"/><line x1="767.008" y1="23.005" x2="-240.336" y2="495.479"/><line x1="813.186" y1="23.005" x2="-194.158" y2="495.479"/><line x1="859.363" y1="23.005" x2="-147.98" y2="495.479"/><line x1="905.541" y1="23.005" x2="-101.802" y2="495.479"/><line x1="951.719" y1="23.005" x2="-55.624" y2="495.479"/><line x1="997.896" y1="23.005" x2="-9.445" y2="495.479"/><line x1="1044.074" y1="23.005" x2="36.733" y2="495.479"/><line x1="1090.252" y1="23.005" x2="82.911" y2="495.479"/><line x1="1136.43" y1="23.005" x2="129.089" y2="495.479"/><line x1="1182.607" y1="23.005" x2="175.268" y2="495.479"/><line x1="1228.785" y1="23.005" x2="221.446" y2="495.479"/><line x1="1274.963" y1="23.005" x2="267.624" y2="495.479"/><line x1="1321.141" y1="23.005" x2="313.802" y2="495.479"/><line x1="1367.318" y1="23.005" x2="359.98" y2="495.479"/></g></g><polyline fill="#485157" points="523.115,108.936 575.25,85 581.114,87.979 522.409,115.163"/><polygon opacity=".1" points="454.802,111.692 450.688,107.409 412.826,103.126 405.459,89.419 418.651,68.345 475.704,59.95 498.148,75.541 487.013,103.298"/><polygon fill="#A3BE5F" points="454.736,99.591 451.015,95.714 416.739,91.837 410.071,79.431 422.012,60.354 473.657,52.755 493.972,66.868 483.893,91.992"/><polygon fill="#F1E0A6" points="493.972,73.963 483.893,99.087 454.736,106.687 451.015,102.81 416.739,98.932 410.071,86.525 410.071,81.911 416.739,94.318 451.015,98.195 454.736,102.073 483.893,94.474 493.972,69.349"/><polygon fill="#969F5A" points="410.071,81.911 416.739,94.318 451.015,98.195 454.736,102.073 483.893,94.474 493.972,69.349 493.972,66.868 483.893,91.992 454.736,99.591 451.015,95.714 416.739,91.837 410.071,79.431"/><polygon fill="#747E42" points="416.739,94.318 416.739,91.837 451.015,95.714 451.015,98.195"/><polygon fill="#747E42" points="454.736,99.591 454.736,102.073 483.893,94.474 483.893,91.992"/><polygon fill="#D7CA93" points="416.739,94.318 416.739,98.932 451.015,102.81 451.015,98.195"/><polygon fill="#D7CA93" points="454.736,106.687 454.736,102.073 483.893,94.474 483.893,99.087"/><polygon opacity=".1" points="549.901,92.561 523.335,105.086 501.74,95.854 528.07,83.855"/><polygon fill="#fff" points="510.195,96.332 510.195,82.061 523.299,87.493 523.299,101.981"/><polygon fill="#E5DBDE" points="540.112,79.982 523.299,87.503 523.299,101.981 540.112,94.223"/><polygon fill="#DC5A38" points="510.195,82.082 518.945,75.938 523.3,87.498"/><polygon fill="#8A6D56" points="530.397,98.706 527.397,100 527.397,92.747 530.397,91.393"/><polyline fill="#C14F34" points="523.3,87.498 540.112,79.977 531.093,70.407 518.945,75.938 523.3,87.498"/><polygon opacity=".1" points="505.299,128.35 530.695,138.96 550.81,129.844 525.685,119.412"/><polygon fill="#fff" points="511.881,128.961 511.881,114.764 530.714,122.552 530.714,137.001"/><polygon fill="#E5DBDE" points="541.781,117.594 530.697,122.552 530.714,137.001 541.813,131.98"/><polygon fill="#DC5A38" points="511.881,114.758 522.131,106.967 533.922,111.835 530.682,122.561"/><polygon fill="#C14F34" points="541.797,117.594 533.922,111.835 530.714,122.552"/><polygon fill="#A9C7F7" points="524.893,128.906 527.893,130.343 527.893,126.302 524.893,125.031"/><polygon fill="#A9C7F7" points="513.935,123.906 516.935,125.343 516.935,121.302 513.935,120.031"/><polygon opacity=".1" points="490.137,127.574 496.796,130.405 502.774,127.716 496.026,124.913"/><polygon fill="#A65C26" points="493.889,127.977 496.83,129.245 496.83,122.401 494.826,122.401"/><polygon fill="#8F4A1B" points="496.83,129.245 499.535,127.835 498.701,122.982 496.83,122.816"/><polygon fill="#578034" points="496.891,125.515 490.887,122.924 496.891,110.357"/><polygon fill="#4F6E32" points="496.851,125.515 502.22,123.198 496.851,110.357"/><polygon opacity=".1" points="558,142.294 564.659,145.125 570.638,142.436 563.89,139.633"/><polygon fill="#A65C26" points="561.752,142.697 564.693,143.965 564.693,137.121 562.689,137.121"/><polygon fill="#8F4A1B" points="564.693,143.965 567.398,142.556 566.564,137.702 564.693,137.536"/><polygon fill="#578034" points="564.754,140.235 558.75,137.644 564.754,125.077"/><polygon fill="#4F6E32" points="564.714,140.235 570.083,137.918 564.714,125.077"/><polygon opacity=".1" points="570.24,128.681 607.534,144.537 641.014,129.477 603.224,113.779"/><polygon fill="#E0C977" points="575.429,123.236 607.211,136.345 634.486,124.085 602.559,110.991"/><polygon fill="#C2AA5C" points="583.02,122.846 583.857,123.191 584.577,122.868 583.733,122.522"/><polygon fill="#F7DE8B" points="607.211,142.8 575.401,129.207 575.401,123.191 607.211,136.276"/><polygon fill="#C2AA5C" points="634.46,124.041 607.184,136.3 607.184,142.826 634.46,130.395"/><g fill="#E0C977"><polygon points="611.15,141.014 612.485,140.405 612.485,133.912 611.15,134.508"/><polygon points="625.801,134.337 627.137,133.728 627.137,127.317 625.801,127.914"/><polygon points="615.302,139.162 615.97,138.821 615.97,132.357 615.302,132.655"/><polygon points="618.438,137.74 619.105,137.4 619.105,130.935 618.438,131.234"/><polygon points="619.505,137.226 620.171,136.886 620.171,130.422 619.505,130.721"/><polygon points="632.879,131.172 633.546,130.832 633.546,124.471 632.879,124.769"/><polygon points="627.926,133.432 628.594,133.092 628.594,126.73 627.926,127.029"/></g><g fill="#E0C977"><polygon points="601.24,140.21 599.905,139.602 599.905,133.109 601.24,133.706"/><polygon points="586.59,133.839 585.254,133.23 585.254,127.317 586.59,127.914"/><polygon points="597.09,138.359 596.423,138.018 596.423,131.843 597.09,132.142"/><polygon points="593.954,137.107 593.285,136.767 593.285,130.578 593.954,130.876"/><polygon points="592.888,136.593 592.22,136.253 592.22,130.132 592.888,130.431"/><polygon points="579.514,130.935 578.846,130.595 578.846,124.656 579.514,124.955"/><polygon points="584.466,132.97 583.798,132.63 583.798,126.582 584.466,126.88"/></g><polygon fill="#C2AA5C" points="588.636,124.645 589.475,124.991 590.193,124.667 589.352,124.322"/><polygon fill="#C2AA5C" points="592.22,120.995 593.059,121.34 593.776,121.017 592.936,120.671"/><polygon fill="#C2AA5C" points="602.317,114.212 603.155,114.558 603.875,114.234 603.032,113.889"/><polygon fill="#C2AA5C" points="617.471,121.786 618.309,122.132 619.028,121.809 618.187,121.463"/><polygon fill="#C2AA5C" points="611.709,123.995 612.53,124.377 613.265,124.085 612.438,123.704"/><polygon fill="#C2AA5C" points="609.688,121.329 610.528,121.675 611.246,121.352 610.404,121.006"/><polygon fill="#C2AA5C" points="601.539,119.354 602.377,119.7 603.097,119.377 602.255,119.031"/><polygon fill="#C2AA5C" points="601.539,124.979 602.377,125.325 603.097,125.002 602.255,124.656"/><polygon fill="#C2AA5C" points="611.708,126.897 612.545,127.243 613.266,126.919 612.423,126.574"/><polygon fill="#C2AA5C" points="603.097,131.161 603.935,131.506 604.654,131.183 603.812,130.838"/><polygon fill="#C2AA5C" points="605.626,122.846 606.464,123.191 607.184,122.868 606.342,122.522"/><polygon fill="#C2AA5C" points="625.69,124.029 626.529,124.375 627.247,124.051 626.406,123.706"/><polygon fill="#C2AA5C" points="621.25,124.979 622.087,125.325 622.808,125.002 621.964,124.656"/><polygon fill="#C2AA5C" points="609.688,116.906 610.528,117.252 611.246,116.928 610.404,116.583"/><polygon fill="#C2AA5C" points="597.09,117.241 597.928,117.586 598.647,117.263 597.805,116.917"/><polygon fill="#C2AA5C" points="597.09,126.897 597.928,127.243 598.647,126.919 597.805,126.574"/><polygon opacity=".1" points="568.725,120.692 587.729,111.805 564.466,102.343 545.537,111.249"/><polygon fill="#91BE68" points="568.743,116.076 583.243,109.295 565.493,102.076 551.052,108.871"/><polygon fill="#548628" points="551.052,110.498 551.052,111.83 568.803,119.062 568.802,116.09 551.052,108.871"/><path fill="#A4B5B7" d="M551.052 109.871"/><polygon fill="#4B722E" points="568.803,119.062 583.244,112.213 583.244,109.254 568.803,116.049"/><polygon fill="#706D6E" points="555.855,108.193 568.803,113.468 568.802,101.496 555.867,96.235"/><path fill="#A4B5B7" d="M551.052 104.277"/><polygon fill="#5C5858" points="568.803,113.468 579.359,108.469 579.359,96.553 568.803,101.455"/><polygon fill="#CDCDCC" points="568.772,101.504 579.359,96.553 566.398,91.283 555.855,96.244"/><path fill="#A4B5B7" d="M555.724 92.832"/><polygon opacity=".1" points="479.038,67.699 447.311,82.658 421.521,71.632 452.966,57.303"/><polygon fill="#86D5EA" points="482.728,76.056 468.999,82.528 457.841,77.757 471.446,71.558"/><polygon fill="#fff" points="431.619,72.203 431.619,55.16 447.268,61.647 447.268,78.949"/><polygon fill="#E5DBDE" points="467.348,52.677 447.268,61.659 447.268,78.949 467.348,69.684"/><polygon fill="#DC5A38" points="431.619,55.184 442.068,47.847 447.269,61.653"/><polygon fill="#8A6D56" points="455.745,75.038 452.163,76.584 452.163,67.921 455.745,66.304"/><polyline fill="#C14F34" points="447.269,61.653 467.348,52.671 456.576,41.242 442.068,47.847 447.269,61.653"/><polygon opacity=".1" points="465.6,88.431 474.006,92.005 481.553,88.61 473.035,85.072"/><polygon fill="#A65C26" points="471.032,88.577 473.974,89.844 473.974,79.022 472.503,79.121"/><polygon fill="#8F4A1B" points="473.974,89.844 476.679,88.435 475.326,78.496 473.974,79.861"/><polygon fill="#578034" points="474.034,81.114 468.029,78.523 474.034,46.693"/><polygon fill="#4F6E32" points="473.994,81.114 479.363,78.797 473.994,46.693"/><polygon opacity=".1" points="415.527,87.702 423.934,91.275 431.48,87.881 422.963,84.342"/><polygon fill="#A65C26" points="420.96,87.847 423.901,89.115 423.901,78.293 422.431,78.391"/><polygon fill="#8F4A1B" points="423.901,89.115 426.606,87.706 425.254,77.766 423.901,79.132"/><polygon fill="#578034" points="423.962,80.385 417.957,77.794 423.962,45.964"/><polygon fill="#4F6E32" points="423.922,80.385 429.291,78.068 423.922,45.964"/><polygon opacity=".1" points="499.219,108.926 507.625,112.5 515.172,109.105 506.654,105.567"/><polygon fill="#A65C26" points="504.651,109.072 507.593,110.339 507.593,99.518 506.122,99.616"/><polygon fill="#8F4A1B" points="507.593,110.339 510.298,108.93 508.945,98.991 507.593,100.356"/><polygon fill="#578034" points="507.653,101.609 501.648,99.019 507.653,67.188"/><polygon fill="#4F6E32" points="507.613,101.609 512.982,99.292 507.613,67.188"/><polygon opacity=".1" points="452.374,91.309 459.033,94.14 465.012,91.45 458.264,88.647"/><polygon fill="#A65C26" points="456.126,91.711 459.067,92.979 459.067,86.135 457.063,86.135"/><polygon fill="#8F4A1B" points="459.067,92.979 461.772,91.57 460.938,86.716 459.067,86.55"/><polygon fill="#578034" points="459.128,89.249 453.124,86.658 459.128,74.091"/><polygon fill="#4F6E32" points="459.088,89.249 464.457,86.932 459.088,74.091"/></svg>