<svg xmlns="http://www.w3.org/2000/svg" xmlns:xlink="http://www.w3.org/1999/xlink" width="819" height="508"><polygon fill="#6E9C44" points="546.972,178.271 501.97,160.402 452.092,139.856 411.111,123.263 403.697,117.797 392.14,96.553 396.983,67.62 419.05,65.087 520.492,58 659.065,126.529"/><path fill="#6E9C44" d="M546.667 178.601"/><defs><polygon id="a" points="547.783,178.601 502.037,160.079 452.092,139.856 411.111,123.263 403.697,117.797 392.14,96.553 396.983,67.62 419.05,65.087 520.492,58 659.065,126.529"/></defs><clipPath id="b"><use xlink:href="#a" overflow="visible"/></clipPath><g opacity=".02" clip-path="url(#b)"><defs><polygon id="c" opacity=".02" points="76.235,426.574 10.699,292.314 274.363,87.656 300.363,74.311 530.492,57 785.75,184.102 829,259.242 577.897,402.119 559.696,402.119 375.696,475.613 301.696,493.844"/></defs><clipPath id="d"><use xlink:href="#c" overflow="visible"/></clipPath><g clip-path="url(#d)" stroke="#000" stroke-linejoin="bevel" stroke-miterlimit="10" fill="none"><line x1="-895.405" y1="22.525" x2="263.897" y2="495"/><line x1="-849.227" y1="22.525" x2="310.075" y2="495"/><line x1="-803.048" y1="22.525" x2="356.253" y2="495"/><line x1="-756.87" y1="22.525" x2="402.432" y2="495"/><line x1="-710.692" y1="22.525" x2="448.609" y2="495"/><line x1="-664.514" y1="22.525" x2="494.787" y2="495"/><line x1="-618.335" y1="22.525" x2="540.965" y2="495"/><line x1="-572.157" y1="22.525" x2="587.143" y2="495"/><line x1="-525.979" y1="22.525" x2="633.32" y2="495"/><line x1="-479.801" y1="22.525" x2="679.498" y2="495"/><line x1="-433.623" y1="22.525" x2="725.676" y2="495"/><line x1="-387.444" y1="22.525" x2="771.854" y2="495"/><line x1="-341.266" y1="22.525" x2="818.031" y2="495"/><line x1="-295.088" y1="22.525" x2="864.209" y2="495"/><line x1="-248.91" y1="22.525" x2="910.387" y2="495"/><line x1="-202.731" y1="22.525" x2="956.564" y2="495"/><line x1="-156.553" y1="22.525" x2="1002.742" y2="495"/><line x1="-110.375" y1="22.525" x2="1048.92" y2="495"/><line x1="-64.197" y1="22.525" x2="1095.098" y2="495"/><line x1="-18.019" y1="22.525" x2="1141.275" y2="495"/><line x1="28.16" y1="22.525" x2="1187.453" y2="495"/><line x1="74.338" y1="22.525" x2="1233.631" y2="495"/><line x1="120.516" y1="22.525" x2="1279.809" y2="495"/><line x1="166.694" y1="22.525" x2="1325.986" y2="495"/><line x1="212.873" y1="22.525" x2="1372.164" y2="495"/><line x1="259.051" y1="22.525" x2="1418.342" y2="495"/><line x1="305.229" y1="22.525" x2="1464.52" y2="495"/><line x1="351.407" y1="22.525" x2="1510.697" y2="495"/><line x1="397.585" y1="22.525" x2="1556.875" y2="495"/><line x1="443.764" y1="22.525" x2="1603.053" y2="495"/><line x1="351.407" y1="23.005" x2="-655.94" y2="495.479"/><line x1="397.585" y1="23.005" x2="-609.762" y2="495.479"/><line x1="443.764" y1="23.005" x2="-563.584" y2="495.479"/><line x1="489.941" y1="23.005" x2="-517.406" y2="495.479"/><line x1="536.119" y1="23.005" x2="-471.228" y2="495.479"/><line x1="582.297" y1="23.005" x2="-425.049" y2="495.479"/><line x1="628.475" y1="23.005" x2="-378.871" y2="495.479"/><line x1="674.652" y1="23.005" x2="-332.693" y2="495.479"/><line x1="720.83" y1="23.005" x2="-286.515" y2="495.479"/><line x1="767.008" y1="23.005" x2="-240.336" y2="495.479"/><line x1="813.186" y1="23.005" x2="-194.158" y2="495.479"/><line x1="859.363" y1="23.005" x2="-147.98" y2="495.479"/><line x1="905.541" y1="23.005" x2="-101.802" y2="495.479"/><line x1="951.719" y1="23.005" x2="-55.624" y2="495.479"/><line x1="997.896" y1="23.005" x2="-9.445" y2="495.479"/><line x1="1044.074" y1="23.005" x2="36.733" y2="495.479"/><line x1="1090.252" y1="23.005" x2="82.911" y2="495.479"/><line x1="1136.43" y1="23.005" x2="129.089" y2="495.479"/><line x1="1182.607" y1="23.005" x2="175.268" y2="495.479"/><line x1="1228.785" y1="23.005" x2="221.446" y2="495.479"/><line x1="1274.963" y1="23.005" x2="267.624" y2="495.479"/><line x1="1321.141" y1="23.005" x2="313.802" y2="495.479"/><line x1="1367.318" y1="23.005" x2="359.98" y2="495.479"/></g></g><polygon opacity=".1" points="553.478,136.438 560.137,139.269 566.115,136.58 559.367,133.776"/><polygon fill="#A65C26" points="557.229,136.841 560.171,138.108 560.171,131.265 558.167,131.265"/><polygon fill="#8F4A1B" points="560.171,138.108 562.876,136.699 562.042,131.846 560.171,131.68"/><polygon fill="#578034" points="560.231,134.378 554.228,131.788 560.231,119.221"/><polygon fill="#4F6E32" points="560.191,134.378 565.561,132.062 560.191,119.221"/><polygon opacity=".1" points="568.725,120.692 587.729,111.805 564.466,102.343 545.537,111.249"/><polygon fill="#91BE68" points="568.743,116.076 583.243,109.295 565.493,102.076 551.052,108.871"/><polygon fill="#548628" points="551.052,110.498 551.052,111.83 568.803,119.062 568.802,116.09 551.052,108.871"/><path fill="#A4B5B7" d="M551.052 109.871"/><polygon fill="#4B722E" points="568.803,119.062 583.244,112.213 583.244,109.254 568.803,116.049"/><path fill="#A4B5B7" d="M551.052 104.277"/><path fill="#A4B5B7" d="M555.724 92.832"/><polygon opacity=".1" points="508.219,103.926 516.625,107.5 524.172,104.105 515.654,100.567"/><polygon fill="#A65C26" points="513.651,104.072 516.593,105.339 516.593,94.518 515.122,94.616"/><polygon fill="#8F4A1B" points="516.593,105.339 519.298,103.93 517.945,93.991 516.593,95.356"/><polygon fill="#578034" points="516.653,96.609 510.648,94.019 516.653,62.188"/><polygon fill="#4F6E32" points="516.613,96.609 521.982,94.292 516.613,62.188"/><polygon opacity=".1" points="536.937,99.198 543.596,102.029 549.574,99.339 542.826,96.536"/><polygon fill="#A65C26" points="540.688,99.601 543.63,100.868 543.63,94.024 541.626,94.024"/><polygon fill="#8F4A1B" points="543.63,100.868 546.335,99.459 545.501,94.605 543.63,94.439"/><polygon fill="#578034" points="543.69,97.138 537.687,94.547 543.69,81.98"/><polygon fill="#4F6E32" points="543.65,97.138 549.02,94.821 543.65,81.98"/><polygon opacity=".1" points="514.299,122.35 539.695,132.96 559.81,123.844 534.685,113.412"/><polygon fill="#fff" points="520.881,122.961 520.881,108.764 539.714,116.552 539.714,131.001"/><polygon fill="#E5DBDE" points="550.781,111.594 539.697,116.552 539.714,131.001 550.813,125.98"/><polygon fill="#DC5A38" points="520.881,108.758 531.131,100.967 542.922,105.835 539.682,116.561"/><polygon fill="#C14F34" points="550.797,111.594 542.922,105.835 539.714,116.552"/><polygon fill="#A9C7F7" points="533.893,122.906 536.893,124.343 536.893,120.302 533.893,119.031"/><polygon fill="#A9C7F7" points="522.935,117.906 525.935,119.343 525.935,115.302 522.935,114.031"/><polygon opacity=".1" points="492.461,116.61 506.804,122.707 519.68,116.915 505.146,110.877"/><polygon fill="#A55E28" points="501.485,117.532 506.672,119.959 506.672,110.577 503.548,108.657"/><polygon fill="#914A16" points="506.672,119.959 511.61,117.469 509.985,109.782 506.672,111.096"/><polygon fill="#BBD260" points="506.732,112.23 495.235,107.282 506.732,79.03"/><polygon fill="#99AF41" points="506.691,112.23 517.985,107.344 506.691,79.03"/></svg>