<svg xmlns="http://www.w3.org/2000/svg" xmlns:xlink="http://www.w3.org/1999/xlink" width="819" height="508"><polygon fill="#6E9C44" points="546.972,178.271 501.97,160.402 452.092,139.856 411.111,123.263 403.697,117.797 392.14,96.553 396.983,67.62 419.05,65.087 520.492,58 659.065,126.529"/><path fill="#6E9C44" d="M546.667 178.601"/><defs><polygon id="a" points="547.783,178.601 502.037,160.079 452.092,139.856 411.111,123.263 403.697,117.797 392.14,96.553 396.983,67.62 419.05,65.087 520.492,58 659.065,126.529"/></defs><clipPath id="b"><use xlink:href="#a" overflow="visible"/></clipPath><g opacity=".02" clip-path="url(#b)"><defs><polygon id="c" opacity=".02" points="76.235,426.574 10.699,292.314 274.363,87.656 300.363,74.311 530.492,57 785.75,184.102 829,259.242 577.897,402.119 559.696,402.119 375.696,475.613 301.696,493.844"/></defs><clipPath id="d"><use xlink:href="#c" overflow="visible"/></clipPath><g clip-path="url(#d)" stroke="#000" stroke-linejoin="bevel" stroke-miterlimit="10" fill="none"><line x1="-895.405" y1="22.525" x2="263.897" y2="495"/><line x1="-849.227" y1="22.525" x2="310.075" y2="495"/><line x1="-803.048" y1="22.525" x2="356.253" y2="495"/><line x1="-756.87" y1="22.525" x2="402.432" y2="495"/><line x1="-710.692" y1="22.525" x2="448.609" y2="495"/><line x1="-664.514" y1="22.525" x2="494.787" y2="495"/><line x1="-618.335" y1="22.525" x2="540.965" y2="495"/><line x1="-572.157" y1="22.525" x2="587.143" y2="495"/><line x1="-525.979" y1="22.525" x2="633.32" y2="495"/><line x1="-479.801" y1="22.525" x2="679.498" y2="495"/><line x1="-433.623" y1="22.525" x2="725.676" y2="495"/><line x1="-387.444" y1="22.525" x2="771.854" y2="495"/><line x1="-341.266" y1="22.525" x2="818.031" y2="495"/><line x1="-295.088" y1="22.525" x2="864.209" y2="495"/><line x1="-248.91" y1="22.525" x2="910.387" y2="495"/><line x1="-202.731" y1="22.525" x2="956.564" y2="495"/><line x1="-156.553" y1="22.525" x2="1002.742" y2="495"/><line x1="-110.375" y1="22.525" x2="1048.92" y2="495"/><line x1="-64.197" y1="22.525" x2="1095.098" y2="495"/><line x1="-18.019" y1="22.525" x2="1141.275" y2="495"/><line x1="28.16" y1="22.525" x2="1187.453" y2="495"/><line x1="74.338" y1="22.525" x2="1233.631" y2="495"/><line x1="120.516" y1="22.525" x2="1279.809" y2="495"/><line x1="166.694" y1="22.525" x2="1325.986" y2="495"/><line x1="212.873" y1="22.525" x2="1372.164" y2="495"/><line x1="259.051" y1="22.525" x2="1418.342" y2="495"/><line x1="305.229" y1="22.525" x2="1464.52" y2="495"/><line x1="351.407" y1="22.525" x2="1510.697" y2="495"/><line x1="397.585" y1="22.525" x2="1556.875" y2="495"/><line x1="443.764" y1="22.525" x2="1603.053" y2="495"/><line x1="351.407" y1="23.005" x2="-655.94" y2="495.479"/><line x1="397.585" y1="23.005" x2="-609.762" y2="495.479"/><line x1="443.764" y1="23.005" x2="-563.584" y2="495.479"/><line x1="489.941" y1="23.005" x2="-517.406" y2="495.479"/><line x1="536.119" y1="23.005" x2="-471.228" y2="495.479"/><line x1="582.297" y1="23.005" x2="-425.049" y2="495.479"/><line x1="628.475" y1="23.005" x2="-378.871" y2="495.479"/><line x1="674.652" y1="23.005" x2="-332.693" y2="495.479"/><line x1="720.83" y1="23.005" x2="-286.515" y2="495.479"/><line x1="767.008" y1="23.005" x2="-240.336" y2="495.479"/><line x1="813.186" y1="23.005" x2="-194.158" y2="495.479"/><line x1="859.363" y1="23.005" x2="-147.98" y2="495.479"/><line x1="905.541" y1="23.005" x2="-101.802" y2="495.479"/><line x1="951.719" y1="23.005" x2="-55.624" y2="495.479"/><line x1="997.896" y1="23.005" x2="-9.445" y2="495.479"/><line x1="1044.074" y1="23.005" x2="36.733" y2="495.479"/><line x1="1090.252" y1="23.005" x2="82.911" y2="495.479"/><line x1="1136.43" y1="23.005" x2="129.089" y2="495.479"/><line x1="1182.607" y1="23.005" x2="175.268" y2="495.479"/><line x1="1228.785" y1="23.005" x2="221.446" y2="495.479"/><line x1="1274.963" y1="23.005" x2="267.624" y2="495.479"/><line x1="1321.141" y1="23.005" x2="313.802" y2="495.479"/><line x1="1367.318" y1="23.005" x2="359.98" y2="495.479"/></g></g><g fill="#485157"><polygon points="411.111,123.263 547.783,178.601 554.605,175.762 415.671,119.305"/><path d="M422.782 64.196c-6.85 4.585-15.351 11.829-19.666 18.602-5.052 7.93-6.643 15.06-4.729 21.191 2.827 9.051 12.51 13.216 12.608 13.257l17.92 7.441-3.014 4.449-17-6.75c-.531-.22-12.161-5.157-15.794-16.687-2.451-7.778-.658-16.487 5.328-25.884 3.063-4.81 7.31-9.419 12.696-13.792"/><polygon points="581.114,87.979 464.023,142.199 456.908,139.333 575.25,85"/></g><polygon opacity=".1" points="454.802,111.692 450.688,107.409 412.826,103.126 405.459,89.419 418.651,68.345 475.704,59.95 498.148,75.541 487.013,103.298"/><polygon fill="#A3BE5F" points="454.736,99.591 451.015,95.714 416.739,91.837 410.071,79.431 422.012,60.354 473.657,52.755 493.972,66.868 483.893,91.992"/><polygon fill="#F1E0A6" points="493.972,73.963 483.893,99.087 454.736,106.687 451.015,102.81 416.739,98.932 410.071,86.525 410.071,81.911 416.739,94.318 451.015,98.195 454.736,102.073 483.893,94.474 493.972,69.349"/><polygon fill="#969F5A" points="410.071,81.911 416.739,94.318 451.015,98.195 454.736,102.073 483.893,94.474 493.972,69.349 493.972,66.868 483.893,91.992 454.736,99.591 451.015,95.714 416.739,91.837 410.071,79.431"/><polygon fill="#747E42" points="416.739,94.318 416.739,91.837 451.015,95.714 451.015,98.195"/><polygon fill="#747E42" points="454.736,99.591 454.736,102.073 483.893,94.474 483.893,91.992"/><polygon fill="#D7CA93" points="416.739,94.318 416.739,98.932 451.015,102.81 451.015,98.195"/><polygon fill="#D7CA93" points="454.736,106.687 454.736,102.073 483.893,94.474 483.893,99.087"/><polygon fill="#485157" points="418.63,58 463.067,76.686 469.349,73.828 418.929,53.209"/><polygon opacity=".1" points="562.697,85.772 526.47,102.853 497.021,90.263 532.927,73.901"/><polygon fill="#fff" points="508.552,90.915 508.552,71.454 526.421,78.861 526.421,98.618"/><polygon fill="#E5DBDE" points="549.349,68.62 526.421,78.875 526.421,98.618 549.349,88.039"/><polygon fill="#DC5A38" points="508.552,71.482 520.483,63.104 526.422,78.868"/><polygon fill="#8A6D56" points="536.1,94.152 532.009,95.917 532.009,86.025 536.1,84.179"/><polyline fill="#C14F34" points="526.422,78.868 549.349,68.612 537.049,55.562 520.483,63.104 526.422,78.868"/><polygon opacity=".1" points="529.901,101.561 503.335,114.086 481.74,104.854 508.07,92.855"/><polygon fill="#fff" points="490.195,105.332 490.195,91.061 503.299,96.493 503.299,110.981"/><polygon fill="#E5DBDE" points="520.112,88.982 503.299,96.503 503.299,110.981 520.112,103.223"/><polygon fill="#DC5A38" points="490.195,91.082 498.945,84.938 503.3,96.498"/><polygon fill="#8A6D56" points="510.397,107.706 507.397,109 507.397,101.747 510.397,100.393"/><polyline fill="#C14F34" points="503.3,96.498 520.112,88.977 511.093,79.407 498.945,84.938 503.3,96.498"/><polygon opacity=".1" points="506.299,130.35 531.695,140.96 551.81,131.844 526.685,121.412"/><polygon fill="#fff" points="512.881,130.961 512.881,116.764 531.714,124.552 531.714,139.001"/><polygon fill="#E5DBDE" points="542.781,119.594 531.697,124.552 531.714,139.001 542.813,133.98"/><polygon fill="#DC5A38" points="512.881,116.758 523.131,108.967 534.922,113.835 531.682,124.561"/><polygon fill="#C14F34" points="542.797,119.594 534.922,113.835 531.714,124.552"/><polygon fill="#A9C7F7" points="525.893,130.906 528.893,132.343 528.893,128.302 525.893,127.031"/><polygon fill="#A9C7F7" points="514.935,125.906 517.935,127.343 517.935,123.302 514.935,122.031"/><polygon opacity=".1" points="539.322,144.388 564.719,154.999 584.833,145.882 559.708,135.45"/><polygon fill="#fff" points="545.904,145 545.904,130.802 564.737,138.591 564.737,153.04"/><polygon fill="#E5DBDE" points="575.805,133.633 564.721,138.591 564.737,153.04 575.837,148.019"/><polygon fill="#DC5A38" points="545.904,130.796 556.154,123.005 567.945,127.874 564.705,138.6"/><polygon fill="#C14F34" points="575.82,133.633 567.945,127.874 564.737,138.591"/><polygon fill="#A9C7F7" points="558.916,144.945 561.916,146.381 561.916,142.34 558.916,141.07"/><polygon fill="#A9C7F7" points="547.958,139.945 550.958,141.381 550.958,137.34 547.958,136.07"/><polygon opacity=".1" points="489.137,143.574 495.796,146.405 501.774,143.716 495.026,140.913"/><polygon fill="#A65C26" points="492.889,143.977 495.83,145.245 495.83,138.401 493.826,138.401"/><polygon fill="#8F4A1B" points="495.83,145.245 498.535,143.835 497.701,138.982 495.83,138.816"/><polygon fill="#578034" points="495.891,141.515 489.887,138.924 495.891,126.357"/><polygon fill="#4F6E32" points="495.851,141.515 501.22,139.198 495.851,126.357"/><polygon opacity=".1" points="515.843,155.758 522.502,158.589 528.48,155.899 521.732,153.096"/><polygon fill="#A65C26" points="519.595,156.161 522.536,157.428 522.536,150.584 520.532,150.584"/><polygon fill="#8F4A1B" points="522.536,157.428 525.241,156.019 524.407,151.166 522.536,151"/><polygon fill="#578034" points="522.597,153.698 516.593,151.107 522.597,138.541"/><polygon fill="#4F6E32" points="522.557,153.698 527.926,151.381 522.557,138.541"/><polygon opacity=".1" points="545.917,166.724 552.576,169.555 558.555,166.865 551.807,164.062"/><polygon fill="#A65C26" points="549.669,167.126 552.61,168.394 552.61,161.55 550.606,161.55"/><polygon fill="#8F4A1B" points="552.61,168.394 555.315,166.985 554.481,162.131 552.61,161.965"/><polygon fill="#578034" points="552.671,164.664 546.667,162.073 552.671,149.506"/><polygon fill="#4F6E32" points="552.631,164.664 558,162.347 552.631,149.506"/><polygon opacity=".1" points="570.24,124.681 607.534,140.537 641.014,125.477 603.224,109.779"/><polygon fill="#E0C977" points="575.429,119.236 607.211,132.345 634.486,120.085 602.559,106.991"/><polygon fill="#C2AA5C" points="583.02,118.846 583.857,119.191 584.577,118.868 583.733,118.522"/><polygon fill="#F7DE8B" points="607.211,138.8 575.401,125.207 575.401,119.191 607.211,132.276"/><polygon fill="#C2AA5C" points="634.46,120.041 607.184,132.3 607.184,138.826 634.46,126.395"/><g fill="#E0C977"><polygon points="611.15,137.014 612.485,136.405 612.485,129.912 611.15,130.508"/><polygon points="625.801,130.337 627.137,129.728 627.137,123.317 625.801,123.914"/><polygon points="615.302,135.162 615.97,134.821 615.97,128.357 615.302,128.655"/><polygon points="618.438,133.74 619.105,133.4 619.105,126.935 618.438,127.234"/><polygon points="619.505,133.226 620.171,132.886 620.171,126.422 619.505,126.721"/><polygon points="632.879,127.172 633.546,126.832 633.546,120.471 632.879,120.769"/><polygon points="627.926,129.432 628.594,129.092 628.594,122.73 627.926,123.029"/></g><g fill="#E0C977"><polygon points="601.24,136.21 599.905,135.602 599.905,129.109 601.24,129.706"/><polygon points="586.59,129.839 585.254,129.23 585.254,123.317 586.59,123.914"/><polygon points="597.09,134.359 596.423,134.018 596.423,127.843 597.09,128.142"/><polygon points="593.954,133.107 593.285,132.767 593.285,126.578 593.954,126.876"/><polygon points="592.888,132.593 592.22,132.253 592.22,126.132 592.888,126.431"/><polygon points="579.514,126.935 578.846,126.595 578.846,120.656 579.514,120.955"/><polygon points="584.466,128.97 583.798,128.63 583.798,122.582 584.466,122.88"/></g><polygon fill="#C2AA5C" points="588.636,120.645 589.475,120.991 590.193,120.667 589.352,120.322"/><polygon fill="#C2AA5C" points="592.22,116.995 593.059,117.34 593.776,117.017 592.936,116.671"/><polygon fill="#C2AA5C" points="602.317,110.212 603.155,110.558 603.875,110.234 603.032,109.889"/><polygon fill="#C2AA5C" points="617.471,117.786 618.309,118.132 619.028,117.809 618.187,117.463"/><polygon fill="#C2AA5C" points="611.709,119.995 612.53,120.377 613.265,120.085 612.438,119.704"/><polygon fill="#C2AA5C" points="609.688,117.329 610.528,117.675 611.246,117.352 610.404,117.006"/><polygon fill="#C2AA5C" points="601.539,115.354 602.377,115.7 603.097,115.377 602.255,115.031"/><polygon fill="#C2AA5C" points="601.539,120.979 602.377,121.325 603.097,121.002 602.255,120.656"/><polygon fill="#C2AA5C" points="611.708,122.897 612.545,123.243 613.266,122.919 612.423,122.574"/><polygon fill="#C2AA5C" points="603.097,127.161 603.935,127.506 604.654,127.183 603.812,126.838"/><polygon fill="#C2AA5C" points="605.626,118.846 606.464,119.191 607.184,118.868 606.342,118.522"/><polygon fill="#C2AA5C" points="625.69,120.029 626.529,120.375 627.247,120.051 626.406,119.706"/><polygon fill="#C2AA5C" points="621.25,120.979 622.087,121.325 622.808,121.002 621.964,120.656"/><polygon fill="#C2AA5C" points="609.688,112.906 610.528,113.252 611.246,112.928 610.404,112.583"/><polygon fill="#C2AA5C" points="597.09,113.241 597.928,113.586 598.647,113.263 597.805,112.917"/><polygon fill="#C2AA5C" points="597.09,122.897 597.928,123.243 598.647,122.919 597.805,122.574"/><polygon opacity=".1" points="437.891,61.814 464.619,73.179 488.613,62.386 461.529,51.136"/><polygon fill="#FFFCF7" points="445.113,58.505 464.596,66.541 481.316,59.025 461.744,50.998"/><polygon fill="#CCCBCB" points="464.596,70.499 445.096,62.165 445.096,58.478 464.596,66.499"/><polygon fill="#C0BEBF" points="481.301,58.998 464.58,66.514 464.58,70.514 481.301,62.894"/><polygon fill="#92AFDD" points="478.571,15.406 464.58,23.699 464.58,65.402 478.571,59.193"/><polygon fill="#A9C7F7" points="464.58,65.402 447.529,58.674 447.529,14.19 464.627,23.33"/><polygon fill="#93B4EA" points="451.092,59.998 451.092,17.633 451.682,18.179 451.682,60.277"/><polygon fill="#93B4EA" points="458.398,62.957 458.398,20.982 458.988,21.528 458.988,63.235"/><polygon fill="#FFFCF7" points="445.113,12.686 464.596,20.722 481.316,13.206 461.744,5.18"/><polygon fill="#CCCBCB" points="464.596,24.68 445.096,16.346 445.096,12.658 464.596,20.68"/><polygon fill="#C0BEBF" points="481.301,13.179 464.58,20.694 464.58,24.694 481.301,17.074"/><polygon opacity=".1" points="408.991,75.012 435.72,86.376 459.714,75.583 432.63,64.333"/><polygon fill="#FFFCF7" points="416.214,71.702 435.696,79.738 452.417,72.223 432.845,64.195"/><polygon fill="#CCCBCB" points="435.696,83.696 416.196,75.362 416.196,71.675 435.696,79.696"/><polygon fill="#C0BEBF" points="452.401,72.195 435.681,79.711 435.681,83.711 452.401,76.091"/><polygon fill="#92AFDD" points="449.672,38.604 435.681,46.896 435.681,78.6 449.672,72.391"/><polygon fill="#A9C7F7" points="435.681,78.6 418.63,71.871 418.63,37.388 435.728,46.527"/><polygon fill="#93B4EA" points="422.192,73.195 422.192,40.83 422.782,41.376 422.782,73.475"/><polygon fill="#93B4EA" points="429.499,76.154 429.499,44.18 430.089,44.726 430.089,76.433"/><polygon fill="#FFFCF7" points="416.214,35.883 435.696,43.919 452.417,36.403 432.845,28.377"/><polygon fill="#CCCBCB" points="435.696,47.877 416.196,39.543 416.196,35.855 435.696,43.877"/><polygon fill="#C0BEBF" points="452.401,36.376 435.681,43.892 435.681,47.892 452.401,40.271"/><polygon opacity=".1" points="415.527,87.702 423.934,91.275 431.48,87.881 422.963,84.342"/><polygon fill="#A65C26" points="420.96,87.847 423.901,89.115 423.901,78.293 422.431,78.391"/><polygon fill="#8F4A1B" points="423.901,89.115 426.606,87.706 425.254,77.766 423.901,79.132"/><polygon fill="#578034" points="423.962,80.385 417.957,77.794 423.962,45.964"/><polygon fill="#4F6E32" points="423.922,80.385 429.291,78.068 423.922,45.964"/><polygon opacity=".1" points="568.725,120.692 587.729,111.805 564.466,102.343 545.537,111.249"/><polygon fill="#91BE68" points="568.743,116.076 583.243,109.295 565.493,102.076 551.052,108.871"/><polygon fill="#548628" points="551.052,110.498 551.052,111.83 568.803,119.062 568.802,116.09 551.052,108.871"/><path fill="#A4B5B7" d="M551.052 109.871"/><polygon fill="#4B722E" points="568.803,119.062 583.244,112.213 583.244,109.254 568.803,116.049"/><polygon fill="#706D6E" points="555.855,108.193 568.803,113.468 568.802,101.496 555.867,96.235"/><path fill="#A4B5B7" d="M551.052 104.277"/><polygon fill="#5C5858" points="568.803,113.468 579.359,108.469 579.359,96.553 568.803,101.455"/><polygon fill="#CDCDCC" points="568.772,101.504 579.359,96.553 566.398,91.283 555.855,96.244"/><polygon fill="#706D6E" points="559.241,95.699 568.723,99.562 568.723,78.795 559.25,74.943"/><path fill="#A4B5B7" d="M555.724 92.832"/><polygon fill="#5C5858" points="568.723,99.562 576.453,95.902 576.453,75.176 568.723,78.765"/><polygon fill="#F9C04B" points="568.701,78.802 576.453,75.176 566.962,71.316 559.241,74.949"/><polygon fill="#485157" points="493.972,66.541 435.036,93.907 424.552,92.602 488.655,63.174"/><polygon opacity=".1" points="454.374,90.309 461.033,93.14 467.012,90.45 460.264,87.647"/><polygon fill="#A65C26" points="458.126,90.711 461.067,91.979 461.067,85.135 459.063,85.135"/><polygon fill="#8F4A1B" points="461.067,91.979 463.772,90.57 462.938,85.716 461.067,85.55"/><polygon fill="#578034" points="461.128,88.249 455.124,85.658 461.128,73.091"/><polygon fill="#4F6E32" points="461.088,88.249 466.457,85.932 461.088,73.091"/><polygon opacity=".1" points="432.673,120.936 447.016,127.032 459.892,121.24 445.358,115.203"/><polygon fill="#A55E28" points="441.697,121.857 446.884,124.285 446.884,114.902 443.76,112.982"/><polygon fill="#914A16" points="446.884,124.285 451.822,121.795 450.197,114.107 446.884,115.422"/><polygon fill="#BBD260" points="446.944,116.556 435.447,111.607 446.944,83.355"/><polygon fill="#99AF41" points="446.903,116.556 458.197,111.67 446.903,83.355"/><polygon opacity=".1" points="463.6,88.431 472.006,92.005 479.553,88.61 471.035,85.072"/><polygon fill="#A65C26" points="469.032,88.577 471.974,89.844 471.974,79.022 470.503,79.121"/><polygon fill="#8F4A1B" points="471.974,89.844 474.679,88.435 473.326,78.496 471.974,79.861"/><polygon fill="#578034" points="472.034,81.114 466.029,78.523 472.034,46.693"/><polygon fill="#4F6E32" points="471.994,81.114 477.363,78.797 471.994,46.693"/></svg>