<svg xmlns="http://www.w3.org/2000/svg" xmlns:xlink="http://www.w3.org/1999/xlink" width="819" height="508"><path fill="#6E9C44" d="M155.511 454.211l59.536-74.257 11.276-45.696 101.857-62.937s17.454 12.408 47.637 12.694l.032 187.542-11.375 5.356-72.779 17.93-136.184-40.632z"/><polygon fill="#34562A" points="375.85,471.558 375.85,485.714 365.696,489.77 291.696,508 291.696,494.844 364.475,476.914"/><polygon fill="#2F4C25" points="155.511,454.211 155.511,467.367 291.696,508 291.696,494.844"/><defs><path id="a" d="M155.511 454.211l59.536-74.257 11.276-45.696 101.857-62.937s17.454 12.408 47.637 12.694l.032 187.542-11.375 5.356-72.779 17.93-136.184-40.632z"/></defs><clipPath id="b"><use xlink:href="#a" overflow="visible"/></clipPath><g opacity=".02" clip-path="url(#b)"><defs><polygon id="c" opacity=".02" points="76.235,426.574 10.699,292.314 274.363,87.656 300.363,74.311 530.492,57 785.75,184.102 829,259.242 577.897,402.119 559.696,402.119 375.696,475.613 279.023,504.219"/></defs><clipPath id="d"><use xlink:href="#c" overflow="visible"/></clipPath><g clip-path="url(#d)" stroke="#000" stroke-linejoin="bevel" stroke-miterlimit="10" fill="none"><line x1="-895.405" y1="22.525" x2="263.897" y2="495"/><line x1="-849.227" y1="22.525" x2="310.075" y2="495"/><line x1="-803.048" y1="22.525" x2="356.253" y2="495"/><line x1="-756.87" y1="22.525" x2="402.432" y2="495"/><line x1="-710.692" y1="22.525" x2="448.609" y2="495"/><line x1="-664.514" y1="22.525" x2="494.787" y2="495"/><line x1="-618.335" y1="22.525" x2="540.965" y2="495"/><line x1="-572.157" y1="22.525" x2="587.143" y2="495"/><line x1="-525.979" y1="22.525" x2="633.32" y2="495"/><line x1="-479.801" y1="22.525" x2="679.498" y2="495"/><line x1="-433.623" y1="22.525" x2="725.676" y2="495"/><line x1="-387.444" y1="22.525" x2="771.854" y2="495"/><line x1="-341.266" y1="22.525" x2="818.031" y2="495"/><line x1="-295.088" y1="22.525" x2="864.209" y2="495"/><line x1="-248.91" y1="22.525" x2="910.387" y2="495"/><line x1="-202.731" y1="22.525" x2="956.564" y2="495"/><line x1="-156.553" y1="22.525" x2="1002.742" y2="495"/><line x1="-110.375" y1="22.525" x2="1048.92" y2="495"/><line x1="-64.197" y1="22.525" x2="1095.098" y2="495"/><line x1="-18.019" y1="22.525" x2="1141.275" y2="495"/><line x1="28.16" y1="22.525" x2="1187.453" y2="495"/><line x1="74.338" y1="22.525" x2="1233.631" y2="495"/><line x1="120.516" y1="22.525" x2="1279.809" y2="495"/><line x1="166.694" y1="22.525" x2="1325.986" y2="495"/><line x1="212.873" y1="22.525" x2="1372.164" y2="495"/><line x1="259.051" y1="22.525" x2="1418.342" y2="495"/><line x1="305.229" y1="22.525" x2="1464.52" y2="495"/><line x1="351.407" y1="22.525" x2="1510.697" y2="495"/><line x1="397.585" y1="22.525" x2="1556.875" y2="495"/><line x1="443.764" y1="22.525" x2="1603.053" y2="495"/><line x1="351.407" y1="23.005" x2="-655.94" y2="495.479"/><line x1="397.585" y1="23.005" x2="-609.762" y2="495.479"/><line x1="443.764" y1="23.005" x2="-563.584" y2="495.479"/><line x1="489.941" y1="23.005" x2="-517.406" y2="495.479"/><line x1="536.119" y1="23.005" x2="-471.228" y2="495.479"/><line x1="582.297" y1="23.005" x2="-425.049" y2="495.479"/><line x1="628.475" y1="23.005" x2="-378.871" y2="495.479"/><line x1="674.652" y1="23.005" x2="-332.693" y2="495.479"/><line x1="720.83" y1="23.005" x2="-286.515" y2="495.479"/><line x1="767.008" y1="23.005" x2="-240.336" y2="495.479"/><line x1="813.186" y1="23.005" x2="-194.158" y2="495.479"/><line x1="859.363" y1="23.005" x2="-147.98" y2="495.479"/><line x1="905.541" y1="23.005" x2="-101.802" y2="495.479"/><line x1="951.719" y1="23.005" x2="-55.624" y2="495.479"/><line x1="997.896" y1="23.005" x2="-9.445" y2="495.479"/><line x1="1044.074" y1="23.005" x2="36.733" y2="495.479"/><line x1="1090.252" y1="23.005" x2="82.911" y2="495.479"/><line x1="1136.43" y1="23.005" x2="129.089" y2="495.479"/><line x1="1182.607" y1="23.005" x2="175.268" y2="495.479"/><line x1="1228.785" y1="23.005" x2="221.446" y2="495.479"/><line x1="1274.963" y1="23.005" x2="267.624" y2="495.479"/><line x1="1321.141" y1="23.005" x2="313.802" y2="495.479"/><line x1="1367.318" y1="23.005" x2="359.98" y2="495.479"/></g></g><polygon opacity=".1" points="274.968,374.511 270.854,370.228 232.992,365.944 225.625,352.237 238.817,331.163 295.87,322.769 318.314,338.359 307.179,366.116"/><polygon fill="#A3BE5F" points="274.902,362.409 271.181,358.532 236.905,354.655 230.237,342.249 242.178,323.173 293.823,315.573 314.138,329.687 304.059,354.811"/><polygon fill="#F1E0A6" points="314.138,336.781 304.059,361.905 274.902,369.505 271.181,365.628 236.905,361.75 230.237,349.344 230.237,344.729 236.905,357.137 271.181,361.014 274.902,364.892 304.059,357.292 314.138,332.167"/><polygon fill="#969F5A" points="230.237,344.729 236.905,357.137 271.181,361.014 274.902,364.892 304.059,357.292 314.138,332.167 314.138,329.687 304.059,354.811 274.902,362.409 271.181,358.532 236.905,354.655 230.237,342.249"/><polygon fill="#747E42" points="236.905,357.137 236.905,354.655 271.181,358.532 271.181,361.014"/><polygon fill="#747E42" points="274.902,362.409 274.902,364.892 304.059,357.292 304.059,354.811"/><polygon fill="#D7CA93" points="236.905,357.137 236.905,361.75 271.181,365.628 271.181,361.014"/><polygon fill="#D7CA93" points="274.902,369.505 274.902,364.892 304.059,357.292 304.059,361.905"/><polyline fill="#485157" points="267.229,423.936 183.936,462.692 174.703,459.938 267.574,417.101"/><polygon opacity=".1" points="260.648,429.964 286.044,440.575 306.159,431.458 281.034,421.026"/><polygon fill="#fff" points="267.23,430.575 267.23,416.378 286.063,424.167 286.063,438.616"/><polygon fill="#E5DBDE" points="297.13,419.208 286.046,424.167 286.063,438.616 297.163,433.595"/><polygon fill="#DC5A38" points="267.23,416.372 277.48,408.581 289.271,413.449 286.031,424.175"/><polygon fill="#C14F34" points="297.146,419.208 289.271,413.449 286.063,424.167"/><polygon fill="#A9C7F7" points="280.242,430.521 283.242,431.957 283.242,427.916 280.242,426.646"/><polygon fill="#A9C7F7" points="269.284,425.521 272.284,426.957 272.284,422.916 269.284,421.646"/><polygon opacity=".1" points="330.5,391.734 355.897,402.346 376.011,393.229 350.886,382.797"/><polygon fill="#fff" points="337.083,392.346 337.083,378.148 355.916,385.938 355.916,400.387"/><polygon fill="#E5DBDE" points="366.983,380.979 355.899,385.938 355.916,400.387 367.015,395.365"/><polygon fill="#DC5A38" points="337.083,378.143 347.333,370.352 359.124,375.22 355.883,385.945"/><polygon fill="#C14F34" points="366.999,380.979 359.124,375.22 355.916,385.938"/><polygon fill="#A9C7F7" points="350.094,392.291 353.094,393.728 353.094,389.687 350.094,388.416"/><polygon fill="#A9C7F7" points="339.136,387.291 342.136,388.728 342.136,384.687 339.136,383.416"/><polygon opacity=".1" points="375.448,428.763 348.881,441.288 327.287,432.056 353.617,420.058"/><polygon fill="#fff" points="335.742,432.534 335.742,418.263 348.845,423.694 348.845,438.183"/><polygon fill="#E5DBDE" points="365.659,416.185 348.845,423.706 348.845,438.183 365.659,430.425"/><polygon fill="#DC5A38" points="335.742,418.284 344.492,412.14 348.846,423.7"/><polygon fill="#8A6D56" points="355.944,434.907 352.944,436.202 352.944,428.948 355.944,427.595"/><polyline fill="#C14F34" points="348.846,423.7 365.659,416.179 356.639,406.608 344.492,412.14 348.846,423.7"/><polygon opacity=".1" points="209.946,401.807 247.24,417.662 280.719,402.602 242.929,386.904"/><polygon fill="#E0C977" points="215.134,396.361 246.917,409.471 274.192,397.211 242.264,384.117"/><polygon fill="#C2AA5C" points="222.725,395.971 223.563,396.316 224.283,395.994 223.439,395.648"/><polygon fill="#F7DE8B" points="246.917,415.926 215.107,402.332 215.107,396.316 246.917,409.401"/><polygon fill="#C2AA5C" points="274.166,397.166 246.889,409.426 246.889,415.951 274.166,403.52"/><g fill="#E0C977"><polygon points="250.856,414.14 252.191,413.53 252.191,407.037 250.856,407.634"/><polygon points="265.506,407.463 266.842,406.854 266.842,400.442 265.506,401.039"/><polygon points="255.007,412.287 255.675,411.946 255.675,405.482 255.007,405.781"/><polygon points="258.144,410.865 258.811,410.525 258.811,404.061 258.144,404.359"/><polygon points="259.21,410.352 259.876,410.012 259.876,403.547 259.21,403.846"/><polygon points="272.584,404.298 273.251,403.957 273.251,397.596 272.584,397.895"/><polygon points="267.631,406.558 268.299,406.218 268.299,399.855 267.631,400.154"/></g><g fill="#E0C977"><polygon points="240.946,413.336 239.611,412.728 239.611,406.234 240.946,406.831"/><polygon points="226.295,406.965 224.959,406.355 224.959,400.442 226.295,401.039"/><polygon points="236.795,411.484 236.128,411.144 236.128,404.969 236.795,405.268"/><polygon points="233.66,410.232 232.991,409.893 232.991,403.703 233.66,404.002"/><polygon points="232.593,409.719 231.925,409.379 231.925,403.258 232.593,403.557"/><polygon points="219.219,404.061 218.551,403.721 218.551,397.781 219.219,398.08"/><polygon points="224.171,406.096 223.503,405.756 223.503,399.707 224.171,400.006"/></g><polygon fill="#C2AA5C" points="228.341,397.771 229.18,398.116 229.899,397.793 229.057,397.447"/><polygon fill="#C2AA5C" points="231.925,394.12 232.764,394.466 233.482,394.143 232.641,393.797"/><polygon fill="#C2AA5C" points="242.023,387.338 242.861,387.684 243.581,387.359 242.738,387.014"/><polygon fill="#C2AA5C" points="257.176,394.912 258.014,395.258 258.734,394.934 257.892,394.588"/><polygon fill="#C2AA5C" points="251.415,397.121 252.236,397.503 252.97,397.211 252.143,396.829"/><polygon fill="#C2AA5C" points="249.394,394.455 250.234,394.801 250.952,394.477 250.11,394.131"/><polygon fill="#C2AA5C" points="241.245,392.48 242.083,392.826 242.802,392.502 241.96,392.156"/><polygon fill="#C2AA5C" points="241.245,398.105 242.083,398.451 242.802,398.127 241.96,397.781"/><polygon fill="#C2AA5C" points="251.414,400.023 252.25,400.368 252.971,400.045 252.128,399.699"/><polygon fill="#C2AA5C" points="242.802,404.287 243.64,404.632 244.36,404.309 243.518,403.963"/><polygon fill="#C2AA5C" points="245.332,395.971 246.169,396.316 246.889,395.994 246.047,395.648"/><polygon fill="#C2AA5C" points="265.396,397.154 266.235,397.5 266.953,397.177 266.112,396.832"/><polygon fill="#C2AA5C" points="260.956,398.105 261.792,398.451 262.513,398.127 261.669,397.781"/><polygon fill="#C2AA5C" points="249.394,390.031 250.234,390.377 250.952,390.054 250.11,389.709"/><polygon fill="#C2AA5C" points="236.795,390.366 237.633,390.711 238.353,390.389 237.51,390.043"/><polygon fill="#C2AA5C" points="236.795,400.023 237.633,400.368 238.353,400.045 237.51,399.699"/><polygon opacity=".1" points="321.473,308.104 335.816,314.201 348.692,308.409 334.159,302.372"/><polygon fill="#A55E28" points="330.498,309.026 335.684,311.454 335.684,302.071 332.56,300.151"/><polygon fill="#914A16" points="335.684,311.454 340.623,308.964 338.998,301.276 335.684,302.591"/><polygon fill="#BBD260" points="335.745,303.725 324.248,298.776 335.745,270.524"/><polygon fill="#99AF41" points="335.704,303.725 346.998,298.839 335.704,270.524"/><polygon opacity=".1" points="323.223,425.578 342.228,416.689 318.964,407.229 300.036,416.135"/><polygon fill="#91BE68" points="323.242,420.961 337.742,414.18 319.992,406.961 305.55,413.756"/><polygon fill="#548628" points="305.55,415.383 305.55,416.715 323.301,423.947 323.3,420.975 305.55,413.756"/><path fill="#A4B5B7" d="M305.55 414.756"/><polygon fill="#4B722E" points="323.301,423.947 337.743,417.098 337.743,414.139 323.301,420.934"/><polygon fill="#706D6E" points="310.354,413.078 323.301,418.354 323.3,406.381 310.366,401.121"/><path fill="#A4B5B7" d="M305.55 409.162"/><polygon fill="#5C5858" points="323.301,418.354 333.858,413.354 333.858,401.438 323.301,406.34"/><polygon fill="#CDCDCC" points="323.271,406.389 333.858,401.438 320.897,396.168 310.354,401.129"/><path fill="#A4B5B7" d="M310.222 397.717"/><polygon opacity=".1" points="313.6,387.835 320.259,390.667 326.238,387.978 319.49,385.174"/><polygon fill="#A65C26" points="317.352,388.238 320.293,389.506 320.293,382.662 318.29,382.662"/><polygon fill="#8F4A1B" points="320.293,389.506 322.999,388.097 322.165,383.243 320.293,383.077"/><polygon fill="#578034" points="320.354,385.776 314.35,383.185 320.354,370.618"/><polygon fill="#4F6E32" points="320.314,385.776 325.683,383.459 320.314,370.618"/><polygon opacity=".1" points="193.917,431.693 208.26,437.79 221.136,431.998 206.603,425.961"/><polygon fill="#A55E28" points="202.941,432.615 208.128,435.043 208.128,425.66 205.004,423.74"/><polygon fill="#914A16" points="208.128,435.043 213.066,432.553 211.441,424.865 208.128,426.18"/><polygon fill="#BBD260" points="208.188,427.313 196.691,422.365 208.188,394.113"/><polygon fill="#99AF41" points="208.147,427.313 219.441,422.428 208.147,394.113"/><polygon opacity=".1" points="302.516,326.199 275.95,338.726 254.355,329.493 280.685,317.494"/><polygon fill="#fff" points="262.81,329.971 262.81,315.7 275.914,321.132 275.914,335.62"/><polygon fill="#CCC2C6" points="292.727,313.621 275.914,321.142 275.914,335.62 292.727,327.861"/><polygon fill="#DC5A38" points="262.81,315.72 271.56,309.577 275.915,321.137"/><polygon fill="#8A6D56" points="283.012,332.345 280.012,333.64 280.012,326.386 283.012,325.031"/><polyline fill="#B54833" points="275.915,321.137 292.727,313.616 283.708,304.046 271.56,309.577 275.915,321.137"/><polygon opacity=".1" points="295.568,333.84 263.84,348.799 238.051,337.772 269.496,323.444"/><polygon fill="#86D5EA" points="299.257,342.196 285.529,348.669 274.371,343.898 287.976,337.698"/><polygon fill="#fff" points="248.149,338.344 248.149,321.301 263.797,327.788 263.797,345.091"/><polygon fill="#E5DBDE" points="283.877,318.818 263.797,327.8 263.797,345.091 283.877,335.825"/><polygon fill="#DC5A38" points="248.149,321.325 258.598,313.988 263.798,327.794"/><polygon fill="#8A6D56" points="272.275,341.179 268.693,342.726 268.693,334.062 272.275,332.444"/><polyline fill="#C14F34" points="263.798,327.794 283.877,318.812 273.106,307.384 258.598,313.988 263.798,327.794"/><polygon opacity=".1" points="266.965,352.78 273.624,355.612 279.603,352.923 272.854,350.119"/><polygon fill="#A65C26" points="270.717,353.184 273.658,354.451 273.658,347.607 271.654,347.607"/><polygon fill="#8F4A1B" points="273.658,354.451 276.363,353.042 275.529,348.188 273.658,348.022"/><polygon fill="#578034" points="273.719,350.722 267.715,348.13 273.719,335.563"/><polygon fill="#4F6E32" points="273.679,350.722 279.048,348.404 273.679,335.563"/><polygon opacity=".1" points="251.031,351.124 259.437,354.697 266.984,351.303 258.466,347.765"/><polygon fill="#A65C26" points="256.463,351.269 259.405,352.536 259.405,341.715 257.934,341.813"/><polygon fill="#8F4A1B" points="259.405,352.536 262.11,351.128 260.757,341.188 259.405,342.554"/><polygon fill="#578034" points="259.465,343.807 253.46,341.216 259.465,309.386"/><polygon fill="#4F6E32" points="259.425,343.807 264.794,341.489 259.425,309.386"/><polygon opacity=".1" points="296.082,448.232 304.488,451.806 312.035,448.411 303.518,444.873"/><polygon fill="#A65C26" points="301.515,448.377 304.456,449.645 304.456,438.823 302.985,438.922"/><polygon fill="#8F4A1B" points="304.456,449.645 307.161,448.236 305.809,438.297 304.456,439.662"/><polygon fill="#578034" points="304.517,440.915 298.512,438.324 304.517,406.494"/><polygon fill="#4F6E32" points="304.477,440.915 309.846,438.598 304.477,406.494"/></svg>