<svg xmlns="http://www.w3.org/2000/svg" xmlns:xlink="http://www.w3.org/1999/xlink" width="819" height="508"><path fill="#6E9C44" d="M155.511 454.211l59.536-74.257 11.276-45.696 101.857-62.937s17.454 12.408 47.637 12.694l.032 187.542-11.375 5.356-72.779 17.93-136.184-40.632z"/><polygon fill="#34562A" points="375.85,471.558 375.85,485.714 365.696,489.77 291.696,508 291.696,494.844 364.475,476.914"/><polygon fill="#2F4C25" points="155.511,454.211 155.511,467.367 291.696,508 291.696,494.844"/><defs><path id="a" d="M155.511 454.211l59.536-74.257 11.276-45.696 101.857-62.937s17.454 12.408 47.637 12.694l.032 187.542-11.375 5.356-72.779 17.93-136.184-40.632z"/></defs><clipPath id="b"><use xlink:href="#a" overflow="visible"/></clipPath><g opacity=".02" clip-path="url(#b)"><defs><polygon id="c" opacity=".02" points="76.235,426.574 10.699,292.314 274.363,87.656 300.363,74.311 530.492,57 785.75,184.102 829,259.242 577.897,402.119 559.696,402.119 375.696,475.613 279.023,504.219"/></defs><clipPath id="d"><use xlink:href="#c" overflow="visible"/></clipPath><g clip-path="url(#d)" stroke="#000" stroke-linejoin="bevel" stroke-miterlimit="10" fill="none"><line x1="-895.405" y1="22.525" x2="263.897" y2="495"/><line x1="-849.227" y1="22.525" x2="310.075" y2="495"/><line x1="-803.048" y1="22.525" x2="356.253" y2="495"/><line x1="-756.87" y1="22.525" x2="402.432" y2="495"/><line x1="-710.692" y1="22.525" x2="448.609" y2="495"/><line x1="-664.514" y1="22.525" x2="494.787" y2="495"/><line x1="-618.335" y1="22.525" x2="540.965" y2="495"/><line x1="-572.157" y1="22.525" x2="587.143" y2="495"/><line x1="-525.979" y1="22.525" x2="633.32" y2="495"/><line x1="-479.801" y1="22.525" x2="679.498" y2="495"/><line x1="-433.623" y1="22.525" x2="725.676" y2="495"/><line x1="-387.444" y1="22.525" x2="771.854" y2="495"/><line x1="-341.266" y1="22.525" x2="818.031" y2="495"/><line x1="-295.088" y1="22.525" x2="864.209" y2="495"/><line x1="-248.91" y1="22.525" x2="910.387" y2="495"/><line x1="-202.731" y1="22.525" x2="956.564" y2="495"/><line x1="-156.553" y1="22.525" x2="1002.742" y2="495"/><line x1="-110.375" y1="22.525" x2="1048.92" y2="495"/><line x1="-64.197" y1="22.525" x2="1095.098" y2="495"/><line x1="-18.019" y1="22.525" x2="1141.275" y2="495"/><line x1="28.16" y1="22.525" x2="1187.453" y2="495"/><line x1="74.338" y1="22.525" x2="1233.631" y2="495"/><line x1="120.516" y1="22.525" x2="1279.809" y2="495"/><line x1="166.694" y1="22.525" x2="1325.986" y2="495"/><line x1="212.873" y1="22.525" x2="1372.164" y2="495"/><line x1="259.051" y1="22.525" x2="1418.342" y2="495"/><line x1="305.229" y1="22.525" x2="1464.52" y2="495"/><line x1="351.407" y1="22.525" x2="1510.697" y2="495"/><line x1="397.585" y1="22.525" x2="1556.875" y2="495"/><line x1="443.764" y1="22.525" x2="1603.053" y2="495"/><line x1="351.407" y1="23.005" x2="-655.94" y2="495.479"/><line x1="397.585" y1="23.005" x2="-609.762" y2="495.479"/><line x1="443.764" y1="23.005" x2="-563.584" y2="495.479"/><line x1="489.941" y1="23.005" x2="-517.406" y2="495.479"/><line x1="536.119" y1="23.005" x2="-471.228" y2="495.479"/><line x1="582.297" y1="23.005" x2="-425.049" y2="495.479"/><line x1="628.475" y1="23.005" x2="-378.871" y2="495.479"/><line x1="674.652" y1="23.005" x2="-332.693" y2="495.479"/><line x1="720.83" y1="23.005" x2="-286.515" y2="495.479"/><line x1="767.008" y1="23.005" x2="-240.336" y2="495.479"/><line x1="813.186" y1="23.005" x2="-194.158" y2="495.479"/><line x1="859.363" y1="23.005" x2="-147.98" y2="495.479"/><line x1="905.541" y1="23.005" x2="-101.802" y2="495.479"/><line x1="951.719" y1="23.005" x2="-55.624" y2="495.479"/><line x1="997.896" y1="23.005" x2="-9.445" y2="495.479"/><line x1="1044.074" y1="23.005" x2="36.733" y2="495.479"/><line x1="1090.252" y1="23.005" x2="82.911" y2="495.479"/><line x1="1136.43" y1="23.005" x2="129.089" y2="495.479"/><line x1="1182.607" y1="23.005" x2="175.268" y2="495.479"/><line x1="1228.785" y1="23.005" x2="221.446" y2="495.479"/><line x1="1274.963" y1="23.005" x2="267.624" y2="495.479"/><line x1="1321.141" y1="23.005" x2="313.802" y2="495.479"/><line x1="1367.318" y1="23.005" x2="359.98" y2="495.479"/></g></g><polygon opacity=".1" points="274.968,374.511 270.854,370.228 232.992,365.944 225.625,352.237 238.817,331.163 295.87,322.769 318.314,338.359 307.179,366.116"/><polygon fill="#A3BE5F" points="274.902,362.409 271.181,358.532 236.905,354.655 230.237,342.249 242.178,323.173 293.823,315.573 314.138,329.687 304.059,354.811"/><polygon fill="#F1E0A6" points="314.138,336.781 304.059,361.905 274.902,369.505 271.181,365.628 236.905,361.75 230.237,349.344 230.237,344.729 236.905,357.137 271.181,361.014 274.902,364.892 304.059,357.292 314.138,332.167"/><polygon fill="#969F5A" points="230.237,344.729 236.905,357.137 271.181,361.014 274.902,364.892 304.059,357.292 314.138,332.167 314.138,329.687 304.059,354.811 274.902,362.409 271.181,358.532 236.905,354.655 230.237,342.249"/><polygon fill="#747E42" points="236.905,357.137 236.905,354.655 271.181,358.532 271.181,361.014"/><polygon fill="#747E42" points="274.902,362.409 274.902,364.892 304.059,357.292 304.059,354.811"/><polygon fill="#D7CA93" points="236.905,357.137 236.905,361.75 271.181,365.628 271.181,361.014"/><polygon fill="#D7CA93" points="274.902,369.505 274.902,364.892 304.059,357.292 304.059,361.905"/><polygon fill="#485157" points="251.71,293.488 375.828,343.893 375.85,338.027 258.44,290.491"/><polygon opacity=".1" points="231.043,332.208 257.772,343.572 281.766,332.779 254.682,321.529"/><polygon fill="#FFFCF7" points="238.266,328.898 257.749,336.935 274.469,329.419 254.897,321.392"/><polygon fill="#CCCBCB" points="257.749,340.893 238.249,332.559 238.249,328.871 257.749,336.893"/><polygon fill="#C0BEBF" points="274.454,329.392 257.733,336.907 257.733,340.907 274.454,333.287"/><polygon fill="#92AFDD" points="271.724,295.8 257.733,304.093 257.733,335.796 271.724,329.587"/><polygon fill="#A9C7F7" points="257.733,335.796 240.682,329.067 240.682,294.584 257.78,303.724"/><polygon fill="#93B4EA" points="244.245,330.392 244.245,298.026 244.834,298.572 244.834,330.671"/><polygon fill="#93B4EA" points="251.551,333.351 251.551,301.376 252.141,301.922 252.141,333.629"/><polygon fill="#FFFCF7" points="238.266,293.079 257.749,301.115 274.469,293.6 254.897,285.573"/><polygon fill="#CCCBCB" points="257.749,305.073 238.249,296.739 238.249,293.052 257.749,301.073"/><polygon fill="#C0BEBF" points="274.454,293.572 257.733,301.088 257.733,305.088 274.454,297.468"/><polygon opacity=".1" points="261.484,345.163 288.213,356.527 312.207,345.734 285.123,334.484"/><polygon fill="#FFFCF7" points="268.707,341.854 288.189,349.89 304.91,342.374 285.338,334.347"/><polygon fill="#CCCBCB" points="288.189,353.848 268.689,345.514 268.689,341.826 288.189,349.848"/><polygon fill="#C0BEBF" points="304.895,342.347 288.174,349.862 288.174,353.862 304.895,346.242"/><polygon fill="#92AFDD" points="302.165,298.755 288.174,307.048 288.174,348.751 302.165,342.542"/><polygon fill="#A9C7F7" points="288.174,348.751 271.123,342.022 271.123,297.539 288.221,306.679"/><polygon fill="#93B4EA" points="274.686,343.347 274.686,300.981 275.275,301.527 275.275,343.626"/><polygon fill="#93B4EA" points="281.992,346.306 281.992,304.331 282.582,304.877 282.582,346.584"/><polygon fill="#FFFCF7" points="268.707,296.034 288.189,304.07 304.91,296.555 285.338,288.528"/><polygon fill="#CCCBCB" points="288.189,308.028 268.689,299.694 268.689,296.007 288.189,304.028"/><polygon fill="#C0BEBF" points="304.895,296.527 288.174,304.043 288.174,308.043 304.895,300.423"/><polyline fill="#485157" points="174.703,459.938 318.164,393.767 321.098,398.871 183.936,462.692"/><polygon opacity=".1" points="260.648,429.964 286.044,440.575 306.159,431.458 281.034,421.026"/><polygon fill="#fff" points="267.23,430.575 267.23,416.378 286.063,424.167 286.063,438.616"/><polygon fill="#E5DBDE" points="297.13,419.208 286.046,424.167 286.063,438.616 297.163,433.595"/><polygon fill="#DC5A38" points="267.23,416.372 277.48,408.581 289.271,413.449 286.031,424.175"/><polygon fill="#C14F34" points="297.146,419.208 289.271,413.449 286.063,424.167"/><polygon fill="#A9C7F7" points="280.242,430.521 283.242,431.957 283.242,427.916 280.242,426.646"/><polygon fill="#A9C7F7" points="269.284,425.521 272.284,426.957 272.284,422.916 269.284,421.646"/><polygon opacity=".1" points="330.715,392.267 356.111,402.878 376.226,393.761 351.101,383.329"/><polygon fill="#fff" points="337.297,392.878 337.297,378.681 356.13,386.47 356.13,400.919"/><polygon fill="#E5DBDE" points="367.197,381.511 356.113,386.47 356.13,400.919 367.229,395.897"/><polygon fill="#DC5A38" points="337.297,378.675 347.547,370.884 359.338,375.752 356.098,386.478"/><polygon fill="#C14F34" points="367.213,381.511 359.338,375.752 356.13,386.47"/><polygon fill="#A9C7F7" points="350.309,392.823 353.309,394.26 353.309,390.219 350.309,388.948"/><polygon fill="#A9C7F7" points="339.351,387.823 342.351,389.26 342.351,385.219 339.351,383.948"/><polygon opacity=".1" points="325.541,345.25 350.937,355.861 371.051,346.744 345.926,336.312"/><polygon fill="#fff" points="332.123,345.861 332.123,331.664 350.956,339.453 350.956,353.902"/><polygon fill="#E5DBDE" points="362.023,334.494 350.939,339.453 350.956,353.902 362.055,348.881"/><polygon fill="#DC5A38" points="332.123,331.658 342.373,323.867 354.164,328.735 350.923,339.461"/><polygon fill="#C14F34" points="362.039,334.494 354.164,328.735 350.956,339.453"/><polygon fill="#A9C7F7" points="345.134,345.807 348.134,347.243 348.134,343.202 345.134,341.932"/><polygon fill="#A9C7F7" points="334.176,340.807 337.176,342.243 337.176,338.202 334.176,336.932"/><polygon opacity=".1" points="294.612,445.002 320.009,455.613 340.123,446.496 314.998,436.064"/><polygon fill="#fff" points="301.194,445.613 301.194,431.416 320.027,439.205 320.027,453.654"/><polygon fill="#E5DBDE" points="331.095,434.246 320.011,439.205 320.027,453.654 331.127,448.633"/><polygon fill="#DC5A38" points="301.194,431.41 311.444,423.619 323.235,428.487 319.995,439.213"/><polygon fill="#C14F34" points="331.11,434.246 323.235,428.487 320.027,439.205"/><polygon fill="#A9C7F7" points="314.206,445.559 317.206,446.995 317.206,442.954 314.206,441.684"/><polygon fill="#A9C7F7" points="303.248,440.559 306.248,441.995 306.248,437.954 303.248,436.684"/><polygon opacity=".1" points="377.448,426.763 350.881,439.288 329.287,430.056 355.617,418.058"/><polygon fill="#fff" points="337.742,430.534 337.742,416.263 350.845,421.694 350.845,436.183"/><polygon fill="#E5DBDE" points="367.659,414.185 350.845,421.706 350.845,436.183 367.659,428.425"/><polygon fill="#DC5A38" points="337.742,416.284 346.492,410.14 350.846,421.7"/><polygon fill="#8A6D56" points="357.944,432.907 354.944,434.202 354.944,426.948 357.944,425.595"/><polyline fill="#C14F34" points="350.846,421.7 367.659,414.179 358.639,404.608 346.492,410.14 350.846,421.7"/><polygon opacity=".1" points="209.946,401.807 247.24,417.662 280.719,402.602 242.929,386.904"/><polygon fill="#E0C977" points="215.134,396.361 246.917,409.471 274.192,397.211 242.264,384.117"/><polygon fill="#C2AA5C" points="222.725,395.971 223.563,396.316 224.283,395.994 223.439,395.648"/><polygon fill="#F7DE8B" points="246.917,415.926 215.107,402.332 215.107,396.316 246.917,409.401"/><polygon fill="#C2AA5C" points="274.166,397.166 246.889,409.426 246.889,415.951 274.166,403.52"/><g fill="#E0C977"><polygon points="250.856,414.14 252.191,413.53 252.191,407.037 250.856,407.634"/><polygon points="265.506,407.463 266.842,406.854 266.842,400.442 265.506,401.039"/><polygon points="255.007,412.287 255.675,411.946 255.675,405.482 255.007,405.781"/><polygon points="258.144,410.865 258.811,410.525 258.811,404.061 258.144,404.359"/><polygon points="259.21,410.352 259.876,410.012 259.876,403.547 259.21,403.846"/><polygon points="272.584,404.298 273.251,403.957 273.251,397.596 272.584,397.895"/><polygon points="267.631,406.558 268.299,406.218 268.299,399.855 267.631,400.154"/></g><g fill="#E0C977"><polygon points="240.946,413.336 239.611,412.728 239.611,406.234 240.946,406.831"/><polygon points="226.295,406.965 224.959,406.355 224.959,400.442 226.295,401.039"/><polygon points="236.795,411.484 236.128,411.144 236.128,404.969 236.795,405.268"/><polygon points="233.66,410.232 232.991,409.893 232.991,403.703 233.66,404.002"/><polygon points="232.593,409.719 231.925,409.379 231.925,403.258 232.593,403.557"/><polygon points="219.219,404.061 218.551,403.721 218.551,397.781 219.219,398.08"/><polygon points="224.171,406.096 223.503,405.756 223.503,399.707 224.171,400.006"/></g><polygon fill="#C2AA5C" points="228.341,397.771 229.18,398.116 229.899,397.793 229.057,397.447"/><polygon fill="#C2AA5C" points="231.925,394.12 232.764,394.466 233.482,394.143 232.641,393.797"/><polygon fill="#C2AA5C" points="242.023,387.338 242.861,387.684 243.581,387.359 242.738,387.014"/><polygon fill="#C2AA5C" points="257.176,394.912 258.014,395.258 258.734,394.934 257.892,394.588"/><polygon fill="#C2AA5C" points="251.415,397.121 252.236,397.503 252.97,397.211 252.143,396.829"/><polygon fill="#C2AA5C" points="249.394,394.455 250.234,394.801 250.952,394.477 250.11,394.131"/><polygon fill="#C2AA5C" points="241.245,392.48 242.083,392.826 242.802,392.502 241.96,392.156"/><polygon fill="#C2AA5C" points="241.245,398.105 242.083,398.451 242.802,398.127 241.96,397.781"/><polygon fill="#C2AA5C" points="251.414,400.023 252.25,400.368 252.971,400.045 252.128,399.699"/><polygon fill="#C2AA5C" points="242.802,404.287 243.64,404.632 244.36,404.309 243.518,403.963"/><polygon fill="#C2AA5C" points="245.332,395.971 246.169,396.316 246.889,395.994 246.047,395.648"/><polygon fill="#C2AA5C" points="265.396,397.154 266.235,397.5 266.953,397.177 266.112,396.832"/><polygon fill="#C2AA5C" points="260.956,398.105 261.792,398.451 262.513,398.127 261.669,397.781"/><polygon fill="#C2AA5C" points="249.394,390.031 250.234,390.377 250.952,390.054 250.11,389.709"/><polygon fill="#C2AA5C" points="236.795,390.366 237.633,390.711 238.353,390.389 237.51,390.043"/><polygon fill="#C2AA5C" points="236.795,400.023 237.633,400.368 238.353,400.045 237.51,399.699"/><polygon opacity=".1" points="311.473,301.104 325.816,307.201 338.692,301.409 324.159,295.372"/><polygon fill="#A55E28" points="320.498,302.026 325.684,304.454 325.684,295.071 322.56,293.151"/><polygon fill="#914A16" points="325.684,304.454 330.623,301.964 328.998,294.276 325.684,295.591"/><polygon fill="#BBD260" points="325.745,296.725 314.248,291.776 325.745,263.524"/><polygon fill="#99AF41" points="325.704,296.725 336.998,291.839 325.704,263.524"/><polygon opacity=".1" points="340.173,313.17 346.832,316.002 352.811,313.312 346.062,310.509"/><polygon fill="#A65C26" points="343.925,313.573 346.866,314.841 346.866,307.997 344.862,307.997"/><polygon fill="#8F4A1B" points="346.866,314.841 349.571,313.432 348.737,308.578 346.866,308.412"/><polygon fill="#578034" points="346.927,311.111 340.923,308.52 346.927,295.953"/><polygon fill="#4F6E32" points="346.887,311.111 352.256,308.794 346.887,295.953"/><polygon opacity=".1" points="323.223,425.578 342.228,416.689 318.964,407.229 300.036,416.135"/><polygon fill="#91BE68" points="323.242,420.961 337.742,414.18 319.992,406.961 305.55,413.756"/><polygon fill="#548628" points="305.55,415.383 305.55,416.715 323.301,423.947 323.3,420.975 305.55,413.756"/><path fill="#A4B5B7" d="M305.55 414.756"/><polygon fill="#4B722E" points="323.301,423.947 337.743,417.098 337.743,414.139 323.301,420.934"/><polygon fill="#706D6E" points="310.354,413.078 323.301,418.354 323.3,406.381 310.366,401.121"/><path fill="#A4B5B7" d="M305.55 409.162"/><polygon fill="#5C5858" points="323.301,418.354 333.858,413.354 333.858,401.438 323.301,406.34"/><polygon fill="#CDCDCC" points="323.271,406.389 333.858,401.438 320.897,396.168 310.354,401.129"/><polygon fill="#706D6E" points="313.74,400.584 323.221,404.447 323.221,383.68 313.749,379.828"/><path fill="#A4B5B7" d="M310.222 397.717"/><polygon fill="#5C5858" points="323.221,404.447 330.952,400.787 330.952,380.061 323.221,383.65"/><polygon fill="#DC4437" points="323.2,383.688 330.952,380.061 321.46,376.201 313.74,379.834"/><polygon opacity=".1" points="309.391,363.932 317.797,367.505 325.344,364.11 316.827,360.572"/><polygon fill="#A65C26" points="314.824,364.076 317.765,365.344 317.765,354.522 316.294,354.621"/><polygon fill="#8F4A1B" points="317.765,365.344 320.47,363.936 319.118,353.996 317.765,355.361"/><polygon fill="#578034" points="317.826,356.614 311.821,354.023 317.826,322.193"/><polygon fill="#4F6E32" points="317.786,356.614 323.155,354.297 317.786,322.193"/><polygon opacity=".1" points="320.6,371.835 327.259,374.667 333.238,371.978 326.49,369.174"/><polygon fill="#A65C26" points="324.352,372.238 327.293,373.506 327.293,366.662 325.29,366.662"/><polygon fill="#8F4A1B" points="327.293,373.506 329.999,372.097 329.165,367.243 327.293,367.077"/><polygon fill="#578034" points="327.354,369.776 321.35,367.185 327.354,354.618"/><polygon fill="#4F6E32" points="327.314,369.776 332.683,367.459 327.314,354.618"/><polygon opacity=".1" points="262.965,351.78 269.624,354.612 275.603,351.923 268.854,349.119"/><polygon fill="#A65C26" points="266.717,352.184 269.658,353.451 269.658,346.607 267.654,346.607"/><polygon fill="#8F4A1B" points="269.658,353.451 272.363,352.042 271.529,347.188 269.658,347.022"/><polygon fill="#578034" points="269.719,349.722 263.715,347.13 269.719,334.563"/><polygon fill="#4F6E32" points="269.679,349.722 275.048,347.404 269.679,334.563"/><polygon opacity=".1" points="193.917,431.693 208.26,437.79 221.136,431.998 206.603,425.961"/><polygon fill="#A55E28" points="202.941,432.615 208.128,435.043 208.128,425.66 205.004,423.74"/><polygon fill="#914A16" points="208.128,435.043 213.066,432.553 211.441,424.865 208.128,426.18"/><polygon fill="#BBD260" points="208.188,427.313 196.691,422.365 208.188,394.113"/><polygon fill="#99AF41" points="208.147,427.313 219.441,422.428 208.147,394.113"/><polygon opacity=".1" points="277.447,462.806 284.106,465.638 290.085,462.948 283.337,460.145"/><polygon fill="#A65C26" points="281.199,463.209 284.141,464.477 284.141,457.633 282.137,457.633"/><polygon fill="#8F4A1B" points="284.141,464.477 286.846,463.067 286.012,458.214 284.141,458.048"/><polygon fill="#578034" points="284.201,460.747 278.197,458.155 284.201,445.589"/><polygon fill="#4F6E32" points="284.161,460.747 289.53,458.43 284.161,445.589"/><polyline fill="#485157" points="218.398,366.386 303.646,400.538 310.343,397.459 219.675,361.178"/><polygon opacity=".1" points="247.031,350.124 255.437,353.697 262.984,350.303 254.466,346.765"/><polygon fill="#A65C26" points="252.463,350.269 255.405,351.536 255.405,340.715 253.934,340.813"/><polygon fill="#8F4A1B" points="255.405,351.536 258.11,350.128 256.757,340.188 255.405,341.554"/><polygon fill="#578034" points="255.465,342.807 249.46,340.216 255.465,308.386"/><polygon fill="#4F6E32" points="255.425,342.807 260.794,340.489 255.425,308.386"/></svg>