<svg xmlns="http://www.w3.org/2000/svg" xmlns:xlink="http://www.w3.org/1999/xlink" width="819" height="508"><path fill="#6E9C44" d="M155.511 454.211l59.536-74.257 11.276-45.696 101.857-62.937s17.454 12.408 47.637 12.694l.032 187.542-11.375 5.356-72.779 17.93-136.184-40.632z"/><polygon fill="#34562A" points="375.85,471.558 375.85,485.714 365.696,489.77 291.696,508 291.696,494.844 364.475,476.914"/><polygon fill="#2F4C25" points="155.511,454.211 155.511,467.367 291.696,508 291.696,494.844"/><defs><path id="a" d="M155.511 454.211l59.536-74.257 11.276-45.696 101.857-62.937s17.454 12.408 47.637 12.694l.032 187.542-11.375 5.356-72.779 17.93-136.184-40.632z"/></defs><clipPath id="b"><use xlink:href="#a" overflow="visible"/></clipPath><g opacity=".02" clip-path="url(#b)"><defs><polygon id="c" opacity=".02" points="76.235,426.574 10.699,292.314 274.363,87.656 300.363,74.311 530.492,57 785.75,184.102 829,259.242 577.897,402.119 559.696,402.119 375.696,475.613 279.023,504.219"/></defs><clipPath id="d"><use xlink:href="#c" overflow="visible"/></clipPath><g clip-path="url(#d)" stroke="#000" stroke-linejoin="bevel" stroke-miterlimit="10" fill="none"><line x1="-895.405" y1="22.525" x2="263.897" y2="495"/><line x1="-849.227" y1="22.525" x2="310.075" y2="495"/><line x1="-803.048" y1="22.525" x2="356.253" y2="495"/><line x1="-756.87" y1="22.525" x2="402.432" y2="495"/><line x1="-710.692" y1="22.525" x2="448.609" y2="495"/><line x1="-664.514" y1="22.525" x2="494.787" y2="495"/><line x1="-618.335" y1="22.525" x2="540.965" y2="495"/><line x1="-572.157" y1="22.525" x2="587.143" y2="495"/><line x1="-525.979" y1="22.525" x2="633.32" y2="495"/><line x1="-479.801" y1="22.525" x2="679.498" y2="495"/><line x1="-433.623" y1="22.525" x2="725.676" y2="495"/><line x1="-387.444" y1="22.525" x2="771.854" y2="495"/><line x1="-341.266" y1="22.525" x2="818.031" y2="495"/><line x1="-295.088" y1="22.525" x2="864.209" y2="495"/><line x1="-248.91" y1="22.525" x2="910.387" y2="495"/><line x1="-202.731" y1="22.525" x2="956.564" y2="495"/><line x1="-156.553" y1="22.525" x2="1002.742" y2="495"/><line x1="-110.375" y1="22.525" x2="1048.92" y2="495"/><line x1="-64.197" y1="22.525" x2="1095.098" y2="495"/><line x1="-18.019" y1="22.525" x2="1141.275" y2="495"/><line x1="28.16" y1="22.525" x2="1187.453" y2="495"/><line x1="74.338" y1="22.525" x2="1233.631" y2="495"/><line x1="120.516" y1="22.525" x2="1279.809" y2="495"/><line x1="166.694" y1="22.525" x2="1325.986" y2="495"/><line x1="212.873" y1="22.525" x2="1372.164" y2="495"/><line x1="259.051" y1="22.525" x2="1418.342" y2="495"/><line x1="305.229" y1="22.525" x2="1464.52" y2="495"/><line x1="351.407" y1="22.525" x2="1510.697" y2="495"/><line x1="397.585" y1="22.525" x2="1556.875" y2="495"/><line x1="443.764" y1="22.525" x2="1603.053" y2="495"/><line x1="351.407" y1="23.005" x2="-655.94" y2="495.479"/><line x1="397.585" y1="23.005" x2="-609.762" y2="495.479"/><line x1="443.764" y1="23.005" x2="-563.584" y2="495.479"/><line x1="489.941" y1="23.005" x2="-517.406" y2="495.479"/><line x1="536.119" y1="23.005" x2="-471.228" y2="495.479"/><line x1="582.297" y1="23.005" x2="-425.049" y2="495.479"/><line x1="628.475" y1="23.005" x2="-378.871" y2="495.479"/><line x1="674.652" y1="23.005" x2="-332.693" y2="495.479"/><line x1="720.83" y1="23.005" x2="-286.515" y2="495.479"/><line x1="767.008" y1="23.005" x2="-240.336" y2="495.479"/><line x1="813.186" y1="23.005" x2="-194.158" y2="495.479"/><line x1="859.363" y1="23.005" x2="-147.98" y2="495.479"/><line x1="905.541" y1="23.005" x2="-101.802" y2="495.479"/><line x1="951.719" y1="23.005" x2="-55.624" y2="495.479"/><line x1="997.896" y1="23.005" x2="-9.445" y2="495.479"/><line x1="1044.074" y1="23.005" x2="36.733" y2="495.479"/><line x1="1090.252" y1="23.005" x2="82.911" y2="495.479"/><line x1="1136.43" y1="23.005" x2="129.089" y2="495.479"/><line x1="1182.607" y1="23.005" x2="175.268" y2="495.479"/><line x1="1228.785" y1="23.005" x2="221.446" y2="495.479"/><line x1="1274.963" y1="23.005" x2="267.624" y2="495.479"/><line x1="1321.141" y1="23.005" x2="313.802" y2="495.479"/><line x1="1367.318" y1="23.005" x2="359.98" y2="495.479"/></g></g><polygon opacity=".1" points="272.363,434.298 297.76,444.909 317.874,435.792 292.749,425.36"/><polygon fill="#fff" points="278.945,434.909 278.945,420.712 297.778,428.501 297.778,442.95"/><polygon fill="#E5DBDE" points="308.846,423.542 297.762,428.501 297.778,442.95 308.878,437.929"/><polygon fill="#DC5A38" points="278.945,420.706 289.195,412.915 300.986,417.783 297.746,428.509"/><polygon fill="#C14F34" points="308.861,423.542 300.986,417.783 297.778,428.501"/><polygon fill="#A9C7F7" points="291.957,434.854 294.957,436.291 294.957,432.25 291.957,430.979"/><polygon fill="#A9C7F7" points="280.999,429.854 283.999,431.291 283.999,427.25 280.999,425.979"/><polygon opacity=".1" points="323.223,425.578 342.228,416.689 318.964,407.229 300.036,416.135"/><polygon fill="#91BE68" points="323.242,420.961 337.742,414.18 319.992,406.961 305.55,413.756"/><polygon fill="#548628" points="305.55,415.383 305.55,416.715 323.301,423.947 323.3,420.975 305.55,413.756"/><path fill="#A4B5B7" d="M305.55 414.756"/><polygon fill="#4B722E" points="323.301,423.947 337.743,417.098 337.743,414.139 323.301,420.934"/><path fill="#A4B5B7" d="M305.55 409.162"/><path fill="#A4B5B7" d="M310.222 397.717"/><polygon opacity=".1" points="307.281,452.217 313.94,455.049 319.919,452.359 313.171,449.556"/><polygon fill="#A65C26" points="311.033,452.62 313.975,453.888 313.975,447.044 311.971,447.044"/><polygon fill="#8F4A1B" points="313.975,453.888 316.68,452.479 315.846,447.625 313.975,447.459"/><polygon fill="#578034" points="314.035,450.158 308.031,447.566 314.035,435"/><polygon fill="#4F6E32" points="313.995,450.158 319.364,447.841 313.995,435"/><polygon opacity=".1" points="275.104,410.333 281.764,413.165 287.742,410.476 280.994,407.672"/><polygon fill="#A65C26" points="278.856,410.736 281.798,412.004 281.798,405.16 279.794,405.16"/><polygon fill="#8F4A1B" points="281.798,412.004 284.503,410.595 283.669,405.741 281.798,405.575"/><polygon fill="#578034" points="281.858,408.274 275.854,405.683 281.858,393.116"/><polygon fill="#4F6E32" points="281.818,408.274 287.188,405.957 281.818,393.116"/><polygon opacity=".1" points="255.899,440.721 270.242,446.817 283.118,441.025 268.584,434.988"/><polygon fill="#A55E28" points="264.923,441.643 270.11,444.07 270.11,434.688 266.986,432.768"/><polygon fill="#914A16" points="270.11,444.07 275.048,441.58 273.423,433.893 270.11,435.207"/><polygon fill="#BBD260" points="270.17,436.341 258.673,431.393 270.17,403.141"/><polygon fill="#99AF41" points="270.129,436.341 281.423,431.455 270.129,403.141"/><polygon opacity=".1" points="328.308,448.384 336.714,451.957 344.261,448.562 335.744,445.024"/><polygon fill="#A65C26" points="333.741,448.528 336.682,449.796 336.682,438.975 335.211,439.073"/><polygon fill="#8F4A1B" points="336.682,449.796 339.387,448.388 338.035,438.448 336.682,439.813"/><polygon fill="#578034" points="336.743,441.066 330.738,438.476 336.743,406.646"/><polygon fill="#4F6E32" points="336.703,441.066 342.072,438.749 336.703,406.646"/></svg>