<svg xmlns="http://www.w3.org/2000/svg" xmlns:xlink="http://www.w3.org/1999/xlink" width="819" height="508"><path fill="#6E9C44" d="M328.151 271.303c-21.599-15.635-4.809-30.019-4.809-30.019l-167.831-68.39-79.473 61.941 15.538 6.297 28.674 34.289 106.073 58.836"/><defs><path id="a" d="M328.151 271.303c-21.599-15.635-4.809-30.019-4.809-30.019l-167.831-68.39-79.473 61.941 15.538 6.297 28.674 34.289 106.073 58.836"/></defs><clipPath id="b"><use xlink:href="#a" overflow="visible"/></clipPath><g opacity=".02" clip-path="url(#b)"><defs><polygon id="c" opacity=".02" points="76.235,426.574 -27,259.279 256.976,67.296 300.363,74.311 530.492,57 785.75,184.102 829,259.242 577.897,402.119 559.696,402.119 375.696,475.613 301.696,493.844"/></defs><clipPath id="d"><use xlink:href="#c" overflow="visible"/></clipPath><g clip-path="url(#d)" stroke="#000" stroke-linejoin="bevel" stroke-miterlimit="10" fill="none"><line x1="-895.405" y1="22.525" x2="263.897" y2="495"/><line x1="-849.227" y1="22.525" x2="310.075" y2="495"/><line x1="-803.048" y1="22.525" x2="356.253" y2="495"/><line x1="-756.87" y1="22.525" x2="402.432" y2="495"/><line x1="-710.692" y1="22.525" x2="448.609" y2="495"/><line x1="-664.514" y1="22.525" x2="494.787" y2="495"/><line x1="-618.335" y1="22.525" x2="540.965" y2="495"/><line x1="-572.157" y1="22.525" x2="587.143" y2="495"/><line x1="-525.979" y1="22.525" x2="633.32" y2="495"/><line x1="-479.801" y1="22.525" x2="679.498" y2="495"/><line x1="-433.623" y1="22.525" x2="725.676" y2="495"/><line x1="-387.444" y1="22.525" x2="771.854" y2="495"/><line x1="-341.266" y1="22.525" x2="818.031" y2="495"/><line x1="-295.088" y1="22.525" x2="864.209" y2="495"/><line x1="-248.91" y1="22.525" x2="910.387" y2="495"/><line x1="-202.731" y1="22.525" x2="956.564" y2="495"/><line x1="-156.553" y1="22.525" x2="1002.742" y2="495"/><line x1="-110.375" y1="22.525" x2="1048.92" y2="495"/><line x1="-64.197" y1="22.525" x2="1095.098" y2="495"/><line x1="-18.019" y1="22.525" x2="1141.275" y2="495"/><line x1="28.16" y1="22.525" x2="1187.453" y2="495"/><line x1="74.338" y1="22.525" x2="1233.631" y2="495"/><line x1="120.516" y1="22.525" x2="1279.809" y2="495"/><line x1="166.694" y1="22.525" x2="1325.986" y2="495"/><line x1="212.873" y1="22.525" x2="1372.164" y2="495"/><line x1="259.051" y1="22.525" x2="1418.342" y2="495"/><line x1="305.229" y1="22.525" x2="1464.52" y2="495"/><line x1="351.407" y1="22.525" x2="1510.697" y2="495"/><line x1="397.585" y1="22.525" x2="1556.875" y2="495"/><line x1="443.764" y1="22.525" x2="1603.053" y2="495"/><line x1="351.407" y1="23.005" x2="-655.94" y2="495.479"/><line x1="397.585" y1="23.005" x2="-609.762" y2="495.479"/><line x1="443.764" y1="23.005" x2="-563.584" y2="495.479"/><line x1="489.941" y1="23.005" x2="-517.406" y2="495.479"/><line x1="536.119" y1="23.005" x2="-471.228" y2="495.479"/><line x1="582.297" y1="23.005" x2="-425.049" y2="495.479"/><line x1="628.475" y1="23.005" x2="-378.871" y2="495.479"/><line x1="674.652" y1="23.005" x2="-332.693" y2="495.479"/><line x1="720.83" y1="23.005" x2="-286.515" y2="495.479"/><line x1="767.008" y1="23.005" x2="-240.336" y2="495.479"/><line x1="813.186" y1="23.005" x2="-194.158" y2="495.479"/><line x1="859.363" y1="23.005" x2="-147.98" y2="495.479"/><line x1="905.541" y1="23.005" x2="-101.802" y2="495.479"/><line x1="951.719" y1="23.005" x2="-55.624" y2="495.479"/><line x1="997.896" y1="23.005" x2="-9.445" y2="495.479"/><line x1="1044.074" y1="23.005" x2="36.733" y2="495.479"/><line x1="1090.252" y1="23.005" x2="82.911" y2="495.479"/><line x1="1136.43" y1="23.005" x2="129.089" y2="495.479"/><line x1="1182.607" y1="23.005" x2="175.268" y2="495.479"/><line x1="1228.785" y1="23.005" x2="221.446" y2="495.479"/><line x1="1274.963" y1="23.005" x2="267.624" y2="495.479"/><line x1="1321.141" y1="23.005" x2="313.802" y2="495.479"/><line x1="1367.318" y1="23.005" x2="359.98" y2="495.479"/></g></g><polygon opacity=".1" points="199.531,222.706 218.536,213.817 195.272,204.356 176.344,213.263"/><polygon fill="#91BE68" points="199.55,218.089 214.05,211.308 196.3,204.089 181.858,210.884"/><polygon fill="#548628" points="181.858,212.511 181.858,213.843 199.609,221.075 199.608,218.103 181.858,210.884"/><path fill="#A4B5B7" d="M181.858 211.884"/><polygon fill="#4B722E" points="199.609,221.075 214.051,214.226 214.051,211.267 199.609,218.062"/><path fill="#A4B5B7" d="M181.858 206.29"/><path fill="#A4B5B7" d="M186.53 194.845"/><polygon opacity=".1" points="188.08,201.772 161.514,214.299 139.918,205.066 166.248,193.067"/><polygon fill="#fff" points="148.373,205.544 148.373,191.273 161.477,196.706 161.477,211.193"/><polygon fill="#E5DBDE" points="178.291,189.194 161.477,196.716 161.477,211.193 178.291,203.435"/><polygon fill="#DC5A38" points="148.373,191.294 157.123,185.15 161.479,196.71"/><polygon fill="#8A6D56" points="168.576,207.918 165.576,209.213 165.576,201.959 168.576,200.604"/><polyline fill="#C14F34" points="161.479,196.71 178.291,189.189 169.271,179.62 157.123,185.15 161.479,196.71"/><polygon opacity=".1" points="135.935,209.788 144.341,213.362 151.888,209.968 143.371,206.429"/><polygon fill="#A65C26" points="141.368,209.935 144.309,211.202 144.309,200.38 142.838,200.478"/><polygon fill="#8F4A1B" points="144.309,211.202 147.014,209.792 145.662,199.853 144.309,201.219"/><polygon fill="#578034" points="144.37,202.472 138.365,199.881 144.37,168.051"/><polygon fill="#4F6E32" points="144.33,202.472 149.699,200.155 144.33,168.051"/><polygon opacity=".1" points="125.842,220.724 132.501,223.556 138.479,220.866 131.731,218.062"/><polygon fill="#A65C26" points="129.594,221.126 132.535,222.394 132.535,215.55 130.531,215.55"/><polygon fill="#8F4A1B" points="132.535,222.394 135.24,220.985 134.406,216.132 132.535,215.966"/><polygon fill="#578034" points="132.596,218.665 126.592,216.073 132.596,203.507"/><polygon fill="#4F6E32" points="132.556,218.665 137.925,216.347 132.556,203.507"/><polygon opacity=".1" points="218.536,212.72 225.195,215.552 231.174,212.862 224.426,210.058"/><polygon fill="#A65C26" points="222.288,213.122 225.229,214.39 225.229,207.546 223.226,207.546"/><polygon fill="#8F4A1B" points="225.229,214.39 227.935,212.981 227.101,208.128 225.229,207.962"/><polygon fill="#578034" points="225.29,210.661 219.286,208.069 225.29,195.503"/><polygon fill="#4F6E32" points="225.25,210.661 230.619,208.343 225.25,195.503"/><polygon opacity=".1" points="141.901,230.563 156.244,236.66 169.12,230.868 154.587,224.831"/><polygon fill="#A55E28" points="150.926,231.485 156.112,233.913 156.112,224.53 152.988,222.61"/><polygon fill="#914A16" points="156.112,233.913 161.051,231.423 159.426,223.735 156.112,225.05"/><polygon fill="#BBD260" points="156.173,226.184 144.676,221.235 156.173,192.983"/><polygon fill="#99AF41" points="156.132,226.184 167.426,221.298 156.132,192.983"/></svg>