<svg xmlns="http://www.w3.org/2000/svg" xmlns:xlink="http://www.w3.org/1999/xlink" width="819" height="508"><path fill="#6E9C44" d="M328.151 271.303c-21.599-15.635-4.809-30.019-4.809-30.019l-167.831-68.39-79.473 61.941 15.538 6.297 28.674 34.289 106.073 58.836"/><defs><path id="a" d="M328.151 271.303c-21.599-15.635-4.809-30.019-4.809-30.019l-167.831-68.39-79.473 61.941 15.538 6.297 28.674 34.289 106.073 58.836"/></defs><clipPath id="b"><use xlink:href="#a" overflow="visible"/></clipPath><g opacity=".02" clip-path="url(#b)"><defs><polygon id="c" opacity=".02" points="76.235,426.574 -27,259.279 256.976,67.296 300.363,74.311 530.492,57 785.75,184.102 829,259.242 577.897,402.119 559.696,402.119 375.696,475.613 301.696,493.844"/></defs><clipPath id="d"><use xlink:href="#c" overflow="visible"/></clipPath><g clip-path="url(#d)" stroke="#000" stroke-linejoin="bevel" stroke-miterlimit="10" fill="none"><line x1="-895.405" y1="22.525" x2="263.897" y2="495"/><line x1="-849.227" y1="22.525" x2="310.075" y2="495"/><line x1="-803.048" y1="22.525" x2="356.253" y2="495"/><line x1="-756.87" y1="22.525" x2="402.432" y2="495"/><line x1="-710.692" y1="22.525" x2="448.609" y2="495"/><line x1="-664.514" y1="22.525" x2="494.787" y2="495"/><line x1="-618.335" y1="22.525" x2="540.965" y2="495"/><line x1="-572.157" y1="22.525" x2="587.143" y2="495"/><line x1="-525.979" y1="22.525" x2="633.32" y2="495"/><line x1="-479.801" y1="22.525" x2="679.498" y2="495"/><line x1="-433.623" y1="22.525" x2="725.676" y2="495"/><line x1="-387.444" y1="22.525" x2="771.854" y2="495"/><line x1="-341.266" y1="22.525" x2="818.031" y2="495"/><line x1="-295.088" y1="22.525" x2="864.209" y2="495"/><line x1="-248.91" y1="22.525" x2="910.387" y2="495"/><line x1="-202.731" y1="22.525" x2="956.564" y2="495"/><line x1="-156.553" y1="22.525" x2="1002.742" y2="495"/><line x1="-110.375" y1="22.525" x2="1048.92" y2="495"/><line x1="-64.197" y1="22.525" x2="1095.098" y2="495"/><line x1="-18.019" y1="22.525" x2="1141.275" y2="495"/><line x1="28.16" y1="22.525" x2="1187.453" y2="495"/><line x1="74.338" y1="22.525" x2="1233.631" y2="495"/><line x1="120.516" y1="22.525" x2="1279.809" y2="495"/><line x1="166.694" y1="22.525" x2="1325.986" y2="495"/><line x1="212.873" y1="22.525" x2="1372.164" y2="495"/><line x1="259.051" y1="22.525" x2="1418.342" y2="495"/><line x1="305.229" y1="22.525" x2="1464.52" y2="495"/><line x1="351.407" y1="22.525" x2="1510.697" y2="495"/><line x1="397.585" y1="22.525" x2="1556.875" y2="495"/><line x1="443.764" y1="22.525" x2="1603.053" y2="495"/><line x1="351.407" y1="23.005" x2="-655.94" y2="495.479"/><line x1="397.585" y1="23.005" x2="-609.762" y2="495.479"/><line x1="443.764" y1="23.005" x2="-563.584" y2="495.479"/><line x1="489.941" y1="23.005" x2="-517.406" y2="495.479"/><line x1="536.119" y1="23.005" x2="-471.228" y2="495.479"/><line x1="582.297" y1="23.005" x2="-425.049" y2="495.479"/><line x1="628.475" y1="23.005" x2="-378.871" y2="495.479"/><line x1="674.652" y1="23.005" x2="-332.693" y2="495.479"/><line x1="720.83" y1="23.005" x2="-286.515" y2="495.479"/><line x1="767.008" y1="23.005" x2="-240.336" y2="495.479"/><line x1="813.186" y1="23.005" x2="-194.158" y2="495.479"/><line x1="859.363" y1="23.005" x2="-147.98" y2="495.479"/><line x1="905.541" y1="23.005" x2="-101.802" y2="495.479"/><line x1="951.719" y1="23.005" x2="-55.624" y2="495.479"/><line x1="997.896" y1="23.005" x2="-9.445" y2="495.479"/><line x1="1044.074" y1="23.005" x2="36.733" y2="495.479"/><line x1="1090.252" y1="23.005" x2="82.911" y2="495.479"/><line x1="1136.43" y1="23.005" x2="129.089" y2="495.479"/><line x1="1182.607" y1="23.005" x2="175.268" y2="495.479"/><line x1="1228.785" y1="23.005" x2="221.446" y2="495.479"/><line x1="1274.963" y1="23.005" x2="267.624" y2="495.479"/><line x1="1321.141" y1="23.005" x2="313.802" y2="495.479"/><line x1="1367.318" y1="23.005" x2="359.98" y2="495.479"/></g></g><polygon opacity=".1" points="199.531,222.706 218.536,213.817 195.272,204.356 176.344,213.263"/><polygon fill="#91BE68" points="199.55,218.089 214.05,211.308 196.3,204.089 181.858,210.884"/><polygon fill="#548628" points="181.858,212.511 181.858,213.843 199.609,221.075 199.608,218.103 181.858,210.884"/><path fill="#A4B5B7" d="M181.858 211.884"/><polygon fill="#4B722E" points="199.609,221.075 214.051,214.226 214.051,211.267 199.609,218.062"/><polygon fill="#706D6E" points="186.662,210.206 199.609,215.481 199.608,203.509 186.674,198.249"/><path fill="#A4B5B7" d="M181.858 206.29"/><polygon fill="#5C5858" points="199.609,215.481 210.166,210.481 210.166,198.565 199.609,203.468"/><polygon fill="#CDCDCC" points="199.579,203.517 210.166,198.565 197.205,193.296 186.662,198.257"/><path fill="#A4B5B7" d="M186.53 194.845"/><polyline fill="#485157" points="166.047,251.987 93.208,222.09 87.904,225.67 159.464,254.96"/><polygon opacity=".1" points="188.08,199.772 161.514,212.299 139.918,203.066 166.248,191.067"/><polygon fill="#fff" points="148.373,203.544 148.373,189.273 161.477,194.706 161.477,209.193"/><polygon fill="#E5DBDE" points="178.291,187.194 161.477,194.716 161.477,209.193 178.291,201.435"/><polygon fill="#DC5A38" points="148.373,189.294 157.123,183.15 161.479,194.71"/><polygon fill="#8A6D56" points="168.576,205.918 165.576,207.213 165.576,199.959 168.576,198.604"/><polyline fill="#C14F34" points="161.479,194.71 178.291,187.189 169.271,177.62 157.123,183.15 161.479,194.71"/><polygon opacity=".1" points="133.456,231.739 158.853,242.35 178.966,233.233 153.841,222.801"/><polygon fill="#fff" points="140.038,232.351 140.038,218.153 158.87,225.942 158.87,240.391"/><polygon fill="#E5DBDE" points="169.938,220.984 158.854,225.942 158.87,240.391 169.97,235.37"/><polygon fill="#DC5A38" points="140.038,218.147 150.288,210.356 162.079,215.225 158.839,225.951"/><polygon fill="#C14F34" points="169.954,220.984 162.079,215.225 158.87,225.942"/><polygon fill="#A9C7F7" points="153.05,232.296 156.05,233.732 156.05,229.691 153.05,228.421"/><polygon fill="#A9C7F7" points="142.091,227.296 145.091,228.732 145.091,224.691 142.091,223.421"/><polygon opacity=".1" points="269.293,279.805 266.188,276.57 237.602,273.336 232.039,262.987 241.999,247.077 285.074,240.739 302.021,252.51 293.612,273.467"/><polygon fill="#A3BE5F" points="269.243,270.668 266.434,267.74 240.556,264.812 235.521,255.447 244.537,241.044 283.529,235.306 298.866,245.962 291.256,264.93"/><polygon fill="#F1E0A6" points="298.866,251.318 291.256,270.287 269.243,276.025 266.434,273.098 240.556,270.17 235.521,260.803 235.521,257.319 240.556,266.688 266.434,269.613 269.243,272.541 291.256,266.804 298.866,247.834"/><polygon fill="#969F5A" points="235.521,257.319 240.556,266.688 266.434,269.613 269.243,272.541 291.256,266.804 298.866,247.834 298.866,245.962 291.256,264.93 269.243,270.668 266.434,267.74 240.556,264.812 235.521,255.447"/><polygon fill="#747E42" points="240.556,266.688 240.556,264.812 266.434,267.74 266.434,269.613"/><polygon fill="#747E42" points="269.243,270.668 269.243,272.541 291.256,266.804 291.256,264.93"/><polygon fill="#D7CA93" points="240.556,266.688 240.556,270.17 266.434,273.098 266.434,269.613"/><polygon fill="#D7CA93" points="269.243,276.025 269.243,272.541 291.256,266.804 291.256,270.287"/><polygon opacity=".1" points="155.529,289.723 192.823,305.578 226.302,290.518 188.512,274.82"/><polygon fill="#E0C977" points="160.717,284.277 192.5,297.387 219.775,285.127 187.847,272.033"/><polygon fill="#C2AA5C" points="168.308,283.887 169.146,284.232 169.866,283.91 169.022,283.564"/><polygon fill="#F7DE8B" points="192.5,303.842 160.69,290.248 160.69,284.232 192.5,297.317"/><polygon fill="#C2AA5C" points="219.749,285.082 192.472,297.342 192.472,303.867 219.749,291.436"/><g fill="#E0C977"><polygon points="196.439,302.056 197.774,301.446 197.774,294.953 196.439,295.55"/><polygon points="211.089,295.379 212.425,294.77 212.425,288.358 211.089,288.955"/><polygon points="200.59,300.203 201.258,299.862 201.258,293.398 200.59,293.697"/><polygon points="203.727,298.781 204.394,298.441 204.394,291.977 203.727,292.275"/><polygon points="204.793,298.268 205.459,297.928 205.459,291.463 204.793,291.762"/><polygon points="218.167,292.214 218.834,291.873 218.834,285.512 218.167,285.811"/><polygon points="213.214,294.474 213.882,294.134 213.882,287.771 213.214,288.07"/></g><g fill="#E0C977"><polygon points="186.529,301.252 185.194,300.644 185.194,294.15 186.529,294.747"/><polygon points="171.878,294.881 170.542,294.271 170.542,288.358 171.878,288.955"/><polygon points="182.378,299.4 181.711,299.06 181.711,292.885 182.378,293.184"/><polygon points="179.243,298.148 178.574,297.809 178.574,291.619 179.243,291.918"/><polygon points="178.176,297.635 177.508,297.295 177.508,291.174 178.176,291.473"/><polygon points="164.802,291.977 164.134,291.637 164.134,285.697 164.802,285.996"/><polygon points="169.754,294.012 169.086,293.672 169.086,287.623 169.754,287.922"/></g><polygon fill="#C2AA5C" points="173.924,285.687 174.763,286.032 175.482,285.709 174.64,285.363"/><polygon fill="#C2AA5C" points="177.508,282.036 178.347,282.382 179.065,282.059 178.224,281.713"/><polygon fill="#C2AA5C" points="187.606,275.254 188.444,275.6 189.164,275.275 188.321,274.93"/><polygon fill="#C2AA5C" points="202.759,282.828 203.597,283.174 204.317,282.85 203.475,282.504"/><polygon fill="#C2AA5C" points="196.998,285.037 197.819,285.419 198.553,285.127 197.726,284.745"/><polygon fill="#C2AA5C" points="194.977,282.371 195.817,282.717 196.535,282.393 195.693,282.047"/><polygon fill="#C2AA5C" points="186.828,280.396 187.666,280.742 188.385,280.418 187.543,280.072"/><polygon fill="#C2AA5C" points="186.828,286.021 187.666,286.367 188.385,286.043 187.543,285.697"/><polygon fill="#C2AA5C" points="196.997,287.939 197.833,288.284 198.554,287.961 197.711,287.615"/><polygon fill="#C2AA5C" points="188.385,292.203 189.223,292.548 189.943,292.225 189.101,291.879"/><polygon fill="#C2AA5C" points="190.915,283.887 191.752,284.232 192.472,283.91 191.63,283.564"/><polygon fill="#C2AA5C" points="210.979,285.07 211.818,285.416 212.536,285.093 211.695,284.748"/><polygon fill="#C2AA5C" points="206.539,286.021 207.375,286.367 208.096,286.043 207.252,285.697"/><polygon fill="#C2AA5C" points="194.977,277.947 195.817,278.293 196.535,277.97 195.693,277.625"/><polygon fill="#C2AA5C" points="182.378,278.282 183.216,278.627 183.936,278.305 183.093,277.959"/><polygon fill="#C2AA5C" points="182.378,287.939 183.216,288.284 183.936,287.961 183.093,287.615"/><polygon opacity=".1" points="155.852,274.224 164.258,277.798 171.805,274.403 163.288,270.864"/><polygon fill="#A65C26" points="161.285,274.37 164.226,275.638 164.226,264.815 162.755,264.913"/><polygon fill="#8F4A1B" points="164.226,275.638 166.931,274.228 165.579,264.288 164.226,265.654"/><polygon fill="#578034" points="164.287,266.907 158.282,264.316 164.287,232.486"/><polygon fill="#4F6E32" points="164.247,266.907 169.616,264.591 164.247,232.486"/><polygon opacity=".1" points="178.554,240.157 186.96,243.731 194.507,240.336 185.989,236.797"/><polygon fill="#A65C26" points="183.986,240.303 186.928,241.571 186.928,230.749 185.457,230.846"/><polygon fill="#8F4A1B" points="186.928,241.571 189.633,240.161 188.28,230.221 186.928,231.587"/><polygon fill="#578034" points="186.988,232.84 180.983,230.25 186.988,198.419"/><polygon fill="#4F6E32" points="186.948,232.84 192.317,230.524 186.948,198.419"/><polygon opacity=".1" points="118.479,219.328 126.886,222.902 134.433,219.508 125.915,215.969"/><polygon fill="#A65C26" points="123.912,219.475 126.854,220.742 126.854,209.92 125.383,210.018"/><polygon fill="#8F4A1B" points="126.854,220.742 129.559,219.332 128.206,209.393 126.854,210.759"/><polygon fill="#578034" points="126.914,212.012 120.909,209.421 126.914,177.591"/><polygon fill="#4F6E32" points="126.874,212.012 132.243,209.695 126.874,177.591"/><polygon opacity=".1" points="146.731,262.857 153.39,265.689 159.369,263 152.621,260.195"/><polygon fill="#A65C26" points="150.483,263.26 153.424,264.527 153.424,257.684 151.42,257.684"/><polygon fill="#8F4A1B" points="153.424,264.527 156.129,263.119 155.295,258.266 153.424,258.1"/><polygon fill="#578034" points="153.485,260.799 147.481,258.207 153.485,245.641"/><polygon fill="#4F6E32" points="153.445,260.799 158.814,258.48 153.445,245.641"/><polygon opacity=".1" points="241.564,245.717 273.562,259.086 298.904,247.6 267.248,234.457"/><polygon fill="#86D5EA" points="241.261,256.432 255.403,262.34 266.604,257.264 252.612,251.455"/><polygon fill="#fff" points="249.857,246.489 249.857,228.6 273.585,238.414 273.585,256.619"/><polygon fill="#E5DBDE" points="287.53,232.167 273.565,238.414 273.585,256.619 287.569,250.292"/><polygon fill="#DC5A38" points="249.857,228.592 262.771,218.777 277.628,224.911 273.545,238.424"/><polygon fill="#C14F34" points="287.55,232.167 277.628,224.911 273.585,238.414"/><polygon fill="#A9C7F7" points="266.252,246.419 270.031,248.229 270.031,243.137 266.252,241.538"/><polygon fill="#A9C7F7" points="252.443,240.12 256.224,241.929 256.224,236.838 252.443,235.237"/><polygon opacity=".1" points="279.423,260.857 286.082,263.689 292.061,261 285.312,258.195"/><polygon fill="#A65C26" points="283.175,261.26 286.116,262.527 286.116,255.684 284.112,255.684"/><polygon fill="#8F4A1B" points="286.116,262.527 288.821,261.119 287.987,256.266 286.116,256.1"/><polygon fill="#578034" points="286.177,258.799 280.173,256.207 286.177,243.64"/><polygon fill="#4F6E32" points="286.137,258.799 291.506,256.48 286.137,243.64"/></svg>