<svg xmlns="http://www.w3.org/2000/svg" xmlns:xlink="http://www.w3.org/1999/xlink" width="819" height="508"><polygon fill="#6E9C44" points="76.038,234.836 91.576,241.133 120.25,275.422 226.323,334.258 215.047,379.954 155.511,454.211 66.235,427.574 0.699,293.314"/><polygon fill="#2F4C25" points="155.511,454.211 155.511,467.192 66.235,440.73 66.235,427.574"/><polygon fill="#34562A" points="0.699,293.314 0.699,306.471 66.235,440.73 66.235,427.574"/><defs><polygon id="a" points="76.038,234.836 91.576,241.133 120.25,275.422 226.323,334.258 215.047,379.954 155.511,454.211 66.235,427.574 0.699,293.314"/></defs><clipPath id="b"><use xlink:href="#a" overflow="visible"/></clipPath><g opacity=".02" clip-path="url(#b)"><defs><polygon id="c" opacity=".02" points="64.8,437.79 -12.5,291.463 274.363,87.656 300.363,74.311 530.492,57 785.75,184.102 829,259.242 577.897,402.119 559.696,402.119 375.696,475.613 301.696,493.844"/></defs><clipPath id="d"><use xlink:href="#c" overflow="visible"/></clipPath><g clip-path="url(#d)" stroke="#000" stroke-linejoin="bevel" stroke-miterlimit="10" fill="none"><line x1="-895.405" y1="22.525" x2="263.897" y2="495"/><line x1="-849.227" y1="22.525" x2="310.075" y2="495"/><line x1="-803.048" y1="22.525" x2="356.253" y2="495"/><line x1="-756.87" y1="22.525" x2="402.432" y2="495"/><line x1="-710.692" y1="22.525" x2="448.609" y2="495"/><line x1="-664.514" y1="22.525" x2="494.787" y2="495"/><line x1="-618.335" y1="22.525" x2="540.965" y2="495"/><line x1="-572.157" y1="22.525" x2="587.143" y2="495"/><line x1="-525.979" y1="22.525" x2="633.32" y2="495"/><line x1="-479.801" y1="22.525" x2="679.498" y2="495"/><line x1="-433.623" y1="22.525" x2="725.676" y2="495"/><line x1="-387.444" y1="22.525" x2="771.854" y2="495"/><line x1="-341.266" y1="22.525" x2="818.031" y2="495"/><line x1="-295.088" y1="22.525" x2="864.209" y2="495"/><line x1="-248.91" y1="22.525" x2="910.387" y2="495"/><line x1="-202.731" y1="22.525" x2="956.564" y2="495"/><line x1="-156.553" y1="22.525" x2="1002.742" y2="495"/><line x1="-110.375" y1="22.525" x2="1048.92" y2="495"/><line x1="-64.197" y1="22.525" x2="1095.098" y2="495"/><line x1="-18.019" y1="22.525" x2="1141.275" y2="495"/><line x1="28.16" y1="22.525" x2="1187.453" y2="495"/><line x1="74.338" y1="22.525" x2="1233.631" y2="495"/><line x1="120.516" y1="22.525" x2="1279.809" y2="495"/><line x1="166.694" y1="22.525" x2="1325.986" y2="495"/><line x1="212.873" y1="22.525" x2="1372.164" y2="495"/><line x1="259.051" y1="22.525" x2="1418.342" y2="495"/><line x1="305.229" y1="22.525" x2="1464.52" y2="495"/><line x1="351.407" y1="22.525" x2="1510.697" y2="495"/><line x1="397.585" y1="22.525" x2="1556.875" y2="495"/><line x1="443.764" y1="22.525" x2="1603.053" y2="495"/><line x1="351.407" y1="23.005" x2="-655.94" y2="495.479"/><line x1="397.585" y1="23.005" x2="-609.762" y2="495.479"/><line x1="443.764" y1="23.005" x2="-563.584" y2="495.479"/><line x1="489.941" y1="23.005" x2="-517.406" y2="495.479"/><line x1="536.119" y1="23.005" x2="-471.228" y2="495.479"/><line x1="582.297" y1="23.005" x2="-425.049" y2="495.479"/><line x1="628.475" y1="23.005" x2="-378.871" y2="495.479"/><line x1="674.652" y1="23.005" x2="-332.693" y2="495.479"/><line x1="720.83" y1="23.005" x2="-286.515" y2="495.479"/><line x1="767.008" y1="23.005" x2="-240.336" y2="495.479"/><line x1="813.186" y1="23.005" x2="-194.158" y2="495.479"/><line x1="859.363" y1="23.005" x2="-147.98" y2="495.479"/><line x1="905.541" y1="23.005" x2="-101.802" y2="495.479"/><line x1="951.719" y1="23.005" x2="-55.624" y2="495.479"/><line x1="997.896" y1="23.005" x2="-9.445" y2="495.479"/><line x1="1044.074" y1="23.005" x2="36.733" y2="495.479"/><line x1="1090.252" y1="23.005" x2="82.911" y2="495.479"/><line x1="1136.43" y1="23.005" x2="129.089" y2="495.479"/><line x1="1182.607" y1="23.005" x2="175.268" y2="495.479"/><line x1="1228.785" y1="23.005" x2="221.446" y2="495.479"/><line x1="1274.963" y1="23.005" x2="267.624" y2="495.479"/><line x1="1321.141" y1="23.005" x2="313.802" y2="495.479"/><line x1="1367.318" y1="23.005" x2="359.98" y2="495.479"/></g></g><polyline fill="#485157" points="219.675,361.178 160.489,337.493 154.321,340.715 218.398,366.386"/><polygon opacity=".1" points="125.229,427.919 121.116,423.636 83.253,419.353 75.886,405.646 89.079,384.571 146.131,376.177 168.576,391.768 157.44,419.524"/><polygon fill="#A3BE5F" points="125.164,415.817 121.442,411.94 87.167,408.063 80.499,395.657 92.439,376.581 144.084,368.981 164.399,383.095 154.32,408.219"/><polygon fill="#F1E0A6" points="164.399,390.189 154.32,415.313 125.164,422.913 121.442,419.036 87.167,415.158 80.499,402.752 80.499,398.138 87.167,410.545 121.442,414.422 125.164,418.3 154.32,410.7 164.399,385.575"/><polygon fill="#969F5A" points="80.499,398.138 87.167,410.545 121.442,414.422 125.164,418.3 154.32,410.7 164.399,385.575 164.399,383.095 154.32,408.219 125.164,415.817 121.442,411.94 87.167,408.063 80.499,395.657"/><polygon fill="#747E42" points="87.167,410.545 87.167,408.063 121.442,411.94 121.442,414.422"/><polygon fill="#747E42" points="125.164,415.817 125.164,418.3 154.32,410.7 154.32,408.219"/><polygon fill="#D7CA93" points="87.167,410.545 87.167,415.158 121.442,419.036 121.442,414.422"/><polygon fill="#D7CA93" points="125.164,422.913 125.164,418.3 154.32,410.7 154.32,415.313"/><polygon opacity=".1" points="85.303,290.642 110.699,301.252 130.812,292.136 105.688,281.703"/><polygon fill="#fff" points="91.885,291.253 91.885,277.056 110.717,284.844 110.717,299.293"/><polygon fill="#E5DBDE" points="121.785,279.887 110.701,284.844 110.717,299.293 121.816,294.272"/><polygon fill="#DC5A38" points="91.885,277.05 102.135,269.259 113.926,274.127 110.686,284.854"/><polygon fill="#C14F34" points="121.801,279.887 113.926,274.127 110.717,284.844"/><polygon fill="#A9C7F7" points="104.896,291.198 107.896,292.635 107.896,288.594 104.896,287.323"/><polygon fill="#A9C7F7" points="93.938,286.198 96.938,287.635 96.938,283.594 93.938,282.323"/><polygon opacity=".1" points="171.812,331.55 145.246,344.075 123.65,334.843 149.98,322.845"/><polygon fill="#fff" points="132.105,335.321 132.105,321.05 145.208,326.483 145.208,340.97"/><polygon fill="#E5DBDE" points="162.023,318.972 145.208,326.493 145.208,340.97 162.023,333.212"/><polygon fill="#DC5A38" points="132.105,321.071 140.855,314.927 145.21,326.487"/><polygon fill="#8A6D56" points="152.308,337.694 149.308,338.989 149.308,331.735 152.308,330.382"/><polyline fill="#C14F34" points="145.21,326.487 162.023,318.966 153.003,309.397 140.855,314.927 145.21,326.487"/><polygon opacity=".1" points="71.827,292.511 45.26,305.036 23.665,295.804 49.995,283.806"/><polygon fill="#fff" points="32.12,296.282 32.12,282.011 45.223,287.444 45.223,301.931"/><polygon fill="#E5DBDE" points="62.038,279.933 45.223,287.454 45.223,301.931 62.038,294.173"/><polygon fill="#DC5A38" points="32.12,282.032 40.87,275.888 45.225,287.448"/><polygon fill="#8A6D56" points="52.323,298.655 49.323,299.95 49.323,292.696 52.323,291.343"/><polyline fill="#C14F34" points="45.225,287.448 62.038,279.927 53.018,270.358 40.87,275.888 45.225,287.448"/><polygon opacity=".1" points="66.43,346.359 103.724,362.215 137.203,347.154 99.413,331.457"/><polygon fill="#E0C977" points="71.618,340.914 103.4,354.023 130.676,341.764 98.748,328.67"/><polygon fill="#C2AA5C" points="79.209,340.523 80.047,340.869 80.767,340.547 79.923,340.201"/><polygon fill="#F7DE8B" points="103.4,360.479 71.591,346.885 71.591,340.869 103.4,353.954"/><polygon fill="#C2AA5C" points="130.649,341.719 103.373,353.979 103.373,360.504 130.649,348.072"/><g fill="#E0C977"><polygon points="107.34,358.692 108.675,358.083 108.675,351.59 107.34,352.187"/><polygon points="121.99,352.016 123.326,351.406 123.326,344.995 121.99,345.592"/><polygon points="111.491,356.84 112.159,356.499 112.159,350.035 111.491,350.334"/><polygon points="114.628,355.418 115.295,355.078 115.295,348.613 114.628,348.912"/><polygon points="115.694,354.904 116.36,354.564 116.36,348.1 115.694,348.398"/><polygon points="129.068,348.851 129.735,348.51 129.735,342.148 129.068,342.447"/><polygon points="124.115,351.11 124.783,350.771 124.783,344.408 124.115,344.707"/></g><g fill="#E0C977"><polygon points="97.43,357.889 96.095,357.28 96.095,350.787 97.43,351.384"/><polygon points="82.779,351.518 81.443,350.908 81.443,344.995 82.779,345.592"/><polygon points="93.279,356.037 92.612,355.696 92.612,349.521 93.279,349.82"/><polygon points="90.144,354.785 89.475,354.445 89.475,348.256 90.144,348.555"/><polygon points="89.077,354.271 88.409,353.932 88.409,347.811 89.077,348.109"/><polygon points="75.703,348.613 75.035,348.273 75.035,342.334 75.703,342.633"/><polygon points="80.655,350.648 79.987,350.309 79.987,344.26 80.655,344.559"/></g><polygon fill="#C2AA5C" points="84.825,342.323 85.664,342.669 86.383,342.346 85.541,342"/><polygon fill="#C2AA5C" points="88.409,338.673 89.248,339.019 89.966,338.695 89.125,338.35"/><polygon fill="#C2AA5C" points="98.507,331.891 99.345,332.236 100.064,331.912 99.222,331.566"/><polygon fill="#C2AA5C" points="113.66,339.465 114.498,339.811 115.218,339.486 114.376,339.141"/><polygon fill="#C2AA5C" points="107.898,341.674 108.72,342.056 109.454,341.764 108.627,341.382"/><polygon fill="#C2AA5C" points="105.878,339.008 106.718,339.354 107.436,339.029 106.594,338.684"/><polygon fill="#C2AA5C" points="97.729,337.033 98.566,337.379 99.286,337.055 98.444,336.709"/><polygon fill="#C2AA5C" points="97.729,342.658 98.566,343.004 99.286,342.68 98.444,342.334"/><polygon fill="#C2AA5C" points="107.897,344.576 108.734,344.921 109.455,344.598 108.612,344.252"/><polygon fill="#C2AA5C" points="99.286,348.84 100.124,349.185 100.844,348.861 100.002,348.516"/><polygon fill="#C2AA5C" points="101.815,340.523 102.653,340.869 103.373,340.547 102.531,340.201"/><polygon fill="#C2AA5C" points="121.88,341.707 122.719,342.053 123.437,341.729 122.596,341.385"/><polygon fill="#C2AA5C" points="117.439,342.658 118.276,343.004 118.997,342.68 118.153,342.334"/><polygon fill="#C2AA5C" points="105.878,334.584 106.718,334.93 107.436,334.606 106.594,334.262"/><polygon fill="#C2AA5C" points="93.279,334.919 94.117,335.264 94.837,334.941 93.994,334.596"/><polygon fill="#C2AA5C" points="93.279,344.576 94.117,344.921 94.837,344.598 93.994,344.252"/><polygon opacity=".1" points="77.978,323.715 96.982,314.826 73.719,305.365 54.79,314.271"/><polygon fill="#91BE68" points="77.996,319.098 92.496,312.316 74.746,305.098 60.305,311.893"/><polygon fill="#548628" points="60.305,313.52 60.305,314.852 78.056,322.084 78.055,319.111 60.305,311.893"/><path fill="#A4B5B7" d="M60.305 312.893"/><polygon fill="#4B722E" points="78.056,322.084 92.497,315.234 92.497,312.275 78.056,319.07"/><polygon fill="#706D6E" points="65.108,311.215 78.056,316.49 78.055,304.518 65.12,299.258"/><path fill="#A4B5B7" d="M60.305 307.299"/><polygon fill="#5C5858" points="78.056,316.49 88.612,311.49 88.612,299.574 78.056,304.477"/><polygon fill="#CDCDCC" points="78.025,304.525 88.612,299.574 75.651,294.305 65.108,299.266"/><path fill="#A4B5B7" d="M64.977 295.854"/><polygon opacity=".1" points="39.769,331.836 48.175,335.41 55.722,332.016 47.205,328.477"/><polygon fill="#A65C26" points="45.202,331.982 48.143,333.25 48.143,322.428 46.672,322.525"/><polygon fill="#8F4A1B" points="48.143,333.25 50.848,331.84 49.496,321.9 48.143,323.267"/><polygon fill="#578034" points="48.204,324.52 42.199,321.929 48.204,290.099"/><polygon fill="#4F6E32" points="48.164,324.52 53.533,322.203 48.164,290.099"/><polygon opacity=".1" points="170.377,337.043 184.72,343.14 197.596,337.348 183.062,331.311"/><polygon fill="#A55E28" points="179.401,337.965 184.588,340.393 184.588,331.01 181.464,329.09"/><polygon fill="#914A16" points="184.588,340.393 189.526,337.902 187.901,330.215 184.588,331.529"/><polygon fill="#BBD260" points="184.648,332.663 173.151,327.715 184.648,299.463"/><polygon fill="#99AF41" points="184.607,332.663 195.901,327.777 184.607,299.463"/><polygon opacity=".1" points="57,267.201 65.406,270.775 72.953,267.381 64.436,263.842"/><polygon fill="#A65C26" points="62.433,267.348 65.374,268.615 65.374,257.793 63.903,257.891"/><polygon fill="#8F4A1B" points="65.374,268.615 68.079,267.205 66.727,257.266 65.374,258.631"/><polygon fill="#578034" points="65.435,259.885 59.43,257.293 65.435,225.463"/><polygon fill="#4F6E32" points="65.395,259.885 70.764,257.568 65.395,225.463"/><polygon opacity=".1" points="103.078,313.644 109.737,316.476 115.715,313.786 108.967,310.983"/><polygon fill="#A65C26" points="106.83,314.048 109.771,315.315 109.771,308.472 107.767,308.472"/><polygon fill="#8F4A1B" points="109.771,315.315 112.476,313.905 111.642,309.052 109.771,308.886"/><polygon fill="#578034" points="109.832,311.585 103.828,308.993 109.832,296.427"/><polygon fill="#4F6E32" points="109.792,311.585 115.161,309.269 109.792,296.427"/><polygon opacity=".1" points="88.921,388.235 120.919,401.604 146.261,390.118 114.605,376.976"/><polygon fill="#86D5EA" points="88.618,398.95 102.76,404.858 113.96,399.782 99.969,393.974"/><polygon fill="#fff" points="97.214,389.007 97.214,371.118 120.942,380.933 120.942,399.138"/><polygon fill="#E5DBDE" points="134.887,374.685 120.922,380.933 120.942,399.138 134.926,392.812"/><polygon fill="#DC5A38" points="97.214,371.11 110.128,361.296 124.985,367.429 120.902,380.942"/><polygon fill="#C14F34" points="134.907,374.685 124.985,367.429 120.942,380.933"/><polygon fill="#A9C7F7" points="113.609,388.938 117.388,390.747 117.388,385.655 113.609,384.056"/><polygon fill="#A9C7F7" points="99.8,382.638 103.581,384.448 103.581,379.356 99.8,377.755"/><polygon opacity=".1" points="138.754,392.647 147.161,396.222 154.708,392.827 146.19,389.288"/><polygon fill="#A65C26" points="144.187,392.794 147.128,394.062 147.128,383.239 145.658,383.337"/><polygon fill="#8F4A1B" points="147.128,394.062 149.833,392.651 148.481,382.712 147.128,384.078"/><polygon fill="#578034" points="147.189,385.331 141.184,382.74 147.189,350.91"/><polygon fill="#4F6E32" points="147.149,385.331 152.518,383.015 147.149,350.91"/><polygon opacity=".1" points="132.436,403.175 139.095,406.007 145.073,403.317 138.325,400.514"/><polygon fill="#A65C26" points="136.188,403.578 139.129,404.846 139.129,398.002 137.125,398.002"/><polygon fill="#8F4A1B" points="139.129,404.846 141.834,403.437 141,398.583 139.129,398.417"/><polygon fill="#578034" points="139.189,401.116 133.186,398.524 139.189,385.958"/><polygon fill="#4F6E32" points="139.149,401.116 144.519,398.799 139.149,385.958"/></svg>