<svg xmlns="http://www.w3.org/2000/svg" xmlns:xlink="http://www.w3.org/1999/xlink" width="819" height="508"><polygon fill="#6E9C44" points="76.038,234.836 91.576,241.133 120.25,275.422 226.323,334.258 215.047,379.954 155.511,454.211 66.235,427.574 0.699,293.314"/><polygon fill="#2F4C25" points="155.511,454.211 155.511,467.192 66.235,440.73 66.235,427.574"/><polygon fill="#34562A" points="0.699,293.314 0.699,306.471 66.235,440.73 66.235,427.574"/><defs><polygon id="a" points="76.038,234.836 91.576,241.133 120.25,275.422 226.323,334.258 215.047,379.954 155.511,454.211 66.235,427.574 0.699,293.314"/></defs><clipPath id="b"><use xlink:href="#a" overflow="visible"/></clipPath><g opacity=".02" clip-path="url(#b)"><defs><polygon id="c" opacity=".02" points="64.8,437.79 -12.5,291.463 274.363,87.656 300.363,74.311 530.492,57 785.75,184.102 829,259.242 577.897,402.119 559.696,402.119 375.696,475.613 301.696,493.844"/></defs><clipPath id="d"><use xlink:href="#c" overflow="visible"/></clipPath><g clip-path="url(#d)" stroke="#000" stroke-linejoin="bevel" stroke-miterlimit="10" fill="none"><line x1="-895.405" y1="22.525" x2="263.897" y2="495"/><line x1="-849.227" y1="22.525" x2="310.075" y2="495"/><line x1="-803.048" y1="22.525" x2="356.253" y2="495"/><line x1="-756.87" y1="22.525" x2="402.432" y2="495"/><line x1="-710.692" y1="22.525" x2="448.609" y2="495"/><line x1="-664.514" y1="22.525" x2="494.787" y2="495"/><line x1="-618.335" y1="22.525" x2="540.965" y2="495"/><line x1="-572.157" y1="22.525" x2="587.143" y2="495"/><line x1="-525.979" y1="22.525" x2="633.32" y2="495"/><line x1="-479.801" y1="22.525" x2="679.498" y2="495"/><line x1="-433.623" y1="22.525" x2="725.676" y2="495"/><line x1="-387.444" y1="22.525" x2="771.854" y2="495"/><line x1="-341.266" y1="22.525" x2="818.031" y2="495"/><line x1="-295.088" y1="22.525" x2="864.209" y2="495"/><line x1="-248.91" y1="22.525" x2="910.387" y2="495"/><line x1="-202.731" y1="22.525" x2="956.564" y2="495"/><line x1="-156.553" y1="22.525" x2="1002.742" y2="495"/><line x1="-110.375" y1="22.525" x2="1048.92" y2="495"/><line x1="-64.197" y1="22.525" x2="1095.098" y2="495"/><line x1="-18.019" y1="22.525" x2="1141.275" y2="495"/><line x1="28.16" y1="22.525" x2="1187.453" y2="495"/><line x1="74.338" y1="22.525" x2="1233.631" y2="495"/><line x1="120.516" y1="22.525" x2="1279.809" y2="495"/><line x1="166.694" y1="22.525" x2="1325.986" y2="495"/><line x1="212.873" y1="22.525" x2="1372.164" y2="495"/><line x1="259.051" y1="22.525" x2="1418.342" y2="495"/><line x1="305.229" y1="22.525" x2="1464.52" y2="495"/><line x1="351.407" y1="22.525" x2="1510.697" y2="495"/><line x1="397.585" y1="22.525" x2="1556.875" y2="495"/><line x1="443.764" y1="22.525" x2="1603.053" y2="495"/><line x1="351.407" y1="23.005" x2="-655.94" y2="495.479"/><line x1="397.585" y1="23.005" x2="-609.762" y2="495.479"/><line x1="443.764" y1="23.005" x2="-563.584" y2="495.479"/><line x1="489.941" y1="23.005" x2="-517.406" y2="495.479"/><line x1="536.119" y1="23.005" x2="-471.228" y2="495.479"/><line x1="582.297" y1="23.005" x2="-425.049" y2="495.479"/><line x1="628.475" y1="23.005" x2="-378.871" y2="495.479"/><line x1="674.652" y1="23.005" x2="-332.693" y2="495.479"/><line x1="720.83" y1="23.005" x2="-286.515" y2="495.479"/><line x1="767.008" y1="23.005" x2="-240.336" y2="495.479"/><line x1="813.186" y1="23.005" x2="-194.158" y2="495.479"/><line x1="859.363" y1="23.005" x2="-147.98" y2="495.479"/><line x1="905.541" y1="23.005" x2="-101.802" y2="495.479"/><line x1="951.719" y1="23.005" x2="-55.624" y2="495.479"/><line x1="997.896" y1="23.005" x2="-9.445" y2="495.479"/><line x1="1044.074" y1="23.005" x2="36.733" y2="495.479"/><line x1="1090.252" y1="23.005" x2="82.911" y2="495.479"/><line x1="1136.43" y1="23.005" x2="129.089" y2="495.479"/><line x1="1182.607" y1="23.005" x2="175.268" y2="495.479"/><line x1="1228.785" y1="23.005" x2="221.446" y2="495.479"/><line x1="1274.963" y1="23.005" x2="267.624" y2="495.479"/><line x1="1321.141" y1="23.005" x2="313.802" y2="495.479"/><line x1="1367.318" y1="23.005" x2="359.98" y2="495.479"/></g></g><polygon opacity=".1" points="75.303,296.642 100.699,307.252 120.812,298.136 95.688,287.703"/><polygon fill="#fff" points="81.885,297.253 81.885,283.056 100.717,290.844 100.717,305.293"/><polygon fill="#E5DBDE" points="111.785,285.887 100.701,290.844 100.717,305.293 111.816,300.272"/><polygon fill="#DC5A38" points="81.885,283.05 92.135,275.259 103.926,280.127 100.686,290.854"/><polygon fill="#C14F34" points="111.801,285.887 103.926,280.127 100.717,290.844"/><polygon fill="#A9C7F7" points="94.896,297.198 97.896,298.635 97.896,294.594 94.896,293.323"/><polygon fill="#A9C7F7" points="83.938,292.198 86.938,293.635 86.938,289.594 83.938,288.323"/><polygon opacity=".1" points="77.978,323.715 96.982,314.826 73.719,305.365 54.79,314.271"/><polygon fill="#91BE68" points="77.996,319.098 92.496,312.316 74.746,305.098 60.305,311.893"/><polygon fill="#548628" points="60.305,313.52 60.305,314.852 78.056,322.084 78.055,319.111 60.305,311.893"/><path fill="#A4B5B7" d="M60.305 312.893"/><polygon fill="#4B722E" points="78.056,322.084 92.497,315.234 92.497,312.275 78.056,319.07"/><path fill="#A4B5B7" d="M60.305 307.299"/><path fill="#A4B5B7" d="M64.977 295.854"/><polygon opacity=".1" points="112.232,312.512 126.575,318.608 139.451,312.816 124.918,306.779"/><polygon fill="#A55E28" points="121.257,313.434 126.443,315.861 126.443,306.479 123.319,304.559"/><polygon fill="#914A16" points="126.443,315.861 131.382,313.371 129.757,305.684 126.443,306.998"/><polygon fill="#BBD260" points="126.504,308.132 115.007,303.184 126.504,274.932"/><polygon fill="#99AF41" points="126.463,308.132 137.757,303.246 126.463,274.932"/><polygon opacity=".1" points="57,297.201 65.406,300.775 72.953,297.381 64.436,293.842"/><polygon fill="#A65C26" points="62.433,297.348 65.374,298.615 65.374,287.793 63.903,287.891"/><polygon fill="#8F4A1B" points="65.374,298.615 68.079,297.205 66.727,287.266 65.374,288.631"/><polygon fill="#578034" points="65.435,289.885 59.43,287.293 65.435,255.463"/><polygon fill="#4F6E32" points="65.395,289.885 70.764,287.568 65.395,255.463"/><polygon opacity=".1" points="103.078,313.644 109.737,316.476 115.715,313.786 108.967,310.983"/><polygon fill="#A65C26" points="106.83,314.048 109.771,315.315 109.771,308.472 107.767,308.472"/><polygon fill="#8F4A1B" points="109.771,315.315 112.476,313.905 111.642,309.052 109.771,308.886"/><polygon fill="#578034" points="109.832,311.585 103.828,308.993 109.832,296.427"/><polygon fill="#4F6E32" points="109.792,311.585 115.161,309.269 109.792,296.427"/><polygon opacity=".1" points="42.152,321.173 48.812,324.005 54.79,321.315 48.042,318.512"/><polygon fill="#A65C26" points="45.904,321.576 48.846,322.844 48.846,316 46.842,316"/><polygon fill="#8F4A1B" points="48.846,322.844 51.551,321.435 50.717,316.581 48.846,316.415"/><polygon fill="#578034" points="48.906,319.114 42.902,316.522 48.906,303.956"/><polygon fill="#4F6E32" points="48.866,319.114 54.235,316.797 48.866,303.956"/></svg>