<svg xmlns="http://www.w3.org/2000/svg" xmlns:xlink="http://www.w3.org/1999/xlink" width="819" height="508"><polygon fill="#6E9C44" points="76.038,234.836 91.576,241.133 120.25,275.422 226.323,334.258 215.047,379.954 155.511,454.211 66.235,427.574 0.699,293.314"/><polygon fill="#2F4C25" points="155.511,454.211 155.511,467.192 66.235,440.73 66.235,427.574"/><polygon fill="#34562A" points="0.699,293.314 0.699,306.471 66.235,440.73 66.235,427.574"/><defs><polygon id="a" points="76.038,234.836 91.576,241.133 120.25,275.422 226.323,334.258 215.047,379.954 155.511,454.211 66.235,427.574 0.699,293.314"/></defs><clipPath id="b"><use xlink:href="#a" overflow="visible"/></clipPath><g opacity=".02" clip-path="url(#b)"><defs><polygon id="c" opacity=".02" points="64.8,437.79 -12.5,291.463 274.363,87.656 300.363,74.311 530.492,57 785.75,184.102 829,259.242 577.897,402.119 559.696,402.119 375.696,475.613 301.696,493.844"/></defs><clipPath id="d"><use xlink:href="#c" overflow="visible"/></clipPath><g clip-path="url(#d)" stroke="#000" stroke-linejoin="bevel" stroke-miterlimit="10" fill="none"><line x1="-895.405" y1="22.525" x2="263.897" y2="495"/><line x1="-849.227" y1="22.525" x2="310.075" y2="495"/><line x1="-803.048" y1="22.525" x2="356.253" y2="495"/><line x1="-756.87" y1="22.525" x2="402.432" y2="495"/><line x1="-710.692" y1="22.525" x2="448.609" y2="495"/><line x1="-664.514" y1="22.525" x2="494.787" y2="495"/><line x1="-618.335" y1="22.525" x2="540.965" y2="495"/><line x1="-572.157" y1="22.525" x2="587.143" y2="495"/><line x1="-525.979" y1="22.525" x2="633.32" y2="495"/><line x1="-479.801" y1="22.525" x2="679.498" y2="495"/><line x1="-433.623" y1="22.525" x2="725.676" y2="495"/><line x1="-387.444" y1="22.525" x2="771.854" y2="495"/><line x1="-341.266" y1="22.525" x2="818.031" y2="495"/><line x1="-295.088" y1="22.525" x2="864.209" y2="495"/><line x1="-248.91" y1="22.525" x2="910.387" y2="495"/><line x1="-202.731" y1="22.525" x2="956.564" y2="495"/><line x1="-156.553" y1="22.525" x2="1002.742" y2="495"/><line x1="-110.375" y1="22.525" x2="1048.92" y2="495"/><line x1="-64.197" y1="22.525" x2="1095.098" y2="495"/><line x1="-18.019" y1="22.525" x2="1141.275" y2="495"/><line x1="28.16" y1="22.525" x2="1187.453" y2="495"/><line x1="74.338" y1="22.525" x2="1233.631" y2="495"/><line x1="120.516" y1="22.525" x2="1279.809" y2="495"/><line x1="166.694" y1="22.525" x2="1325.986" y2="495"/><line x1="212.873" y1="22.525" x2="1372.164" y2="495"/><line x1="259.051" y1="22.525" x2="1418.342" y2="495"/><line x1="305.229" y1="22.525" x2="1464.52" y2="495"/><line x1="351.407" y1="22.525" x2="1510.697" y2="495"/><line x1="397.585" y1="22.525" x2="1556.875" y2="495"/><line x1="443.764" y1="22.525" x2="1603.053" y2="495"/><line x1="351.407" y1="23.005" x2="-655.94" y2="495.479"/><line x1="397.585" y1="23.005" x2="-609.762" y2="495.479"/><line x1="443.764" y1="23.005" x2="-563.584" y2="495.479"/><line x1="489.941" y1="23.005" x2="-517.406" y2="495.479"/><line x1="536.119" y1="23.005" x2="-471.228" y2="495.479"/><line x1="582.297" y1="23.005" x2="-425.049" y2="495.479"/><line x1="628.475" y1="23.005" x2="-378.871" y2="495.479"/><line x1="674.652" y1="23.005" x2="-332.693" y2="495.479"/><line x1="720.83" y1="23.005" x2="-286.515" y2="495.479"/><line x1="767.008" y1="23.005" x2="-240.336" y2="495.479"/><line x1="813.186" y1="23.005" x2="-194.158" y2="495.479"/><line x1="859.363" y1="23.005" x2="-147.98" y2="495.479"/><line x1="905.541" y1="23.005" x2="-101.802" y2="495.479"/><line x1="951.719" y1="23.005" x2="-55.624" y2="495.479"/><line x1="997.896" y1="23.005" x2="-9.445" y2="495.479"/><line x1="1044.074" y1="23.005" x2="36.733" y2="495.479"/><line x1="1090.252" y1="23.005" x2="82.911" y2="495.479"/><line x1="1136.43" y1="23.005" x2="129.089" y2="495.479"/><line x1="1182.607" y1="23.005" x2="175.268" y2="495.479"/><line x1="1228.785" y1="23.005" x2="221.446" y2="495.479"/><line x1="1274.963" y1="23.005" x2="267.624" y2="495.479"/><line x1="1321.141" y1="23.005" x2="313.802" y2="495.479"/><line x1="1367.318" y1="23.005" x2="359.98" y2="495.479"/></g></g><polyline fill="#485157" points="219.675,361.178 160.489,337.493 154.321,340.715 218.398,366.386"/><polyline fill="#485157" points="206.644,323.342 50.859,396.073 48.006,390.229 199.454,319.354"/><polygon opacity=".1" points="125.229,427.919 121.116,423.636 83.253,419.353 75.886,405.646 89.079,384.571 146.131,376.177 168.576,391.768 157.44,419.524"/><polygon fill="#A3BE5F" points="125.164,415.817 121.442,411.94 87.167,408.063 80.499,395.657 92.439,376.581 144.084,368.981 164.399,383.095 154.32,408.219"/><polygon fill="#F1E0A6" points="164.399,390.189 154.32,415.313 125.164,422.913 121.442,419.036 87.167,415.158 80.499,402.752 80.499,398.138 87.167,410.545 121.442,414.422 125.164,418.3 154.32,410.7 164.399,385.575"/><polygon fill="#969F5A" points="80.499,398.138 87.167,410.545 121.442,414.422 125.164,418.3 154.32,410.7 164.399,385.575 164.399,383.095 154.32,408.219 125.164,415.817 121.442,411.94 87.167,408.063 80.499,395.657"/><polygon fill="#747E42" points="87.167,410.545 87.167,408.063 121.442,411.94 121.442,414.422"/><polygon fill="#747E42" points="125.164,415.817 125.164,418.3 154.32,410.7 154.32,408.219"/><polygon fill="#D7CA93" points="87.167,410.545 87.167,415.158 121.442,419.036 121.442,414.422"/><polygon fill="#D7CA93" points="125.164,422.913 125.164,418.3 154.32,410.7 154.32,415.313"/><polygon opacity=".1" points="82.303,290.642 107.699,301.252 127.812,292.136 102.688,281.703"/><polygon fill="#fff" points="88.885,291.253 88.885,277.056 107.717,284.844 107.717,299.293"/><polygon fill="#E5DBDE" points="118.785,279.887 107.701,284.844 107.717,299.293 118.816,294.272"/><polygon fill="#DC5A38" points="88.885,277.05 99.135,269.259 110.926,274.127 107.686,284.854"/><polygon fill="#C14F34" points="118.801,279.887 110.926,274.127 107.717,284.844"/><polygon fill="#A9C7F7" points="101.896,291.198 104.896,292.635 104.896,288.594 101.896,287.323"/><polygon fill="#A9C7F7" points="90.938,286.198 93.938,287.635 93.938,283.594 90.938,282.323"/><polygon opacity=".1" points="19.917,325.392 45.313,336.002 65.427,326.886 40.302,316.453"/><polygon fill="#fff" points="26.499,326.003 26.499,311.806 45.331,319.594 45.331,334.043"/><polygon fill="#E5DBDE" points="56.399,314.637 45.315,319.594 45.331,334.043 56.431,329.022"/><polygon fill="#DC5A38" points="26.499,311.8 36.749,304.009 48.54,308.877 45.3,319.604"/><polygon fill="#C14F34" points="56.415,314.637 48.54,308.877 45.331,319.594"/><polygon fill="#A9C7F7" points="39.511,325.948 42.511,327.385 42.511,323.344 39.511,322.073"/><polygon fill="#A9C7F7" points="28.552,320.948 31.552,322.385 31.552,318.344 28.552,317.073"/><polygon opacity=".1" points="134.673,321.707 108.106,334.232 86.511,325 112.841,313.002"/><polygon fill="#fff" points="94.966,325.479 94.966,311.207 108.069,316.641 108.069,331.127"/><polygon fill="#E5DBDE" points="124.884,309.129 108.069,316.65 108.069,331.127 124.884,323.369"/><polygon fill="#DC5A38" points="94.966,311.229 103.716,305.084 108.071,316.645"/><polygon fill="#8A6D56" points="115.169,327.852 112.169,329.146 112.169,321.893 115.169,320.539"/><polyline fill="#C14F34" points="108.071,316.645 124.884,309.123 115.864,299.555 103.716,305.084 108.071,316.645"/><polygon opacity=".1" points="75.827,294.511 49.26,307.036 27.665,297.804 53.995,285.806"/><polygon fill="#fff" points="36.12,298.282 36.12,284.011 49.223,289.444 49.223,303.931"/><polygon fill="#E5DBDE" points="66.038,281.933 49.223,289.454 49.223,303.931 66.038,296.173"/><polygon fill="#DC5A38" points="36.12,284.032 44.87,277.888 49.225,289.448"/><polygon fill="#8A6D56" points="56.323,300.655 53.323,301.95 53.323,294.696 56.323,293.343"/><polyline fill="#C14F34" points="49.225,289.448 66.038,281.927 57.018,272.358 44.87,277.888 49.225,289.448"/><polygon opacity=".1" points="39.571,348.205 76.865,364.061 110.345,349 72.555,333.303"/><polygon fill="#E0C977" points="44.76,342.76 76.542,355.869 103.817,343.609 71.89,330.516"/><polygon fill="#C2AA5C" points="52.351,342.369 53.188,342.715 53.908,342.393 53.064,342.047"/><polygon fill="#F7DE8B" points="76.542,362.324 44.732,348.73 44.732,342.715 76.542,355.8"/><polygon fill="#C2AA5C" points="103.791,343.564 76.515,355.824 76.515,362.35 103.791,349.918"/><g fill="#E0C977"><polygon points="80.481,360.538 81.816,359.929 81.816,353.436 80.481,354.032"/><polygon points="95.132,353.861 96.468,353.252 96.468,346.841 95.132,347.438"/><polygon points="84.633,358.686 85.301,358.345 85.301,351.881 84.633,352.18"/><polygon points="87.77,357.264 88.437,356.924 88.437,350.459 87.77,350.758"/><polygon points="88.836,356.75 89.502,356.41 89.502,349.945 88.836,350.244"/><polygon points="102.21,350.696 102.877,350.355 102.877,343.994 102.21,344.293"/><polygon points="97.257,352.956 97.925,352.616 97.925,346.254 97.257,346.553"/></g><g fill="#E0C977"><polygon points="70.571,359.734 69.236,359.126 69.236,352.633 70.571,353.229"/><polygon points="55.921,353.363 54.585,352.754 54.585,346.841 55.921,347.438"/><polygon points="66.421,357.883 65.754,357.542 65.754,351.367 66.421,351.666"/><polygon points="63.285,356.631 62.616,356.291 62.616,350.102 63.285,350.4"/><polygon points="62.219,356.117 61.551,355.777 61.551,349.656 62.219,349.955"/><polygon points="48.845,350.459 48.177,350.119 48.177,344.18 48.845,344.479"/><polygon points="53.797,352.494 53.129,352.154 53.129,346.105 53.797,346.404"/></g><polygon fill="#C2AA5C" points="57.967,344.169 58.806,344.515 59.524,344.191 58.683,343.846"/><polygon fill="#C2AA5C" points="61.551,340.519 62.39,340.864 63.107,340.541 62.267,340.195"/><polygon fill="#C2AA5C" points="71.648,333.736 72.486,334.082 73.206,333.758 72.363,333.412"/><polygon fill="#C2AA5C" points="86.802,341.311 87.64,341.656 88.359,341.332 87.518,340.986"/><polygon fill="#C2AA5C" points="81.04,343.52 81.861,343.901 82.596,343.609 81.769,343.228"/><polygon fill="#C2AA5C" points="79.02,340.854 79.859,341.199 80.577,340.875 79.735,340.529"/><polygon fill="#C2AA5C" points="70.87,338.879 71.708,339.225 72.428,338.9 71.586,338.555"/><polygon fill="#C2AA5C" points="70.87,344.504 71.708,344.85 72.428,344.525 71.586,344.18"/><polygon fill="#C2AA5C" points="81.039,346.422 81.876,346.767 82.597,346.443 81.754,346.098"/><polygon fill="#C2AA5C" points="72.428,350.686 73.266,351.03 73.985,350.707 73.144,350.361"/><polygon fill="#C2AA5C" points="74.957,342.369 75.795,342.715 76.515,342.393 75.673,342.047"/><polygon fill="#C2AA5C" points="95.021,343.553 95.86,343.898 96.578,343.575 95.737,343.23"/><polygon fill="#C2AA5C" points="90.581,344.504 91.418,344.85 92.139,344.525 91.295,344.18"/><polygon fill="#C2AA5C" points="79.02,336.43 79.859,336.775 80.577,336.452 79.735,336.107"/><polygon fill="#C2AA5C" points="66.421,336.765 67.259,337.109 67.979,336.787 67.136,336.441"/><polygon fill="#C2AA5C" points="66.421,346.422 67.259,346.767 67.979,346.443 67.136,346.098"/><polygon opacity=".1" points="80.512,396.519 107.24,407.883 131.234,397.09 104.15,385.84"/><polygon fill="#FFFCF7" points="87.734,393.209 107.217,401.245 123.938,393.729 104.365,385.702"/><polygon fill="#CCCBCB" points="107.217,405.203 87.717,396.869 87.717,393.182 107.217,401.203"/><polygon fill="#C0BEBF" points="123.922,393.702 107.201,401.218 107.201,405.218 123.922,397.598"/><polygon fill="#92AFDD" points="121.192,350.11 107.201,358.403 107.201,400.106 121.192,393.897"/><polygon fill="#A9C7F7" points="107.201,400.106 90.15,393.378 90.15,348.895 107.248,358.034"/><polygon fill="#93B4EA" points="93.713,394.702 93.713,352.337 94.303,352.883 94.303,394.981"/><polygon fill="#93B4EA" points="101.02,397.661 101.02,355.687 101.609,356.232 101.609,397.939"/><polygon fill="#FFFCF7" points="87.734,347.39 107.217,355.426 123.938,347.91 104.365,339.884"/><polygon fill="#CCCBCB" points="107.217,359.384 87.717,351.05 87.717,347.362 107.217,355.384"/><polygon fill="#C0BEBF" points="123.922,347.883 107.201,355.398 107.201,359.398 123.922,351.778"/><polygon opacity=".1" points="77.978,323.715 96.982,314.826 73.719,305.365 54.79,314.271"/><polygon fill="#91BE68" points="77.996,319.098 92.496,312.316 74.746,305.098 60.305,311.893"/><polygon fill="#548628" points="60.305,313.52 60.305,314.852 78.056,322.084 78.055,319.111 60.305,311.893"/><path fill="#A4B5B7" d="M60.305 312.893"/><polygon fill="#4B722E" points="78.056,322.084 92.497,315.234 92.497,312.275 78.056,319.07"/><polygon fill="#706D6E" points="65.108,311.215 78.056,316.49 78.055,304.518 65.12,299.258"/><path fill="#A4B5B7" d="M60.305 307.299"/><polygon fill="#5C5858" points="78.056,316.49 88.612,311.49 88.612,299.574 78.056,304.477"/><polygon fill="#CDCDCC" points="78.025,304.525 88.612,299.574 75.651,294.305 65.108,299.266"/><polygon fill="#706D6E" points="68.494,298.721 77.976,302.584 77.976,281.816 68.503,277.965"/><path fill="#A4B5B7" d="M64.977 295.854"/><polygon fill="#5C5858" points="77.976,302.584 85.706,298.924 85.706,278.197 77.976,281.787"/><polygon fill="#DC4437" points="77.954,281.824 85.706,278.197 76.215,274.338 68.494,277.971"/><polygon opacity=".1" points="120.137,342.359 126.796,345.191 132.775,342.502 126.027,339.698"/><polygon fill="#A65C26" points="123.889,342.763 126.831,344.03 126.831,337.187 124.827,337.187"/><polygon fill="#8F4A1B" points="126.831,344.03 129.536,342.621 128.702,337.768 126.831,337.602"/><polygon fill="#578034" points="126.891,340.301 120.887,337.709 126.891,325.143"/><polygon fill="#4F6E32" points="126.851,340.301 132.22,337.983 126.851,325.143"/><polygon opacity=".1" points="145.135,329.673 151.794,332.505 157.773,329.815 151.025,327.012"/><polygon fill="#A65C26" points="148.887,330.076 151.829,331.344 151.829,324.5 149.825,324.5"/><polygon fill="#8F4A1B" points="151.829,331.344 154.534,329.935 153.7,325.081 151.829,324.915"/><polygon fill="#578034" points="151.889,327.614 145.885,325.022 151.889,312.456"/><polygon fill="#4F6E32" points="151.849,327.614 157.218,325.297 151.849,312.456"/><polygon opacity=".1" points="154.102,361.342 162.508,364.916 170.055,361.521 161.538,357.982"/><polygon fill="#A65C26" points="159.535,361.488 162.476,362.756 162.476,351.934 161.005,352.031"/><polygon fill="#8F4A1B" points="162.476,362.756 165.181,361.346 163.829,351.406 162.476,352.772"/><polygon fill="#578034" points="162.537,354.025 156.532,351.435 162.537,319.604"/><polygon fill="#4F6E32" points="162.497,354.025 167.866,351.709 162.497,319.604"/><polygon opacity=".1" points="116.747,383.331 142.144,393.941 162.257,384.825 137.132,374.393"/><polygon fill="#fff" points="123.329,383.942 123.329,369.745 142.161,377.533 142.161,391.982"/><polygon fill="#E5DBDE" points="153.229,372.576 142.146,377.533 142.161,391.982 153.261,386.962"/><polygon fill="#DC5A38" points="123.329,369.739 133.579,361.948 145.37,366.816 142.13,377.543"/><polygon fill="#C14F34" points="153.245,372.576 145.37,366.816 142.161,377.533"/><polygon fill="#A9C7F7" points="136.341,383.888 139.341,385.324 139.341,381.283 136.341,380.013"/><polygon fill="#A9C7F7" points="125.382,378.888 128.382,380.324 128.382,376.283 125.382,375.013"/><polyline fill="#485157" points="157.612,399.954 121.168,385.179 121.192,391.077 155.569,404.85"/><polygon opacity=".1" points="123.258,405.56 131.664,409.134 139.211,405.739 130.693,402.2"/><polygon fill="#A65C26" points="128.69,405.706 131.632,406.974 131.632,396.151 130.161,396.249"/><polygon fill="#8F4A1B" points="131.632,406.974 134.337,405.563 132.984,395.624 131.632,396.99"/><polygon fill="#578034" points="131.692,398.243 125.688,395.652 131.692,363.822"/><polygon fill="#4F6E32" points="131.652,398.243 137.021,395.927 131.652,363.822"/><polygon opacity=".1" points="168.769,375.412 183.112,381.509 195.988,375.717 181.455,369.68"/><polygon fill="#A55E28" points="177.793,376.334 182.98,378.762 182.98,369.379 179.856,367.459"/><polygon fill="#914A16" points="182.98,378.762 187.918,376.271 186.293,368.584 182.98,369.898"/><polygon fill="#BBD260" points="183.041,371.032 171.543,366.084 183.041,337.832"/><polygon fill="#99AF41" points="183,371.032 194.293,366.146 183,337.832"/><polygon opacity=".1" points="163.635,414.995 170.294,417.827 176.272,415.138 169.524,412.334"/><polygon fill="#A65C26" points="167.387,415.398 170.328,416.666 170.328,409.822 168.324,409.822"/><polygon fill="#8F4A1B" points="170.328,416.666 173.033,415.257 172.199,410.403 170.328,410.237"/><polygon fill="#578034" points="170.389,412.937 164.385,410.345 170.389,397.778"/><polygon fill="#4F6E32" points="170.349,412.937 175.718,410.619 170.349,397.778"/><polygon opacity=".1" points="138.525,302.146 145.184,304.978 151.163,302.288 144.415,299.484"/><polygon fill="#A65C26" points="142.277,302.549 145.218,303.816 145.218,296.973 143.214,296.973"/><polygon fill="#8F4A1B" points="145.218,303.816 147.923,302.407 147.089,297.554 145.218,297.388"/><polygon fill="#578034" points="145.279,300.087 139.275,297.495 145.279,284.929"/><polygon fill="#4F6E32" points="145.239,300.087 150.608,297.77 145.239,284.929"/><polygon opacity=".1" points="64.396,256.705 72.803,260.279 80.35,256.885 71.832,253.345"/><polygon fill="#A65C26" points="69.829,256.852 72.771,258.119 72.771,247.296 71.3,247.394"/><polygon fill="#8F4A1B" points="72.771,258.119 75.476,256.709 74.123,246.769 72.771,248.135"/><polygon fill="#578034" points="72.831,249.388 66.826,246.797 72.831,214.967"/><polygon fill="#4F6E32" points="72.791,249.388 78.16,247.072 72.791,214.967"/><polygon opacity=".1" points="78.929,265.62 85.588,268.452 91.567,265.763 84.819,262.96"/><polygon fill="#A65C26" points="82.681,266.024 85.623,267.292 85.623,260.448 83.619,260.448"/><polygon fill="#8F4A1B" points="85.623,267.292 88.328,265.882 87.494,261.028 85.623,260.862"/><polygon fill="#578034" points="85.683,263.562 79.679,260.97 85.683,248.403"/><polygon fill="#4F6E32" points="85.643,263.562 91.012,261.245 85.643,248.403"/></svg>