<svg xmlns="http://www.w3.org/2000/svg" xmlns:xlink="http://www.w3.org/1999/xlink" width="819" height="508"><polygon fill="#6E9C44" points="758.68,293.564 616.907,232.097 592.467,200.247 552.412,187.917 454.192,233.765 481.72,264.544 613.481,354.92 620.791,372.019"/><polygon fill="#34562A" points="621.137,385.982 620.791,372.019 758.68,293.564 758.68,307.721"/><defs><polygon id="a" points="758.68,293.564 616.907,232.097 592.467,200.247 552.412,187.917 454.192,233.765 481.72,264.544 613.481,354.92 620.791,372.019"/></defs><clipPath id="b"><use xlink:href="#a" overflow="visible"/></clipPath><g opacity=".02" clip-path="url(#b)"><defs><polygon id="c" opacity=".02" points="76.235,426.574 10.699,292.314 274.363,87.656 300.363,74.311 530.492,57 785.75,184.102 829,259.242 577.897,402.119 559.696,402.119 375.696,475.613 301.696,493.844"/></defs><clipPath id="d"><use xlink:href="#c" overflow="visible"/></clipPath><g clip-path="url(#d)" stroke="#000" stroke-linejoin="bevel" stroke-miterlimit="10" fill="none"><line x1="-895.405" y1="22.525" x2="263.897" y2="495"/><line x1="-849.227" y1="22.525" x2="310.075" y2="495"/><line x1="-803.048" y1="22.525" x2="356.253" y2="495"/><line x1="-756.87" y1="22.525" x2="402.432" y2="495"/><line x1="-710.692" y1="22.525" x2="448.609" y2="495"/><line x1="-664.514" y1="22.525" x2="494.787" y2="495"/><line x1="-618.335" y1="22.525" x2="540.965" y2="495"/><line x1="-572.157" y1="22.525" x2="587.143" y2="495"/><line x1="-525.979" y1="22.525" x2="633.32" y2="495"/><line x1="-479.801" y1="22.525" x2="679.498" y2="495"/><line x1="-433.623" y1="22.525" x2="725.676" y2="495"/><line x1="-387.444" y1="22.525" x2="771.854" y2="495"/><line x1="-341.266" y1="22.525" x2="818.031" y2="495"/><line x1="-295.088" y1="22.525" x2="864.209" y2="495"/><line x1="-248.91" y1="22.525" x2="910.387" y2="495"/><line x1="-202.731" y1="22.525" x2="956.564" y2="495"/><line x1="-156.553" y1="22.525" x2="1002.742" y2="495"/><line x1="-110.375" y1="22.525" x2="1048.92" y2="495"/><line x1="-64.197" y1="22.525" x2="1095.098" y2="495"/><line x1="-18.019" y1="22.525" x2="1141.275" y2="495"/><line x1="28.16" y1="22.525" x2="1187.453" y2="495"/><line x1="74.338" y1="22.525" x2="1233.631" y2="495"/><line x1="120.516" y1="22.525" x2="1279.809" y2="495"/><line x1="166.694" y1="22.525" x2="1325.986" y2="495"/><line x1="212.873" y1="22.525" x2="1372.164" y2="495"/><line x1="259.051" y1="22.525" x2="1418.342" y2="495"/><line x1="305.229" y1="22.525" x2="1464.52" y2="495"/><line x1="351.407" y1="22.525" x2="1510.697" y2="495"/><line x1="397.585" y1="22.525" x2="1556.875" y2="495"/><line x1="443.764" y1="22.525" x2="1603.053" y2="495"/><line x1="351.407" y1="23.005" x2="-655.94" y2="495.479"/><line x1="397.585" y1="23.005" x2="-609.762" y2="495.479"/><line x1="443.764" y1="23.005" x2="-563.584" y2="495.479"/><line x1="489.941" y1="23.005" x2="-517.406" y2="495.479"/><line x1="536.119" y1="23.005" x2="-471.228" y2="495.479"/><line x1="582.297" y1="23.005" x2="-425.049" y2="495.479"/><line x1="628.475" y1="23.005" x2="-378.871" y2="495.479"/><line x1="674.652" y1="23.005" x2="-332.693" y2="495.479"/><line x1="720.83" y1="23.005" x2="-286.515" y2="495.479"/><line x1="767.008" y1="23.005" x2="-240.336" y2="495.479"/><line x1="813.186" y1="23.005" x2="-194.158" y2="495.479"/><line x1="859.363" y1="23.005" x2="-147.98" y2="495.479"/><line x1="905.541" y1="23.005" x2="-101.802" y2="495.479"/><line x1="951.719" y1="23.005" x2="-55.624" y2="495.479"/><line x1="997.896" y1="23.005" x2="-9.445" y2="495.479"/><line x1="1044.074" y1="23.005" x2="36.733" y2="495.479"/><line x1="1090.252" y1="23.005" x2="82.911" y2="495.479"/><line x1="1136.43" y1="23.005" x2="129.089" y2="495.479"/><line x1="1182.607" y1="23.005" x2="175.268" y2="495.479"/><line x1="1228.785" y1="23.005" x2="221.446" y2="495.479"/><line x1="1274.963" y1="23.005" x2="267.624" y2="495.479"/><line x1="1321.141" y1="23.005" x2="313.802" y2="495.479"/><line x1="1367.318" y1="23.005" x2="359.98" y2="495.479"/></g></g><polygon opacity=".1" points="527.127,242.996 546.132,234.108 522.868,224.646 503.939,233.552"/><polygon fill="#91BE68" points="527.146,238.379 541.646,231.598 523.896,224.379 509.454,231.174"/><polygon fill="#548628" points="509.454,232.801 509.454,234.133 527.205,241.366 527.204,238.393 509.454,231.174"/><path fill="#A4B5B7" d="M509.454 232.174"/><polygon fill="#4B722E" points="527.205,241.366 541.646,234.516 541.646,231.557 527.205,238.352"/><path fill="#A4B5B7" d="M509.454 226.581"/><path fill="#A4B5B7" d="M514.126 215.135"/><polygon opacity=".1" points="537.041,225.978 562.438,236.589 582.552,227.472 557.427,217.04"/><polygon fill="#fff" points="543.623,226.589 543.623,212.392 562.456,220.18 562.456,234.63"/><polygon fill="#E5DBDE" points="573.523,215.222 562.439,220.18 562.456,234.63 573.556,229.608"/><polygon fill="#DC5A38" points="543.623,212.386 553.873,204.595 565.664,209.463 562.424,220.189"/><polygon fill="#C14F34" points="573.539,215.222 565.664,209.463 562.456,220.18"/><polygon fill="#A9C7F7" points="556.635,226.534 559.635,227.971 559.635,223.93 556.635,222.659"/><polygon fill="#A9C7F7" points="545.677,221.534 548.677,222.971 548.677,218.93 545.677,217.659"/><polygon opacity=".1" points="582.438,230.474 590.844,234.047 598.391,230.653 589.873,227.114"/><polygon fill="#A65C26" points="587.87,230.619 590.812,231.887 590.812,221.065 589.341,221.163"/><polygon fill="#8F4A1B" points="590.812,231.887 593.517,230.478 592.164,220.538 590.812,221.904"/><polygon fill="#578034" points="590.872,223.157 584.867,220.566 590.872,188.736"/><polygon fill="#4F6E32" points="590.832,223.157 596.201,220.84 590.832,188.736"/><polygon opacity=".1" points="588.071,240.792 594.73,243.624 600.709,240.934 593.961,238.129"/><polygon fill="#A65C26" points="591.823,241.194 594.765,242.461 594.765,235.618 592.761,235.618"/><polygon fill="#8F4A1B" points="594.765,242.461 597.47,241.053 596.636,236.2 594.765,236.034"/><polygon fill="#578034" points="594.825,238.733 588.821,236.141 594.825,223.575"/><polygon fill="#4F6E32" points="594.785,238.733 600.154,236.415 594.785,223.575"/><polygon opacity=".1" points="571.539,244.346 578.198,247.178 584.177,244.489 577.429,241.684"/><polygon fill="#A65C26" points="575.291,244.749 578.232,246.016 578.232,239.172 576.229,239.172"/><polygon fill="#8F4A1B" points="578.232,246.016 580.938,244.608 580.104,239.754 578.232,239.588"/><polygon fill="#578034" points="578.293,242.288 572.289,239.696 578.293,227.129"/><polygon fill="#4F6E32" points="578.253,242.288 583.622,239.969 578.253,227.129"/><polygon opacity=".1" points="478.852,237.608 493.194,243.705 506.07,237.913 491.537,231.876"/><polygon fill="#A55E28" points="487.876,238.53 493.062,240.958 493.062,231.575 489.938,229.655"/><polygon fill="#914A16" points="493.062,240.958 498.001,238.468 496.376,230.78 493.062,232.095"/><polygon fill="#BBD260" points="493.123,233.229 481.626,228.28 493.123,200.028"/><polygon fill="#99AF41" points="493.082,233.229 504.376,228.343 493.082,200.028"/></svg>