<svg xmlns="http://www.w3.org/2000/svg" xmlns:xlink="http://www.w3.org/1999/xlink" width="819" height="508"><polygon fill="#6E9C44" points="758.68,293.564 616.907,232.097 592.467,200.247 552.412,187.917 454.192,233.765 481.72,264.544 613.481,354.92 620.791,372.019"/><polygon fill="#34562A" points="621.137,385.982 620.791,372.019 758.68,293.564 758.68,307.721"/><defs><polygon id="a" points="758.68,293.564 616.907,232.097 592.467,200.247 552.412,187.917 454.192,233.765 481.72,264.544 613.481,354.92 620.791,372.019"/></defs><clipPath id="b"><use xlink:href="#a" overflow="visible"/></clipPath><g opacity=".02" clip-path="url(#b)"><defs><polygon id="c" opacity=".02" points="76.235,426.574 10.699,292.314 274.363,87.656 300.363,74.311 530.492,57 785.75,184.102 829,259.242 577.897,402.119 559.696,402.119 375.696,475.613 301.696,493.844"/></defs><clipPath id="d"><use xlink:href="#c" overflow="visible"/></clipPath><g clip-path="url(#d)" stroke="#000" stroke-linejoin="bevel" stroke-miterlimit="10" fill="none"><line x1="-895.405" y1="22.525" x2="263.897" y2="495"/><line x1="-849.227" y1="22.525" x2="310.075" y2="495"/><line x1="-803.048" y1="22.525" x2="356.253" y2="495"/><line x1="-756.87" y1="22.525" x2="402.432" y2="495"/><line x1="-710.692" y1="22.525" x2="448.609" y2="495"/><line x1="-664.514" y1="22.525" x2="494.787" y2="495"/><line x1="-618.335" y1="22.525" x2="540.965" y2="495"/><line x1="-572.157" y1="22.525" x2="587.143" y2="495"/><line x1="-525.979" y1="22.525" x2="633.32" y2="495"/><line x1="-479.801" y1="22.525" x2="679.498" y2="495"/><line x1="-433.623" y1="22.525" x2="725.676" y2="495"/><line x1="-387.444" y1="22.525" x2="771.854" y2="495"/><line x1="-341.266" y1="22.525" x2="818.031" y2="495"/><line x1="-295.088" y1="22.525" x2="864.209" y2="495"/><line x1="-248.91" y1="22.525" x2="910.387" y2="495"/><line x1="-202.731" y1="22.525" x2="956.564" y2="495"/><line x1="-156.553" y1="22.525" x2="1002.742" y2="495"/><line x1="-110.375" y1="22.525" x2="1048.92" y2="495"/><line x1="-64.197" y1="22.525" x2="1095.098" y2="495"/><line x1="-18.019" y1="22.525" x2="1141.275" y2="495"/><line x1="28.16" y1="22.525" x2="1187.453" y2="495"/><line x1="74.338" y1="22.525" x2="1233.631" y2="495"/><line x1="120.516" y1="22.525" x2="1279.809" y2="495"/><line x1="166.694" y1="22.525" x2="1325.986" y2="495"/><line x1="212.873" y1="22.525" x2="1372.164" y2="495"/><line x1="259.051" y1="22.525" x2="1418.342" y2="495"/><line x1="305.229" y1="22.525" x2="1464.52" y2="495"/><line x1="351.407" y1="22.525" x2="1510.697" y2="495"/><line x1="397.585" y1="22.525" x2="1556.875" y2="495"/><line x1="443.764" y1="22.525" x2="1603.053" y2="495"/><line x1="351.407" y1="23.005" x2="-655.94" y2="495.479"/><line x1="397.585" y1="23.005" x2="-609.762" y2="495.479"/><line x1="443.764" y1="23.005" x2="-563.584" y2="495.479"/><line x1="489.941" y1="23.005" x2="-517.406" y2="495.479"/><line x1="536.119" y1="23.005" x2="-471.228" y2="495.479"/><line x1="582.297" y1="23.005" x2="-425.049" y2="495.479"/><line x1="628.475" y1="23.005" x2="-378.871" y2="495.479"/><line x1="674.652" y1="23.005" x2="-332.693" y2="495.479"/><line x1="720.83" y1="23.005" x2="-286.515" y2="495.479"/><line x1="767.008" y1="23.005" x2="-240.336" y2="495.479"/><line x1="813.186" y1="23.005" x2="-194.158" y2="495.479"/><line x1="859.363" y1="23.005" x2="-147.98" y2="495.479"/><line x1="905.541" y1="23.005" x2="-101.802" y2="495.479"/><line x1="951.719" y1="23.005" x2="-55.624" y2="495.479"/><line x1="997.896" y1="23.005" x2="-9.445" y2="495.479"/><line x1="1044.074" y1="23.005" x2="36.733" y2="495.479"/><line x1="1090.252" y1="23.005" x2="82.911" y2="495.479"/><line x1="1136.43" y1="23.005" x2="129.089" y2="495.479"/><line x1="1182.607" y1="23.005" x2="175.268" y2="495.479"/><line x1="1228.785" y1="23.005" x2="221.446" y2="495.479"/><line x1="1274.963" y1="23.005" x2="267.624" y2="495.479"/><line x1="1321.141" y1="23.005" x2="313.802" y2="495.479"/><line x1="1367.318" y1="23.005" x2="359.98" y2="495.479"/></g></g><polygon opacity=".1" points="527.127,242.996 546.132,234.108 522.868,224.646 503.939,233.552"/><polygon fill="#91BE68" points="527.146,238.379 541.646,231.598 523.896,224.379 509.454,231.174"/><polygon fill="#548628" points="509.454,232.801 509.454,234.133 527.205,241.366 527.204,238.393 509.454,231.174"/><path fill="#A4B5B7" d="M509.454 232.174"/><polygon fill="#4B722E" points="527.205,241.366 541.646,234.516 541.646,231.557 527.205,238.352"/><polygon fill="#706D6E" points="514.258,230.497 527.205,235.771 527.204,223.799 514.27,218.539"/><path fill="#A4B5B7" d="M509.454 226.581"/><polygon fill="#5C5858" points="527.205,235.771 537.762,230.772 537.762,218.856 527.205,223.758"/><polygon fill="#CDCDCC" points="527.175,223.807 537.762,218.856 524.801,213.586 514.258,218.547"/><path fill="#A4B5B7" d="M514.126 215.135"/><polygon opacity=".1" points="468.677,242.185 494.073,252.796 514.188,243.679 489.062,233.247"/><polygon fill="#fff" points="475.259,242.796 475.259,228.599 494.092,236.388 494.092,250.837"/><polygon fill="#E5DBDE" points="505.159,231.43 494.075,236.388 494.092,250.837 505.191,245.816"/><polygon fill="#DC5A38" points="475.259,228.593 485.509,220.802 497.3,225.67 494.06,236.396"/><polygon fill="#C14F34" points="505.175,231.43 497.3,225.67 494.092,236.388"/><polygon fill="#A9C7F7" points="488.271,242.742 491.271,244.178 491.271,240.137 488.271,238.867"/><polygon fill="#A9C7F7" points="477.312,237.742 480.312,239.178 480.312,235.137 477.312,233.867"/><polygon opacity=".1" points="626.624,346.359 622.511,342.076 584.648,337.793 577.281,324.086 590.474,303.012 647.526,294.617 669.971,310.208 658.835,337.965"/><polygon fill="#A3BE5F" points="626.559,334.258 622.837,330.381 588.562,326.504 581.894,314.098 593.834,295.021 645.479,287.422 665.794,301.535 655.715,326.659"/><polygon fill="#F1E0A6" points="665.794,308.63 655.715,333.754 626.559,341.354 622.837,337.477 588.562,333.599 581.894,321.192 581.894,316.578 588.562,328.985 622.837,332.862 626.559,336.74 655.715,329.141 665.794,304.016"/><polygon fill="#969F5A" points="581.894,316.578 588.562,328.985 622.837,332.862 626.559,336.74 655.715,329.141 665.794,304.016 665.794,301.535 655.715,326.659 626.559,334.258 622.837,330.381 588.562,326.504 581.894,314.098"/><polygon fill="#747E42" points="588.562,328.985 588.562,326.504 622.837,330.381 622.837,332.862"/><polygon fill="#747E42" points="626.559,334.258 626.559,336.74 655.715,329.141 655.715,326.659"/><polygon fill="#D7CA93" points="588.562,328.985 588.562,333.599 622.837,337.477 622.837,332.862"/><polygon fill="#D7CA93" points="626.559,341.354 626.559,336.74 655.715,329.141 655.715,333.754"/><polygon opacity=".1" points="673.817,311.686 688.16,317.782 701.036,311.99 686.503,305.953"/><polygon fill="#A55E28" points="682.842,312.607 688.028,315.035 688.028,305.652 684.904,303.732"/><polygon fill="#914A16" points="688.028,315.035 692.967,312.545 691.342,304.857 688.028,306.172"/><polygon fill="#BBD260" points="688.089,307.306 676.592,302.357 688.089,274.105"/><polygon fill="#99AF41" points="688.048,307.306 699.342,302.42 688.048,274.105"/><polygon opacity=".1" points="531.041,212.978 556.438,223.589 576.552,214.472 551.427,204.04"/><polygon fill="#fff" points="537.623,213.589 537.623,199.392 556.456,207.18 556.456,221.63"/><polygon fill="#E5DBDE" points="567.523,202.222 556.439,207.18 556.456,221.63 567.556,216.608"/><polygon fill="#DC5A38" points="537.623,199.386 547.873,191.595 559.664,196.463 556.424,207.189"/><polygon fill="#C14F34" points="567.539,202.222 559.664,196.463 556.456,207.18"/><polygon fill="#A9C7F7" points="550.635,213.534 553.635,214.971 553.635,210.93 550.635,209.659"/><polygon fill="#A9C7F7" points="539.677,208.534 542.677,209.971 542.677,205.93 539.677,204.659"/><polygon opacity=".1" points="637.021,252.528 610.455,265.055 588.86,255.821 615.19,243.823"/><polygon fill="#fff" points="597.315,256.3 597.315,242.028 610.419,247.462 610.419,261.949"/><polygon fill="#E5DBDE" points="627.232,239.95 610.419,247.472 610.419,261.949 627.232,254.19"/><polygon fill="#DC5A38" points="597.315,242.05 606.065,235.906 610.42,247.466"/><polygon fill="#8A6D56" points="617.518,258.674 614.518,259.969 614.518,252.714 617.518,251.36"/><polyline fill="#C14F34" points="610.42,247.466 627.232,239.944 618.213,230.375 606.065,235.906 610.42,247.466"/><polygon opacity=".1" points="524.897,248.792 562.191,264.647 595.671,249.587 557.881,233.89"/><polygon fill="#E0C977" points="530.086,243.347 561.868,256.456 589.144,244.196 557.216,231.103"/><polygon fill="#C2AA5C" points="537.677,242.956 538.515,243.302 539.234,242.979 538.391,242.634"/><polygon fill="#F7DE8B" points="561.868,262.911 530.059,249.317 530.059,243.302 561.868,256.387"/><polygon fill="#C2AA5C" points="589.117,244.151 561.841,256.411 561.841,262.937 589.117,250.505"/><g fill="#E0C977"><polygon points="565.808,261.125 567.143,260.516 567.143,254.022 565.808,254.619"/><polygon points="580.458,254.448 581.794,253.839 581.794,247.428 580.458,248.024"/><polygon points="569.959,259.272 570.627,258.932 570.627,252.468 569.959,252.767"/><polygon points="573.096,257.851 573.763,257.511 573.763,251.046 573.096,251.345"/><polygon points="574.162,257.337 574.828,256.997 574.828,250.532 574.162,250.831"/><polygon points="587.536,251.283 588.203,250.942 588.203,244.581 587.536,244.88"/><polygon points="582.583,253.543 583.251,253.203 583.251,246.841 582.583,247.14"/></g><g fill="#E0C977"><polygon points="555.897,260.321 554.562,259.713 554.562,253.22 555.897,253.816"/><polygon points="541.247,253.95 539.911,253.341 539.911,247.428 541.247,248.024"/><polygon points="551.747,258.47 551.08,258.129 551.08,251.954 551.747,252.253"/><polygon points="548.611,257.218 547.942,256.878 547.942,250.688 548.611,250.987"/><polygon points="547.545,256.704 546.877,256.364 546.877,250.243 547.545,250.542"/><polygon points="534.171,251.046 533.503,250.706 533.503,244.767 534.171,245.065"/><polygon points="539.123,253.081 538.455,252.741 538.455,246.692 539.123,246.991"/></g><polygon fill="#C2AA5C" points="543.293,244.756 544.132,245.102 544.851,244.778 544.009,244.433"/><polygon fill="#C2AA5C" points="546.877,241.105 547.716,241.451 548.434,241.128 547.593,240.782"/><polygon fill="#C2AA5C" points="556.975,234.323 557.812,234.669 558.532,234.345 557.689,233.999"/><polygon fill="#C2AA5C" points="572.128,241.897 572.966,242.243 573.686,241.919 572.844,241.573"/><polygon fill="#C2AA5C" points="566.366,244.106 567.188,244.488 567.922,244.196 567.095,243.814"/><polygon fill="#C2AA5C" points="564.346,241.44 565.186,241.786 565.903,241.462 565.062,241.116"/><polygon fill="#C2AA5C" points="556.196,239.466 557.034,239.812 557.754,239.487 556.912,239.142"/><polygon fill="#C2AA5C" points="556.196,245.091 557.034,245.437 557.754,245.112 556.912,244.767"/><polygon fill="#C2AA5C" points="566.365,247.009 567.202,247.354 567.923,247.03 567.08,246.685"/><polygon fill="#C2AA5C" points="557.754,251.272 558.592,251.617 559.312,251.294 558.47,250.948"/><polygon fill="#C2AA5C" points="560.283,242.956 561.121,243.302 561.841,242.979 560.999,242.634"/><polygon fill="#C2AA5C" points="580.348,244.14 581.187,244.485 581.904,244.162 581.063,243.817"/><polygon fill="#C2AA5C" points="575.907,245.091 576.744,245.437 577.465,245.112 576.621,244.767"/><polygon fill="#C2AA5C" points="564.346,237.017 565.186,237.362 565.903,237.039 565.062,236.694"/><polygon fill="#C2AA5C" points="551.747,237.352 552.585,237.696 553.305,237.374 552.462,237.028"/><polygon fill="#C2AA5C" points="551.747,247.009 552.585,247.354 553.305,247.03 552.462,246.685"/><polygon opacity=".1" points="575.488,232.069 583.895,235.643 591.441,232.248 582.924,228.709"/><polygon fill="#A65C26" points="580.921,232.214 583.862,233.482 583.862,222.66 582.392,222.758"/><polygon fill="#8F4A1B" points="583.862,233.482 586.567,232.073 585.215,222.133 583.862,223.499"/><polygon fill="#578034" points="583.923,224.752 577.918,222.161 583.923,190.331"/><polygon fill="#4F6E32" points="583.883,224.752 589.252,222.435 583.883,190.331"/><polygon opacity=".1" points="645.178,301.604 653.584,305.178 661.131,301.783 652.613,298.244"/><polygon fill="#A65C26" points="650.61,301.748 653.552,303.016 653.552,292.195 652.081,292.293"/><polygon fill="#8F4A1B" points="653.552,303.016 656.257,301.607 654.904,291.668 653.552,293.033"/><polygon fill="#578034" points="653.612,294.287 647.607,291.695 653.612,259.865"/><polygon fill="#4F6E32" points="653.572,294.287 658.941,291.97 653.572,259.865"/><polygon opacity=".1" points="664.155,295.021 670.814,297.854 676.793,295.164 670.045,292.359"/><polygon fill="#A65C26" points="667.907,295.424 670.849,296.691 670.849,289.848 668.845,289.848"/><polygon fill="#8F4A1B" points="670.849,296.691 673.554,295.283 672.72,290.43 670.849,290.264"/><polygon fill="#578034" points="670.909,292.963 664.905,290.371 670.909,277.805"/><polygon fill="#4F6E32" points="670.869,292.963 676.238,290.645 670.869,277.805"/><polygon opacity=".1" points="653.076,301.086 621.349,316.045 595.56,305.019 627.004,290.69"/><polygon fill="#86D5EA" points="654.766,312.442 641.037,318.915 629.879,314.145 643.484,307.944"/><polygon fill="#fff" points="605.657,305.59 605.657,288.547 621.306,295.034 621.306,312.337"/><polygon fill="#E5DBDE" points="641.386,286.064 621.306,295.046 621.306,312.337 641.386,303.071"/><polygon fill="#DC5A38" points="605.657,288.571 616.106,281.234 621.307,295.04"/><polygon fill="#8A6D56" points="629.783,308.425 626.201,309.972 626.201,301.308 629.783,299.69"/><polyline fill="#C14F34" points="621.307,295.04 641.386,286.058 630.614,274.63 616.106,281.234 621.307,295.04"/><polygon opacity=".1" points="583.37,314.77 608.767,325.381 628.881,316.264 603.756,305.832"/><polygon fill="#fff" points="589.952,315.381 589.952,301.184 608.785,308.973 608.785,323.422"/><polygon fill="#E5DBDE" points="619.853,304.014 608.769,308.973 608.785,323.422 619.885,318.4"/><polygon fill="#DC5A38" points="589.952,301.178 600.202,293.387 611.993,298.254 608.753,308.98"/><polygon fill="#C14F34" points="619.868,304.014 611.993,298.254 608.785,308.973"/><polygon fill="#A9C7F7" points="602.964,315.326 605.964,316.762 605.964,312.721 602.964,311.451"/><polygon fill="#A9C7F7" points="592.006,310.326 595.006,311.762 595.006,307.721 592.006,306.451"/><polygon opacity=".1" points="615.999,324.228 622.658,327.06 628.637,324.37 621.889,321.565"/><polygon fill="#A65C26" points="619.751,324.63 622.692,325.897 622.692,319.054 620.688,319.054"/><polygon fill="#8F4A1B" points="622.692,325.897 625.397,324.489 624.563,319.636 622.692,319.47"/><polygon fill="#578034" points="622.753,322.169 616.749,319.577 622.753,307.011"/><polygon fill="#4F6E32" points="622.713,322.169 628.082,319.851 622.713,307.011"/><polyline fill="#485157" points="536.71,302.262 622.93,262.002 629.473,264.799 542.126,305.978"/><polygon opacity=".1" points="561.461,312.647 569.867,316.221 577.414,312.826 568.896,309.288"/><polygon fill="#A65C26" points="566.894,312.792 569.835,314.06 569.835,303.238 568.364,303.337"/><polygon fill="#8F4A1B" points="569.835,314.06 572.54,312.651 571.188,302.712 569.835,304.077"/><polygon fill="#578034" points="569.896,305.33 563.891,302.739 569.896,270.909"/><polygon fill="#4F6E32" points="569.855,305.33 575.225,303.013 569.855,270.909"/></svg>