<svg xmlns="http://www.w3.org/2000/svg" xmlns:xlink="http://www.w3.org/1999/xlink" width="819" height="508"><polygon fill="#6E9C44" points="758.68,293.564 616.907,232.097 592.467,200.247 552.412,187.917 454.192,233.765 481.72,264.544 613.481,354.92 620.791,372.019"/><polygon fill="#34562A" points="621.137,385.982 620.791,372.019 758.68,293.564 758.68,307.721"/><defs><polygon id="a" points="758.68,293.564 616.907,232.097 592.467,200.247 552.412,187.917 454.192,233.765 481.72,264.544 613.481,354.92 620.791,372.019"/></defs><clipPath id="b"><use xlink:href="#a" overflow="visible"/></clipPath><g opacity=".02" clip-path="url(#b)"><defs><polygon id="c" opacity=".02" points="76.235,426.574 10.699,292.314 274.363,87.656 300.363,74.311 530.492,57 785.75,184.102 829,259.242 577.897,402.119 559.696,402.119 375.696,475.613 301.696,493.844"/></defs><clipPath id="d"><use xlink:href="#c" overflow="visible"/></clipPath><g clip-path="url(#d)" stroke="#000" stroke-linejoin="bevel" stroke-miterlimit="10" fill="none"><line x1="-895.405" y1="22.525" x2="263.897" y2="495"/><line x1="-849.227" y1="22.525" x2="310.075" y2="495"/><line x1="-803.048" y1="22.525" x2="356.253" y2="495"/><line x1="-756.87" y1="22.525" x2="402.432" y2="495"/><line x1="-710.692" y1="22.525" x2="448.609" y2="495"/><line x1="-664.514" y1="22.525" x2="494.787" y2="495"/><line x1="-618.335" y1="22.525" x2="540.965" y2="495"/><line x1="-572.157" y1="22.525" x2="587.143" y2="495"/><line x1="-525.979" y1="22.525" x2="633.32" y2="495"/><line x1="-479.801" y1="22.525" x2="679.498" y2="495"/><line x1="-433.623" y1="22.525" x2="725.676" y2="495"/><line x1="-387.444" y1="22.525" x2="771.854" y2="495"/><line x1="-341.266" y1="22.525" x2="818.031" y2="495"/><line x1="-295.088" y1="22.525" x2="864.209" y2="495"/><line x1="-248.91" y1="22.525" x2="910.387" y2="495"/><line x1="-202.731" y1="22.525" x2="956.564" y2="495"/><line x1="-156.553" y1="22.525" x2="1002.742" y2="495"/><line x1="-110.375" y1="22.525" x2="1048.92" y2="495"/><line x1="-64.197" y1="22.525" x2="1095.098" y2="495"/><line x1="-18.019" y1="22.525" x2="1141.275" y2="495"/><line x1="28.16" y1="22.525" x2="1187.453" y2="495"/><line x1="74.338" y1="22.525" x2="1233.631" y2="495"/><line x1="120.516" y1="22.525" x2="1279.809" y2="495"/><line x1="166.694" y1="22.525" x2="1325.986" y2="495"/><line x1="212.873" y1="22.525" x2="1372.164" y2="495"/><line x1="259.051" y1="22.525" x2="1418.342" y2="495"/><line x1="305.229" y1="22.525" x2="1464.52" y2="495"/><line x1="351.407" y1="22.525" x2="1510.697" y2="495"/><line x1="397.585" y1="22.525" x2="1556.875" y2="495"/><line x1="443.764" y1="22.525" x2="1603.053" y2="495"/><line x1="351.407" y1="23.005" x2="-655.94" y2="495.479"/><line x1="397.585" y1="23.005" x2="-609.762" y2="495.479"/><line x1="443.764" y1="23.005" x2="-563.584" y2="495.479"/><line x1="489.941" y1="23.005" x2="-517.406" y2="495.479"/><line x1="536.119" y1="23.005" x2="-471.228" y2="495.479"/><line x1="582.297" y1="23.005" x2="-425.049" y2="495.479"/><line x1="628.475" y1="23.005" x2="-378.871" y2="495.479"/><line x1="674.652" y1="23.005" x2="-332.693" y2="495.479"/><line x1="720.83" y1="23.005" x2="-286.515" y2="495.479"/><line x1="767.008" y1="23.005" x2="-240.336" y2="495.479"/><line x1="813.186" y1="23.005" x2="-194.158" y2="495.479"/><line x1="859.363" y1="23.005" x2="-147.98" y2="495.479"/><line x1="905.541" y1="23.005" x2="-101.802" y2="495.479"/><line x1="951.719" y1="23.005" x2="-55.624" y2="495.479"/><line x1="997.896" y1="23.005" x2="-9.445" y2="495.479"/><line x1="1044.074" y1="23.005" x2="36.733" y2="495.479"/><line x1="1090.252" y1="23.005" x2="82.911" y2="495.479"/><line x1="1136.43" y1="23.005" x2="129.089" y2="495.479"/><line x1="1182.607" y1="23.005" x2="175.268" y2="495.479"/><line x1="1228.785" y1="23.005" x2="221.446" y2="495.479"/><line x1="1274.963" y1="23.005" x2="267.624" y2="495.479"/><line x1="1321.141" y1="23.005" x2="313.802" y2="495.479"/><line x1="1367.318" y1="23.005" x2="359.98" y2="495.479"/></g></g><polyline fill="#485157" points="660.195,250.865 649.155,255.983 640.04,253.118 652.354,247.465"/><polygon fill="#485157" points="626.302,259.023 739.157,304.857 745.341,301.497 633.032,256.027"/><polygon opacity=".1" points="527.127,242.996 546.132,234.108 522.868,224.646 503.939,233.552"/><polygon fill="#91BE68" points="527.146,238.379 541.646,231.598 523.896,224.379 509.454,231.174"/><polygon fill="#548628" points="509.454,232.801 509.454,234.133 527.205,241.366 527.204,238.393 509.454,231.174"/><path fill="#A4B5B7" d="M509.454 232.174"/><polygon fill="#4B722E" points="527.205,241.366 541.646,234.516 541.646,231.557 527.205,238.352"/><polygon fill="#706D6E" points="514.258,230.497 527.205,235.771 527.204,223.799 514.27,218.539"/><path fill="#A4B5B7" d="M509.454 226.581"/><polygon fill="#5C5858" points="527.205,235.771 537.762,230.772 537.762,218.856 527.205,223.758"/><polygon fill="#CDCDCC" points="527.175,223.807 537.762,218.856 524.801,213.586 514.258,218.547"/><polygon fill="#706D6E" points="517.644,218.002 527.125,221.866 527.125,201.098 517.652,197.246"/><path fill="#A4B5B7" d="M514.126 215.135"/><polygon fill="#5C5858" points="527.125,221.866 534.855,218.206 534.855,197.479 527.125,201.068"/><polygon fill="#4385F5" points="527.104,201.105 534.855,197.479 525.364,193.62 517.644,197.252"/><polygon opacity=".1" points="468.677,242.185 494.073,252.796 514.188,243.679 489.062,233.247"/><polygon fill="#fff" points="475.259,242.796 475.259,228.599 494.092,236.388 494.092,250.837"/><polygon fill="#E5DBDE" points="505.159,231.43 494.075,236.388 494.092,250.837 505.191,245.816"/><polygon fill="#DC5A38" points="475.259,228.593 485.509,220.802 497.3,225.67 494.06,236.396"/><polygon fill="#C14F34" points="505.175,231.43 497.3,225.67 494.092,236.388"/><polygon fill="#A9C7F7" points="488.271,242.742 491.271,244.178 491.271,240.137 488.271,238.867"/><polygon fill="#A9C7F7" points="477.312,237.742 480.312,239.178 480.312,235.137 477.312,233.867"/><polygon opacity=".1" points="626.624,346.359 622.511,342.076 584.648,337.793 577.281,324.086 590.474,303.012 647.526,294.617 669.971,310.208 658.835,337.965"/><polygon fill="#A3BE5F" points="626.559,334.258 622.837,330.381 588.562,326.504 581.894,314.098 593.834,295.021 645.479,287.422 665.794,301.535 655.715,326.659"/><polygon fill="#F1E0A6" points="665.794,308.63 655.715,333.754 626.559,341.354 622.837,337.477 588.562,333.599 581.894,321.192 581.894,316.578 588.562,328.985 622.837,332.862 626.559,336.74 655.715,329.141 665.794,304.016"/><polygon fill="#969F5A" points="581.894,316.578 588.562,328.985 622.837,332.862 626.559,336.74 655.715,329.141 665.794,304.016 665.794,301.535 655.715,326.659 626.559,334.258 622.837,330.381 588.562,326.504 581.894,314.098"/><polygon fill="#747E42" points="588.562,328.985 588.562,326.504 622.837,330.381 622.837,332.862"/><polygon fill="#747E42" points="626.559,334.258 626.559,336.74 655.715,329.141 655.715,326.659"/><polygon fill="#D7CA93" points="588.562,328.985 588.562,333.599 622.837,337.477 622.837,332.862"/><polygon fill="#D7CA93" points="626.559,341.354 626.559,336.74 655.715,329.141 655.715,333.754"/><polygon opacity=".1" points="683.817,311.686 698.16,317.782 711.036,311.99 696.503,305.953"/><polygon fill="#A55E28" points="692.842,312.607 698.028,315.035 698.028,305.652 694.904,303.732"/><polygon fill="#914A16" points="698.028,315.035 702.967,312.545 701.342,304.857 698.028,306.172"/><polygon fill="#BBD260" points="698.089,307.306 686.592,302.357 698.089,274.105"/><polygon fill="#99AF41" points="698.048,307.306 709.342,302.42 698.048,274.105"/><polygon opacity=".1" points="671.347,291.764 679.753,295.337 687.3,291.942 678.782,288.404"/><polygon fill="#A65C26" points="676.779,291.908 679.721,293.176 679.721,282.354 678.25,282.453"/><polygon fill="#8F4A1B" points="679.721,293.176 682.426,291.768 681.073,281.828 679.721,283.193"/><polygon fill="#578034" points="679.781,284.446 673.776,281.855 679.781,250.025"/><polygon fill="#4F6E32" points="679.741,284.446 685.11,282.129 679.741,250.025"/><polyline fill="#485157" points="536.71,302.262 649.113,250.848 651.617,255.238 542.126,305.978"/><polygon opacity=".1" points="531.041,212.978 556.438,223.589 576.552,214.472 551.427,204.04"/><polygon fill="#fff" points="537.623,213.589 537.623,199.392 556.456,207.18 556.456,221.63"/><polygon fill="#E5DBDE" points="567.523,202.222 556.439,207.18 556.456,221.63 567.556,216.608"/><polygon fill="#DC5A38" points="537.623,199.386 547.873,191.595 559.664,196.463 556.424,207.189"/><polygon fill="#C14F34" points="567.539,202.222 559.664,196.463 556.456,207.18"/><polygon fill="#A9C7F7" points="550.635,213.534 553.635,214.971 553.635,210.93 550.635,209.659"/><polygon fill="#A9C7F7" points="539.677,208.534 542.677,209.971 542.677,205.93 539.677,204.659"/><polygon opacity=".1" points="611.901,229.167 585.335,241.693 563.74,232.46 590.07,220.462"/><polygon fill="#fff" points="572.195,232.938 572.195,218.667 585.299,224.101 585.299,238.588"/><polygon fill="#E5DBDE" points="602.112,216.589 585.299,224.11 585.299,238.588 602.112,230.829"/><polygon fill="#DC5A38" points="572.195,218.688 580.945,212.545 585.3,224.104"/><polygon fill="#8A6D56" points="592.397,235.312 589.397,236.607 589.397,229.353 592.397,227.999"/><polyline fill="#C14F34" points="585.3,224.104 602.112,216.583 593.093,207.014 580.945,212.545 585.3,224.104"/><polygon opacity=".1" points="550.897,259.792 588.191,275.647 621.671,260.587 583.881,244.89"/><polygon fill="#E0C977" points="556.086,254.347 587.868,267.456 615.144,255.196 583.216,242.103"/><polygon fill="#C2AA5C" points="563.677,253.956 564.515,254.302 565.234,253.979 564.391,253.634"/><polygon fill="#F7DE8B" points="587.868,273.911 556.059,260.317 556.059,254.302 587.868,267.387"/><polygon fill="#C2AA5C" points="615.117,255.151 587.841,267.411 587.841,273.937 615.117,261.505"/><g fill="#E0C977"><polygon points="591.808,272.125 593.143,271.516 593.143,265.022 591.808,265.619"/><polygon points="606.458,265.448 607.794,264.839 607.794,258.428 606.458,259.024"/><polygon points="595.959,270.272 596.627,269.932 596.627,263.468 595.959,263.767"/><polygon points="599.096,268.851 599.763,268.511 599.763,262.046 599.096,262.345"/><polygon points="600.162,268.337 600.828,267.997 600.828,261.532 600.162,261.831"/><polygon points="613.536,262.283 614.203,261.942 614.203,255.581 613.536,255.88"/><polygon points="608.583,264.543 609.251,264.203 609.251,257.841 608.583,258.14"/></g><g fill="#E0C977"><polygon points="581.897,271.321 580.562,270.713 580.562,264.22 581.897,264.816"/><polygon points="567.247,264.95 565.911,264.341 565.911,258.428 567.247,259.024"/><polygon points="577.747,269.47 577.08,269.129 577.08,262.954 577.747,263.253"/><polygon points="574.611,268.218 573.942,267.878 573.942,261.688 574.611,261.987"/><polygon points="573.545,267.704 572.877,267.364 572.877,261.243 573.545,261.542"/><polygon points="560.171,262.046 559.503,261.706 559.503,255.767 560.171,256.065"/><polygon points="565.123,264.081 564.455,263.741 564.455,257.692 565.123,257.991"/></g><polygon fill="#C2AA5C" points="569.293,255.756 570.132,256.102 570.851,255.778 570.009,255.433"/><polygon fill="#C2AA5C" points="572.877,252.105 573.716,252.451 574.434,252.128 573.593,251.782"/><polygon fill="#C2AA5C" points="582.975,245.323 583.812,245.669 584.532,245.345 583.689,244.999"/><polygon fill="#C2AA5C" points="598.128,252.897 598.966,253.243 599.686,252.919 598.844,252.573"/><polygon fill="#C2AA5C" points="592.366,255.106 593.188,255.488 593.922,255.196 593.095,254.814"/><polygon fill="#C2AA5C" points="590.346,252.44 591.186,252.786 591.903,252.462 591.062,252.116"/><polygon fill="#C2AA5C" points="582.196,250.466 583.034,250.812 583.754,250.487 582.912,250.142"/><polygon fill="#C2AA5C" points="582.196,256.091 583.034,256.437 583.754,256.112 582.912,255.767"/><polygon fill="#C2AA5C" points="592.365,258.009 593.202,258.354 593.923,258.03 593.08,257.685"/><polygon fill="#C2AA5C" points="583.754,262.272 584.592,262.617 585.312,262.294 584.47,261.948"/><polygon fill="#C2AA5C" points="586.283,253.956 587.121,254.302 587.841,253.979 586.999,253.634"/><polygon fill="#C2AA5C" points="606.348,255.14 607.187,255.485 607.904,255.162 607.063,254.817"/><polygon fill="#C2AA5C" points="601.907,256.091 602.744,256.437 603.465,256.112 602.621,255.767"/><polygon fill="#C2AA5C" points="590.346,248.017 591.186,248.362 591.903,248.039 591.062,247.694"/><polygon fill="#C2AA5C" points="577.747,248.352 578.585,248.696 579.305,248.374 578.462,248.028"/><polygon fill="#C2AA5C" points="577.747,258.009 578.585,258.354 579.305,258.03 578.462,257.685"/><polygon opacity=".1" points="549.721,243.082 558.127,246.656 565.674,243.261 557.156,239.723"/><polygon fill="#A65C26" points="555.153,243.228 558.095,244.495 558.095,233.673 556.624,233.771"/><polygon fill="#8F4A1B" points="558.095,244.495 560.8,243.086 559.447,233.146 558.095,234.512"/><polygon fill="#578034" points="558.155,235.765 552.15,233.174 558.155,201.344"/><polygon fill="#4F6E32" points="558.115,235.765 563.484,233.448 558.115,201.344"/><polygon opacity=".1" points="505.519,257.941 530.915,268.553 551.029,259.436 525.904,249.004"/><polygon fill="#fff" points="512.101,258.553 512.101,244.355 530.934,252.145 530.934,266.594"/><polygon fill="#E5DBDE" points="542.001,247.185 530.917,252.145 530.934,266.594 542.033,261.572"/><polygon fill="#DC5A38" points="512.101,244.349 522.351,236.558 534.142,241.426 530.901,252.152"/><polygon fill="#C14F34" points="542.017,247.185 534.142,241.426 530.934,252.145"/><polygon fill="#A9C7F7" points="525.112,258.498 528.112,259.934 528.112,255.893 525.112,254.623"/><polygon fill="#A9C7F7" points="514.154,253.498 517.154,254.934 517.154,250.893 514.154,249.623"/><polygon opacity=".1" points="615.713,304.481 642.441,315.846 666.436,305.053 639.352,293.803"/><polygon fill="#FFFCF7" points="622.936,301.172 642.418,309.208 659.139,301.692 639.566,293.665"/><polygon fill="#CCCBCB" points="642.418,313.166 622.918,304.832 622.918,301.145 642.418,309.166"/><polygon fill="#C0BEBF" points="659.123,301.665 642.402,309.181 642.402,313.181 659.123,305.561"/><polygon fill="#92AFDD" points="656.394,258.073 642.402,266.366 642.402,308.069 656.394,301.86"/><polygon fill="#A9C7F7" points="642.402,308.069 625.352,301.341 625.352,256.857 642.449,265.997"/><polygon fill="#93B4EA" points="628.914,302.665 628.914,260.3 629.504,260.846 629.504,302.944"/><polygon fill="#93B4EA" points="636.221,305.624 636.221,263.649 636.811,264.195 636.811,305.902"/><polygon fill="#FFFCF7" points="622.936,255.353 642.418,263.389 659.139,255.873 639.566,247.847"/><polygon fill="#CCCBCB" points="642.418,267.347 622.918,259.013 622.918,255.325 642.418,263.347"/><polygon fill="#C0BEBF" points="659.123,255.846 642.402,263.361 642.402,267.361 659.123,259.741"/><polygon opacity=".1" points="589.813,317.679 616.542,329.043 640.536,318.25 613.452,307"/><polygon fill="#FFFCF7" points="597.036,314.369 616.519,322.405 633.239,314.89 613.667,306.862"/><polygon fill="#CCCBCB" points="616.519,326.363 597.019,318.029 597.019,314.342 616.519,322.363"/><polygon fill="#C0BEBF" points="633.224,314.862 616.503,322.378 616.503,326.378 633.224,318.758"/><polygon fill="#92AFDD" points="630.494,281.271 616.503,289.563 616.503,321.267 630.494,315.058"/><polygon fill="#A9C7F7" points="616.503,321.267 599.452,314.538 599.452,280.055 616.55,289.194"/><polygon fill="#93B4EA" points="603.015,315.862 603.015,283.497 603.604,284.043 603.604,316.142"/><polygon fill="#93B4EA" points="610.321,318.821 610.321,286.847 610.911,287.393 610.911,319.1"/><polygon fill="#FFFCF7" points="597.036,278.55 616.519,286.586 633.239,279.07 613.667,271.044"/><polygon fill="#CCCBCB" points="616.519,290.544 597.019,282.21 597.019,278.522 616.519,286.544"/><polygon fill="#C0BEBF" points="633.224,279.043 616.503,286.559 616.503,290.559 633.224,282.938"/><polygon opacity=".1" points="639.178,320.604 647.584,324.178 655.131,320.783 646.613,317.244"/><polygon fill="#A65C26" points="644.61,320.748 647.552,322.016 647.552,311.195 646.081,311.293"/><polygon fill="#8F4A1B" points="647.552,322.016 650.257,320.607 648.904,310.668 647.552,312.033"/><polygon fill="#578034" points="647.612,313.287 641.607,310.695 647.612,278.865"/><polygon fill="#4F6E32" points="647.572,313.287 652.941,310.97 647.572,278.865"/><polygon opacity=".1" points="630.252,325.214 636.911,328.046 642.89,325.356 636.142,322.552"/><polygon fill="#A65C26" points="634.004,325.616 636.945,326.884 636.945,320.04 634.941,320.04"/><polygon fill="#8F4A1B" points="636.945,326.884 639.65,325.476 638.816,320.622 636.945,320.456"/><polygon fill="#578034" points="637.006,323.155 631.002,320.563 637.006,307.997"/><polygon fill="#4F6E32" points="636.966,323.155 642.335,320.837 636.966,307.997"/><polygon opacity=".1" points="531.874,287.364 546.217,293.461 559.093,287.669 544.56,281.632"/><polygon fill="#A55E28" points="540.898,288.286 546.085,290.714 546.085,281.331 542.961,279.411"/><polygon fill="#914A16" points="546.085,290.714 551.023,288.224 549.398,280.536 546.085,281.851"/><polygon fill="#BBD260" points="546.146,282.984 534.648,278.036 546.146,249.784"/><polygon fill="#99AF41" points="546.104,282.984 557.398,278.099 546.104,249.784"/><polygon opacity=".1" points="559.467,315.047 566.126,317.879 572.104,315.189 565.356,312.385"/><polygon fill="#A65C26" points="563.219,315.449 566.16,316.717 566.16,309.873 564.156,309.873"/><polygon fill="#8F4A1B" points="566.16,316.717 568.865,315.309 568.031,310.455 566.16,310.289"/><polygon fill="#578034" points="566.221,312.988 560.217,310.396 566.221,297.83"/><polygon fill="#4F6E32" points="566.181,312.988 571.55,310.67 566.181,297.83"/><polygon opacity=".1" points="614.786,246.531 621.445,249.363 627.424,246.674 620.676,243.869"/><polygon fill="#A65C26" points="618.538,246.934 621.479,248.201 621.479,241.357 619.476,241.357"/><polygon fill="#8F4A1B" points="621.479,248.201 624.185,246.793 623.351,241.939 621.479,241.773"/><polygon fill="#578034" points="621.54,244.473 615.536,241.881 621.54,229.314"/><polygon fill="#4F6E32" points="621.5,244.473 626.869,242.154 621.5,229.314"/></svg>