<svg xmlns="http://www.w3.org/2000/svg" xmlns:xlink="http://www.w3.org/1999/xlink" width="819" height="508"><polygon fill="#6E9C44" points="552.537,187.917 592.467,200.247 616.907,232.097 758.68,293.564 819,259.242 775.75,184.102 671.081,132.461"/><polygon fill="#34562A" points="758.68,293.564 758.68,307.721 819,273.398 819,259.242"/><defs><polygon id="a" points="552.537,187.917 592.467,200.247 616.907,232.097 758.68,293.564 819,259.242 775.75,184.102 671.081,132.461"/></defs><clipPath id="b"><use xlink:href="#a" overflow="visible"/></clipPath><g opacity=".02" clip-path="url(#b)"><defs><polygon id="c" opacity=".02" points="76.235,426.574 10.699,292.314 274.363,87.656 300.363,74.311 530.492,57 785.75,184.102 829,259.242 577.897,402.119 559.696,402.119 375.696,475.613 301.696,493.844"/></defs><clipPath id="d"><use xlink:href="#c" overflow="visible"/></clipPath><g clip-path="url(#d)" stroke="#000" stroke-linejoin="bevel" stroke-miterlimit="10" fill="none"><line x1="-895.405" y1="22.525" x2="263.897" y2="495"/><line x1="-849.227" y1="22.525" x2="310.075" y2="495"/><line x1="-803.048" y1="22.525" x2="356.253" y2="495"/><line x1="-756.87" y1="22.525" x2="402.432" y2="495"/><line x1="-710.692" y1="22.525" x2="448.609" y2="495"/><line x1="-664.514" y1="22.525" x2="494.787" y2="495"/><line x1="-618.335" y1="22.525" x2="540.965" y2="495"/><line x1="-572.157" y1="22.525" x2="587.143" y2="495"/><line x1="-525.979" y1="22.525" x2="633.32" y2="495"/><line x1="-479.801" y1="22.525" x2="679.498" y2="495"/><line x1="-433.623" y1="22.525" x2="725.676" y2="495"/><line x1="-387.444" y1="22.525" x2="771.854" y2="495"/><line x1="-341.266" y1="22.525" x2="818.031" y2="495"/><line x1="-295.088" y1="22.525" x2="864.209" y2="495"/><line x1="-248.91" y1="22.525" x2="910.387" y2="495"/><line x1="-202.731" y1="22.525" x2="956.564" y2="495"/><line x1="-156.553" y1="22.525" x2="1002.742" y2="495"/><line x1="-110.375" y1="22.525" x2="1048.92" y2="495"/><line x1="-64.197" y1="22.525" x2="1095.098" y2="495"/><line x1="-18.019" y1="22.525" x2="1141.275" y2="495"/><line x1="28.16" y1="22.525" x2="1187.453" y2="495"/><line x1="74.338" y1="22.525" x2="1233.631" y2="495"/><line x1="120.516" y1="22.525" x2="1279.809" y2="495"/><line x1="166.694" y1="22.525" x2="1325.986" y2="495"/><line x1="212.873" y1="22.525" x2="1372.164" y2="495"/><line x1="259.051" y1="22.525" x2="1418.342" y2="495"/><line x1="305.229" y1="22.525" x2="1464.52" y2="495"/><line x1="351.407" y1="22.525" x2="1510.697" y2="495"/><line x1="397.585" y1="22.525" x2="1556.875" y2="495"/><line x1="443.764" y1="22.525" x2="1603.053" y2="495"/><line x1="351.407" y1="23.005" x2="-655.94" y2="495.479"/><line x1="397.585" y1="23.005" x2="-609.762" y2="495.479"/><line x1="443.764" y1="23.005" x2="-563.584" y2="495.479"/><line x1="489.941" y1="23.005" x2="-517.406" y2="495.479"/><line x1="536.119" y1="23.005" x2="-471.228" y2="495.479"/><line x1="582.297" y1="23.005" x2="-425.049" y2="495.479"/><line x1="628.475" y1="23.005" x2="-378.871" y2="495.479"/><line x1="674.652" y1="23.005" x2="-332.693" y2="495.479"/><line x1="720.83" y1="23.005" x2="-286.515" y2="495.479"/><line x1="767.008" y1="23.005" x2="-240.336" y2="495.479"/><line x1="813.186" y1="23.005" x2="-194.158" y2="495.479"/><line x1="859.363" y1="23.005" x2="-147.98" y2="495.479"/><line x1="905.541" y1="23.005" x2="-101.802" y2="495.479"/><line x1="951.719" y1="23.005" x2="-55.624" y2="495.479"/><line x1="997.896" y1="23.005" x2="-9.445" y2="495.479"/><line x1="1044.074" y1="23.005" x2="36.733" y2="495.479"/><line x1="1090.252" y1="23.005" x2="82.911" y2="495.479"/><line x1="1136.43" y1="23.005" x2="129.089" y2="495.479"/><line x1="1182.607" y1="23.005" x2="175.268" y2="495.479"/><line x1="1228.785" y1="23.005" x2="221.446" y2="495.479"/><line x1="1274.963" y1="23.005" x2="267.624" y2="495.479"/><line x1="1321.141" y1="23.005" x2="313.802" y2="495.479"/><line x1="1367.318" y1="23.005" x2="359.98" y2="495.479"/></g></g><polygon opacity=".1" points="675.29,151.76 689.633,157.857 702.509,152.065 687.976,146.027"/><polygon fill="#A55E28" points="684.314,152.682 689.501,155.11 689.501,145.727 686.377,143.807"/><polygon fill="#914A16" points="689.501,155.11 694.439,152.62 692.814,144.932 689.501,146.247"/><polygon fill="#BBD260" points="689.562,147.38 678.064,142.432 689.562,114.18"/><polygon fill="#99AF41" points="689.521,147.38 700.814,142.495 689.521,114.18"/><polygon opacity=".1" points="726.686,193.63 745.69,184.742 722.427,175.28 703.498,184.187"/><polygon fill="#91BE68" points="726.704,189.014 741.204,182.233 723.454,175.014 709.013,181.809"/><polygon fill="#548628" points="709.013,183.435 709.013,184.768 726.764,192 726.763,189.028 709.013,181.809"/><path fill="#A4B5B7" d="M709.013 182.809"/><polygon fill="#4B722E" points="726.764,192 741.205,185.151 741.205,182.192 726.764,188.987"/><polygon fill="#706D6E" points="713.816,181.131 726.764,186.405 726.763,174.433 713.828,169.173"/><path fill="#A4B5B7" d="M709.013 177.214"/><polygon fill="#5C5858" points="726.764,186.405 737.32,181.406 737.32,169.49 726.764,174.392"/><polygon fill="#CDCDCC" points="726.733,174.442 737.32,169.49 724.359,164.22 713.816,169.181"/><polygon fill="#706D6E" points="717.202,168.637 726.684,172.5 726.684,151.732 717.211,147.88"/><path fill="#A4B5B7" d="M713.685 165.77"/><polygon fill="#5C5858" points="726.684,172.5 734.414,168.839 734.414,148.113 726.684,151.703"/><polygon fill="#4385F5" points="726.662,151.739 734.414,148.113 724.923,144.254 717.202,147.887"/><polygon opacity=".1" points="654.97,209.13 650.856,204.846 612.994,200.563 605.627,186.856 618.819,165.783 675.872,157.388 698.316,172.979 687.181,200.735"/><polygon fill="#A3BE5F" points="654.904,197.029 651.183,193.151 616.907,189.274 610.239,176.868 622.18,157.792 673.825,150.192 694.14,164.305 684.061,189.43"/><polygon fill="#F1E0A6" points="694.14,171.4 684.061,196.525 654.904,204.124 651.183,200.247 616.907,196.369 610.239,183.963 610.239,179.349 616.907,191.756 651.183,195.633 654.904,199.51 684.061,191.911 694.14,166.787"/><polygon fill="#969F5A" points="610.239,179.349 616.907,191.756 651.183,195.633 654.904,199.51 684.061,191.911 694.14,166.787 694.14,164.305 684.061,189.43 654.904,197.029 651.183,193.151 616.907,189.274 610.239,176.868"/><polygon fill="#747E42" points="616.907,191.756 616.907,189.274 651.183,193.151 651.183,195.633"/><polygon fill="#747E42" points="654.904,197.029 654.904,199.51 684.061,191.911 684.061,189.43"/><polygon fill="#D7CA93" points="616.907,191.756 616.907,196.369 651.183,200.247 651.183,195.633"/><polygon fill="#D7CA93" points="654.904,204.124 654.904,199.51 684.061,191.911 684.061,196.525"/><polygon opacity=".1" points="643.812,163.148 669.208,173.759 689.322,164.643 664.197,154.21"/><polygon fill="#fff" points="650.394,163.759 650.394,149.562 669.227,157.351 669.227,171.801"/><polygon fill="#E5DBDE" points="680.294,152.393 669.21,157.351 669.227,171.801 680.326,166.779"/><polygon fill="#DC5A38" points="650.394,149.557 660.644,141.766 672.435,146.634 669.194,157.36"/><polygon fill="#C14F34" points="680.31,152.393 672.435,146.634 669.227,157.351"/><polygon fill="#A9C7F7" points="663.405,163.705 666.405,165.142 666.405,161.101 663.405,159.83"/><polygon fill="#A9C7F7" points="652.447,158.705 655.447,160.142 655.447,156.101 652.447,154.83"/><polygon fill="#485157" points="668.343,177.058 686.057,184.455 687.903,179.878 674.265,174.119"/><polygon fill="#485157" points="686.019,191.756 732.042,210.417 738.323,207.559 687.903,186.94"/><polygon fill="#3D474D" points="686.057,184.455 686.019,191.756 687.903,186.94 687.903,179.878"/><polygon opacity=".1" points="612.844,175.165 639.572,186.528 663.566,175.735 636.482,164.485"/><polygon fill="#FFFCF7" points="620.066,171.854 639.549,179.891 656.27,172.375 636.697,164.348"/><polygon fill="#CCCBCB" points="639.549,183.849 620.049,175.515 620.049,171.827 639.549,179.849"/><polygon fill="#C0BEBF" points="656.254,172.348 639.533,179.863 639.533,183.863 656.254,176.243"/><polygon fill="#92AFDD" points="653.524,138.756 639.533,147.048 639.533,178.751 653.524,172.543"/><polygon fill="#A9C7F7" points="639.533,178.751 622.482,172.023 622.482,137.54 639.58,146.68"/><polygon fill="#93B4EA" points="626.045,173.348 626.045,140.982 626.635,141.528 626.635,173.626"/><polygon fill="#93B4EA" points="633.352,176.307 633.352,144.332 633.941,144.878 633.941,176.585"/><polygon fill="#FFFCF7" points="620.066,136.035 639.549,144.071 656.27,136.556 636.697,128.529"/><polygon fill="#CCCBCB" points="639.549,148.029 620.049,139.695 620.049,136.008 639.549,144.029"/><polygon fill="#C0BEBF" points="656.254,136.528 639.533,144.044 639.533,148.044 656.254,140.424"/><polygon opacity=".1" points="660.834,186.302 669.24,189.876 676.787,186.481 668.27,182.943"/><polygon fill="#A65C26" points="666.267,186.448 669.208,187.715 669.208,176.894 667.737,176.992"/><polygon fill="#8F4A1B" points="669.208,187.715 671.913,186.306 670.561,176.367 669.208,177.732"/><polygon fill="#578034" points="669.269,178.985 663.264,176.395 669.269,144.564"/><polygon fill="#4F6E32" points="669.229,178.985 674.598,176.668 669.229,144.564"/><polygon opacity=".1" points="688.838,210.838 697.244,214.412 704.791,211.017 696.273,207.479"/><polygon fill="#A65C26" points="694.271,210.983 697.212,212.251 697.212,201.429 695.741,201.527"/><polygon fill="#8F4A1B" points="697.212,212.251 699.917,210.842 698.564,200.902 697.212,202.268"/><polygon fill="#578034" points="697.272,203.521 691.268,200.93 697.272,169.1"/><polygon fill="#4F6E32" points="697.232,203.521 702.602,201.204 697.232,169.1"/><polyline fill="#485157" points="652.354,247.465 778.806,189.405 781.74,194.509 660.195,250.865"/><polygon opacity=".1" points="757.301,229.609 730.734,242.135 709.14,232.903 735.47,220.904"/><polygon fill="#fff" points="717.595,233.381 717.595,219.11 730.698,224.542 730.698,239.03"/><polygon fill="#E5DBDE" points="747.512,217.031 730.698,224.552 730.698,239.03 747.512,231.271"/><polygon fill="#DC5A38" points="717.595,219.13 726.345,212.987 730.699,224.547"/><polygon fill="#8A6D56" points="737.797,235.754 734.797,237.049 734.797,229.795 737.797,228.441"/><polyline fill="#C14F34" points="730.699,224.547 747.512,217.026 738.492,207.456 726.345,212.987 730.699,224.547"/><polygon opacity=".1" points="730.272,246.222 767.566,262.078 801.046,247.018 763.256,231.32"/><polygon fill="#E0C977" points="735.461,240.777 767.243,253.887 794.519,241.626 762.591,228.533"/><polygon fill="#C2AA5C" points="743.052,240.387 743.89,240.733 744.609,240.41 743.766,240.064"/><polygon fill="#F7DE8B" points="767.243,260.342 735.434,246.749 735.434,240.733 767.243,253.817"/><polygon fill="#C2AA5C" points="794.492,241.582 767.216,253.842 767.216,260.367 794.492,247.936"/><g fill="#E0C977"><polygon points="771.183,258.556 772.518,257.946 772.518,251.453 771.183,252.05"/><polygon points="785.833,251.879 787.169,251.27 787.169,244.858 785.833,245.455"/><polygon points="775.334,256.703 776.002,256.362 776.002,249.898 775.334,250.197"/><polygon points="778.471,255.281 779.138,254.941 779.138,248.477 778.471,248.775"/><polygon points="779.537,254.768 780.203,254.428 780.203,247.963 779.537,248.262"/><polygon points="792.911,248.714 793.578,248.374 793.578,242.012 792.911,242.311"/><polygon points="787.958,250.974 788.626,250.634 788.626,244.272 787.958,244.571"/></g><g fill="#E0C977"><polygon points="761.272,257.752 759.938,257.144 759.938,250.65 761.272,251.247"/><polygon points="746.622,251.381 745.286,250.771 745.286,244.858 746.622,245.455"/><polygon points="757.122,255.9 756.455,255.56 756.455,249.385 757.122,249.684"/><polygon points="753.986,254.648 753.317,254.309 753.317,248.12 753.986,248.418"/><polygon points="752.92,254.135 752.252,253.795 752.252,247.674 752.92,247.973"/><polygon points="739.546,248.477 738.878,248.137 738.878,242.198 739.546,242.497"/><polygon points="744.498,250.512 743.83,250.172 743.83,244.123 744.498,244.421"/></g><polygon fill="#C2AA5C" points="748.668,242.187 749.507,242.532 750.226,242.209 749.384,241.863"/><polygon fill="#C2AA5C" points="752.252,238.536 753.091,238.882 753.809,238.559 752.968,238.213"/><polygon fill="#C2AA5C" points="762.35,231.753 763.188,232.099 763.907,231.776 763.064,231.43"/><polygon fill="#C2AA5C" points="777.503,239.328 778.341,239.673 779.061,239.35 778.219,239.004"/><polygon fill="#C2AA5C" points="771.741,241.537 772.562,241.919 773.297,241.627 772.47,241.245"/><polygon fill="#C2AA5C" points="769.721,238.871 770.561,239.216 771.278,238.893 770.437,238.547"/><polygon fill="#C2AA5C" points="761.571,236.896 762.409,237.242 763.129,236.918 762.287,236.573"/><polygon fill="#C2AA5C" points="761.571,242.521 762.409,242.867 763.129,242.543 762.287,242.198"/><polygon fill="#C2AA5C" points="771.74,244.439 772.577,244.784 773.298,244.461 772.455,244.115"/><polygon fill="#C2AA5C" points="763.129,248.703 763.967,249.048 764.687,248.725 763.845,248.379"/><polygon fill="#C2AA5C" points="765.658,240.387 766.496,240.733 767.216,240.41 766.374,240.064"/><polygon fill="#C2AA5C" points="785.723,241.571 786.562,241.917 787.279,241.593 786.438,241.248"/><polygon fill="#C2AA5C" points="781.282,242.521 782.119,242.867 782.84,242.543 781.996,242.198"/><polygon fill="#C2AA5C" points="769.721,234.448 770.561,234.793 771.278,234.47 770.437,234.125"/><polygon fill="#C2AA5C" points="757.122,234.782 757.96,235.127 758.68,234.804 757.837,234.459"/><polygon fill="#C2AA5C" points="757.122,244.439 757.96,244.784 758.68,244.461 757.837,244.115"/><polygon opacity=".1" points="744.578,218.572 769.975,229.183 790.089,220.067 764.964,209.634"/><polygon fill="#fff" points="751.16,219.183 751.16,204.986 769.993,212.775 769.993,227.225"/><polygon fill="#E5DBDE" points="781.061,207.817 769.977,212.775 769.993,227.225 781.093,222.203"/><polygon fill="#DC5A38" points="751.16,204.98 761.41,197.189 773.201,202.058 769.961,212.784"/><polygon fill="#C14F34" points="781.076,207.817 773.201,202.058 769.993,212.775"/><polygon fill="#A9C7F7" points="764.172,219.129 767.172,220.565 767.172,216.524 764.172,215.254"/><polygon fill="#A9C7F7" points="753.214,214.129 756.214,215.565 756.214,211.524 753.214,210.254"/><polygon opacity=".1" points="707.133,264.941 732.529,275.553 752.644,266.436 727.519,256.004"/><polygon fill="#fff" points="713.715,265.553 713.715,251.355 732.548,259.145 732.548,273.594"/><polygon fill="#E5DBDE" points="743.615,254.186 732.531,259.145 732.548,273.594 743.647,268.572"/><polygon fill="#DC5A38" points="713.715,251.35 723.965,243.559 735.756,248.427 732.516,259.152"/><polygon fill="#C14F34" points="743.631,254.186 735.756,248.427 732.548,259.145"/><polygon fill="#A9C7F7" points="726.727,265.498 729.727,266.935 729.727,262.894 726.727,261.623"/><polygon fill="#A9C7F7" points="715.769,260.498 718.769,261.935 718.769,257.894 715.769,256.623"/><polygon opacity=".1" points="773.306,270.717 781.712,274.291 789.259,270.896 780.741,267.357"/><polygon fill="#A65C26" points="778.738,270.861 781.68,272.129 781.68,261.309 780.209,261.406"/><polygon fill="#8F4A1B" points="781.68,272.129 784.385,270.721 783.032,260.781 781.68,262.146"/><polygon fill="#578034" points="781.74,263.4 775.735,260.809 781.74,228.979"/><polygon fill="#4F6E32" points="781.7,263.4 787.069,261.083 781.7,228.979"/><polygon opacity=".1" points="754.258,184.7 760.917,187.531 766.896,184.841 760.147,182.038"/><polygon fill="#A65C26" points="758.01,185.103 760.951,186.37 760.951,179.526 758.947,179.526"/><polygon fill="#8F4A1B" points="760.951,186.37 763.656,184.961 762.822,180.107 760.951,179.941"/><polygon fill="#578034" points="761.012,182.64 755.008,180.049 761.012,167.482"/><polygon fill="#4F6E32" points="760.972,182.64 766.341,180.323 760.972,167.482"/><polygon opacity=".1" points="579.671,183.56 586.33,186.391 592.309,183.701 585.561,180.898"/><polygon fill="#A65C26" points="583.423,183.962 586.364,185.23 586.364,178.386 584.36,178.386"/><polygon fill="#8F4A1B" points="586.364,185.23 589.069,183.821 588.235,178.967 586.364,178.801"/><polygon fill="#578034" points="586.425,181.5 580.421,178.909 586.425,166.342"/><polygon fill="#4F6E32" points="586.385,181.5 591.754,179.183 586.385,166.342"/><polygon fill="#485157" points="560.565,183.97 683.444,233.873 690.497,230.853 567.296,180.973"/><polygon opacity=".1" points="625.457,228.859 639.8,234.956 652.676,229.164 638.143,223.126"/><polygon fill="#A55E28" points="634.481,229.781 639.668,232.209 639.668,222.826 636.544,220.906"/><polygon fill="#914A16" points="639.668,232.209 644.606,229.719 642.981,222.031 639.668,223.346"/><polygon fill="#BBD260" points="639.729,224.479 628.231,219.531 639.729,191.279"/><polygon fill="#99AF41" points="639.688,224.479 650.981,219.594 639.688,191.279"/><polygon opacity=".1" points="721.403,246.314 694.837,258.84 673.242,249.607 699.572,237.609"/><polygon fill="#fff" points="681.697,250.085 681.697,235.814 694.801,241.247 694.801,255.734"/><polygon fill="#E5DBDE" points="711.614,233.736 694.801,241.257 694.801,255.734 711.614,247.976"/><polygon fill="#DC5A38" points="681.697,235.835 690.447,229.691 694.802,241.251"/><polygon fill="#8A6D56" points="701.899,252.459 698.899,253.754 698.899,246.5 701.899,245.146"/><polyline fill="#C14F34" points="694.802,241.251 711.614,233.73 702.595,224.161 690.447,229.691 694.802,241.251"/></svg>