<svg xmlns="http://www.w3.org/2000/svg" xmlns:xlink="http://www.w3.org/1999/xlink" width="819" height="508"><polygon fill="#6E9C44" points="552.537,187.917 592.467,200.247 616.907,232.097 758.68,293.564 819,259.242 775.75,184.102 671.081,132.461"/><polygon fill="#34562A" points="758.68,293.564 758.68,307.721 819,273.398 819,259.242"/><defs><polygon id="a" points="552.537,187.917 592.467,200.247 616.907,232.097 758.68,293.564 819,259.242 775.75,184.102 671.081,132.461"/></defs><clipPath id="b"><use xlink:href="#a" overflow="visible"/></clipPath><g opacity=".02" clip-path="url(#b)"><defs><polygon id="c" opacity=".02" points="76.235,426.574 10.699,292.314 274.363,87.656 300.363,74.311 530.492,57 785.75,184.102 829,259.242 577.897,402.119 559.696,402.119 375.696,475.613 301.696,493.844"/></defs><clipPath id="d"><use xlink:href="#c" overflow="visible"/></clipPath><g clip-path="url(#d)" stroke="#000" stroke-linejoin="bevel" stroke-miterlimit="10" fill="none"><line x1="-895.405" y1="22.525" x2="263.897" y2="495"/><line x1="-849.227" y1="22.525" x2="310.075" y2="495"/><line x1="-803.048" y1="22.525" x2="356.253" y2="495"/><line x1="-756.87" y1="22.525" x2="402.432" y2="495"/><line x1="-710.692" y1="22.525" x2="448.609" y2="495"/><line x1="-664.514" y1="22.525" x2="494.787" y2="495"/><line x1="-618.335" y1="22.525" x2="540.965" y2="495"/><line x1="-572.157" y1="22.525" x2="587.143" y2="495"/><line x1="-525.979" y1="22.525" x2="633.32" y2="495"/><line x1="-479.801" y1="22.525" x2="679.498" y2="495"/><line x1="-433.623" y1="22.525" x2="725.676" y2="495"/><line x1="-387.444" y1="22.525" x2="771.854" y2="495"/><line x1="-341.266" y1="22.525" x2="818.031" y2="495"/><line x1="-295.088" y1="22.525" x2="864.209" y2="495"/><line x1="-248.91" y1="22.525" x2="910.387" y2="495"/><line x1="-202.731" y1="22.525" x2="956.564" y2="495"/><line x1="-156.553" y1="22.525" x2="1002.742" y2="495"/><line x1="-110.375" y1="22.525" x2="1048.92" y2="495"/><line x1="-64.197" y1="22.525" x2="1095.098" y2="495"/><line x1="-18.019" y1="22.525" x2="1141.275" y2="495"/><line x1="28.16" y1="22.525" x2="1187.453" y2="495"/><line x1="74.338" y1="22.525" x2="1233.631" y2="495"/><line x1="120.516" y1="22.525" x2="1279.809" y2="495"/><line x1="166.694" y1="22.525" x2="1325.986" y2="495"/><line x1="212.873" y1="22.525" x2="1372.164" y2="495"/><line x1="259.051" y1="22.525" x2="1418.342" y2="495"/><line x1="305.229" y1="22.525" x2="1464.52" y2="495"/><line x1="351.407" y1="22.525" x2="1510.697" y2="495"/><line x1="397.585" y1="22.525" x2="1556.875" y2="495"/><line x1="443.764" y1="22.525" x2="1603.053" y2="495"/><line x1="351.407" y1="23.005" x2="-655.94" y2="495.479"/><line x1="397.585" y1="23.005" x2="-609.762" y2="495.479"/><line x1="443.764" y1="23.005" x2="-563.584" y2="495.479"/><line x1="489.941" y1="23.005" x2="-517.406" y2="495.479"/><line x1="536.119" y1="23.005" x2="-471.228" y2="495.479"/><line x1="582.297" y1="23.005" x2="-425.049" y2="495.479"/><line x1="628.475" y1="23.005" x2="-378.871" y2="495.479"/><line x1="674.652" y1="23.005" x2="-332.693" y2="495.479"/><line x1="720.83" y1="23.005" x2="-286.515" y2="495.479"/><line x1="767.008" y1="23.005" x2="-240.336" y2="495.479"/><line x1="813.186" y1="23.005" x2="-194.158" y2="495.479"/><line x1="859.363" y1="23.005" x2="-147.98" y2="495.479"/><line x1="905.541" y1="23.005" x2="-101.802" y2="495.479"/><line x1="951.719" y1="23.005" x2="-55.624" y2="495.479"/><line x1="997.896" y1="23.005" x2="-9.445" y2="495.479"/><line x1="1044.074" y1="23.005" x2="36.733" y2="495.479"/><line x1="1090.252" y1="23.005" x2="82.911" y2="495.479"/><line x1="1136.43" y1="23.005" x2="129.089" y2="495.479"/><line x1="1182.607" y1="23.005" x2="175.268" y2="495.479"/><line x1="1228.785" y1="23.005" x2="221.446" y2="495.479"/><line x1="1274.963" y1="23.005" x2="267.624" y2="495.479"/><line x1="1321.141" y1="23.005" x2="313.802" y2="495.479"/><line x1="1367.318" y1="23.005" x2="359.98" y2="495.479"/></g></g><polygon opacity=".1" points="726.686,193.63 745.69,184.742 722.427,175.28 703.498,184.187"/><polygon fill="#91BE68" points="726.704,189.014 741.204,182.233 723.454,175.014 709.013,181.809"/><polygon fill="#548628" points="709.013,183.435 709.013,184.768 726.764,192 726.763,189.028 709.013,181.809"/><path fill="#A4B5B7" d="M709.013 182.809"/><polygon fill="#4B722E" points="726.764,192 741.205,185.151 741.205,182.192 726.764,188.987"/><path fill="#A4B5B7" d="M709.013 177.214"/><polygon opacity=".1" points="709.264,171.245 682.697,183.771 661.103,174.539 687.433,162.54"/><polygon fill="#fff" points="669.558,175.017 669.558,160.746 682.661,166.178 682.661,180.666"/><polygon fill="#CCC2C6" points="699.475,158.667 682.661,166.188 682.661,180.666 699.475,172.907"/><polygon fill="#DC5A38" points="669.558,160.766 678.308,154.623 682.662,166.183"/><polygon fill="#8A6D56" points="689.76,177.39 686.76,178.685 686.76,171.431 689.76,170.077"/><polyline fill="#B54833" points="682.662,166.183 699.475,158.662 690.455,149.092 678.308,154.623 682.662,166.183"/><polygon opacity=".1" points="700.08,194.098 706.739,196.929 712.718,194.239 705.97,191.436"/><polygon fill="#A65C26" points="703.832,194.5 706.773,195.768 706.773,188.924 704.77,188.924"/><polygon fill="#8F4A1B" points="706.773,195.768 709.479,194.359 708.645,189.505 706.773,189.339"/><polygon fill="#578034" points="706.834,192.038 700.83,189.447 706.834,176.88"/><polygon fill="#4F6E32" points="706.794,192.038 712.163,189.721 706.794,176.88"/><polygon opacity=".1" points="649.94,165.684 656.6,168.515 662.578,165.826 655.83,163.022"/><polygon fill="#A65C26" points="653.692,166.087 656.634,167.354 656.634,160.511 654.63,160.511"/><polygon fill="#8F4A1B" points="656.634,167.354 659.339,165.945 658.505,161.092 656.634,160.926"/><polygon fill="#578034" points="656.694,163.625 650.69,161.034 656.694,148.467"/><polygon fill="#4F6E32" points="656.654,163.625 662.023,161.308 656.654,148.467"/><polygon opacity=".1" points="654.089,193.008 668.432,199.105 681.308,193.313 666.774,187.275"/><polygon fill="#A55E28" points="663.113,193.93 668.3,196.358 668.3,186.975 665.176,185.055"/><polygon fill="#914A16" points="668.3,196.358 673.238,193.868 671.613,186.18 668.3,187.495"/><polygon fill="#BBD260" points="668.36,188.628 656.863,183.68 668.36,155.428"/><polygon fill="#99AF41" points="668.319,188.628 679.613,183.743 668.319,155.428"/><polygon opacity=".1" points="706.398,171.484 714.805,175.058 722.352,171.664 713.834,168.125"/><polygon fill="#A65C26" points="711.831,171.63 714.772,172.897 714.772,162.076 713.302,162.174"/><polygon fill="#8F4A1B" points="714.772,172.897 717.478,171.488 716.125,161.549 714.772,162.915"/><polygon fill="#578034" points="714.833,164.167 708.828,161.577 714.833,129.747"/><polygon fill="#4F6E32" points="714.793,164.167 720.162,161.851 714.793,129.747"/></svg>