<svg xmlns="http://www.w3.org/2000/svg" xmlns:xlink="http://www.w3.org/1999/xlink" width="819" height="508"><polygon fill="#6E9C44" points="552.537,187.917 592.467,200.247 616.907,232.097 758.68,293.564 819,259.242 775.75,184.102 671.081,132.461"/><polygon fill="#34562A" points="758.68,293.564 758.68,307.721 819,273.398 819,259.242"/><defs><polygon id="a" points="552.537,187.917 592.467,200.247 616.907,232.097 758.68,293.564 819,259.242 775.75,184.102 671.081,132.461"/></defs><clipPath id="b"><use xlink:href="#a" overflow="visible"/></clipPath><g opacity=".02" clip-path="url(#b)"><defs><polygon id="c" opacity=".02" points="76.235,426.574 10.699,292.314 274.363,87.656 300.363,74.311 530.492,57 785.75,184.102 829,259.242 577.897,402.119 559.696,402.119 375.696,475.613 301.696,493.844"/></defs><clipPath id="d"><use xlink:href="#c" overflow="visible"/></clipPath><g clip-path="url(#d)" stroke="#000" stroke-linejoin="bevel" stroke-miterlimit="10" fill="none"><line x1="-895.405" y1="22.525" x2="263.897" y2="495"/><line x1="-849.227" y1="22.525" x2="310.075" y2="495"/><line x1="-803.048" y1="22.525" x2="356.253" y2="495"/><line x1="-756.87" y1="22.525" x2="402.432" y2="495"/><line x1="-710.692" y1="22.525" x2="448.609" y2="495"/><line x1="-664.514" y1="22.525" x2="494.787" y2="495"/><line x1="-618.335" y1="22.525" x2="540.965" y2="495"/><line x1="-572.157" y1="22.525" x2="587.143" y2="495"/><line x1="-525.979" y1="22.525" x2="633.32" y2="495"/><line x1="-479.801" y1="22.525" x2="679.498" y2="495"/><line x1="-433.623" y1="22.525" x2="725.676" y2="495"/><line x1="-387.444" y1="22.525" x2="771.854" y2="495"/><line x1="-341.266" y1="22.525" x2="818.031" y2="495"/><line x1="-295.088" y1="22.525" x2="864.209" y2="495"/><line x1="-248.91" y1="22.525" x2="910.387" y2="495"/><line x1="-202.731" y1="22.525" x2="956.564" y2="495"/><line x1="-156.553" y1="22.525" x2="1002.742" y2="495"/><line x1="-110.375" y1="22.525" x2="1048.92" y2="495"/><line x1="-64.197" y1="22.525" x2="1095.098" y2="495"/><line x1="-18.019" y1="22.525" x2="1141.275" y2="495"/><line x1="28.16" y1="22.525" x2="1187.453" y2="495"/><line x1="74.338" y1="22.525" x2="1233.631" y2="495"/><line x1="120.516" y1="22.525" x2="1279.809" y2="495"/><line x1="166.694" y1="22.525" x2="1325.986" y2="495"/><line x1="212.873" y1="22.525" x2="1372.164" y2="495"/><line x1="259.051" y1="22.525" x2="1418.342" y2="495"/><line x1="305.229" y1="22.525" x2="1464.52" y2="495"/><line x1="351.407" y1="22.525" x2="1510.697" y2="495"/><line x1="397.585" y1="22.525" x2="1556.875" y2="495"/><line x1="443.764" y1="22.525" x2="1603.053" y2="495"/><line x1="351.407" y1="23.005" x2="-655.94" y2="495.479"/><line x1="397.585" y1="23.005" x2="-609.762" y2="495.479"/><line x1="443.764" y1="23.005" x2="-563.584" y2="495.479"/><line x1="489.941" y1="23.005" x2="-517.406" y2="495.479"/><line x1="536.119" y1="23.005" x2="-471.228" y2="495.479"/><line x1="582.297" y1="23.005" x2="-425.049" y2="495.479"/><line x1="628.475" y1="23.005" x2="-378.871" y2="495.479"/><line x1="674.652" y1="23.005" x2="-332.693" y2="495.479"/><line x1="720.83" y1="23.005" x2="-286.515" y2="495.479"/><line x1="767.008" y1="23.005" x2="-240.336" y2="495.479"/><line x1="813.186" y1="23.005" x2="-194.158" y2="495.479"/><line x1="859.363" y1="23.005" x2="-147.98" y2="495.479"/><line x1="905.541" y1="23.005" x2="-101.802" y2="495.479"/><line x1="951.719" y1="23.005" x2="-55.624" y2="495.479"/><line x1="997.896" y1="23.005" x2="-9.445" y2="495.479"/><line x1="1044.074" y1="23.005" x2="36.733" y2="495.479"/><line x1="1090.252" y1="23.005" x2="82.911" y2="495.479"/><line x1="1136.43" y1="23.005" x2="129.089" y2="495.479"/><line x1="1182.607" y1="23.005" x2="175.268" y2="495.479"/><line x1="1228.785" y1="23.005" x2="221.446" y2="495.479"/><line x1="1274.963" y1="23.005" x2="267.624" y2="495.479"/><line x1="1321.141" y1="23.005" x2="313.802" y2="495.479"/><line x1="1367.318" y1="23.005" x2="359.98" y2="495.479"/></g></g><polygon opacity=".1" points="726.686,193.63 745.69,184.742 722.427,175.28 703.498,184.187"/><polygon fill="#91BE68" points="726.704,189.014 741.204,182.233 723.454,175.014 709.013,181.809"/><polygon fill="#548628" points="709.013,183.435 709.013,184.768 726.764,192 726.763,189.028 709.013,181.809"/><path fill="#A4B5B7" d="M709.013 182.809"/><polygon fill="#4B722E" points="726.764,192 741.205,185.151 741.205,182.192 726.764,188.987"/><polygon fill="#706D6E" points="713.816,181.131 726.764,186.405 726.763,174.433 713.828,169.173"/><path fill="#A4B5B7" d="M709.013 177.214"/><polygon fill="#5C5858" points="726.764,186.405 737.32,181.406 737.32,169.49 726.764,174.392"/><polygon fill="#CDCDCC" points="726.733,174.442 737.32,169.49 724.359,164.22 713.816,169.181"/><polygon opacity=".1" points="654.97,209.13 650.856,204.846 612.994,200.563 605.627,186.856 618.819,165.783 675.872,157.388 698.316,172.979 687.181,200.735"/><polygon fill="#A3BE5F" points="654.904,197.029 651.183,193.151 616.907,189.274 610.239,176.868 622.18,157.792 673.825,150.192 694.14,164.305 684.061,189.43"/><polygon fill="#F1E0A6" points="694.14,171.4 684.061,196.525 654.904,204.124 651.183,200.247 616.907,196.369 610.239,183.963 610.239,179.349 616.907,191.756 651.183,195.633 654.904,199.51 684.061,191.911 694.14,166.787"/><polygon fill="#969F5A" points="610.239,179.349 616.907,191.756 651.183,195.633 654.904,199.51 684.061,191.911 694.14,166.787 694.14,164.305 684.061,189.43 654.904,197.029 651.183,193.151 616.907,189.274 610.239,176.868"/><polygon fill="#747E42" points="616.907,191.756 616.907,189.274 651.183,193.151 651.183,195.633"/><polygon fill="#747E42" points="654.904,197.029 654.904,199.51 684.061,191.911 684.061,189.43"/><polygon fill="#D7CA93" points="616.907,191.756 616.907,196.369 651.183,200.247 651.183,195.633"/><polygon fill="#D7CA93" points="654.904,204.124 654.904,199.51 684.061,191.911 684.061,196.525"/><polygon fill="#485157" points="668.343,177.058 686.057,184.455 687.903,179.878 674.265,174.119"/><polygon fill="#485157" points="686.019,191.756 732.042,210.417 738.323,207.559 687.903,186.94"/><polygon fill="#3D474D" points="686.057,184.455 686.019,191.756 687.903,186.94 687.903,179.878"/><polygon opacity=".1" points="698.838,217.838 707.244,221.412 714.791,218.017 706.273,214.479"/><polygon fill="#A65C26" points="704.271,217.983 707.212,219.251 707.212,208.429 705.741,208.527"/><polygon fill="#8F4A1B" points="707.212,219.251 709.917,217.842 708.564,207.902 707.212,209.268"/><polygon fill="#578034" points="707.272,210.521 701.268,207.93 707.272,176.1"/><polygon fill="#4F6E32" points="707.232,210.521 712.602,208.204 707.232,176.1"/><polygon opacity=".1" points="680.264,167.245 653.697,179.771 632.103,170.539 658.433,158.54"/><polygon fill="#fff" points="640.558,171.017 640.558,156.746 653.661,162.178 653.661,176.666"/><polygon fill="#CCC2C6" points="670.475,154.667 653.661,162.188 653.661,176.666 670.475,168.907"/><polygon fill="#DC5A38" points="640.558,156.766 649.308,150.623 653.662,162.183"/><polygon fill="#8A6D56" points="660.76,173.39 657.76,174.685 657.76,167.431 660.76,166.077"/><polyline fill="#B54833" points="653.662,162.183 670.475,154.662 661.455,145.092 649.308,150.623 653.662,162.183"/><polygon opacity=".1" points="730.272,246.222 767.566,262.078 801.046,247.018 763.256,231.32"/><polygon fill="#E0C977" points="735.461,240.777 767.243,253.887 794.519,241.626 762.591,228.533"/><polygon fill="#C2AA5C" points="743.052,240.387 743.89,240.733 744.609,240.41 743.766,240.064"/><polygon fill="#F7DE8B" points="767.243,260.342 735.434,246.749 735.434,240.733 767.243,253.817"/><polygon fill="#C2AA5C" points="794.492,241.582 767.216,253.842 767.216,260.367 794.492,247.936"/><g fill="#E0C977"><polygon points="771.183,258.556 772.518,257.946 772.518,251.453 771.183,252.05"/><polygon points="785.833,251.879 787.169,251.27 787.169,244.858 785.833,245.455"/><polygon points="775.334,256.703 776.002,256.362 776.002,249.898 775.334,250.197"/><polygon points="778.471,255.281 779.138,254.941 779.138,248.477 778.471,248.775"/><polygon points="779.537,254.768 780.203,254.428 780.203,247.963 779.537,248.262"/><polygon points="792.911,248.714 793.578,248.374 793.578,242.012 792.911,242.311"/><polygon points="787.958,250.974 788.626,250.634 788.626,244.272 787.958,244.571"/></g><g fill="#E0C977"><polygon points="761.272,257.752 759.938,257.144 759.938,250.65 761.272,251.247"/><polygon points="746.622,251.381 745.286,250.771 745.286,244.858 746.622,245.455"/><polygon points="757.122,255.9 756.455,255.56 756.455,249.385 757.122,249.684"/><polygon points="753.986,254.648 753.317,254.309 753.317,248.12 753.986,248.418"/><polygon points="752.92,254.135 752.252,253.795 752.252,247.674 752.92,247.973"/><polygon points="739.546,248.477 738.878,248.137 738.878,242.198 739.546,242.497"/><polygon points="744.498,250.512 743.83,250.172 743.83,244.123 744.498,244.421"/></g><polygon fill="#C2AA5C" points="748.668,242.187 749.507,242.532 750.226,242.209 749.384,241.863"/><polygon fill="#C2AA5C" points="752.252,238.536 753.091,238.882 753.809,238.559 752.968,238.213"/><polygon fill="#C2AA5C" points="762.35,231.753 763.188,232.099 763.907,231.776 763.064,231.43"/><polygon fill="#C2AA5C" points="777.503,239.328 778.341,239.673 779.061,239.35 778.219,239.004"/><polygon fill="#C2AA5C" points="771.741,241.537 772.562,241.919 773.297,241.627 772.47,241.245"/><polygon fill="#C2AA5C" points="769.721,238.871 770.561,239.216 771.278,238.893 770.437,238.547"/><polygon fill="#C2AA5C" points="761.571,236.896 762.409,237.242 763.129,236.918 762.287,236.573"/><polygon fill="#C2AA5C" points="761.571,242.521 762.409,242.867 763.129,242.543 762.287,242.198"/><polygon fill="#C2AA5C" points="771.74,244.439 772.577,244.784 773.298,244.461 772.455,244.115"/><polygon fill="#C2AA5C" points="763.129,248.703 763.967,249.048 764.687,248.725 763.845,248.379"/><polygon fill="#C2AA5C" points="765.658,240.387 766.496,240.733 767.216,240.41 766.374,240.064"/><polygon fill="#C2AA5C" points="785.723,241.571 786.562,241.917 787.279,241.593 786.438,241.248"/><polygon fill="#C2AA5C" points="781.282,242.521 782.119,242.867 782.84,242.543 781.996,242.198"/><polygon fill="#C2AA5C" points="769.721,234.448 770.561,234.793 771.278,234.47 770.437,234.125"/><polygon fill="#C2AA5C" points="757.122,234.782 757.96,235.127 758.68,234.804 757.837,234.459"/><polygon fill="#C2AA5C" points="757.122,244.439 757.96,244.784 758.68,244.461 757.837,244.115"/><polygon opacity=".1" points="707.133,264.941 732.529,275.553 752.644,266.436 727.519,256.004"/><polygon fill="#fff" points="713.715,265.553 713.715,251.355 732.548,259.145 732.548,273.594"/><polygon fill="#E5DBDE" points="743.615,254.186 732.531,259.145 732.548,273.594 743.647,268.572"/><polygon fill="#DC5A38" points="713.715,251.35 723.965,243.559 735.756,248.427 732.516,259.152"/><polygon fill="#C14F34" points="743.631,254.186 735.756,248.427 732.548,259.145"/><polygon fill="#A9C7F7" points="726.727,265.498 729.727,266.935 729.727,262.894 726.727,261.623"/><polygon fill="#A9C7F7" points="715.769,260.498 718.769,261.935 718.769,257.894 715.769,256.623"/><polygon opacity=".1" points="773.306,270.717 781.712,274.291 789.259,270.896 780.741,267.357"/><polygon fill="#A65C26" points="778.738,270.861 781.68,272.129 781.68,261.309 780.209,261.406"/><polygon fill="#8F4A1B" points="781.68,272.129 784.385,270.721 783.032,260.781 781.68,262.146"/><polygon fill="#578034" points="781.74,263.4 775.735,260.809 781.74,228.979"/><polygon fill="#4F6E32" points="781.7,263.4 787.069,261.083 781.7,228.979"/><polygon opacity=".1" points="766.258,204.7 772.917,207.531 778.896,204.841 772.147,202.038"/><polygon fill="#A65C26" points="770.01,205.103 772.951,206.37 772.951,199.526 770.947,199.526"/><polygon fill="#8F4A1B" points="772.951,206.37 775.656,204.961 774.822,200.107 772.951,199.941"/><polygon fill="#578034" points="773.012,202.64 767.008,200.049 773.012,187.482"/><polygon fill="#4F6E32" points="772.972,202.64 778.341,200.323 772.972,187.482"/><polygon opacity=".1" points="620.94,159.684 627.6,162.515 633.578,159.826 626.83,157.022"/><polygon fill="#A65C26" points="624.692,160.087 627.634,161.354 627.634,154.511 625.63,154.511"/><polygon fill="#8F4A1B" points="627.634,161.354 630.339,159.945 629.505,155.092 627.634,154.926"/><polygon fill="#578034" points="627.694,157.625 621.69,155.034 627.694,142.467"/><polygon fill="#4F6E32" points="627.654,157.625 633.023,155.308 627.654,142.467"/><polygon opacity=".1" points="740.648,216.846 754.991,222.943 767.867,217.151 753.334,211.114"/><polygon fill="#A55E28" points="749.673,217.769 754.859,220.197 754.859,210.813 751.735,208.894"/><polygon fill="#914A16" points="754.859,220.197 759.798,217.706 758.173,210.019 754.859,211.333"/><polygon fill="#BBD260" points="754.92,212.467 743.423,207.519 754.92,179.267"/><polygon fill="#99AF41" points="754.879,212.467 766.173,207.581 754.879,179.267"/><polygon opacity=".1" points="674.398,167.484 682.805,171.058 690.352,167.664 681.834,164.125"/><polygon fill="#A65C26" points="679.831,167.63 682.772,168.897 682.772,158.076 681.302,158.174"/><polygon fill="#8F4A1B" points="682.772,168.897 685.478,167.488 684.125,157.549 682.772,158.915"/><polygon fill="#578034" points="682.833,160.167 676.828,157.577 682.833,125.747"/><polygon fill="#4F6E32" points="682.793,160.167 688.162,157.851 682.793,125.747"/><polygon opacity=".1" points="671.315,174.886 639.588,189.845 613.799,178.819 645.243,164.49"/><polygon fill="#86D5EA" points="675.005,183.243 661.276,189.715 650.118,184.944 663.724,178.745"/><polygon fill="#fff" points="623.896,179.39 623.896,162.347 639.545,168.834 639.545,186.136"/><polygon fill="#E5DBDE" points="659.625,159.864 639.545,168.846 639.545,186.136 659.625,176.871"/><polygon fill="#DC5A38" points="623.896,162.371 634.346,155.034 639.546,168.84"/><polygon fill="#8A6D56" points="648.022,182.225 644.44,183.771 644.44,175.108 648.022,173.491"/><polyline fill="#C14F34" points="639.546,168.84 659.625,159.858 648.854,148.429 634.346,155.034 639.546,168.84"/><polygon opacity=".1" points="757.301,229.609 730.734,242.135 709.14,232.903 735.47,220.904"/><polygon fill="#fff" points="717.595,233.381 717.595,219.11 730.698,224.542 730.698,239.03"/><polygon fill="#E5DBDE" points="747.512,217.031 730.698,224.552 730.698,239.03 747.512,231.271"/><polygon fill="#DC5A38" points="717.595,219.13 726.345,212.987 730.699,224.547"/><polygon fill="#8A6D56" points="737.797,235.754 734.797,237.049 734.797,229.795 737.797,228.441"/><polyline fill="#C14F34" points="730.699,224.547 747.512,217.026 738.492,207.456 726.345,212.987 730.699,224.547"/></svg>