<svg xmlns="http://www.w3.org/2000/svg" xmlns:xlink="http://www.w3.org/1999/xlink" width="819" height="508"><path fill="#6E9C44" d="M390.85 465v-181.613s38.338-3.043 47.172-23.637c0 0 3.834-8.126-3.5-16.797l19.671-9.188 29.7 30.956 129.589 90.199 7.31 17.099-52.894 30.101-17.98.382-159.068 62.498z"/><polygon fill="#34562A" points="621.137,385.982 621.137,372.019 567.897,402.119 567.897,416.275"/><polygon fill="#34562A" points="549.917,402.501 549.917,416.275 390.85,479.723 390.85,465"/><polygon fill="#2F4C25" points="549.917,402.501 567.897,402.119 567.897,416.275 549.917,416.275"/><defs><path id="a" d="M390.85 465v-181.613s38.338-3.043 47.172-23.637c0 0 3.834-8.126-3.5-16.797l19.671-9.188 29.7 30.956 129.589 90.199 7.31 17.099-52.894 30.101-17.98.382-159.068 62.498z"/></defs><clipPath id="b"><use xlink:href="#a" overflow="visible"/></clipPath><g opacity=".02" clip-path="url(#b)"><defs><polygon id="c" opacity=".02" points="76.235,426.574 10.699,292.314 274.363,87.656 300.363,74.311 530.492,57 785.75,184.102 829,259.242 577.897,402.119 559.696,402.119 375.696,475.613 301.696,493.844"/></defs><clipPath id="d"><use xlink:href="#c" overflow="visible"/></clipPath><g clip-path="url(#d)" stroke="#000" stroke-linejoin="bevel" stroke-miterlimit="10" fill="none"><line x1="-895.405" y1="22.525" x2="263.897" y2="495"/><line x1="-849.227" y1="22.525" x2="310.075" y2="495"/><line x1="-803.048" y1="22.525" x2="356.253" y2="495"/><line x1="-756.87" y1="22.525" x2="402.432" y2="495"/><line x1="-710.692" y1="22.525" x2="448.609" y2="495"/><line x1="-664.514" y1="22.525" x2="494.787" y2="495"/><line x1="-618.335" y1="22.525" x2="540.965" y2="495"/><line x1="-572.157" y1="22.525" x2="587.143" y2="495"/><line x1="-525.979" y1="22.525" x2="633.32" y2="495"/><line x1="-479.801" y1="22.525" x2="679.498" y2="495"/><line x1="-433.623" y1="22.525" x2="725.676" y2="495"/><line x1="-387.444" y1="22.525" x2="771.854" y2="495"/><line x1="-341.266" y1="22.525" x2="818.031" y2="495"/><line x1="-295.088" y1="22.525" x2="864.209" y2="495"/><line x1="-248.91" y1="22.525" x2="910.387" y2="495"/><line x1="-202.731" y1="22.525" x2="956.564" y2="495"/><line x1="-156.553" y1="22.525" x2="1002.742" y2="495"/><line x1="-110.375" y1="22.525" x2="1048.92" y2="495"/><line x1="-64.197" y1="22.525" x2="1095.098" y2="495"/><line x1="-18.019" y1="22.525" x2="1141.275" y2="495"/><line x1="28.16" y1="22.525" x2="1187.453" y2="495"/><line x1="74.338" y1="22.525" x2="1233.631" y2="495"/><line x1="120.516" y1="22.525" x2="1279.809" y2="495"/><line x1="166.694" y1="22.525" x2="1325.986" y2="495"/><line x1="212.873" y1="22.525" x2="1372.164" y2="495"/><line x1="259.051" y1="22.525" x2="1418.342" y2="495"/><line x1="305.229" y1="22.525" x2="1464.52" y2="495"/><line x1="351.407" y1="22.525" x2="1510.697" y2="495"/><line x1="397.585" y1="22.525" x2="1556.875" y2="495"/><line x1="443.764" y1="22.525" x2="1603.053" y2="495"/><line x1="351.407" y1="23.005" x2="-655.94" y2="495.479"/><line x1="397.585" y1="23.005" x2="-609.762" y2="495.479"/><line x1="443.764" y1="23.005" x2="-563.584" y2="495.479"/><line x1="489.941" y1="23.005" x2="-517.406" y2="495.479"/><line x1="536.119" y1="23.005" x2="-471.228" y2="495.479"/><line x1="582.297" y1="23.005" x2="-425.049" y2="495.479"/><line x1="628.475" y1="23.005" x2="-378.871" y2="495.479"/><line x1="674.652" y1="23.005" x2="-332.693" y2="495.479"/><line x1="720.83" y1="23.005" x2="-286.515" y2="495.479"/><line x1="767.008" y1="23.005" x2="-240.336" y2="495.479"/><line x1="813.186" y1="23.005" x2="-194.158" y2="495.479"/><line x1="859.363" y1="23.005" x2="-147.98" y2="495.479"/><line x1="905.541" y1="23.005" x2="-101.802" y2="495.479"/><line x1="951.719" y1="23.005" x2="-55.624" y2="495.479"/><line x1="997.896" y1="23.005" x2="-9.445" y2="495.479"/><line x1="1044.074" y1="23.005" x2="36.733" y2="495.479"/><line x1="1090.252" y1="23.005" x2="82.911" y2="495.479"/><line x1="1136.43" y1="23.005" x2="129.089" y2="495.479"/><line x1="1182.607" y1="23.005" x2="175.268" y2="495.479"/><line x1="1228.785" y1="23.005" x2="221.446" y2="495.479"/><line x1="1274.963" y1="23.005" x2="267.624" y2="495.479"/><line x1="1321.141" y1="23.005" x2="313.802" y2="495.479"/><line x1="1367.318" y1="23.005" x2="359.98" y2="495.479"/></g></g><polyline fill="#485157" points="542.126,305.978 497.311,326.745 489.779,323.729 536.71,302.262"/><polygon opacity=".1" points="449.359,332.134 445.246,327.851 407.384,323.567 400.017,309.86 413.209,288.786 470.262,280.392 492.706,295.982 481.57,323.739"/><polygon fill="#A3BE5F" points="449.294,320.032 445.572,316.155 411.297,312.278 404.629,299.872 416.569,280.796 468.215,273.196 488.529,287.31 478.45,312.434"/><polygon fill="#F1E0A6" points="488.529,294.404 478.45,319.528 449.294,327.128 445.572,323.251 411.297,319.373 404.629,306.967 404.629,302.353 411.297,314.76 445.572,318.637 449.294,322.515 478.45,314.915 488.529,289.79"/><polygon fill="#969F5A" points="404.629,302.353 411.297,314.76 445.572,318.637 449.294,322.515 478.45,314.915 488.529,289.79 488.529,287.31 478.45,312.434 449.294,320.032 445.572,316.155 411.297,312.278 404.629,299.872"/><polygon fill="#747E42" points="411.297,314.76 411.297,312.278 445.572,316.155 445.572,318.637"/><polygon fill="#747E42" points="449.294,320.032 449.294,322.515 478.45,314.915 478.45,312.434"/><polygon fill="#D7CA93" points="411.297,314.76 411.297,319.373 445.572,323.251 445.572,318.637"/><polygon fill="#D7CA93" points="449.294,327.128 449.294,322.515 478.45,314.915 478.45,319.528"/><polygon opacity=".1" points="421.479,288.435 448.208,299.799 472.202,289.006 445.118,277.756"/><polygon fill="#FFFCF7" points="428.702,285.125 448.185,293.161 464.905,285.646 445.333,277.618"/><polygon fill="#CCCBCB" points="448.185,297.119 428.685,288.785 428.685,285.098 448.185,293.119"/><polygon fill="#C0BEBF" points="464.89,285.618 448.169,293.134 448.169,297.134 464.89,289.514"/><polygon fill="#92AFDD" points="462.16,252.026 448.169,260.319 448.169,292.022 462.16,285.813"/><polygon fill="#A9C7F7" points="448.169,292.022 431.118,285.294 431.118,250.811 448.216,259.95"/><polygon fill="#93B4EA" points="434.681,286.618 434.681,254.253 435.271,254.799 435.271,286.897"/><polygon fill="#93B4EA" points="441.987,289.577 441.987,257.603 442.577,258.148 442.577,289.855"/><polygon fill="#FFFCF7" points="428.702,249.306 448.185,257.342 464.905,249.826 445.333,241.8"/><polygon fill="#CCCBCB" points="448.185,261.3 428.685,252.966 428.685,249.278 448.185,257.3"/><polygon fill="#C0BEBF" points="464.89,249.799 448.169,257.314 448.169,261.314 464.89,253.694"/><polygon fill="#485157" points="434.885,322.042 390.85,343.045 390.85,337.875 426.562,321.021"/><polyline fill="#3D474D" points="426.562,321.021 426.562,314.005 434.885,314.946 434.885,322.042 426.562,321.021"/><polygon fill="#485157" points="471.082,321.449 610.231,378.735 617.216,374.761 478.45,319.264"/><polygon opacity=".1" points="423.151,298.582 431.558,302.156 439.104,298.762 430.587,295.223"/><polygon fill="#A65C26" points="428.584,298.727 431.525,299.994 431.525,289.174 430.055,289.271"/><polygon fill="#8F4A1B" points="431.525,299.994 434.23,298.586 432.878,288.646 431.525,290.012"/><polygon fill="#578034" points="431.586,291.266 425.581,288.674 431.586,256.844"/><polygon fill="#4F6E32" points="431.546,291.266 436.915,288.948 431.546,256.844"/><polygon opacity=".1" points="414.123,305.022 420.782,307.854 426.761,305.165 420.013,302.36"/><polygon fill="#A65C26" points="417.875,305.425 420.816,306.692 420.816,299.849 418.812,299.849"/><polygon fill="#8F4A1B" points="420.816,306.692 423.521,305.284 422.688,300.431 420.816,300.265"/><polygon fill="#578034" points="420.877,302.964 414.873,300.372 420.877,287.806"/><polygon fill="#4F6E32" points="420.837,302.964 426.206,300.646 420.837,287.806"/><polygon opacity=".1" points="410.946,398.744 448.24,414.6 481.72,399.539 443.93,383.842"/><polygon fill="#E0C977" points="416.135,393.299 447.917,406.408 475.192,394.148 443.265,381.055"/><polygon fill="#C2AA5C" points="423.726,392.908 424.563,393.254 425.283,392.932 424.439,392.586"/><polygon fill="#F7DE8B" points="447.917,412.863 416.107,399.27 416.107,393.254 447.917,406.339"/><polygon fill="#C2AA5C" points="475.166,394.104 447.89,406.363 447.89,412.889 475.166,400.457"/><g fill="#E0C977"><polygon points="451.856,411.077 453.191,410.468 453.191,403.975 451.856,404.571"/><polygon points="466.507,404.4 467.843,403.791 467.843,397.38 466.507,397.977"/><polygon points="456.008,409.225 456.676,408.884 456.676,402.42 456.008,402.719"/><polygon points="459.145,407.803 459.812,407.463 459.812,400.998 459.145,401.297"/><polygon points="460.211,407.289 460.877,406.949 460.877,400.484 460.211,400.783"/><polygon points="473.585,401.235 474.252,400.895 474.252,394.533 473.585,394.832"/><polygon points="468.632,403.495 469.3,403.155 469.3,396.793 468.632,397.092"/></g><g fill="#E0C977"><polygon points="441.946,410.273 440.611,409.665 440.611,403.172 441.946,403.769"/><polygon points="427.296,403.902 425.96,403.293 425.96,397.38 427.296,397.977"/><polygon points="437.796,408.422 437.129,408.081 437.129,401.906 437.796,402.205"/><polygon points="434.66,407.17 433.991,406.83 433.991,400.641 434.66,400.939"/><polygon points="433.594,406.656 432.926,406.316 432.926,400.195 433.594,400.494"/><polygon points="420.22,400.998 419.552,400.658 419.552,394.719 420.22,395.018"/><polygon points="425.172,403.033 424.504,402.693 424.504,396.645 425.172,396.943"/></g><polygon fill="#C2AA5C" points="429.342,394.708 430.181,395.054 430.899,394.73 430.058,394.385"/><polygon fill="#C2AA5C" points="432.926,391.058 433.765,391.403 434.482,391.08 433.642,390.734"/><polygon fill="#C2AA5C" points="443.023,384.275 443.861,384.621 444.581,384.297 443.738,383.951"/><polygon fill="#C2AA5C" points="458.177,391.85 459.015,392.195 459.734,391.871 458.893,391.525"/><polygon fill="#C2AA5C" points="452.415,394.059 453.236,394.44 453.971,394.148 453.144,393.767"/><polygon fill="#C2AA5C" points="450.395,391.393 451.234,391.738 451.952,391.414 451.11,391.068"/><polygon fill="#C2AA5C" points="442.245,389.418 443.083,389.764 443.803,389.439 442.961,389.094"/><polygon fill="#C2AA5C" points="442.245,395.043 443.083,395.389 443.803,395.064 442.961,394.719"/><polygon fill="#C2AA5C" points="452.414,396.961 453.251,397.306 453.972,396.982 453.129,396.637"/><polygon fill="#C2AA5C" points="443.803,401.225 444.641,401.569 445.36,401.246 444.519,400.9"/><polygon fill="#C2AA5C" points="446.332,392.908 447.17,393.254 447.89,392.932 447.048,392.586"/><polygon fill="#C2AA5C" points="466.396,394.092 467.235,394.438 467.953,394.114 467.112,393.77"/><polygon fill="#C2AA5C" points="461.956,395.043 462.793,395.389 463.514,395.064 462.67,394.719"/><polygon fill="#C2AA5C" points="450.395,386.969 451.234,387.314 451.952,386.991 451.11,386.646"/><polygon fill="#C2AA5C" points="437.796,387.304 438.634,387.648 439.354,387.326 438.511,386.98"/><polygon fill="#C2AA5C" points="437.796,396.961 438.634,397.306 439.354,396.982 438.511,396.637"/><polygon opacity=".1" points="516.609,343.429 490.043,355.954 468.448,346.722 494.778,334.724"/><polygon fill="#fff" points="476.903,347.2 476.903,332.929 490.007,338.36 490.007,352.849"/><polygon fill="#E5DBDE" points="506.82,330.851 490.007,338.372 490.007,352.849 506.82,345.091"/><polygon fill="#DC5A38" points="476.903,332.95 485.653,326.806 490.008,338.366"/><polygon fill="#8A6D56" points="497.105,349.573 494.105,350.868 494.105,343.614 497.105,342.261"/><polyline fill="#C14F34" points="490.008,338.366 506.82,330.845 497.801,321.274 485.653,326.806 490.008,338.366"/><polygon opacity=".1" points="488.036,302.664 461.47,315.189 439.875,305.957 466.205,293.959"/><polygon fill="#fff" points="448.33,306.436 448.33,292.164 461.434,297.596 461.434,312.084"/><polygon fill="#E5DBDE" points="478.247,290.086 461.434,297.607 461.434,312.084 478.247,304.326"/><polygon fill="#DC5A38" points="448.33,292.186 457.08,286.041 461.435,297.602"/><polygon fill="#8A6D56" points="468.532,308.809 465.532,310.104 465.532,302.85 468.532,301.496"/><polyline fill="#C14F34" points="461.435,297.602 478.247,290.08 469.228,280.51 457.08,286.041 461.435,297.602"/><polygon opacity=".1" points="419.114,336.774 433.457,342.871 446.333,337.079 431.8,331.042"/><polygon fill="#A55E28" points="428.139,337.696 433.325,340.124 433.325,330.741 430.201,328.821"/><polygon fill="#914A16" points="433.325,340.124 438.264,337.634 436.639,329.946 433.325,331.261"/><polygon fill="#BBD260" points="433.386,332.395 421.889,327.446 433.386,299.194"/><polygon fill="#99AF41" points="433.345,332.395 444.639,327.509 433.345,299.194"/><polygon opacity=".1" points="485.352,359.583 458.785,372.108 437.19,362.876 463.521,350.878"/><polygon fill="#fff" points="445.646,363.354 445.646,349.083 458.749,354.515 458.749,369.003"/><polygon fill="#E5DBDE" points="475.562,347.005 458.749,354.526 458.749,369.003 475.562,361.245"/><polygon fill="#DC5A38" points="445.646,349.104 454.396,342.96 458.75,354.521"/><polygon fill="#8A6D56" points="465.848,365.728 462.848,367.022 462.848,359.769 465.848,358.415"/><polyline fill="#C14F34" points="458.75,354.521 475.562,346.999 466.543,337.429 454.396,342.96 458.75,354.521"/><polygon opacity=".1" points="550.377,341.439 557.036,344.271 563.015,341.582 556.267,338.777"/><polygon fill="#A65C26" points="554.129,341.842 557.07,343.109 557.07,336.266 555.066,336.266"/><polygon fill="#8F4A1B" points="557.07,343.109 559.775,341.701 558.941,336.848 557.07,336.682"/><polygon fill="#578034" points="557.131,339.381 551.127,336.789 557.131,324.223"/><polygon fill="#4F6E32" points="557.091,339.381 562.46,337.062 557.091,324.223"/><polygon opacity=".1" points="403.922,373.16 412.328,376.733 419.875,373.339 411.357,369.801"/><polygon fill="#A65C26" points="409.354,373.305 412.296,374.572 412.296,363.751 410.825,363.85"/><polygon fill="#8F4A1B" points="412.296,374.572 415.001,373.164 413.648,363.225 412.296,364.59"/><polygon fill="#578034" points="412.356,365.843 406.352,363.252 412.356,331.422"/><polygon fill="#4F6E32" points="412.316,365.843 417.686,363.525 412.316,331.422"/><polygon opacity=".1" points="469.163,378.229 494.56,388.84 514.674,379.723 489.549,369.291"/><polygon fill="#fff" points="475.745,378.84 475.745,364.643 494.578,372.432 494.578,386.881"/><polygon fill="#E5DBDE" points="505.646,367.473 494.562,372.432 494.578,386.881 505.678,381.859"/><polygon fill="#DC5A38" points="475.745,364.637 485.995,356.846 497.786,361.714 494.546,372.439"/><polygon fill="#C14F34" points="505.661,367.473 497.786,361.714 494.578,372.432"/><polygon fill="#A9C7F7" points="488.757,378.785 491.757,380.222 491.757,376.181 488.757,374.91"/><polygon fill="#A9C7F7" points="477.799,373.785 480.799,375.222 480.799,371.181 477.799,369.91"/><polygon opacity=".1" points="402.116,439.968 416.459,446.064 429.335,440.272 414.802,434.235"/><polygon fill="#A55E28" points="411.141,440.89 416.327,443.317 416.327,433.935 413.203,432.015"/><polygon fill="#914A16" points="416.327,443.317 421.266,440.827 419.641,433.14 416.327,434.454"/><polygon fill="#BBD260" points="416.388,435.588 404.891,430.64 416.388,402.388"/><polygon fill="#99AF41" points="416.347,435.588 427.641,430.702 416.347,402.388"/><polygon opacity=".1" points="554.513,390.797 527.946,403.322 506.352,394.09 532.682,382.092"/><polygon fill="#fff" points="514.807,394.568 514.807,380.297 527.91,385.729 527.91,400.217"/><polygon fill="#E5DBDE" points="544.724,378.219 527.91,385.74 527.91,400.217 544.724,392.459"/><polygon fill="#DC5A38" points="514.807,380.318 523.557,374.174 527.911,385.734"/><polygon fill="#8A6D56" points="535.009,396.941 532.009,398.236 532.009,390.982 535.009,389.629"/><polyline fill="#C14F34" points="527.911,385.734 544.724,378.213 535.704,368.643 523.557,374.174 527.911,385.734"/><polygon opacity=".1" points="587.633,373.839 561.066,386.364 539.472,377.132 565.802,365.134"/><polygon fill="#fff" points="547.927,377.61 547.927,363.339 561.03,368.771 561.03,383.259"/><polygon fill="#E5DBDE" points="577.844,361.261 561.03,368.782 561.03,383.259 577.844,375.501"/><polygon fill="#DC5A38" points="547.927,363.36 556.677,357.216 561.031,368.776"/><polygon fill="#8A6D56" points="568.129,379.983 565.129,381.278 565.129,374.024 568.129,372.671"/><polyline fill="#C14F34" points="561.031,368.776 577.844,361.255 568.824,351.685 556.677,357.216 561.031,368.776"/><polygon opacity=".1" points="524.392,373.303 543.396,364.415 520.133,354.953 501.204,363.859"/><polygon fill="#91BE68" points="524.41,368.687 538.91,361.905 521.16,354.687 506.719,361.481"/><polygon fill="#548628" points="506.719,363.108 506.719,364.44 524.47,371.673 524.469,368.7 506.719,361.481"/><path fill="#A4B5B7" d="M506.719 362.481"/><polygon fill="#4B722E" points="524.47,371.673 538.911,364.823 538.911,361.864 524.47,368.659"/><polygon fill="#706D6E" points="511.522,360.804 524.47,366.078 524.469,354.106 511.534,348.846"/><path fill="#A4B5B7" d="M506.719 356.888"/><polygon fill="#5C5858" points="524.47,366.078 535.026,361.079 535.026,349.163 524.47,354.065"/><polygon fill="#CDCDCC" points="524.439,354.114 535.026,349.163 522.065,343.894 511.522,348.854"/><polygon fill="#706D6E" points="514.908,348.31 524.39,352.173 524.39,331.405 514.917,327.553"/><path fill="#A4B5B7" d="M511.391 345.442"/><polygon fill="#5C5858" points="524.39,352.173 532.12,348.513 532.12,327.786 524.39,331.375"/><polygon fill="#4385F5" points="524.368,331.412 532.12,327.786 522.629,323.927 514.908,327.56"/><polygon opacity=".1" points="493.515,305.361 507.857,311.458 520.733,305.666 506.2,299.629"/><polygon fill="#A55E28" points="502.539,306.283 507.726,308.711 507.726,299.328 504.602,297.408"/><polygon fill="#914A16" points="507.726,308.711 512.664,306.221 511.039,298.533 507.726,299.848"/><polygon fill="#BBD260" points="507.786,300.981 496.289,296.033 507.786,267.781"/><polygon fill="#99AF41" points="507.745,300.981 519.039,296.096 507.745,267.781"/><polygon fill="#3D474D" points="478.45,312.434 478.45,319.264 471.082,321.449 471.082,314.354"/></svg>