<svg xmlns="http://www.w3.org/2000/svg" xmlns:xlink="http://www.w3.org/1999/xlink" width="819" height="508"><path fill="#6E9C44" d="M390.85 465v-181.613s38.338-3.043 47.172-23.637c0 0 3.834-8.126-3.5-16.797l19.671-9.188 29.7 30.956 129.589 90.199 7.31 17.099-52.894 30.101-17.98.382-159.068 62.498z"/><polygon fill="#34562A" points="621.137,385.982 621.137,372.019 567.897,402.119 567.897,416.275"/><polygon fill="#34562A" points="549.917,402.501 549.917,416.275 390.85,479.723 390.85,465"/><polygon fill="#2F4C25" points="549.917,402.501 567.897,402.119 567.897,416.275 549.917,416.275"/><defs><path id="a" d="M390.85 465v-181.613s38.338-3.043 47.172-23.637c0 0 3.834-8.126-3.5-16.797l19.671-9.188 29.7 30.956 129.589 90.199 7.31 17.099-52.894 30.101-17.98.382-159.068 62.498z"/></defs><clipPath id="b"><use xlink:href="#a" overflow="visible"/></clipPath><g opacity=".02" clip-path="url(#b)"><defs><polygon id="c" opacity=".02" points="76.235,426.574 10.699,292.314 274.363,87.656 300.363,74.311 530.492,57 785.75,184.102 829,259.242 577.897,402.119 559.696,402.119 375.696,475.613 301.696,493.844"/></defs><clipPath id="d"><use xlink:href="#c" overflow="visible"/></clipPath><g clip-path="url(#d)" stroke="#000" stroke-linejoin="bevel" stroke-miterlimit="10" fill="none"><line x1="-895.405" y1="22.525" x2="263.897" y2="495"/><line x1="-849.227" y1="22.525" x2="310.075" y2="495"/><line x1="-803.048" y1="22.525" x2="356.253" y2="495"/><line x1="-756.87" y1="22.525" x2="402.432" y2="495"/><line x1="-710.692" y1="22.525" x2="448.609" y2="495"/><line x1="-664.514" y1="22.525" x2="494.787" y2="495"/><line x1="-618.335" y1="22.525" x2="540.965" y2="495"/><line x1="-572.157" y1="22.525" x2="587.143" y2="495"/><line x1="-525.979" y1="22.525" x2="633.32" y2="495"/><line x1="-479.801" y1="22.525" x2="679.498" y2="495"/><line x1="-433.623" y1="22.525" x2="725.676" y2="495"/><line x1="-387.444" y1="22.525" x2="771.854" y2="495"/><line x1="-341.266" y1="22.525" x2="818.031" y2="495"/><line x1="-295.088" y1="22.525" x2="864.209" y2="495"/><line x1="-248.91" y1="22.525" x2="910.387" y2="495"/><line x1="-202.731" y1="22.525" x2="956.564" y2="495"/><line x1="-156.553" y1="22.525" x2="1002.742" y2="495"/><line x1="-110.375" y1="22.525" x2="1048.92" y2="495"/><line x1="-64.197" y1="22.525" x2="1095.098" y2="495"/><line x1="-18.019" y1="22.525" x2="1141.275" y2="495"/><line x1="28.16" y1="22.525" x2="1187.453" y2="495"/><line x1="74.338" y1="22.525" x2="1233.631" y2="495"/><line x1="120.516" y1="22.525" x2="1279.809" y2="495"/><line x1="166.694" y1="22.525" x2="1325.986" y2="495"/><line x1="212.873" y1="22.525" x2="1372.164" y2="495"/><line x1="259.051" y1="22.525" x2="1418.342" y2="495"/><line x1="305.229" y1="22.525" x2="1464.52" y2="495"/><line x1="351.407" y1="22.525" x2="1510.697" y2="495"/><line x1="397.585" y1="22.525" x2="1556.875" y2="495"/><line x1="443.764" y1="22.525" x2="1603.053" y2="495"/><line x1="351.407" y1="23.005" x2="-655.94" y2="495.479"/><line x1="397.585" y1="23.005" x2="-609.762" y2="495.479"/><line x1="443.764" y1="23.005" x2="-563.584" y2="495.479"/><line x1="489.941" y1="23.005" x2="-517.406" y2="495.479"/><line x1="536.119" y1="23.005" x2="-471.228" y2="495.479"/><line x1="582.297" y1="23.005" x2="-425.049" y2="495.479"/><line x1="628.475" y1="23.005" x2="-378.871" y2="495.479"/><line x1="674.652" y1="23.005" x2="-332.693" y2="495.479"/><line x1="720.83" y1="23.005" x2="-286.515" y2="495.479"/><line x1="767.008" y1="23.005" x2="-240.336" y2="495.479"/><line x1="813.186" y1="23.005" x2="-194.158" y2="495.479"/><line x1="859.363" y1="23.005" x2="-147.98" y2="495.479"/><line x1="905.541" y1="23.005" x2="-101.802" y2="495.479"/><line x1="951.719" y1="23.005" x2="-55.624" y2="495.479"/><line x1="997.896" y1="23.005" x2="-9.445" y2="495.479"/><line x1="1044.074" y1="23.005" x2="36.733" y2="495.479"/><line x1="1090.252" y1="23.005" x2="82.911" y2="495.479"/><line x1="1136.43" y1="23.005" x2="129.089" y2="495.479"/><line x1="1182.607" y1="23.005" x2="175.268" y2="495.479"/><line x1="1228.785" y1="23.005" x2="221.446" y2="495.479"/><line x1="1274.963" y1="23.005" x2="267.624" y2="495.479"/><line x1="1321.141" y1="23.005" x2="313.802" y2="495.479"/><line x1="1367.318" y1="23.005" x2="359.98" y2="495.479"/></g></g><polygon opacity=".1" points="516.609,344.429 490.043,356.954 468.448,347.722 494.778,335.724"/><polygon fill="#fff" points="476.903,348.2 476.903,333.929 490.007,339.36 490.007,353.849"/><polygon fill="#E5DBDE" points="506.82,331.851 490.007,339.372 490.007,353.849 506.82,346.091"/><polygon fill="#DC5A38" points="476.903,333.95 485.653,327.806 490.008,339.366"/><polygon fill="#8A6D56" points="497.105,350.573 494.105,351.868 494.105,344.614 497.105,343.261"/><polyline fill="#C14F34" points="490.008,339.366 506.82,331.845 497.801,322.274 485.653,327.806 490.008,339.366"/><polygon opacity=".1" points="535.327,357.757 541.986,360.589 547.965,357.899 541.217,355.095"/><polygon fill="#A65C26" points="539.079,358.159 542.021,359.427 542.021,352.583 540.017,352.583"/><polygon fill="#8F4A1B" points="542.021,359.427 544.726,358.019 543.892,353.165 542.021,352.999"/><polygon fill="#578034" points="542.081,355.698 536.077,353.106 542.081,340.54"/><polygon fill="#4F6E32" points="542.041,355.698 547.41,353.38 542.041,340.54"/><polygon opacity=".1" points="453.922,369.16 462.328,372.733 469.875,369.339 461.357,365.801"/><polygon fill="#A65C26" points="459.354,369.305 462.296,370.572 462.296,359.751 460.825,359.85"/><polygon fill="#8F4A1B" points="462.296,370.572 465.001,369.164 463.648,359.225 462.296,360.59"/><polygon fill="#578034" points="462.356,361.843 456.352,359.252 462.356,327.422"/><polygon fill="#4F6E32" points="462.316,361.843 467.686,359.525 462.316,327.422"/><polygon opacity=".1" points="459.294,378.964 473.637,385.061 486.513,379.269 471.979,373.231"/><polygon fill="#A55E28" points="468.318,379.886 473.505,382.313 473.505,372.931 470.381,371.011"/><polygon fill="#914A16" points="473.505,382.313 478.443,379.823 476.818,372.136 473.505,373.45"/><polygon fill="#BBD260" points="473.565,374.584 462.068,369.636 473.565,341.384"/><polygon fill="#99AF41" points="473.524,374.584 484.818,369.698 473.524,341.384"/><polygon opacity=".1" points="524.392,373.303 543.396,364.415 520.133,354.953 501.204,363.859"/><polygon fill="#91BE68" points="524.41,368.687 538.91,361.905 521.16,354.687 506.719,361.481"/><polygon fill="#548628" points="506.719,363.108 506.719,364.44 524.47,371.673 524.469,368.7 506.719,361.481"/><path fill="#A4B5B7" d="M506.719 362.481"/><polygon fill="#4B722E" points="524.47,371.673 538.911,364.823 538.911,361.864 524.47,368.659"/><path fill="#A4B5B7" d="M506.719 356.888"/><path fill="#A4B5B7" d="M511.391 345.442"/><polygon opacity=".1" points="523.243,338.508 531.649,342.082 539.196,338.688 530.679,335.148"/><polygon fill="#A65C26" points="528.676,338.652 531.617,339.92 531.617,329.1 530.146,329.197"/><polygon fill="#8F4A1B" points="531.617,339.92 534.322,338.512 532.97,328.572 531.617,329.938"/><polygon fill="#578034" points="531.678,331.191 525.673,328.6 531.678,296.77"/><polygon fill="#4F6E32" points="531.638,331.191 537.007,328.874 531.638,296.77"/><polygon opacity=".1" points="515.215,342.948 521.874,345.78 527.853,343.091 521.104,340.286"/><polygon fill="#A65C26" points="518.967,343.351 521.908,344.618 521.908,337.774 519.904,337.774"/><polygon fill="#8F4A1B" points="521.908,344.618 524.613,343.21 523.779,338.356 521.908,338.19"/><polygon fill="#578034" points="521.969,340.89 515.965,338.298 521.969,325.731"/><polygon fill="#4F6E32" points="521.929,340.89 527.298,338.571 521.929,325.731"/></svg>