<svg xmlns="http://www.w3.org/2000/svg" xmlns:xlink="http://www.w3.org/1999/xlink" width="819" height="508"><path fill="#6E9C44" d="M390.85 465v-181.613s38.338-3.043 47.172-23.637c0 0 3.834-8.126-3.5-16.797l19.671-9.188 29.7 30.956 129.589 90.199 7.31 17.099-52.894 30.101-17.98.382-159.068 62.498z"/><polygon fill="#34562A" points="621.137,385.982 621.137,372.019 567.897,402.119 567.897,416.275"/><polygon fill="#34562A" points="549.917,402.501 549.917,416.275 390.85,479.723 390.85,465"/><polygon fill="#2F4C25" points="549.917,402.501 567.897,402.119 567.897,416.275 549.917,416.275"/><defs><path id="a" d="M390.85 465v-181.613s38.338-3.043 47.172-23.637c0 0 3.834-8.126-3.5-16.797l19.671-9.188 29.7 30.956 129.589 90.199 7.31 17.099-52.894 30.101-17.98.382-159.068 62.498z"/></defs><clipPath id="b"><use xlink:href="#a" overflow="visible"/></clipPath><g opacity=".02" clip-path="url(#b)"><defs><polygon id="c" opacity=".02" points="76.235,426.574 10.699,292.314 274.363,87.656 300.363,74.311 530.492,57 785.75,184.102 829,259.242 577.897,402.119 559.696,402.119 375.696,475.613 301.696,493.844"/></defs><clipPath id="d"><use xlink:href="#c" overflow="visible"/></clipPath><g clip-path="url(#d)" stroke="#000" stroke-linejoin="bevel" stroke-miterlimit="10" fill="none"><line x1="-895.405" y1="22.525" x2="263.897" y2="495"/><line x1="-849.227" y1="22.525" x2="310.075" y2="495"/><line x1="-803.048" y1="22.525" x2="356.253" y2="495"/><line x1="-756.87" y1="22.525" x2="402.432" y2="495"/><line x1="-710.692" y1="22.525" x2="448.609" y2="495"/><line x1="-664.514" y1="22.525" x2="494.787" y2="495"/><line x1="-618.335" y1="22.525" x2="540.965" y2="495"/><line x1="-572.157" y1="22.525" x2="587.143" y2="495"/><line x1="-525.979" y1="22.525" x2="633.32" y2="495"/><line x1="-479.801" y1="22.525" x2="679.498" y2="495"/><line x1="-433.623" y1="22.525" x2="725.676" y2="495"/><line x1="-387.444" y1="22.525" x2="771.854" y2="495"/><line x1="-341.266" y1="22.525" x2="818.031" y2="495"/><line x1="-295.088" y1="22.525" x2="864.209" y2="495"/><line x1="-248.91" y1="22.525" x2="910.387" y2="495"/><line x1="-202.731" y1="22.525" x2="956.564" y2="495"/><line x1="-156.553" y1="22.525" x2="1002.742" y2="495"/><line x1="-110.375" y1="22.525" x2="1048.92" y2="495"/><line x1="-64.197" y1="22.525" x2="1095.098" y2="495"/><line x1="-18.019" y1="22.525" x2="1141.275" y2="495"/><line x1="28.16" y1="22.525" x2="1187.453" y2="495"/><line x1="74.338" y1="22.525" x2="1233.631" y2="495"/><line x1="120.516" y1="22.525" x2="1279.809" y2="495"/><line x1="166.694" y1="22.525" x2="1325.986" y2="495"/><line x1="212.873" y1="22.525" x2="1372.164" y2="495"/><line x1="259.051" y1="22.525" x2="1418.342" y2="495"/><line x1="305.229" y1="22.525" x2="1464.52" y2="495"/><line x1="351.407" y1="22.525" x2="1510.697" y2="495"/><line x1="397.585" y1="22.525" x2="1556.875" y2="495"/><line x1="443.764" y1="22.525" x2="1603.053" y2="495"/><line x1="351.407" y1="23.005" x2="-655.94" y2="495.479"/><line x1="397.585" y1="23.005" x2="-609.762" y2="495.479"/><line x1="443.764" y1="23.005" x2="-563.584" y2="495.479"/><line x1="489.941" y1="23.005" x2="-517.406" y2="495.479"/><line x1="536.119" y1="23.005" x2="-471.228" y2="495.479"/><line x1="582.297" y1="23.005" x2="-425.049" y2="495.479"/><line x1="628.475" y1="23.005" x2="-378.871" y2="495.479"/><line x1="674.652" y1="23.005" x2="-332.693" y2="495.479"/><line x1="720.83" y1="23.005" x2="-286.515" y2="495.479"/><line x1="767.008" y1="23.005" x2="-240.336" y2="495.479"/><line x1="813.186" y1="23.005" x2="-194.158" y2="495.479"/><line x1="859.363" y1="23.005" x2="-147.98" y2="495.479"/><line x1="905.541" y1="23.005" x2="-101.802" y2="495.479"/><line x1="951.719" y1="23.005" x2="-55.624" y2="495.479"/><line x1="997.896" y1="23.005" x2="-9.445" y2="495.479"/><line x1="1044.074" y1="23.005" x2="36.733" y2="495.479"/><line x1="1090.252" y1="23.005" x2="82.911" y2="495.479"/><line x1="1136.43" y1="23.005" x2="129.089" y2="495.479"/><line x1="1182.607" y1="23.005" x2="175.268" y2="495.479"/><line x1="1228.785" y1="23.005" x2="221.446" y2="495.479"/><line x1="1274.963" y1="23.005" x2="267.624" y2="495.479"/><line x1="1321.141" y1="23.005" x2="313.802" y2="495.479"/><line x1="1367.318" y1="23.005" x2="359.98" y2="495.479"/></g></g><polygon opacity=".1" points="449.359,332.134 445.246,327.851 407.384,323.567 400.017,309.86 413.209,288.786 470.262,280.392 492.706,295.982 481.57,323.739"/><polygon fill="#A3BE5F" points="449.294,320.032 445.572,316.155 411.297,312.278 404.629,299.872 416.569,280.796 468.215,273.196 488.529,287.31 478.45,312.434"/><polygon fill="#F1E0A6" points="488.529,294.404 478.45,319.528 449.294,327.128 445.572,323.251 411.297,319.373 404.629,306.967 404.629,302.353 411.297,314.76 445.572,318.637 449.294,322.515 478.45,314.915 488.529,289.79"/><polygon fill="#969F5A" points="404.629,302.353 411.297,314.76 445.572,318.637 449.294,322.515 478.45,314.915 488.529,289.79 488.529,287.31 478.45,312.434 449.294,320.032 445.572,316.155 411.297,312.278 404.629,299.872"/><polygon fill="#747E42" points="411.297,314.76 411.297,312.278 445.572,316.155 445.572,318.637"/><polygon fill="#747E42" points="449.294,320.032 449.294,322.515 478.45,314.915 478.45,312.434"/><polygon fill="#D7CA93" points="411.297,314.76 411.297,319.373 445.572,323.251 445.572,318.637"/><polygon fill="#D7CA93" points="449.294,327.128 449.294,322.515 478.45,314.915 478.45,319.528"/><polyline fill="#485157" points="504.688,335.284 610.231,378.735 617.216,374.761 503.952,329.463"/><polygon opacity=".1" points="410.946,398.744 448.24,414.6 481.72,399.539 443.93,383.842"/><polygon fill="#E0C977" points="416.135,393.299 447.917,406.408 475.192,394.148 443.265,381.055"/><polygon fill="#C2AA5C" points="423.726,392.908 424.563,393.254 425.283,392.932 424.439,392.586"/><polygon fill="#F7DE8B" points="447.917,412.863 416.107,399.27 416.107,393.254 447.917,406.339"/><polygon fill="#C2AA5C" points="475.166,394.104 447.89,406.363 447.89,412.889 475.166,400.457"/><g fill="#E0C977"><polygon points="451.856,411.077 453.191,410.468 453.191,403.975 451.856,404.571"/><polygon points="466.507,404.4 467.843,403.791 467.843,397.38 466.507,397.977"/><polygon points="456.008,409.225 456.676,408.884 456.676,402.42 456.008,402.719"/><polygon points="459.145,407.803 459.812,407.463 459.812,400.998 459.145,401.297"/><polygon points="460.211,407.289 460.877,406.949 460.877,400.484 460.211,400.783"/><polygon points="473.585,401.235 474.252,400.895 474.252,394.533 473.585,394.832"/><polygon points="468.632,403.495 469.3,403.155 469.3,396.793 468.632,397.092"/></g><g fill="#E0C977"><polygon points="441.946,410.273 440.611,409.665 440.611,403.172 441.946,403.769"/><polygon points="427.296,403.902 425.96,403.293 425.96,397.38 427.296,397.977"/><polygon points="437.796,408.422 437.129,408.081 437.129,401.906 437.796,402.205"/><polygon points="434.66,407.17 433.991,406.83 433.991,400.641 434.66,400.939"/><polygon points="433.594,406.656 432.926,406.316 432.926,400.195 433.594,400.494"/><polygon points="420.22,400.998 419.552,400.658 419.552,394.719 420.22,395.018"/><polygon points="425.172,403.033 424.504,402.693 424.504,396.645 425.172,396.943"/></g><polygon fill="#C2AA5C" points="429.342,394.708 430.181,395.054 430.899,394.73 430.058,394.385"/><polygon fill="#C2AA5C" points="432.926,391.058 433.765,391.403 434.482,391.08 433.642,390.734"/><polygon fill="#C2AA5C" points="443.023,384.275 443.861,384.621 444.581,384.297 443.738,383.951"/><polygon fill="#C2AA5C" points="458.177,391.85 459.015,392.195 459.734,391.871 458.893,391.525"/><polygon fill="#C2AA5C" points="452.415,394.059 453.236,394.44 453.971,394.148 453.144,393.767"/><polygon fill="#C2AA5C" points="450.395,391.393 451.234,391.738 451.952,391.414 451.11,391.068"/><polygon fill="#C2AA5C" points="442.245,389.418 443.083,389.764 443.803,389.439 442.961,389.094"/><polygon fill="#C2AA5C" points="442.245,395.043 443.083,395.389 443.803,395.064 442.961,394.719"/><polygon fill="#C2AA5C" points="452.414,396.961 453.251,397.306 453.972,396.982 453.129,396.637"/><polygon fill="#C2AA5C" points="443.803,401.225 444.641,401.569 445.36,401.246 444.519,400.9"/><polygon fill="#C2AA5C" points="446.332,392.908 447.17,393.254 447.89,392.932 447.048,392.586"/><polygon fill="#C2AA5C" points="466.396,394.092 467.235,394.438 467.953,394.114 467.112,393.77"/><polygon fill="#C2AA5C" points="461.956,395.043 462.793,395.389 463.514,395.064 462.67,394.719"/><polygon fill="#C2AA5C" points="450.395,386.969 451.234,387.314 451.952,386.991 451.11,386.646"/><polygon fill="#C2AA5C" points="437.796,387.304 438.634,387.648 439.354,387.326 438.511,386.98"/><polygon fill="#C2AA5C" points="437.796,396.961 438.634,397.306 439.354,396.982 438.511,396.637"/><polygon opacity=".1" points="516.609,343.429 490.043,355.954 468.448,346.722 494.778,334.724"/><polygon fill="#fff" points="476.903,347.2 476.903,332.929 490.007,338.36 490.007,352.849"/><polygon fill="#E5DBDE" points="506.82,330.851 490.007,338.372 490.007,352.849 506.82,345.091"/><polygon fill="#DC5A38" points="476.903,332.95 485.653,326.806 490.008,338.366"/><polygon fill="#8A6D56" points="497.105,349.573 494.105,350.868 494.105,343.614 497.105,342.261"/><polyline fill="#C14F34" points="490.008,338.366 506.82,330.845 497.801,321.274 485.653,326.806 490.008,338.366"/><polygon opacity=".1" points="532.377,382.439 539.036,385.271 545.015,382.582 538.267,379.777"/><polygon fill="#A65C26" points="536.129,382.842 539.07,384.109 539.07,377.266 537.066,377.266"/><polygon fill="#8F4A1B" points="539.07,384.109 541.775,382.701 540.941,377.848 539.07,377.682"/><polygon fill="#578034" points="539.131,380.381 533.127,377.789 539.131,365.223"/><polygon fill="#4F6E32" points="539.091,380.381 544.46,378.062 539.091,365.223"/><polygon opacity=".1" points="453.922,369.16 462.328,372.733 469.875,369.339 461.357,365.801"/><polygon fill="#A65C26" points="459.354,369.305 462.296,370.572 462.296,359.751 460.825,359.85"/><polygon fill="#8F4A1B" points="462.296,370.572 465.001,369.164 463.648,359.225 462.296,360.59"/><polygon fill="#578034" points="462.356,361.843 456.352,359.252 462.356,327.422"/><polygon fill="#4F6E32" points="462.316,361.843 467.686,359.525 462.316,327.422"/><polygon opacity=".1" points="469.163,378.229 494.56,388.84 514.674,379.723 489.549,369.291"/><polygon fill="#fff" points="475.745,378.84 475.745,364.643 494.578,372.432 494.578,386.881"/><polygon fill="#E5DBDE" points="505.646,367.473 494.562,372.432 494.578,386.881 505.678,381.859"/><polygon fill="#DC5A38" points="475.745,364.637 485.995,356.846 497.786,361.714 494.546,372.439"/><polygon fill="#C14F34" points="505.661,367.473 497.786,361.714 494.578,372.432"/><polygon fill="#A9C7F7" points="488.757,378.785 491.757,380.222 491.757,376.181 488.757,374.91"/><polygon fill="#A9C7F7" points="477.799,373.785 480.799,375.222 480.799,371.181 477.799,369.91"/><polygon opacity=".1" points="422.116,428.968 436.459,435.064 449.335,429.272 434.802,423.235"/><polygon fill="#A55E28" points="431.141,429.89 436.327,432.317 436.327,422.935 433.203,421.015"/><polygon fill="#914A16" points="436.327,432.317 441.266,429.827 439.641,422.14 436.327,423.454"/><polygon fill="#BBD260" points="436.388,424.588 424.891,419.64 436.388,391.388"/><polygon fill="#99AF41" points="436.347,424.588 447.641,419.702 436.347,391.388"/><polygon opacity=".1" points="587.633,373.839 561.066,386.364 539.472,377.132 565.802,365.134"/><polygon fill="#fff" points="547.927,377.61 547.927,363.339 561.03,368.771 561.03,383.259"/><polygon fill="#E5DBDE" points="577.844,361.261 561.03,368.782 561.03,383.259 577.844,375.501"/><polygon fill="#DC5A38" points="547.927,363.36 556.677,357.216 561.031,368.776"/><polygon fill="#8A6D56" points="568.129,379.983 565.129,381.278 565.129,374.024 568.129,372.671"/><polyline fill="#C14F34" points="561.031,368.776 577.844,361.255 568.824,351.685 556.677,357.216 561.031,368.776"/><polygon opacity=".1" points="524.392,373.303 543.396,364.415 520.133,354.953 501.204,363.859"/><polygon fill="#91BE68" points="524.41,368.687 538.91,361.905 521.16,354.687 506.719,361.481"/><polygon fill="#548628" points="506.719,363.108 506.719,364.44 524.47,371.673 524.469,368.7 506.719,361.481"/><path fill="#A4B5B7" d="M506.719 362.481"/><polygon fill="#4B722E" points="524.47,371.673 538.911,364.823 538.911,361.864 524.47,368.659"/><polygon fill="#706D6E" points="511.522,360.804 524.47,366.078 524.469,354.106 511.534,348.846"/><path fill="#A4B5B7" d="M506.719 356.888"/><polygon fill="#5C5858" points="524.47,366.078 535.026,361.079 535.026,349.163 524.47,354.065"/><polygon fill="#CDCDCC" points="524.439,354.114 535.026,349.163 522.065,343.894 511.522,348.854"/><path fill="#A4B5B7" d="M511.391 345.442"/><polygon opacity=".1" points="480.111,285.548 448.384,300.507 422.595,289.48 454.039,275.152"/><polygon fill="#86D5EA" points="481.801,296.904 468.072,303.377 456.914,298.606 470.52,292.406"/><polygon fill="#fff" points="432.692,290.052 432.692,273.009 448.341,279.496 448.341,296.799"/><polygon fill="#E5DBDE" points="468.421,270.526 448.341,279.508 448.341,296.799 468.421,287.533"/><polygon fill="#DC5A38" points="432.692,273.033 443.142,265.696 448.342,279.502"/><polygon fill="#8A6D56" points="456.818,292.887 453.236,294.434 453.236,285.77 456.818,284.152"/><polyline fill="#C14F34" points="448.342,279.502 468.421,270.52 457.649,259.092 443.142,265.696 448.342,279.502"/><polygon opacity=".1" points="425.151,298.582 433.558,302.156 441.104,298.762 432.587,295.223"/><polygon fill="#A65C26" points="430.584,298.727 433.525,299.994 433.525,289.174 432.055,289.271"/><polygon fill="#8F4A1B" points="433.525,299.994 436.23,298.586 434.878,288.646 433.525,290.012"/><polygon fill="#578034" points="433.586,291.266 427.581,288.674 433.586,256.844"/><polygon fill="#4F6E32" points="433.546,291.266 438.915,288.948 433.546,256.844"/><polygon opacity=".1" points="417.123,303.022 423.782,305.854 429.761,303.165 423.013,300.36"/><polygon fill="#A65C26" points="420.875,303.425 423.816,304.692 423.816,297.849 421.812,297.849"/><polygon fill="#8F4A1B" points="423.816,304.692 426.521,303.284 425.688,298.431 423.816,298.265"/><polygon fill="#578034" points="423.877,300.964 417.873,298.372 423.877,285.806"/><polygon fill="#4F6E32" points="423.837,300.964 429.206,298.646 423.837,285.806"/><polygon opacity=".1" points="434.96,309.553 441.619,312.385 447.598,309.695 440.85,306.891"/><polygon fill="#A65C26" points="438.712,309.955 441.653,311.223 441.653,304.379 439.649,304.379"/><polygon fill="#8F4A1B" points="441.653,311.223 444.358,309.814 443.524,304.961 441.653,304.795"/><polygon fill="#578034" points="441.714,307.494 435.71,304.902 441.714,292.336"/><polygon fill="#4F6E32" points="441.674,307.494 447.043,305.176 441.674,292.336"/></svg>