<svg xmlns="http://www.w3.org/2000/svg" width="35" height="43"><path fill-rule="evenodd" clip-rule="evenodd" fill="#fff" d="M17.5 0c9.665 0 17.5 8.021 17.5 17.917 0 9.895-17.5 25.083-17.5 25.083s-17.5-15.188-17.5-25.083c0-9.896 7.835-17.917 17.5-17.917z"/><path fill-rule="evenodd" clip-rule="evenodd" fill="#FCCD44" d="M25.603 19.318v-2.432l-2.27-.242-.647-1.702 1.377-1.702-1.701-1.701-1.702 1.378-1.701-.648-.244-2.269h-2.431l-.243 2.269-1.701.648-1.702-1.378-1.701 1.701 1.378 1.702-.648 1.702-2.269.242v2.432l2.269.242.648 1.621-1.378 1.782 1.701 1.702 1.702-1.378 1.701.647.243 2.27h2.431l.243-2.27 1.701-.647 1.702 1.378 1.701-1.702-1.377-1.782.647-1.621 2.271-.242zm-8.104.709c-1.063 0-1.925-.862-1.925-1.926 0-1.062.861-1.926 1.925-1.926s1.926.863 1.926 1.926c0 1.064-.863 1.926-1.926 1.926z"/></svg>