<svg xmlns="http://www.w3.org/2000/svg" width="35" height="43"><path fill-rule="evenodd" clip-rule="evenodd" fill="#fff" d="M17.5 0c9.665 0 17.5 8.021 17.5 17.917 0 9.895-17.5 25.083-17.5 25.083s-17.5-15.188-17.5-25.083c0-9.896 7.835-17.917 17.5-17.917z"/><g fill-rule="evenodd" clip-rule="evenodd" fill="#557DBF"><path d="M22.079 17.988c-.774-1.759-2.533-2.988-4.579-2.988-2.762 0-5 2.238-5 5s2.238 5 5 5 5-2.238 5-5c0-.715-.15-1.396-.421-2.012z"/><polygon points="17.5,10 21.829,17.497 13.171,17.497"/></g></svg>