<svg xmlns="http://www.w3.org/2000/svg" width="35" height="43"><path fill-rule="evenodd" clip-rule="evenodd" fill="#fff" d="M17.5 0c9.665 0 17.5 8.021 17.5 17.917 0 9.895-17.5 25.083-17.5 25.083s-17.5-15.188-17.5-25.083c0-9.896 7.835-17.917 17.5-17.917z"/><path fill-rule="evenodd" clip-rule="evenodd" fill="#DC4436" d="M17.499 19.062c-3.59 0-6.5 2.238-6.5 5h13c0-2.761-2.91-5-6.5-5zm0-1c1.934 0 3.5-1.566 3.5-3.5 0-1.933-1.566-3.5-3.5-3.5-1.933 0-3.5 1.567-3.5 3.5 0 1.934 1.567 3.5 3.5 3.5z"/></svg>