<svg xmlns="http://www.w3.org/2000/svg" width="35" height="43"><path fill-rule="evenodd" clip-rule="evenodd" fill="#fff" d="M17.5 0c9.665 0 17.5 8.021 17.5 17.917 0 9.895-17.5 25.083-17.5 25.083s-17.5-15.188-17.5-25.083c0-9.896 7.835-17.917 17.5-17.917z"/><g fill-rule="evenodd" clip-rule="evenodd" fill="#DC4436"><polygon points="10.074,37.062 10.074,37.062 9.949,37.062 9.949,37.062 9.949,37.062 9.949,37.062 10.074,37.062 10.074,37.062"/><path d="M23.26 21.112l3.86-3.86c.351-.351.366-.905.034-1.237l-5.868-5.868c-.332-.332-.887-.316-1.237.035l-10.692 10.691c-.351.351-.367.905-.035 1.237l5.868 5.869c.332.332.886.316 1.237-.035l.791-.791-1.03-1.029-.398.398-5.061-5.061 9.768-9.768 5.061 5.06-3.328 3.328 1.03 1.031zm-6.789 5.478l1.354 1.354c.353.352.906.367 1.238.035l5.868-5.868c.331-.332.316-.886-.034-1.237l-1.356-1.357-1.029-1.029-1.236-1.236c-.352-.35-.905-.366-1.236-.034l-5.868 5.869c-.333.332-.317.887.034 1.238l2.265 2.265m7.002-5.08l-5.059 5.061-2.697-2.695 5.06-5.061 2.696 2.695zm-5.739-8.021l-3.057-3.057c-.352-.351-.905-.366-1.237-.034l-5.868 5.868c-.332.332-.316.887.034 1.237l3.06 3.06m.001 0l.98-.98 5.058-5.063-5.058 5.063-2.528-2.528 5.061-5.061 2.525 2.525"/></g></svg>