<svg xmlns="http://www.w3.org/2000/svg" width="35" height="43"><path fill-rule="evenodd" clip-rule="evenodd" fill="#fff" d="M17.5 0c9.665 0 17.5 8.021 17.5 17.917 0 9.895-17.5 25.083-17.5 25.083s-17.5-15.188-17.5-25.083c0-9.896 7.835-17.917 17.5-17.917z"/><path d="M17.499 10.062c-4.458 0-8.071 3.614-8.071 8.071 0 4.458 3.614 8.071 8.071 8.071 4.458 0 8.071-3.613 8.071-8.071 0-4.457-3.613-8.071-8.071-8.071zm0 14.529c-3.566 0-6.457-2.891-6.457-6.457s2.891-6.457 6.457-6.457 6.457 2.891 6.457 6.457-2.891 6.457-6.457 6.457zm0-9.686c-1.783 0-3.229 1.445-3.229 3.229s1.445 3.229 3.229 3.229 3.229-1.445 3.229-3.229-1.446-3.229-3.229-3.229z" fill-rule="evenodd" clip-rule="evenodd" fill="#FCCD44"/></svg>