<svg xmlns="http://www.w3.org/2000/svg" width="35" height="43"><path fill-rule="evenodd" clip-rule="evenodd" fill="#fff" d="M17.5 0c9.665 0 17.5 8.021 17.5 17.917 0 9.895-17.5 25.083-17.5 25.083s-17.5-15.188-17.5-25.083c0-9.896 7.835-17.917 17.5-17.917z"/><path fill-rule="evenodd" clip-rule="evenodd" fill="#557DBF" d="M13 18h-1c-.552 0-1 .447-1 1v4c0 .553.448 1 1 1h1c.553 0 1-.447 1-1v-4c0-.553-.447-1-1-1zm5-4h-1c-.553 0-1 .447-1 1v8c0 .553.447 1 1 1h1c.553 0 1-.447 1-1v-8c0-.553-.447-1-1-1zm5-4h-1c-.553 0-1 .447-1 1v12c0 .553.447 1 1 1h1c.553 0 1-.447 1-1v-12c0-.553-.447-1-1-1z"/></svg>