<svg xmlns="http://www.w3.org/2000/svg" width="35" height="43"><path fill-rule="evenodd" clip-rule="evenodd" fill="#fff" d="M17.5 0c9.665 0 17.5 8.021 17.5 17.917 0 9.895-17.5 25.083-17.5 25.083s-17.5-15.188-17.5-25.083c0-9.896 7.835-17.917 17.5-17.917z"/><path fill-rule="evenodd" clip-rule="evenodd" fill="#DC4436" d="M21.5 9.062h-8c-.552 0-1 .448-1 1v16c0 .553.448 1 1 1h8c.553 0 1-.447 1-1v-16c0-.551-.447-1-1-1zm-7 2h2v4h-2v-4zm0 6h2v4h-2v-4zm6 8h-6v-2h6v2zm0-4h-2v-4h2v4zm0-6h-2v-4h2v4z"/></svg>